<svg width="43" height="30" viewBox="0 0 43 30" fill="none" xmlns="http://www.w3.org/2000/svg">
<path d="M36.4083 2.58278C33.5337 1.39073 30.6591 0.596027 27.5633 0C27.121 0.596027 26.6788 1.39073 26.4577 2.18543C23.1408 1.78808 19.8239 1.78808 16.507 2.18543C16.2859 1.5894 15.8437 0.596027 15.4014 0C12.3057 0.397351 9.20991 1.39073 6.5564 2.58278C1.02827 10.1324 -0.519606 17.6821 0.14377 25.0331C3.9029 27.6159 7.4409 29.0066 10.9789 30C11.8634 29.0066 12.7479 27.8146 13.4113 26.6225C12.0845 26.2252 10.9789 25.6291 9.65216 25.0331C9.87328 24.8344 10.3155 24.6358 10.5367 24.4371C17.6127 27.4172 25.352 27.4172 32.4281 24.4371C32.6492 24.6358 33.0914 24.8344 33.3126 25.0331C32.2069 25.6291 30.8802 26.2252 29.5534 26.6225C30.2168 27.8146 31.1013 29.0066 31.9858 30C35.5238 29.0066 39.0618 27.4172 42.8209 25.0331C43.7054 16.4901 41.2731 9.13907 36.4083 2.58278ZM14.2958 20.4636C12.0845 20.4636 10.3155 18.6755 10.3155 16.4901C10.3155 14.3046 12.0845 12.5166 14.2958 12.5166C16.507 12.5166 18.276 14.3046 18.276 16.4901C18.0549 18.6755 16.2859 20.4636 14.2958 20.4636ZM28.4478 20.4636C26.2366 20.4636 24.4675 18.6755 24.4675 16.4901C24.4675 14.3046 26.2366 12.5166 28.4478 12.5166C30.6591 12.5166 32.4281 14.3046 32.4281 16.4901C32.4281 18.6755 30.6591 20.4636 28.4478 20.4636Z" fill="url(#paint0_linear_56_84)"/>
<defs>
<linearGradient id="paint0_linear_56_84" x1="21.5" y1="0" x2="21.5" y2="30" gradientUnits="userSpaceOnUse">
<stop stop-color="#D51321"/>
<stop offset="1" stop-color="#850000"/>
</linearGradient>
</defs>
</svg>
