<svg width="38" height="30" viewBox="0 0 38 30" fill="none" xmlns="http://www.w3.org/2000/svg">
<path d="M4.5068 6.12C4.53008 5.89175 4.4989 5.66129 4.41576 5.44705C4.33262 5.23282 4.19983 5.04077 4.028 4.88625L0.4788 0.635625V0H11.495L20.0108 18.5719L27.4968 0H38V0.635625L34.9657 3.525C34.8371 3.62296 34.7379 3.75355 34.6787 3.90282C34.6195 4.05208 34.6024 4.21442 34.6294 4.3725V25.6237C34.6024 25.7818 34.6195 25.9442 34.6787 26.0934C34.7379 26.2427 34.8371 26.3733 34.9657 26.4712L37.9297 29.3625V30H23.0261V29.3644L26.0965 26.4019C26.3986 26.1019 26.3986 26.0137 26.3986 25.5562V8.3775L17.8638 29.9287H16.7124L6.7754 8.3775V22.8225C6.6937 23.4281 6.897 24.0412 7.3264 24.48L11.3183 29.295V29.9287H0V29.295L3.99 24.48C4.20111 24.2626 4.35779 23.9995 4.44753 23.7117C4.53726 23.4239 4.55756 23.1194 4.5068 22.8225V6.12Z" fill="url(#paint0_linear_216_138)"/>
<defs>
<linearGradient id="paint0_linear_216_138" x1="19" y1="0" x2="19" y2="30" gradientUnits="userSpaceOnUse">
<stop stop-color="#D51321"/>
<stop offset="1" stop-color="#850000"/>
</linearGradient>
</defs>
</svg>
