<svg width="26" height="30" viewBox="0 0 26 30" fill="none" xmlns="http://www.w3.org/2000/svg">
<path d="M22.763 6.4154C22.5605 6.31067 22.3634 6.19587 22.1723 6.07143C21.6173 5.70443 21.1083 5.27203 20.6565 4.78355C19.5246 3.48901 19.102 2.1758 18.9473 1.25722H18.9526C18.8233 0.493287 18.8766 0 18.886 0H13.7331V19.9221C13.7331 20.1888 13.7331 20.4541 13.7224 20.7154C13.7224 20.7474 13.7184 20.7767 13.7171 20.8127C13.7171 20.826 13.7171 20.842 13.7131 20.8567V20.8687C13.659 21.5833 13.4301 22.2737 13.0465 22.8791C12.6629 23.4845 12.1364 23.9863 11.5133 24.3404C10.8633 24.7102 10.128 24.9041 9.38017 24.903C6.98038 24.903 5.03389 22.9459 5.03389 20.5287C5.03389 18.1103 6.98038 16.1532 9.38017 16.1532C9.83479 16.1532 10.2867 16.2251 10.7187 16.3665L10.7254 11.119C9.41351 10.9497 8.08081 11.0543 6.81138 11.426C5.54196 11.7977 4.36338 12.4286 3.35004 13.2788C2.46193 14.0501 1.71524 14.9705 1.14358 15.9985C0.926262 16.3731 0.105003 17.881 0.00634521 20.3261C-0.0563158 21.7126 0.36098 23.1525 0.559629 23.7458V23.7591C0.683617 24.1084 1.16891 25.303 1.95817 26.3095C2.59464 27.1175 3.34664 27.8272 4.18997 28.416V28.4027L4.20197 28.416C6.69507 30.1092 9.46149 29.9985 9.46149 29.9985C9.94011 29.9785 11.544 29.9985 13.3651 29.1359C15.385 28.1787 16.5342 26.7535 16.5342 26.7535C17.2689 25.9017 17.8532 24.9311 18.262 23.8831C18.7287 22.6565 18.8833 21.1873 18.8833 20.6007V10.0297C18.946 10.0671 19.7792 10.6177 19.7792 10.6177C19.7792 10.6177 20.9791 11.3869 22.8496 11.8869C24.1908 12.2429 26 12.3188 26 12.3188V7.20333C25.3667 7.27265 24.0802 7.07267 22.7616 6.41673L22.763 6.4154Z" fill="url(#paint0_linear_216_144)"/>
<defs>
<linearGradient id="paint0_linear_216_144" x1="13" y1="0" x2="13" y2="30" gradientUnits="userSpaceOnUse">
<stop stop-color="#D51321"/>
<stop offset="1" stop-color="#850000"/>
</linearGradient>
</defs>
</svg>
