<svg width="37" height="30" viewBox="0 0 37 30" fill="none" xmlns="http://www.w3.org/2000/svg">
<path d="M37 3.55091C35.6385 4.15257 34.1752 4.56044 32.6398 4.74316C34.2066 3.8056 35.4109 2.32175 35.977 0.553676C34.51 1.4211 32.8858 2.05229 31.1561 2.39188C29.7724 0.920947 27.7986 0 25.6157 0C21.4238 0 18.0255 3.39034 18.0255 7.57244C18.0255 8.16672 18.0921 8.74439 18.2216 9.29806C11.9134 8.98247 6.31928 5.96678 2.57692 1.38603C1.9239 2.50446 1.54837 3.8056 1.54837 5.19348C1.54837 7.82159 2.88771 10.1378 4.92445 11.4962C3.67947 11.4574 2.51032 11.116 1.48733 10.5494C1.48733 10.5807 1.48733 10.6121 1.48733 10.6453C1.48733 14.3144 4.10309 17.3743 7.57537 18.0701C6.939 18.2436 6.26749 18.3359 5.57562 18.3359C5.08724 18.3359 4.61182 18.2879 4.14749 18.1993C5.11314 21.2076 7.9176 23.3983 11.2382 23.4592C8.64092 25.4912 5.36658 26.7019 1.81106 26.7019C1.19874 26.7019 0.59382 26.6669 0 26.5967C3.35943 28.745 7.34968 30 11.6359 30C25.5972 30 33.2336 18.4614 33.2336 8.45278C33.2336 8.12427 33.2262 7.7976 33.2114 7.47278C34.695 6.40418 35.9825 5.06982 37 3.55091Z" fill="url(#paint0_linear_56_83)"/>
<defs>
<linearGradient id="paint0_linear_56_83" x1="18.5" y1="0" x2="18.5" y2="30" gradientUnits="userSpaceOnUse">
<stop stop-color="#D51321"/>
<stop offset="1" stop-color="#850000"/>
</linearGradient>
</defs>
</svg>
