<svg width="30" height="30" viewBox="0 0 30 30" fill="none" xmlns="http://www.w3.org/2000/svg">
<g filter="url(#filter0_b_124_1182)">
<circle cx="15" cy="15" r="14" fill="black" fill-opacity="0.7"/>
</g>
<path d="M29.0423 16.9154C29.0313 16.946 29.0215 16.9765 29.0123 17.001C29.0264 17.0083 29.0368 16.9863 29.0423 16.9154Z" fill="url(#paint0_linear_124_1182)"/>
<path d="M26.4809 5.89289C25.998 5.28579 25.4309 4.74656 24.9402 4.14558C24.0588 3.06569 22.924 2.22147 21.6371 1.68845C20.9186 1.38277 19.7649 0.932183 19.0495 0.608154C18.5044 0.363603 18.6832 0.878382 17.9971 0.576362C16.7935 0.0346329 15.4545 -0.130306 14.1557 0.103157C13.1021 0.303077 11.9795 0.237048 10.9356 0.539679C10.0108 0.807462 9.15623 1.26599 8.28881 1.67011C7.46472 2.05528 6.82377 2.60307 5.9185 3.03348C4.9821 3.48223 4.4382 4.36506 4.03288 5.33226C3.73132 6.05001 3.174 6.62409 2.63255 7.17066C2.17717 7.62981 2.36762 8.41359 1.89515 8.76513C1.5533 9.02008 1.94703 9.59049 1.73582 10.0074C1.44282 10.5852 1.21024 10.7986 0.854361 11.369C0.558912 11.8336 0.152364 13.8016 0.0302781 14.3684C-0.1089 15.0116 0.278724 14.6564 0.246371 15.2989C0.200589 16.2172 0.146871 17.1771 0.558912 18.033C0.81288 18.5456 1.01256 19.0835 1.15469 19.6378C1.26823 20.1007 1.39887 20.5549 1.61191 20.9774C2.29071 22.3224 3.00308 23.646 4.03166 24.7777C4.75075 25.5682 5.47838 26.344 6.2695 27.0655C6.71756 27.4745 7.42383 27.6891 7.90607 28.0339C8.95723 28.7859 9.54385 28.8446 10.7751 29.1509C11.7072 29.3832 13.0947 29.8399 14.044 29.967C14.8095 30.0673 15.5876 29.9375 16.2794 29.5941C17.0729 29.2022 18.0887 29.2438 18.8975 28.9448C19.55 28.7039 20.1074 28.4557 20.7288 28.1592C21.6444 27.7208 21.9179 27.6395 22.8043 27.137C23.0655 26.989 23.842 26.2762 24.0941 26.2248C24.663 26.1086 25.0018 25.6599 25.3723 25.2741C25.6837 24.9507 25.8607 24.5185 26.2215 24.2464C26.5206 24.0208 26.6964 23.6998 26.9308 23.4247C27.2018 23.1074 27.1139 22.669 27.4716 22.4117C27.9087 22.0968 27.996 21.6511 28.0912 21.0483C28.1175 20.8789 28.0582 20.7652 28.1187 20.6319C28.2896 20.2504 28.698 19.7332 28.7859 19.345C28.919 18.7581 28.9232 18.2934 28.9116 17.6845C28.9049 17.3409 28.9324 17.2394 29.0148 17.0016C28.9568 16.9722 28.8317 16.4514 28.7138 16.6537C28.4477 17.111 28.1962 18.3656 28.0338 18.8687C27.7652 19.7039 27.344 20.4314 26.9027 21.203C26.3252 22.2123 25.6953 23.174 24.8797 23.9976C24.3401 24.5423 23.7748 25.0546 23.3805 25.7265C23.2657 25.9228 23.1137 26.1258 22.927 26.245C22.1993 26.7096 21.4833 27.1951 20.6983 27.5649C20.1434 27.826 19.3053 27.7325 18.751 27.974C18.0313 28.2876 17.5002 28.5798 16.7396 28.6495C15.1079 28.7987 13.5904 28.6868 11.9783 28.4759C11.5345 28.4178 10.9814 28.1996 10.5743 28.0259C9.43642 27.5429 8.30834 27.0318 7.20041 26.4834C6.62599 26.1985 6.19564 26.1166 5.84647 25.5823C5.60779 25.2154 5.6023 25.3817 5.43992 25.3567C5.38903 25.3461 5.3432 25.3187 5.30994 25.2787C5.27667 25.2387 5.25793 25.1886 5.25679 25.1366C5.23421 24.8358 4.65186 24.118 4.45469 23.9095C4.1629 23.6038 3.9346 23.2303 3.66113 22.8971C3.28876 22.4453 2.99942 21.9244 2.67528 21.4328C2.6063 21.3277 2.54831 21.2079 2.45613 21.1351C2.32123 20.7365 1.70469 20.2926 1.73949 19.9643C1.74986 19.8708 1.50569 18.7171 1.43732 18.5655C1.15347 17.9364 1.18521 18.0856 0.901364 17.616C0.918456 17.4277 0.923339 17.2058 1.00453 17.2419C1.03078 17.1514 1.09914 17.0487 1.07473 16.9796C0.85314 16.3639 1.08449 15.7617 1.14432 15.1632C1.21635 14.4418 1.42267 13.735 1.5356 13.016C1.74315 11.6924 2.20158 10.6066 2.83826 9.41625C3.14653 8.83911 3.4487 8.07122 3.77894 7.51426C4.27949 6.66567 4.92472 6.05001 5.55468 5.29252C5.99664 4.76245 6.58265 4.25318 7.13509 3.83133C8.1594 3.0506 9.29785 2.53338 10.5431 2.2228C11.8788 1.89265 13.2089 1.2501 14.6129 1.34242C16.8153 1.48242 19.0837 2.03266 20.9864 3.29882C22.0522 4.00924 22.9886 4.86027 23.9238 5.72659C25.0116 6.73475 25.8949 7.53627 26.6469 8.85317C27.1188 9.67914 27.761 10.7387 28.2286 11.5665C28.2737 11.6472 28.2926 11.7829 28.4837 11.7346C28.4227 11.6459 28.6131 11.852 28.6058 11.7829C28.5051 10.8903 27.8531 9.82648 27.5491 9.00846C27.4997 8.87701 27.46 8.74557 27.424 8.61596C27.7817 9.11423 28.1034 9.6284 28.3268 10.1603C28.6754 10.9875 28.7004 11.8257 28.9312 12.6822C29.0166 13.0014 28.9794 13.3816 29.0532 13.735C29.204 14.3998 29.2258 15.0875 29.1173 15.7605C29.11 15.8125 29.1163 15.8655 29.1357 15.9143C29.155 15.9631 29.1868 16.006 29.2278 16.0387C29.2889 16.0858 29.3426 16.1414 29.3725 16.1328C29.5385 16.082 29.6855 15.9823 29.7943 15.8468C29.9032 15.7113 29.9689 15.5462 29.9829 15.3729C30.0257 14.8642 30.0049 14.3066 29.7229 13.9245C29.6461 13.8152 29.5951 13.6897 29.5739 13.5577C29.4555 13.0295 29.3231 12.6627 29.2938 12.1369C29.2461 11.2883 29.1717 10.787 28.8665 10.0001C28.3238 8.61229 27.4032 7.05267 26.4809 5.89289ZM25.8125 6.36487C25.8072 6.3494 25.8061 6.33284 25.8091 6.31678C25.812 6.30072 25.8191 6.2857 25.8296 6.27316C25.8906 6.22731 25.9376 6.26216 25.9767 6.31474C26.0731 6.44557 26.1073 6.49387 26.2038 6.6247C25.9083 6.70907 25.9431 6.50304 25.8125 6.36487Z" fill="url(#paint1_linear_124_1182)"/>
<path d="M11.1564 19.0651C10.4858 18.582 9.86681 17.9942 9.31446 17.3158C8.75399 16.6285 8.09323 16.313 7.31056 16.3964C6.99654 16.4295 6.68099 16.4462 6.36594 16.4694C6.13712 16.4864 6.05162 16.4336 6.01219 16.2567C5.97276 16.0798 6.02572 15.9897 6.21892 15.8584C7.81979 14.7792 9.48267 13.8693 11.1809 13.0585C12.7928 12.2834 14.442 11.6346 16.1189 11.1158C18.2936 10.4503 20.495 10.0166 22.7415 10.0003C23.077 9.99759 23.4126 10.0127 23.748 10.0208C23.8731 10.0245 23.981 10.0679 23.9981 10.2504C24.0152 10.4328 23.9164 10.5032 23.7949 10.5406C22.9084 10.8058 22.0292 11.1018 21.1517 11.4069C20.3132 11.6985 19.4783 12.0084 18.642 12.3117C18.3633 12.4137 18.274 12.579 18.2931 12.9486C18.3683 14.4044 17.7405 15.5904 16.6405 16.0565C16.2963 16.1977 15.9298 16.2334 15.5718 16.1606C15.3494 16.1198 15.2866 15.9642 15.3805 15.7059C15.5003 15.3757 15.618 15.0447 15.7372 14.7141C15.762 14.6452 15.7943 14.5706 15.7435 14.5043C15.6852 14.4287 15.621 14.4829 15.5642 14.5164C15.2066 14.727 14.8504 14.9408 14.493 15.1516C14.2782 15.2786 14.1714 15.2464 14.0259 15.0087C13.9679 14.9143 13.9167 14.8134 13.8602 14.7174C13.701 14.4473 13.4641 14.3409 13.2095 14.4417C12.6141 14.6784 12.0191 14.9189 11.4245 15.1633C11.2103 15.2513 11.163 15.48 11.3218 15.6882C11.7368 16.2341 12.2199 16.6601 12.7581 17.0011C13.5829 17.5239 14.4545 17.7877 15.373 17.8295C16.0696 17.8612 16.751 17.7352 17.4237 17.5262C17.5963 17.4728 17.7 17.5297 17.747 17.6925C17.7661 17.7511 17.7695 17.8159 17.7564 17.877C17.7434 17.9381 17.7148 17.9921 17.6749 18.0308C16.0586 19.8135 13.9807 20.609 11.8312 19.4693C11.558 19.3249 11.2906 19.1691 11.1564 19.0651ZM16.9914 13.7887C17.0019 13.7673 17.011 13.7449 17.0185 13.7216C17.0449 13.6166 17.0932 13.508 17.0125 13.4079C16.9318 13.3078 16.8482 13.3436 16.763 13.3922C16.6077 13.4765 16.4628 13.5879 16.3326 13.7232C16.2099 13.8544 16.2382 14.0072 16.3915 14.0735C16.6302 14.1768 16.8613 14.0673 16.9903 13.788L16.9914 13.7887Z" fill="url(#paint2_linear_124_1182)"/>
<path d="M21.9684 13.3674C21.4313 14.5336 20.8703 15.4591 20.1113 16.1762C19.8878 16.3874 19.6466 16.5674 19.3918 16.7132C19.271 16.7824 19.1506 16.8137 19.049 16.6677C18.9474 16.5217 18.9743 16.3698 19.0626 16.2255C19.3872 15.6942 19.7023 15.1534 19.962 14.5683C20.2192 13.9886 20.4462 13.3893 20.5859 12.7459C20.6518 12.4404 20.7964 12.2721 21.044 12.2037C21.4055 12.1052 21.7621 11.9798 22.1209 11.8654C22.2197 11.8341 22.3207 11.8044 22.3985 11.9219C22.4808 12.0452 22.4357 12.1657 22.3922 12.2896C22.2464 12.7086 22.0906 13.1209 21.9684 13.3674Z" fill="url(#paint3_linear_124_1182)"/>
<defs>
<filter id="filter0_b_124_1182" x="-1" y="-1" width="32" height="32" filterUnits="userSpaceOnUse" color-interpolation-filters="sRGB">
<feFlood flood-opacity="0" result="BackgroundImageFix"/>
<feGaussianBlur in="BackgroundImage" stdDeviation="1"/>
<feComposite in2="SourceAlpha" operator="in" result="effect1_backgroundBlur_124_1182"/>
<feBlend mode="normal" in="SourceGraphic" in2="effect1_backgroundBlur_124_1182" result="shape"/>
</filter>
<linearGradient id="paint0_linear_124_1182" x1="15" y1="0" x2="15" y2="30" gradientUnits="userSpaceOnUse">
<stop stop-color="#D51321"/>
<stop offset="1" stop-color="#850000"/>
</linearGradient>
<linearGradient id="paint1_linear_124_1182" x1="15" y1="0" x2="15" y2="30" gradientUnits="userSpaceOnUse">
<stop stop-color="#D51321"/>
<stop offset="1" stop-color="#850000"/>
</linearGradient>
<linearGradient id="paint2_linear_124_1182" x1="15" y1="10" x2="15" y2="20" gradientUnits="userSpaceOnUse">
<stop stop-color="#D51321"/>
<stop offset="1" stop-color="#850000"/>
</linearGradient>
<linearGradient id="paint3_linear_124_1182" x1="15" y1="10" x2="15" y2="20" gradientUnits="userSpaceOnUse">
<stop stop-color="#D51321"/>
<stop offset="1" stop-color="#850000"/>
</linearGradient>
</defs>
</svg>
