<svg width="30" height="30" viewBox="0 0 30 30" fill="none" xmlns="http://www.w3.org/2000/svg">
<g filter="url(#filter0_b_124_1178)">
<circle cx="15" cy="15" r="14" fill="black" fill-opacity="0.7"/>
</g>
<path d="M29.0423 16.9154C29.0313 16.946 29.0215 16.9765 29.0123 17.001C29.0264 17.0083 29.0368 16.9863 29.0423 16.9154Z" fill="url(#paint0_linear_124_1178)"/>
<path d="M26.4809 5.89289C25.998 5.28579 25.4309 4.74656 24.9402 4.14558C24.0588 3.06569 22.924 2.22147 21.6371 1.68845C20.9186 1.38277 19.7649 0.932183 19.0495 0.608154C18.5044 0.363603 18.6832 0.878382 17.9971 0.576362C16.7935 0.0346329 15.4545 -0.130306 14.1557 0.103157C13.1021 0.303077 11.9795 0.237048 10.9356 0.539679C10.0108 0.807462 9.15623 1.26599 8.28881 1.67011C7.46472 2.05528 6.82377 2.60307 5.9185 3.03348C4.9821 3.48223 4.4382 4.36506 4.03288 5.33226C3.73132 6.05001 3.174 6.62409 2.63255 7.17066C2.17717 7.62981 2.36762 8.41359 1.89515 8.76513C1.5533 9.02008 1.94703 9.59049 1.73582 10.0074C1.44282 10.5852 1.21024 10.7986 0.854361 11.369C0.558912 11.8336 0.152364 13.8016 0.0302781 14.3684C-0.1089 15.0116 0.278724 14.6564 0.246371 15.2989C0.200589 16.2172 0.146871 17.1771 0.558912 18.033C0.81288 18.5456 1.01256 19.0835 1.15469 19.6378C1.26823 20.1007 1.39887 20.5549 1.61191 20.9774C2.29071 22.3224 3.00308 23.646 4.03166 24.7777C4.75075 25.5682 5.47838 26.344 6.2695 27.0655C6.71756 27.4745 7.42383 27.6891 7.90607 28.0339C8.95723 28.7859 9.54385 28.8446 10.7751 29.1509C11.7072 29.3832 13.0947 29.8399 14.044 29.967C14.8095 30.0673 15.5876 29.9375 16.2794 29.5941C17.0729 29.2022 18.0887 29.2438 18.8975 28.9448C19.55 28.7039 20.1074 28.4557 20.7288 28.1592C21.6444 27.7208 21.9179 27.6395 22.8043 27.137C23.0655 26.989 23.842 26.2762 24.0941 26.2248C24.663 26.1086 25.0018 25.6599 25.3723 25.2741C25.6837 24.9507 25.8607 24.5185 26.2215 24.2464C26.5206 24.0208 26.6964 23.6998 26.9308 23.4247C27.2018 23.1074 27.1139 22.669 27.4716 22.4117C27.9087 22.0968 27.996 21.6511 28.0912 21.0483C28.1175 20.8789 28.0582 20.7652 28.1187 20.6319C28.2896 20.2504 28.698 19.7332 28.7859 19.345C28.919 18.7581 28.9232 18.2934 28.9116 17.6845C28.9049 17.3409 28.9324 17.2394 29.0148 17.0016C28.9568 16.9722 28.8317 16.4514 28.7138 16.6537C28.4477 17.111 28.1962 18.3656 28.0338 18.8687C27.7652 19.7039 27.344 20.4314 26.9027 21.203C26.3252 22.2123 25.6953 23.174 24.8797 23.9976C24.3401 24.5423 23.7748 25.0546 23.3805 25.7265C23.2657 25.9228 23.1137 26.1258 22.927 26.245C22.1993 26.7096 21.4833 27.1951 20.6983 27.5649C20.1434 27.826 19.3053 27.7325 18.751 27.974C18.0313 28.2876 17.5002 28.5798 16.7396 28.6495C15.1079 28.7987 13.5904 28.6868 11.9783 28.4759C11.5345 28.4178 10.9814 28.1996 10.5743 28.0259C9.43642 27.5429 8.30834 27.0318 7.20041 26.4834C6.62599 26.1985 6.19564 26.1166 5.84647 25.5823C5.60779 25.2154 5.6023 25.3817 5.43992 25.3567C5.38903 25.3461 5.3432 25.3187 5.30994 25.2787C5.27667 25.2387 5.25793 25.1886 5.25679 25.1366C5.23421 24.8358 4.65186 24.118 4.45469 23.9095C4.1629 23.6038 3.9346 23.2303 3.66113 22.8971C3.28876 22.4453 2.99942 21.9244 2.67528 21.4328C2.6063 21.3277 2.54831 21.2079 2.45613 21.1351C2.32123 20.7365 1.70469 20.2926 1.73949 19.9643C1.74986 19.8708 1.50569 18.7171 1.43732 18.5655C1.15347 17.9364 1.18521 18.0856 0.901364 17.616C0.918456 17.4277 0.923339 17.2058 1.00453 17.2419C1.03078 17.1514 1.09914 17.0487 1.07473 16.9796C0.85314 16.3639 1.08449 15.7617 1.14432 15.1632C1.21635 14.4418 1.42267 13.735 1.5356 13.016C1.74315 11.6924 2.20158 10.6066 2.83826 9.41625C3.14653 8.83911 3.4487 8.07122 3.77894 7.51426C4.27949 6.66567 4.92472 6.05001 5.55468 5.29252C5.99664 4.76245 6.58265 4.25318 7.13509 3.83133C8.1594 3.0506 9.29785 2.53338 10.5431 2.2228C11.8788 1.89265 13.2089 1.2501 14.6129 1.34242C16.8153 1.48242 19.0837 2.03266 20.9864 3.29882C22.0522 4.00924 22.9886 4.86027 23.9238 5.72659C25.0116 6.73475 25.8949 7.53627 26.6469 8.85317C27.1188 9.67914 27.761 10.7387 28.2286 11.5665C28.2737 11.6472 28.2926 11.7829 28.4837 11.7346C28.4227 11.6459 28.6131 11.852 28.6058 11.7829C28.5051 10.8903 27.8531 9.82648 27.5491 9.00846C27.4997 8.87701 27.46 8.74557 27.424 8.61596C27.7817 9.11423 28.1034 9.6284 28.3268 10.1603C28.6754 10.9875 28.7004 11.8257 28.9312 12.6822C29.0166 13.0014 28.9794 13.3816 29.0532 13.735C29.204 14.3998 29.2258 15.0875 29.1173 15.7605C29.11 15.8125 29.1163 15.8655 29.1357 15.9143C29.155 15.9631 29.1868 16.006 29.2278 16.0387C29.2889 16.0858 29.3426 16.1414 29.3725 16.1328C29.5385 16.082 29.6855 15.9823 29.7943 15.8468C29.9032 15.7113 29.9689 15.5462 29.9829 15.3729C30.0257 14.8642 30.0049 14.3066 29.7229 13.9245C29.6461 13.8152 29.5951 13.6897 29.5739 13.5577C29.4555 13.0295 29.3231 12.6627 29.2938 12.1369C29.2461 11.2883 29.1717 10.787 28.8665 10.0001C28.3238 8.61229 27.4032 7.05267 26.4809 5.89289ZM25.8125 6.36487C25.8072 6.3494 25.8061 6.33284 25.8091 6.31678C25.812 6.30072 25.8191 6.2857 25.8296 6.27316C25.8906 6.22731 25.9376 6.26216 25.9767 6.31474C26.0731 6.44557 26.1073 6.49387 26.2038 6.6247C25.9083 6.70907 25.9431 6.50304 25.8125 6.36487Z" fill="url(#paint1_linear_124_1178)"/>
<path d="M14.685 23.9912C13.9793 23.9912 13.2736 23.9912 12.5683 23.9912C12.1139 23.9912 11.9437 23.8194 11.9433 23.3696C11.9433 22.5615 11.9386 21.753 11.9433 20.9437C11.9461 20.6049 11.838 20.3524 11.536 20.1659C11.3496 20.0553 11.1939 19.8994 11.0833 19.7126C10.9726 19.5257 10.9105 19.3138 10.9028 19.0965C10.8671 18.3433 10.8236 17.5853 10.9214 16.8349C11.035 15.96 11.802 15.3086 12.6795 15.3074C13.4632 15.3074 14.2484 15.262 15.0285 15.3841C15.169 15.406 15.3096 15.4175 15.3717 15.5718C15.4338 15.7261 15.3321 15.8359 15.2387 15.9389C14.6874 16.5382 14.4309 17.264 14.3434 18.0593C14.3145 18.3214 14.4107 18.4654 14.5904 18.4821C14.7701 18.4988 14.8857 18.3628 14.9185 18.115C14.9755 17.6776 15.0839 17.2568 15.2941 16.8671C15.6582 16.191 16.208 15.7667 16.964 15.6207C17.1801 15.579 17.2917 15.4712 17.2877 15.309C17.2834 15.1383 17.1551 15.0353 16.9315 15.0103C16.3754 14.9475 15.8197 14.881 15.264 14.8146C15.0353 14.7872 14.8979 14.6528 14.8306 14.4352C14.749 14.1627 14.7057 13.88 14.702 13.5953C14.6957 13.3337 14.8465 13.1579 15.1061 13.1137C15.2037 13.0986 15.3023 13.0915 15.401 13.0927C16.0208 13.0899 16.6406 13.0851 17.2612 13.0899C18.2052 13.0974 18.8309 13.7043 18.8424 14.6536C18.8579 15.9122 18.8638 17.1717 18.8424 18.4316C18.8302 19.2122 18.4771 19.8334 17.8134 20.2514C17.549 20.4176 17.4326 20.6399 17.433 20.9421C17.433 21.764 17.433 22.5859 17.433 23.4078C17.433 23.8221 17.2581 23.9975 16.8417 23.9991C16.1229 24.0011 15.4041 23.9991 14.6854 23.9991L14.685 23.9912Z" fill="url(#paint2_linear_124_1178)"/>
<path d="M7.99841 15.0974C7.66831 14.9813 7.35207 15.0051 7.0386 15.023C6.79558 15.0373 6.55494 15.0811 6.31311 15.1109C6.12629 15.134 6.02536 15.0536 6.01547 14.86C6.00755 14.7009 6.0123 14.5418 6.01547 14.3828C6.01784 14.2066 6.10571 14.1215 6.28461 14.1111C7.46527 14.0423 8.64276 14.0634 9.81551 14.2304C10.1254 14.2746 10.2208 14.3859 10.2232 14.7049C10.2232 14.8373 10.2232 14.9697 10.2232 15.1026C10.2184 15.4513 10.072 15.5993 9.72922 15.6044C9.62394 15.6044 9.51747 15.5985 9.41259 15.6104C9.28411 15.6233 9.16004 15.6644 9.04916 15.7309C8.93828 15.7973 8.84331 15.8875 8.771 15.995C8.36927 16.5652 8.31227 17.2067 8.3851 17.876C8.42468 18.2486 8.58498 18.5886 8.66572 18.9497C8.84699 19.7646 8.85966 20.5655 8.4797 21.3358C8.4154 21.4596 8.34335 21.5792 8.26399 21.6938C8.18997 21.8055 8.09617 21.8878 7.94972 21.8206C7.80328 21.7534 7.80645 21.6218 7.84088 21.4969C7.96437 21.0346 8.01525 20.5557 7.99168 20.0776C7.97967 19.8329 7.93562 19.5909 7.86067 19.3578C7.8112 19.1987 7.74193 19.0595 7.55709 19.0285C7.37226 18.9975 7.25946 19.0957 7.15615 19.2273C6.88573 19.5712 6.64476 19.9374 6.4358 20.3221C6.40466 20.388 6.36686 20.4505 6.323 20.5087C6.22643 20.6236 6.07405 20.5946 6.03011 20.451C6.01406 20.3808 6.00832 20.3085 6.01309 20.2366C6.01309 19.5145 6.01309 18.7923 6.01309 18.0697C6.01227 17.8306 6.06645 17.5946 6.17141 17.3801C6.58819 16.4984 7.15972 15.7392 7.93231 15.1403C7.95355 15.1248 7.97562 15.1105 7.99841 15.0974Z" fill="url(#paint3_linear_124_1178)"/>
<path d="M23.9949 15.4987C23.9949 15.684 23.9981 15.8697 23.9949 16.0554C23.9894 16.3223 23.8936 16.3835 23.664 16.2542C23.1206 15.9512 22.5443 15.7961 21.9201 15.8367C21.8121 15.8438 21.7064 15.8462 21.6546 15.9667C21.6027 16.0872 21.6842 16.1572 21.7448 16.2308C22.1054 16.6702 22.4667 17.1093 22.8344 17.5431C22.9764 17.7022 23.0532 17.9093 23.0493 18.123C23.045 18.5731 23.0549 19.0237 23.0525 19.4751C23.0525 19.7324 23.1487 19.9276 23.3501 20.0907C24.1417 20.7306 23.9807 20.5914 23.9961 21.4301C24.0024 21.7745 23.9961 22.1189 23.9961 22.4641C23.9961 22.5571 24.0008 22.6629 23.892 22.6995C23.7733 22.7393 23.7337 22.6335 23.6854 22.5571C23.3058 21.953 22.8024 21.4718 22.2162 21.0765C21.9926 20.9254 21.8667 20.7314 21.8346 20.4609C21.7519 19.7578 21.6114 19.0639 21.4812 18.3683C21.372 17.7853 21.0874 17.3073 20.6868 16.887C20.4407 16.6289 20.1972 16.3668 19.9198 16.1417C19.7088 15.9703 19.6031 15.7611 19.6241 15.4855C19.634 15.3603 19.6217 15.2334 19.6285 15.1081C19.6392 14.9145 19.7377 14.8242 19.9249 14.8616C20.5285 14.9809 21.1028 14.8783 21.6684 14.6647C22.3539 14.4062 23.0537 14.4615 23.7539 14.5884C23.928 14.6198 23.9913 14.7423 23.9941 14.9037C23.9977 15.101 23.9945 15.2998 23.9949 15.4987Z" fill="url(#paint4_linear_124_1178)"/>
<path d="M7.79576 6.00239C8.05976 6.00239 8.32336 6.00239 8.58735 6.00239C8.68642 5.99877 8.78505 6.01735 8.8761 6.05676C8.96714 6.09617 9.04832 6.15543 9.11376 6.23026C9.29108 6.42671 9.46523 6.62794 9.65521 6.80928C9.86459 7.01091 9.90021 7.24674 9.85667 7.51835C9.71141 8.42547 9.57526 9.33457 9.42921 10.2425C9.3168 10.94 9.50006 11.5528 9.93425 12.0977C10.0585 12.254 10.1788 12.4091 10.2077 12.6147C10.2267 12.7495 10.203 12.8234 10.0439 12.7817C8.79712 12.454 7.82742 11.7616 7.20404 10.6111C7.14785 10.5058 7.10896 10.3921 7.08887 10.2743C6.98161 9.64397 6.65112 9.15004 6.16983 8.7456C6.0222 8.62192 5.94898 8.20674 6.04001 8.03216C6.09423 7.93035 6.18408 7.9053 6.27353 7.96097C6.93015 8.36979 7.52226 8.8323 7.65881 9.67101C7.70139 9.93912 7.76761 10.2029 7.85671 10.4592C7.88402 10.5364 7.92241 10.6159 8.02018 10.6012C8.11794 10.5865 8.13891 10.5018 8.13891 10.4194C8.14485 9.81696 8.16227 9.21447 8.12744 8.61238C8.12348 8.5396 8.10329 8.46523 8.11319 8.39485C8.16425 8.0425 8.00909 7.80071 7.74787 7.5796C7.39561 7.28094 7.07145 6.94927 6.73305 6.63391C6.60441 6.5146 6.50824 6.38178 6.5866 6.19884C6.66062 6.02585 6.81577 6 6.9824 6C7.2555 6.00437 7.52543 6.00199 7.79576 6.00239Z" fill="url(#paint5_linear_124_1178)"/>
<path d="M21.2049 12.2726C21.4622 12.2941 21.6763 12.2468 21.8912 12.2277C22.01 12.217 22.1062 12.2277 22.1537 12.347C22.2043 12.4731 22.1252 12.5506 22.0278 12.6039C21.3945 12.9503 20.7193 13.1277 19.997 13.0923C19.6661 13.076 19.5351 12.8032 19.6946 12.489C19.7236 12.4288 19.7639 12.3748 19.8133 12.3299C20.4585 11.7732 20.7094 11.0251 20.8527 10.2222C20.9615 9.61136 20.9516 8.99535 20.9291 8.37973C20.9197 8.26453 20.9399 8.14884 20.9877 8.04371C21.0355 7.93858 21.1093 7.84752 21.2022 7.77923C21.7568 7.33008 22.2818 6.84521 22.7739 6.32769C23.0434 6.04454 23.3644 5.97415 23.7281 6.00954C23.8995 6.02545 23.9945 6.12885 23.9953 6.29786C23.9985 7.02682 24.0048 7.75577 23.9905 8.48512C23.9846 8.78418 23.801 8.98103 23.5283 9.09835C22.9678 9.33934 22.4794 9.68016 22.1034 10.1721C21.8845 10.4572 21.7076 10.7575 21.6486 11.1265C21.5889 11.5374 21.4372 11.9293 21.2049 12.2726Z" fill="url(#paint6_linear_124_1178)"/>
<path d="M10.7559 12.4536C10.7559 11.9839 10.7559 11.5143 10.7559 11.0442C10.7559 10.5741 11.0726 10.2262 11.506 10.2166C11.9603 10.2067 12.3126 10.5495 12.3173 11.0331C12.3264 11.9195 12.3221 12.8063 12.3217 13.6928C12.3217 13.8312 12.3316 13.9712 12.2936 14.1068C12.1855 14.5005 11.8337 14.7526 11.4525 14.7033C11.0409 14.6508 10.7619 14.3422 10.7583 13.9222C10.7535 13.4327 10.7583 12.9427 10.7583 12.4532L10.7559 12.4536Z" fill="url(#paint7_linear_124_1178)"/>
<path d="M12.8544 12.4512C12.8544 11.9811 12.8517 11.5107 12.8544 11.0406C12.858 10.5634 13.1857 10.2166 13.6318 10.215C14.0778 10.2134 14.4131 10.5594 14.4182 11.0351C14.4246 11.5918 14.4182 12.1486 14.4214 12.7053C14.4214 12.8071 14.4099 12.9074 14.3517 12.9905C14.1317 13.3042 14.1562 13.6558 14.2005 14.0058C14.2282 14.2241 14.2595 14.4372 14.0509 14.5812C13.945 14.6565 13.8203 14.7009 13.6908 14.7094C13.5613 14.7179 13.4319 14.6901 13.3171 14.6293C13.0222 14.4862 12.8584 14.238 12.8564 13.9C12.854 13.4164 12.8564 12.9328 12.8564 12.4496L12.8544 12.4512Z" fill="url(#paint8_linear_124_1178)"/>
<path d="M18.6849 11.7847C18.6849 12.0432 18.692 12.3017 18.6829 12.5594C18.6738 12.8171 18.5365 12.907 18.3037 12.802C18.0329 12.6787 17.7386 12.6161 17.4413 12.6186C17.1769 12.6186 17.1017 12.5391 17.0997 12.2719C17.0966 11.8483 17.0934 11.424 17.0997 10.9993C17.1061 10.5419 17.3887 10.2278 17.7955 10.2127C18.3342 10.1924 18.6267 10.4218 18.6699 10.9285C18.694 11.2108 18.6742 11.4972 18.6742 11.7819L18.6849 11.7847Z" fill="url(#paint9_linear_124_1178)"/>
<path d="M16.5622 11.6364C16.5622 11.875 16.5591 12.1136 16.5622 12.3522C16.5654 12.5244 16.4855 12.6174 16.3169 12.6194C15.9609 12.6242 15.6047 12.6242 15.2482 12.6194C15.0899 12.6174 15.0024 12.5224 15.0008 12.3669C14.9969 11.8766 14.9814 11.385 15.0052 10.8955C15.0273 10.435 15.3725 10.188 15.8957 10.2138C16.2812 10.2325 16.5571 10.5407 16.5607 10.9595C16.5638 11.1858 16.5622 11.4109 16.5622 11.6364Z" fill="url(#paint10_linear_124_1178)"/>
<path d="M9.98649 13.6999C9.94391 13.6857 9.90216 13.6691 9.86142 13.6502C9.1664 13.303 8.42349 13.1531 7.65486 13.0935C7.20244 13.0544 6.7476 13.0526 6.2949 13.0883C6.09305 13.1062 6.01784 13.0334 6.01389 12.8278C6.00993 12.4301 6.01389 12.0324 6.01389 11.6348C6.01389 11.5326 6.02101 11.4296 6.13262 11.3834C6.23553 11.3405 6.30757 11.4085 6.37683 11.4713C6.58225 11.6574 6.76629 11.8662 6.99031 12.0321C7.3 12.258 7.64883 12.424 8.01899 12.5216C8.70041 12.7037 9.35833 12.9651 9.97937 13.3007C10.0381 13.3304 10.0936 13.3662 10.1448 13.4076C10.1742 13.4303 10.1947 13.4627 10.2028 13.499C10.2109 13.5353 10.2061 13.5734 10.1891 13.6065C10.1563 13.6749 10.0949 13.7067 9.98649 13.6999Z" fill="url(#paint11_linear_124_1178)"/>
<path d="M23.9961 13.2744C23.9981 13.8165 23.9985 13.8069 23.4622 13.785C22.9795 13.7703 22.499 13.8542 22.0496 14.0316C21.4697 14.2519 20.876 14.2372 20.2772 14.1414C20.2052 14.1298 20.1189 14.1207 20.128 14.0221C20.1355 13.9425 20.2139 13.9286 20.28 13.923C21.1222 13.8514 21.8738 13.5321 22.5779 13.0803C22.9136 12.8652 23.2904 12.7694 23.681 12.7344C23.8904 12.7157 23.9862 12.8012 23.9953 13.0167C23.9993 13.1022 23.9961 13.1885 23.9961 13.2744Z" fill="url(#paint12_linear_124_1178)"/>
<path d="M6.98477 22.7023C7.07956 22.6997 7.17295 22.7256 7.25293 22.7768C7.3329 22.828 7.3958 22.9021 7.43352 22.9895C7.47125 23.0769 7.48207 23.1736 7.46459 23.2673C7.44712 23.3609 7.40215 23.4471 7.33547 23.5149C7.2688 23.5826 7.18347 23.6288 7.09047 23.6474C6.99747 23.666 6.90106 23.6562 6.81366 23.6192C6.72625 23.5823 6.65185 23.5199 6.60003 23.4401C6.5482 23.3603 6.52133 23.2668 6.52288 23.1715C6.52215 23.1101 6.53355 23.0492 6.55644 22.9923C6.57933 22.9354 6.61324 22.8836 6.65621 22.8399C6.69918 22.7963 6.75035 22.7616 6.80675 22.738C6.86316 22.7144 6.92367 22.7022 6.98477 22.7023Z" fill="url(#paint13_linear_124_1178)"/>
<path d="M23.0216 11.6153C23.0693 11.6172 23.116 11.6286 23.1592 11.6489C23.2024 11.6691 23.2412 11.6977 23.2733 11.7331C23.3054 11.7685 23.3302 11.81 23.3463 11.8551C23.3623 11.9002 23.3693 11.948 23.3668 11.9959C23.36 12.0887 23.3186 12.1755 23.2509 12.239C23.1831 12.3025 23.0941 12.3379 23.0015 12.3383C22.9542 12.3369 22.9077 12.3263 22.8645 12.3069C22.8214 12.2875 22.7825 12.2597 22.75 12.2252C22.7175 12.1907 22.6921 12.1501 22.6753 12.1057C22.6584 12.0614 22.6504 12.0141 22.6518 11.9666C22.6531 11.9192 22.6637 11.8724 22.683 11.8291C22.7023 11.7857 22.7299 11.7466 22.7643 11.714C22.7986 11.6814 22.839 11.6559 22.8832 11.6389C22.9273 11.622 22.9744 11.6139 23.0216 11.6153Z" fill="url(#paint14_linear_124_1178)"/>
<defs>
<filter id="filter0_b_124_1178" x="-1" y="-1" width="32" height="32" filterUnits="userSpaceOnUse" color-interpolation-filters="sRGB">
<feFlood flood-opacity="0" result="BackgroundImageFix"/>
<feGaussianBlur in="BackgroundImage" stdDeviation="1"/>
<feComposite in2="SourceAlpha" operator="in" result="effect1_backgroundBlur_124_1178"/>
<feBlend mode="normal" in="SourceGraphic" in2="effect1_backgroundBlur_124_1178" result="shape"/>
</filter>
<linearGradient id="paint0_linear_124_1178" x1="15" y1="0" x2="15" y2="30" gradientUnits="userSpaceOnUse">
<stop stop-color="#D51321"/>
<stop offset="1" stop-color="#850000"/>
</linearGradient>
<linearGradient id="paint1_linear_124_1178" x1="15" y1="0" x2="15" y2="30" gradientUnits="userSpaceOnUse">
<stop stop-color="#D51321"/>
<stop offset="1" stop-color="#850000"/>
</linearGradient>
<linearGradient id="paint2_linear_124_1178" x1="15" y1="6" x2="15" y2="24" gradientUnits="userSpaceOnUse">
<stop stop-color="#D51321"/>
<stop offset="1" stop-color="#850000"/>
</linearGradient>
<linearGradient id="paint3_linear_124_1178" x1="15" y1="6" x2="15" y2="24" gradientUnits="userSpaceOnUse">
<stop stop-color="#D51321"/>
<stop offset="1" stop-color="#850000"/>
</linearGradient>
<linearGradient id="paint4_linear_124_1178" x1="15" y1="6" x2="15" y2="24" gradientUnits="userSpaceOnUse">
<stop stop-color="#D51321"/>
<stop offset="1" stop-color="#850000"/>
</linearGradient>
<linearGradient id="paint5_linear_124_1178" x1="15" y1="6" x2="15" y2="24" gradientUnits="userSpaceOnUse">
<stop stop-color="#D51321"/>
<stop offset="1" stop-color="#850000"/>
</linearGradient>
<linearGradient id="paint6_linear_124_1178" x1="15" y1="6" x2="15" y2="24" gradientUnits="userSpaceOnUse">
<stop stop-color="#D51321"/>
<stop offset="1" stop-color="#850000"/>
</linearGradient>
<linearGradient id="paint7_linear_124_1178" x1="15" y1="6" x2="15" y2="24" gradientUnits="userSpaceOnUse">
<stop stop-color="#D51321"/>
<stop offset="1" stop-color="#850000"/>
</linearGradient>
<linearGradient id="paint8_linear_124_1178" x1="15" y1="6" x2="15" y2="24" gradientUnits="userSpaceOnUse">
<stop stop-color="#D51321"/>
<stop offset="1" stop-color="#850000"/>
</linearGradient>
<linearGradient id="paint9_linear_124_1178" x1="15" y1="6" x2="15" y2="24" gradientUnits="userSpaceOnUse">
<stop stop-color="#D51321"/>
<stop offset="1" stop-color="#850000"/>
</linearGradient>
<linearGradient id="paint10_linear_124_1178" x1="15" y1="6" x2="15" y2="24" gradientUnits="userSpaceOnUse">
<stop stop-color="#D51321"/>
<stop offset="1" stop-color="#850000"/>
</linearGradient>
<linearGradient id="paint11_linear_124_1178" x1="15" y1="6" x2="15" y2="24" gradientUnits="userSpaceOnUse">
<stop stop-color="#D51321"/>
<stop offset="1" stop-color="#850000"/>
</linearGradient>
<linearGradient id="paint12_linear_124_1178" x1="15" y1="6" x2="15" y2="24" gradientUnits="userSpaceOnUse">
<stop stop-color="#D51321"/>
<stop offset="1" stop-color="#850000"/>
</linearGradient>
<linearGradient id="paint13_linear_124_1178" x1="15" y1="6" x2="15" y2="24" gradientUnits="userSpaceOnUse">
<stop stop-color="#D51321"/>
<stop offset="1" stop-color="#850000"/>
</linearGradient>
<linearGradient id="paint14_linear_124_1178" x1="15" y1="6" x2="15" y2="24" gradientUnits="userSpaceOnUse">
<stop stop-color="#D51321"/>
<stop offset="1" stop-color="#850000"/>
</linearGradient>
</defs>
</svg>
