<svg width="30" height="30" viewBox="0 0 30 30" fill="none" xmlns="http://www.w3.org/2000/svg">
<g filter="url(#filter0_b_124_1183)">
<circle cx="15" cy="15" r="14" fill="black" fill-opacity="0.7"/>
</g>
<path d="M29.0423 16.9154C29.0313 16.946 29.0215 16.9765 29.0123 17.001C29.0264 17.0083 29.0368 16.9863 29.0423 16.9154Z" fill="url(#paint0_linear_124_1183)"/>
<path d="M26.4809 5.89289C25.998 5.28579 25.4309 4.74656 24.9402 4.14558C24.0588 3.06569 22.924 2.22147 21.6371 1.68845C20.9186 1.38277 19.7649 0.932183 19.0495 0.608154C18.5044 0.363603 18.6832 0.878382 17.9971 0.576362C16.7935 0.0346329 15.4545 -0.130306 14.1557 0.103157C13.1021 0.303077 11.9795 0.237048 10.9356 0.539679C10.0108 0.807462 9.15623 1.26599 8.28881 1.67011C7.46472 2.05528 6.82377 2.60307 5.9185 3.03348C4.9821 3.48223 4.4382 4.36506 4.03288 5.33226C3.73132 6.05001 3.174 6.62409 2.63255 7.17066C2.17717 7.62981 2.36762 8.41359 1.89515 8.76513C1.5533 9.02008 1.94703 9.59049 1.73582 10.0074C1.44282 10.5852 1.21024 10.7986 0.854361 11.369C0.558912 11.8336 0.152364 13.8016 0.0302781 14.3684C-0.1089 15.0116 0.278724 14.6564 0.246371 15.2989C0.200589 16.2172 0.146871 17.1771 0.558912 18.033C0.81288 18.5456 1.01256 19.0835 1.15469 19.6378C1.26823 20.1007 1.39887 20.5549 1.61191 20.9774C2.29071 22.3224 3.00308 23.646 4.03166 24.7777C4.75075 25.5682 5.47838 26.344 6.2695 27.0655C6.71756 27.4745 7.42383 27.6891 7.90607 28.0339C8.95723 28.7859 9.54385 28.8446 10.7751 29.1509C11.7072 29.3832 13.0947 29.8399 14.044 29.967C14.8095 30.0673 15.5876 29.9375 16.2794 29.5941C17.0729 29.2022 18.0887 29.2438 18.8975 28.9448C19.55 28.7039 20.1074 28.4557 20.7288 28.1592C21.6444 27.7208 21.9179 27.6395 22.8043 27.137C23.0655 26.989 23.842 26.2762 24.0941 26.2248C24.663 26.1086 25.0018 25.6599 25.3723 25.2741C25.6837 24.9507 25.8607 24.5185 26.2215 24.2464C26.5206 24.0208 26.6964 23.6998 26.9308 23.4247C27.2018 23.1074 27.1139 22.669 27.4716 22.4117C27.9087 22.0968 27.996 21.6511 28.0912 21.0483C28.1175 20.8789 28.0582 20.7652 28.1187 20.6319C28.2896 20.2504 28.698 19.7332 28.7859 19.345C28.919 18.7581 28.9232 18.2934 28.9116 17.6845C28.9049 17.3409 28.9324 17.2394 29.0148 17.0016C28.9568 16.9722 28.8317 16.4514 28.7138 16.6537C28.4477 17.111 28.1962 18.3656 28.0338 18.8687C27.7652 19.7039 27.344 20.4314 26.9027 21.203C26.3252 22.2123 25.6953 23.174 24.8797 23.9976C24.3401 24.5423 23.7748 25.0546 23.3805 25.7265C23.2657 25.9228 23.1137 26.1258 22.927 26.245C22.1993 26.7096 21.4833 27.1951 20.6983 27.5649C20.1434 27.826 19.3053 27.7325 18.751 27.974C18.0313 28.2876 17.5002 28.5798 16.7396 28.6495C15.1079 28.7987 13.5904 28.6868 11.9783 28.4759C11.5345 28.4178 10.9814 28.1996 10.5743 28.0259C9.43642 27.5429 8.30834 27.0318 7.20041 26.4834C6.62599 26.1985 6.19564 26.1166 5.84647 25.5823C5.60779 25.2154 5.6023 25.3817 5.43992 25.3567C5.38903 25.3461 5.3432 25.3187 5.30994 25.2787C5.27667 25.2387 5.25793 25.1886 5.25679 25.1366C5.23421 24.8358 4.65186 24.118 4.45469 23.9095C4.1629 23.6038 3.9346 23.2303 3.66113 22.8971C3.28876 22.4453 2.99942 21.9244 2.67528 21.4328C2.6063 21.3277 2.54831 21.2079 2.45613 21.1351C2.32123 20.7365 1.70469 20.2926 1.73949 19.9643C1.74986 19.8708 1.50569 18.7171 1.43732 18.5655C1.15347 17.9364 1.18521 18.0856 0.901364 17.616C0.918456 17.4277 0.923339 17.2058 1.00453 17.2419C1.03078 17.1514 1.09914 17.0487 1.07473 16.9796C0.85314 16.3639 1.08449 15.7617 1.14432 15.1632C1.21635 14.4418 1.42267 13.735 1.5356 13.016C1.74315 11.6924 2.20158 10.6066 2.83826 9.41625C3.14653 8.83911 3.4487 8.07122 3.77894 7.51426C4.27949 6.66567 4.92472 6.05001 5.55468 5.29252C5.99664 4.76245 6.58265 4.25318 7.13509 3.83133C8.1594 3.0506 9.29785 2.53338 10.5431 2.2228C11.8788 1.89265 13.2089 1.2501 14.6129 1.34242C16.8153 1.48242 19.0837 2.03266 20.9864 3.29882C22.0522 4.00924 22.9886 4.86027 23.9238 5.72659C25.0116 6.73475 25.8949 7.53627 26.6469 8.85317C27.1188 9.67914 27.761 10.7387 28.2286 11.5665C28.2737 11.6472 28.2926 11.7829 28.4837 11.7346C28.4227 11.6459 28.6131 11.852 28.6058 11.7829C28.5051 10.8903 27.8531 9.82648 27.5491 9.00846C27.4997 8.87701 27.46 8.74557 27.424 8.61596C27.7817 9.11423 28.1034 9.6284 28.3268 10.1603C28.6754 10.9875 28.7004 11.8257 28.9312 12.6822C29.0166 13.0014 28.9794 13.3816 29.0532 13.735C29.204 14.3998 29.2258 15.0875 29.1173 15.7605C29.11 15.8125 29.1163 15.8655 29.1357 15.9143C29.155 15.9631 29.1868 16.006 29.2278 16.0387C29.2889 16.0858 29.3426 16.1414 29.3725 16.1328C29.5385 16.082 29.6855 15.9823 29.7943 15.8468C29.9032 15.7113 29.9689 15.5462 29.9829 15.3729C30.0257 14.8642 30.0049 14.3066 29.7229 13.9245C29.6461 13.8152 29.5951 13.6897 29.5739 13.5577C29.4555 13.0295 29.3231 12.6627 29.2938 12.1369C29.2461 11.2883 29.1717 10.787 28.8665 10.0001C28.3238 8.61229 27.4032 7.05267 26.4809 5.89289ZM25.8125 6.36487C25.8072 6.3494 25.8061 6.33284 25.8091 6.31678C25.812 6.30072 25.8191 6.2857 25.8296 6.27316C25.8906 6.22731 25.9376 6.26216 25.9767 6.31474C26.0731 6.44557 26.1073 6.49387 26.2038 6.6247C25.9083 6.70907 25.9431 6.50304 25.8125 6.36487Z" fill="url(#paint1_linear_124_1183)"/>
<path d="M19.7301 12.8419C18.768 13.0492 17.9796 12.9001 17.4309 12.6982C17.3328 12.6619 17.2378 12.6173 17.1469 12.5648C16.9583 12.456 16.7183 12.5224 16.6103 12.7136L16.2394 13.3688C16.1589 13.5166 15.9895 13.5896 15.8288 13.5457C15.672 13.4991 15.5672 13.3494 15.5756 13.1838L15.7901 9.02667C15.7437 8.67486 15.7062 8.33834 15.6762 8.03898C15.6654 7.9312 15.5817 7.84587 15.4757 7.83444C15.3697 7.82302 15.2704 7.88854 15.2374 7.99149C14.858 9.16819 14.3801 10.3098 13.8089 11.4037C13.6271 11.7484 13.293 11.9828 12.9113 12.0333C12.5296 12.0838 12.1473 11.9442 11.8846 11.6585L9.64538 9.22238C9.43582 8.99417 9.07376 9.24082 9.20174 9.52409C9.57706 10.3557 9.9562 11.1862 10.2322 11.7894L11.4421 14.1017C11.4947 14.1985 11.4863 14.3178 11.4205 14.4059C11.3752 14.4647 11.3082 14.5021 11.2351 14.5094C11.1619 14.5167 11.089 14.4932 11.0334 14.4444L10.3924 13.8779C10.2056 13.7137 9.92364 13.7308 9.75732 13.9164C9.20305 14.5267 8.47555 14.9468 7.67557 15.1182C7.19774 15.2203 6.68306 15.3066 6.20825 15.376C5.9396 15.4145 5.92699 15.8049 6.19307 15.862C7.61524 16.1649 8.66385 16.5919 9.22638 16.8552C9.40463 16.9379 9.55265 17.0754 9.64956 17.2483C9.74661 17.4212 9.78741 17.6207 9.7664 17.8185C9.69347 18.4671 9.32085 19.1801 8.94618 19.754C8.78529 20.0007 9.06004 20.2985 9.31245 20.1495L11.2129 19.0199L13.018 17.9408C13.094 17.8954 13.1884 17.8947 13.2651 17.9393C13.3417 17.9837 13.3891 18.0666 13.3891 18.1562C13.3891 18.429 13.2373 18.816 13.0551 19.0156L12.5173 19.6006C12.4342 19.691 12.3856 19.8087 12.3798 19.9322C12.374 20.0556 12.4114 20.1773 12.4854 20.2754C13.3204 21.3931 13.9072 22.8047 14.2526 23.8004C14.297 23.9289 14.4215 24.0105 14.555 23.9989C14.6885 23.9874 14.7975 23.8856 14.82 23.7516C15.0192 22.5654 15.3088 21.1648 15.579 20.3694C15.5828 20.3582 15.5866 20.3471 15.5908 20.3358C15.7349 19.9263 16.0082 19.5767 16.3682 19.3413C16.7282 19.1058 17.1548 18.9978 17.5815 19.034C18.0536 19.0775 18.5221 19.1555 18.9831 19.2675C19.064 19.2868 19.1476 19.2476 19.1855 19.1724C19.2233 19.0973 19.2058 19.0056 19.1429 18.9503C18.6643 18.5236 18.2923 17.9874 18.0578 17.386C17.7878 16.6864 17.8657 15.8976 18.2674 15.2663C18.7427 14.5227 19.3012 13.8372 19.9316 13.2238C20.0047 13.1544 20.0227 13.0437 19.9754 12.9543C19.9281 12.8647 19.8274 12.8184 19.7301 12.8419Z" fill="url(#paint2_linear_124_1183)"/>
<path d="M7.48429 21.8799C7.48429 22.2686 7.17402 22.5836 6.79122 22.5836C6.40841 22.5836 6.09814 22.2686 6.09814 21.8799C6.09814 21.4912 6.40841 21.1761 6.79122 21.1761C7.17402 21.1761 7.48429 21.4912 7.48429 21.8799Z" fill="url(#paint3_linear_124_1183)"/>
<path d="M7.79625 6.09756C7.33091 5.75732 6.76498 6.38082 7.12136 6.83518C7.14874 6.86959 7.17788 6.90263 7.20865 6.93387C7.48612 7.21521 7.86567 7.5066 8.17416 7.72587C8.24613 7.77638 8.3421 7.7728 8.41028 7.7172C8.47833 7.66159 8.50232 7.56717 8.46911 7.485L8.01068 6.37039C7.96649 6.26041 7.89208 6.16569 7.79625 6.09756Z" fill="url(#paint4_linear_124_1183)"/>
<path d="M24 11.88C24 12.2937 23.6697 12.6291 23.2622 12.6291C22.8546 12.6291 22.5243 12.2937 22.5243 11.88C22.5243 11.4662 22.8546 11.1308 23.2622 11.1308C23.6697 11.1308 24 11.4662 24 11.88Z" fill="url(#paint5_linear_124_1183)"/>
<path d="M22.3285 20.4461C22.2856 20.417 22.2413 20.3904 22.1956 20.3663C21.7834 20.1475 21.2552 19.9559 20.8293 19.8191C20.7302 19.7878 20.6227 19.8265 20.5651 19.9142C20.5076 20.002 20.514 20.1176 20.5807 20.1983L21.487 21.2897C21.575 21.3983 21.6919 21.4787 21.824 21.521C22.4673 21.7376 22.8909 20.83 22.3285 20.4461Z" fill="url(#paint6_linear_124_1183)"/>
<defs>
<filter id="filter0_b_124_1183" x="-1" y="-1" width="32" height="32" filterUnits="userSpaceOnUse" color-interpolation-filters="sRGB">
<feFlood flood-opacity="0" result="BackgroundImageFix"/>
<feGaussianBlur in="BackgroundImage" stdDeviation="1"/>
<feComposite in2="SourceAlpha" operator="in" result="effect1_backgroundBlur_124_1183"/>
<feBlend mode="normal" in="SourceGraphic" in2="effect1_backgroundBlur_124_1183" result="shape"/>
</filter>
<linearGradient id="paint0_linear_124_1183" x1="15" y1="0" x2="15" y2="30" gradientUnits="userSpaceOnUse">
<stop stop-color="#D51321"/>
<stop offset="1" stop-color="#850000"/>
</linearGradient>
<linearGradient id="paint1_linear_124_1183" x1="15" y1="0" x2="15" y2="30" gradientUnits="userSpaceOnUse">
<stop stop-color="#D51321"/>
<stop offset="1" stop-color="#850000"/>
</linearGradient>
<linearGradient id="paint2_linear_124_1183" x1="15" y1="6" x2="15" y2="24" gradientUnits="userSpaceOnUse">
<stop stop-color="#D51321"/>
<stop offset="1" stop-color="#850000"/>
</linearGradient>
<linearGradient id="paint3_linear_124_1183" x1="15" y1="6" x2="15" y2="24" gradientUnits="userSpaceOnUse">
<stop stop-color="#D51321"/>
<stop offset="1" stop-color="#850000"/>
</linearGradient>
<linearGradient id="paint4_linear_124_1183" x1="15" y1="6" x2="15" y2="24" gradientUnits="userSpaceOnUse">
<stop stop-color="#D51321"/>
<stop offset="1" stop-color="#850000"/>
</linearGradient>
<linearGradient id="paint5_linear_124_1183" x1="15" y1="6" x2="15" y2="24" gradientUnits="userSpaceOnUse">
<stop stop-color="#D51321"/>
<stop offset="1" stop-color="#850000"/>
</linearGradient>
<linearGradient id="paint6_linear_124_1183" x1="15" y1="6" x2="15" y2="24" gradientUnits="userSpaceOnUse">
<stop stop-color="#D51321"/>
<stop offset="1" stop-color="#850000"/>
</linearGradient>
</defs>
</svg>
