<svg width="30" height="30" viewBox="0 0 30 30" fill="none" xmlns="http://www.w3.org/2000/svg">
<g filter="url(#filter0_b_124_1180)">
<circle cx="15" cy="15" r="14" fill="black" fill-opacity="0.7"/>
</g>
<path d="M29.0423 16.9154C29.0313 16.946 29.0215 16.9765 29.0123 17.001C29.0264 17.0083 29.0368 16.9863 29.0423 16.9154Z" fill="url(#paint0_linear_124_1180)"/>
<path d="M26.4809 5.89289C25.998 5.28579 25.4309 4.74656 24.9402 4.14558C24.0588 3.06569 22.924 2.22147 21.6371 1.68845C20.9186 1.38277 19.7649 0.932183 19.0495 0.608154C18.5044 0.363603 18.6832 0.878382 17.9971 0.576362C16.7935 0.0346329 15.4545 -0.130306 14.1557 0.103157C13.1021 0.303077 11.9795 0.237048 10.9356 0.539679C10.0108 0.807462 9.15623 1.26599 8.28881 1.67011C7.46472 2.05528 6.82377 2.60307 5.9185 3.03348C4.9821 3.48223 4.4382 4.36506 4.03288 5.33226C3.73132 6.05001 3.174 6.62409 2.63255 7.17066C2.17717 7.62981 2.36762 8.41359 1.89515 8.76513C1.5533 9.02008 1.94703 9.59049 1.73582 10.0074C1.44282 10.5852 1.21024 10.7986 0.854361 11.369C0.558912 11.8336 0.152364 13.8016 0.0302781 14.3684C-0.1089 15.0116 0.278724 14.6564 0.246371 15.2989C0.200589 16.2172 0.146871 17.1771 0.558912 18.033C0.81288 18.5456 1.01256 19.0835 1.15469 19.6378C1.26823 20.1007 1.39887 20.5549 1.61191 20.9774C2.29071 22.3224 3.00308 23.646 4.03166 24.7777C4.75075 25.5682 5.47838 26.344 6.2695 27.0655C6.71756 27.4745 7.42383 27.6891 7.90607 28.0339C8.95723 28.7859 9.54385 28.8446 10.7751 29.1509C11.7072 29.3832 13.0947 29.8399 14.044 29.967C14.8095 30.0673 15.5876 29.9375 16.2794 29.5941C17.0729 29.2022 18.0887 29.2438 18.8975 28.9448C19.55 28.7039 20.1074 28.4557 20.7288 28.1592C21.6444 27.7208 21.9179 27.6395 22.8043 27.137C23.0655 26.989 23.842 26.2762 24.0941 26.2248C24.663 26.1086 25.0018 25.6599 25.3723 25.2741C25.6837 24.9507 25.8607 24.5185 26.2215 24.2464C26.5206 24.0208 26.6964 23.6998 26.9308 23.4247C27.2018 23.1074 27.1139 22.669 27.4716 22.4117C27.9087 22.0968 27.996 21.6511 28.0912 21.0483C28.1175 20.8789 28.0582 20.7652 28.1187 20.6319C28.2896 20.2504 28.698 19.7332 28.7859 19.345C28.919 18.7581 28.9232 18.2934 28.9116 17.6845C28.9049 17.3409 28.9324 17.2394 29.0148 17.0016C28.9568 16.9722 28.8317 16.4514 28.7138 16.6537C28.4477 17.111 28.1962 18.3656 28.0338 18.8687C27.7652 19.7039 27.344 20.4314 26.9027 21.203C26.3252 22.2123 25.6953 23.174 24.8797 23.9976C24.3401 24.5423 23.7748 25.0546 23.3805 25.7265C23.2657 25.9228 23.1137 26.1258 22.927 26.245C22.1993 26.7096 21.4833 27.1951 20.6983 27.5649C20.1434 27.826 19.3053 27.7325 18.751 27.974C18.0313 28.2876 17.5002 28.5798 16.7396 28.6495C15.1079 28.7987 13.5904 28.6868 11.9783 28.4759C11.5345 28.4178 10.9814 28.1996 10.5743 28.0259C9.43642 27.5429 8.30834 27.0318 7.20041 26.4834C6.62599 26.1985 6.19564 26.1166 5.84647 25.5823C5.60779 25.2154 5.6023 25.3817 5.43992 25.3567C5.38903 25.3461 5.3432 25.3187 5.30994 25.2787C5.27667 25.2387 5.25793 25.1886 5.25679 25.1366C5.23421 24.8358 4.65186 24.118 4.45469 23.9095C4.1629 23.6038 3.9346 23.2303 3.66113 22.8971C3.28876 22.4453 2.99942 21.9244 2.67528 21.4328C2.6063 21.3277 2.54831 21.2079 2.45613 21.1351C2.32123 20.7365 1.70469 20.2926 1.73949 19.9643C1.74986 19.8708 1.50569 18.7171 1.43732 18.5655C1.15347 17.9364 1.18521 18.0856 0.901364 17.616C0.918456 17.4277 0.923339 17.2058 1.00453 17.2419C1.03078 17.1514 1.09914 17.0487 1.07473 16.9796C0.85314 16.3639 1.08449 15.7617 1.14432 15.1632C1.21635 14.4418 1.42267 13.735 1.5356 13.016C1.74315 11.6924 2.20158 10.6066 2.83826 9.41625C3.14653 8.83911 3.4487 8.07122 3.77894 7.51426C4.27949 6.66567 4.92472 6.05001 5.55468 5.29252C5.99664 4.76245 6.58265 4.25318 7.13509 3.83133C8.1594 3.0506 9.29785 2.53338 10.5431 2.2228C11.8788 1.89265 13.2089 1.2501 14.6129 1.34242C16.8153 1.48242 19.0837 2.03266 20.9864 3.29882C22.0522 4.00924 22.9886 4.86027 23.9238 5.72659C25.0116 6.73475 25.8949 7.53627 26.6469 8.85317C27.1188 9.67914 27.761 10.7387 28.2286 11.5665C28.2737 11.6472 28.2926 11.7829 28.4837 11.7346C28.4227 11.6459 28.6131 11.852 28.6058 11.7829C28.5051 10.8903 27.8531 9.82648 27.5491 9.00846C27.4997 8.87701 27.46 8.74557 27.424 8.61596C27.7817 9.11423 28.1034 9.6284 28.3268 10.1603C28.6754 10.9875 28.7004 11.8257 28.9312 12.6822C29.0166 13.0014 28.9794 13.3816 29.0532 13.735C29.204 14.3998 29.2258 15.0875 29.1173 15.7605C29.11 15.8125 29.1163 15.8655 29.1357 15.9143C29.155 15.9631 29.1868 16.006 29.2278 16.0387C29.2889 16.0858 29.3426 16.1414 29.3725 16.1328C29.5385 16.082 29.6855 15.9823 29.7943 15.8468C29.9032 15.7113 29.9689 15.5462 29.9829 15.3729C30.0257 14.8642 30.0049 14.3066 29.7229 13.9245C29.6461 13.8152 29.5951 13.6897 29.5739 13.5577C29.4555 13.0295 29.3231 12.6627 29.2938 12.1369C29.2461 11.2883 29.1717 10.787 28.8665 10.0001C28.3238 8.61229 27.4032 7.05267 26.4809 5.89289ZM25.8125 6.36487C25.8072 6.3494 25.8061 6.33284 25.8091 6.31678C25.812 6.30072 25.8191 6.2857 25.8296 6.27316C25.8906 6.22731 25.9376 6.26216 25.9767 6.31474C26.0731 6.44557 26.1073 6.49387 26.2038 6.6247C25.9083 6.70907 25.9431 6.50304 25.8125 6.36487Z" fill="url(#paint1_linear_124_1180)"/>
<path d="M20.6365 21.8787C19.9804 21.8838 19.3921 21.7453 18.7999 21.6285C18.6963 21.608 18.5931 21.589 18.4886 21.5725C18.3744 21.5567 18.281 21.5843 18.2289 21.6932C17.8115 22.5638 17.0387 23.0164 16.093 23.2516C15.1908 23.4762 14.281 23.458 13.3742 23.2662C13.2156 23.2327 13.1115 23.2497 12.9901 23.3704C12.3722 23.9845 11.0601 24.1901 10.2582 23.8045C9.61826 23.4971 9.37801 22.9497 9.27227 22.3266C9.21983 22.0196 9.24986 21.7098 9.22998 21.4016C9.2194 21.2544 9.29088 21.1616 9.4533 21.1439C9.61572 21.1261 9.72527 21.1932 9.75403 21.3511C9.80267 21.6175 9.85765 21.8819 9.97989 22.1289C10.1914 22.5551 10.4942 22.6861 10.973 22.5508C11.2094 22.4841 11.4429 22.4051 11.6324 22.2493C11.8067 22.106 11.8134 21.9888 11.6624 21.8254C11.4484 21.5942 11.1549 21.4746 10.8698 21.3467C10.471 21.168 10.1059 20.9474 9.83439 20.6155C9.1881 19.8262 9.05529 18.958 9.47783 18.0531C9.72823 17.5172 9.73753 17.0235 9.49433 16.4963C9.28285 16.0353 9.12762 15.5531 9.15131 15.044C9.1843 14.3265 9.39578 13.6707 9.95451 13.1454C10.0662 13.0408 10.1863 12.9591 10.3449 13.0483C10.5035 13.1375 10.4908 13.2713 10.4384 13.4141C10.3415 13.6778 10.4439 13.8877 10.6499 14.0692C10.6908 14.1055 10.7368 14.1366 10.7865 14.1616C11.1722 14.3514 11.2517 14.662 11.1883 15.0298C11.1722 15.1205 11.1545 15.2113 11.1342 15.3013C11.1189 15.3696 11.1155 15.437 11.1862 15.4777C11.2636 15.5223 11.3359 15.4903 11.3977 15.441C11.5499 15.3226 11.6239 15.1561 11.6794 14.986C11.849 14.4718 12.1281 14.0108 12.4635 13.5767C12.7103 13.2472 13.0057 12.952 13.3412 12.6998C13.6436 12.4785 13.718 12.1998 13.647 11.8766C13.5704 11.5297 13.4444 11.1911 13.3814 10.8427C13.2003 9.84662 13.4347 8.9354 14.0818 8.12324C14.2835 7.87028 14.5048 7.62915 14.7162 7.38527C14.9952 7.07618 15.1757 6.70035 15.2373 6.30041C15.2428 6.26095 15.2568 6.22385 15.2652 6.18518C15.2877 6.08533 15.3452 6.01469 15.4573 6.00167C15.5694 5.98865 15.6345 6.05337 15.6874 6.14058C15.8883 6.47089 15.8963 6.82449 15.8722 7.19268C15.802 8.27438 15.7127 9.35766 15.8929 10.4382C15.9407 10.731 16.0277 11.0171 16.1518 11.2898C16.2037 11.4125 16.2836 11.5232 16.3861 11.6142C16.4994 11.7101 16.6348 11.7492 16.7773 11.6971C16.9199 11.645 16.9605 11.5266 16.9723 11.394C16.993 11.1592 16.9376 10.9354 16.8623 10.7156C16.7245 10.3131 16.7164 9.9145 16.8928 9.52025C17.0734 9.11693 17.3779 8.84937 17.8495 8.7661C18.2082 8.70375 18.3355 8.83082 18.3148 9.1639C18.2827 9.72941 18.2454 10.3083 18.594 10.8115C19.1861 11.6639 19.2428 12.5795 19.0461 13.542C18.9438 14.0436 19.0038 14.5239 19.3468 14.9485C19.6399 15.3092 19.7533 15.722 19.7368 16.1719C19.73 16.3577 19.7487 16.5408 19.8493 16.707C19.906 16.8009 19.9762 16.8834 20.1077 16.8838C20.2482 16.8838 20.326 16.8001 20.3831 16.6983C20.4412 16.5927 20.4737 16.4764 20.4783 16.3577C20.5099 15.8246 20.4297 15.2908 20.2422 14.7863C20.2262 14.7429 20.2088 14.6995 20.197 14.6549C20.1627 14.5231 20.1733 14.4023 20.3197 14.3325C20.4588 14.2662 20.5789 14.3013 20.6796 14.4066C20.9384 14.6774 21.1026 14.9986 21.2113 15.3404C21.5073 16.2666 21.564 17.2129 21.4485 18.1695C21.3982 18.587 21.3242 19.0018 21.2717 19.4193C21.2459 19.6281 21.2358 19.8404 21.3542 20.035C21.4811 20.2457 21.6643 20.3732 21.9341 20.3641C22.1164 20.3582 22.2327 20.2891 22.2725 20.1048C22.3292 19.8416 22.4374 19.7429 22.6007 19.7654C22.7496 19.7855 22.9035 19.9971 22.8968 20.1995C22.8849 20.6802 22.676 21.0772 22.283 21.3866C21.7971 21.7694 21.218 21.8953 20.6365 21.8787Z" fill="url(#paint2_linear_124_1180)"/>
<path d="M17.6245 7.43381C17.6398 7.24872 17.6668 7.07863 17.776 6.93538C17.9054 6.76687 18.0775 6.74753 18.2459 6.88092C18.5614 7.13152 18.5842 7.71992 18.2924 7.98985C18.1067 8.16033 17.8077 8.09719 17.7036 7.86436C17.6406 7.72229 17.6436 7.56956 17.6245 7.43381Z" fill="url(#paint3_linear_124_1180)"/>
<path d="M10.3737 11.98C10.3711 11.6458 10.5505 11.4149 10.8169 11.4098C11.0453 11.4062 11.2568 11.5822 11.2323 11.791C11.19 12.1359 11.0745 12.3553 10.7823 12.3644C10.5488 12.3719 10.3754 12.2077 10.3737 11.98Z" fill="url(#paint4_linear_124_1180)"/>
<path d="M8 20.5172C8 20.2962 8.18103 20.119 8.40266 20.1226C8.65009 20.1261 8.86538 20.3329 8.86792 20.5697C8.8713 20.7962 8.66617 20.9975 8.43608 20.9927C8.20598 20.988 8 20.7591 8 20.5172Z" fill="url(#paint5_linear_124_1180)"/>
<path d="M20.5108 12.7634C20.5168 13.0357 20.4436 13.158 20.2494 13.1876C20.0553 13.2172 19.8764 13.089 19.7956 12.8597C19.7469 12.7217 19.7587 12.5712 19.8286 12.4414C19.8975 12.3036 20.0109 12.2227 20.1763 12.2373C20.3497 12.2527 20.4567 12.3498 20.4867 12.5104C20.5024 12.5933 20.5032 12.6789 20.5108 12.7634Z" fill="url(#paint6_linear_124_1180)"/>
<path d="M23 18.3641C23.0006 18.4085 22.9917 18.4527 22.974 18.4939C22.9562 18.5352 22.9298 18.5728 22.8964 18.6045C22.863 18.6362 22.8231 18.6614 22.7792 18.6787C22.7353 18.6959 22.6881 18.7049 22.6405 18.705C22.5476 18.7029 22.4595 18.6665 22.3954 18.6038C22.3313 18.5412 22.2963 18.4574 22.2983 18.3708C22.2983 18.1735 22.4459 18.0255 22.6468 18.0243C22.8477 18.0231 23.0012 18.1667 23 18.3641Z" fill="url(#paint7_linear_124_1180)"/>
<defs>
<filter id="filter0_b_124_1180" x="-1" y="-1" width="32" height="32" filterUnits="userSpaceOnUse" color-interpolation-filters="sRGB">
<feFlood flood-opacity="0" result="BackgroundImageFix"/>
<feGaussianBlur in="BackgroundImage" stdDeviation="1"/>
<feComposite in2="SourceAlpha" operator="in" result="effect1_backgroundBlur_124_1180"/>
<feBlend mode="normal" in="SourceGraphic" in2="effect1_backgroundBlur_124_1180" result="shape"/>
</filter>
<linearGradient id="paint0_linear_124_1180" x1="15" y1="0" x2="15" y2="30" gradientUnits="userSpaceOnUse">
<stop stop-color="#D51321"/>
<stop offset="1" stop-color="#850000"/>
</linearGradient>
<linearGradient id="paint1_linear_124_1180" x1="15" y1="0" x2="15" y2="30" gradientUnits="userSpaceOnUse">
<stop stop-color="#D51321"/>
<stop offset="1" stop-color="#850000"/>
</linearGradient>
<linearGradient id="paint2_linear_124_1180" x1="15.5" y1="6" x2="15.5" y2="24" gradientUnits="userSpaceOnUse">
<stop stop-color="#D51321"/>
<stop offset="1" stop-color="#850000"/>
</linearGradient>
<linearGradient id="paint3_linear_124_1180" x1="15.5" y1="6" x2="15.5" y2="24" gradientUnits="userSpaceOnUse">
<stop stop-color="#D51321"/>
<stop offset="1" stop-color="#850000"/>
</linearGradient>
<linearGradient id="paint4_linear_124_1180" x1="15.5" y1="6" x2="15.5" y2="24" gradientUnits="userSpaceOnUse">
<stop stop-color="#D51321"/>
<stop offset="1" stop-color="#850000"/>
</linearGradient>
<linearGradient id="paint5_linear_124_1180" x1="15.5" y1="6" x2="15.5" y2="24" gradientUnits="userSpaceOnUse">
<stop stop-color="#D51321"/>
<stop offset="1" stop-color="#850000"/>
</linearGradient>
<linearGradient id="paint6_linear_124_1180" x1="15.5" y1="6" x2="15.5" y2="24" gradientUnits="userSpaceOnUse">
<stop stop-color="#D51321"/>
<stop offset="1" stop-color="#850000"/>
</linearGradient>
<linearGradient id="paint7_linear_124_1180" x1="15.5" y1="6" x2="15.5" y2="24" gradientUnits="userSpaceOnUse">
<stop stop-color="#D51321"/>
<stop offset="1" stop-color="#850000"/>
</linearGradient>
</defs>
</svg>
