<svg width="30" height="30" viewBox="0 0 30 30" fill="none" xmlns="http://www.w3.org/2000/svg">
<g filter="url(#filter0_b_124_1179)">
<circle cx="15" cy="15" r="14" fill="black" fill-opacity="0.7"/>
</g>
<path d="M29.0423 16.9154C29.0313 16.946 29.0215 16.9765 29.0123 17.001C29.0264 17.0083 29.0368 16.9863 29.0423 16.9154Z" fill="url(#paint0_linear_124_1179)"/>
<path d="M26.4809 5.89289C25.998 5.28579 25.4309 4.74656 24.9402 4.14558C24.0588 3.06569 22.924 2.22147 21.6371 1.68845C20.9186 1.38277 19.7649 0.932183 19.0495 0.608154C18.5044 0.363603 18.6832 0.878382 17.9971 0.576362C16.7935 0.0346329 15.4545 -0.130306 14.1557 0.103157C13.1021 0.303077 11.9795 0.237048 10.9356 0.539679C10.0108 0.807462 9.15623 1.26599 8.28881 1.67011C7.46472 2.05528 6.82377 2.60307 5.9185 3.03348C4.9821 3.48223 4.4382 4.36506 4.03288 5.33226C3.73132 6.05001 3.174 6.62409 2.63255 7.17066C2.17717 7.62981 2.36762 8.41359 1.89515 8.76513C1.5533 9.02008 1.94703 9.59049 1.73582 10.0074C1.44282 10.5852 1.21024 10.7986 0.854361 11.369C0.558912 11.8336 0.152364 13.8016 0.0302781 14.3684C-0.1089 15.0116 0.278724 14.6564 0.246371 15.2989C0.200589 16.2172 0.146871 17.1771 0.558912 18.033C0.81288 18.5456 1.01256 19.0835 1.15469 19.6378C1.26823 20.1007 1.39887 20.5549 1.61191 20.9774C2.29071 22.3224 3.00308 23.646 4.03166 24.7777C4.75075 25.5682 5.47838 26.344 6.2695 27.0655C6.71756 27.4745 7.42383 27.6891 7.90607 28.0339C8.95723 28.7859 9.54385 28.8446 10.7751 29.1509C11.7072 29.3832 13.0947 29.8399 14.044 29.967C14.8095 30.0673 15.5876 29.9375 16.2794 29.5941C17.0729 29.2022 18.0887 29.2438 18.8975 28.9448C19.55 28.7039 20.1074 28.4557 20.7288 28.1592C21.6444 27.7208 21.9179 27.6395 22.8043 27.137C23.0655 26.989 23.842 26.2762 24.0941 26.2248C24.663 26.1086 25.0018 25.6599 25.3723 25.2741C25.6837 24.9507 25.8607 24.5185 26.2215 24.2464C26.5206 24.0208 26.6964 23.6998 26.9308 23.4247C27.2018 23.1074 27.1139 22.669 27.4716 22.4117C27.9087 22.0968 27.996 21.6511 28.0912 21.0483C28.1175 20.8789 28.0582 20.7652 28.1187 20.6319C28.2896 20.2504 28.698 19.7332 28.7859 19.345C28.919 18.7581 28.9232 18.2934 28.9116 17.6845C28.9049 17.3409 28.9324 17.2394 29.0148 17.0016C28.9568 16.9722 28.8317 16.4514 28.7138 16.6537C28.4477 17.111 28.1962 18.3656 28.0338 18.8687C27.7652 19.7039 27.344 20.4314 26.9027 21.203C26.3252 22.2123 25.6953 23.174 24.8797 23.9976C24.3401 24.5423 23.7748 25.0546 23.3805 25.7265C23.2657 25.9228 23.1137 26.1258 22.927 26.245C22.1993 26.7096 21.4833 27.1951 20.6983 27.5649C20.1434 27.826 19.3053 27.7325 18.751 27.974C18.0313 28.2876 17.5002 28.5798 16.7396 28.6495C15.1079 28.7987 13.5904 28.6868 11.9783 28.4759C11.5345 28.4178 10.9814 28.1996 10.5743 28.0259C9.43642 27.5429 8.30834 27.0318 7.20041 26.4834C6.62599 26.1985 6.19564 26.1166 5.84647 25.5823C5.60779 25.2154 5.6023 25.3817 5.43992 25.3567C5.38903 25.3461 5.3432 25.3187 5.30994 25.2787C5.27667 25.2387 5.25793 25.1886 5.25679 25.1366C5.23421 24.8358 4.65186 24.118 4.45469 23.9095C4.1629 23.6038 3.9346 23.2303 3.66113 22.8971C3.28876 22.4453 2.99942 21.9244 2.67528 21.4328C2.6063 21.3277 2.54831 21.2079 2.45613 21.1351C2.32123 20.7365 1.70469 20.2926 1.73949 19.9643C1.74986 19.8708 1.50569 18.7171 1.43732 18.5655C1.15347 17.9364 1.18521 18.0856 0.901364 17.616C0.918456 17.4277 0.923339 17.2058 1.00453 17.2419C1.03078 17.1514 1.09914 17.0487 1.07473 16.9796C0.85314 16.3639 1.08449 15.7617 1.14432 15.1632C1.21635 14.4418 1.42267 13.735 1.5356 13.016C1.74315 11.6924 2.20158 10.6066 2.83826 9.41625C3.14653 8.83911 3.4487 8.07122 3.77894 7.51426C4.27949 6.66567 4.92472 6.05001 5.55468 5.29252C5.99664 4.76245 6.58265 4.25318 7.13509 3.83133C8.1594 3.0506 9.29785 2.53338 10.5431 2.2228C11.8788 1.89265 13.2089 1.2501 14.6129 1.34242C16.8153 1.48242 19.0837 2.03266 20.9864 3.29882C22.0522 4.00924 22.9886 4.86027 23.9238 5.72659C25.0116 6.73475 25.8949 7.53627 26.6469 8.85317C27.1188 9.67914 27.761 10.7387 28.2286 11.5665C28.2737 11.6472 28.2926 11.7829 28.4837 11.7346C28.4227 11.6459 28.6131 11.852 28.6058 11.7829C28.5051 10.8903 27.8531 9.82648 27.5491 9.00846C27.4997 8.87701 27.46 8.74557 27.424 8.61596C27.7817 9.11423 28.1034 9.6284 28.3268 10.1603C28.6754 10.9875 28.7004 11.8257 28.9312 12.6822C29.0166 13.0014 28.9794 13.3816 29.0532 13.735C29.204 14.3998 29.2258 15.0875 29.1173 15.7605C29.11 15.8125 29.1163 15.8655 29.1357 15.9143C29.155 15.9631 29.1868 16.006 29.2278 16.0387C29.2889 16.0858 29.3426 16.1414 29.3725 16.1328C29.5385 16.082 29.6855 15.9823 29.7943 15.8468C29.9032 15.7113 29.9689 15.5462 29.9829 15.3729C30.0257 14.8642 30.0049 14.3066 29.7229 13.9245C29.6461 13.8152 29.5951 13.6897 29.5739 13.5577C29.4555 13.0295 29.3231 12.6627 29.2938 12.1369C29.2461 11.2883 29.1717 10.787 28.8665 10.0001C28.3238 8.61229 27.4032 7.05267 26.4809 5.89289ZM25.8125 6.36487C25.8072 6.3494 25.8061 6.33284 25.8091 6.31678C25.812 6.30072 25.8191 6.2857 25.8296 6.27316C25.8906 6.22731 25.9376 6.26216 25.9767 6.31474C26.0731 6.44557 26.1073 6.49387 26.2038 6.6247C25.9083 6.70907 25.9431 6.50304 25.8125 6.36487Z" fill="url(#paint1_linear_124_1179)"/>
<path d="M12.1902 15.2453C12.3361 16.1082 12.7212 16.7591 13.3735 17.2541C13.5083 17.3564 13.6031 17.3608 13.6963 17.2145C13.7304 17.1658 13.7678 17.1195 13.8081 17.0758C13.9608 16.8954 14.0802 16.8693 14.2519 16.9775C14.4236 17.0857 14.4727 17.2522 14.3708 17.4424C14.2466 17.6755 14.1093 17.9014 13.9596 18.119C13.2193 19.1837 12.3786 20.1683 11.5081 21.1275C10.8959 21.8013 10.2705 22.4668 9.55832 23.0408C8.94129 23.5378 8.26398 23.9053 7.45661 23.9885C7.22625 24.0128 6.99344 23.9985 6.76781 23.9461C6.34945 23.8478 6.09764 23.4498 6.15871 23.0107C6.21661 22.5984 6.39664 22.229 6.56478 21.8564C7.08881 20.6916 7.79208 19.6161 8.64903 18.6688C8.81122 18.4884 8.96627 18.4532 9.1118 18.5665C9.2728 18.6918 9.29144 18.8785 9.14591 19.0755C8.8829 19.4321 8.66176 19.8178 8.48684 20.2249C8.41897 20.3754 8.36198 20.5305 8.31633 20.6891C8.15771 21.2734 8.54196 21.6519 9.13361 21.5064C9.38353 21.4399 9.61441 21.3158 9.80775 21.1441C10.84 20.2672 11.8153 19.3255 12.7279 18.3247C12.8441 18.1983 12.8259 18.1408 12.697 18.0366C11.547 17.1075 11.0251 15.9077 11.1746 14.4296C11.1913 14.2647 11.1378 14.1394 11.0557 14.0063C10.8626 13.6971 10.9328 13.5651 11.2908 13.5405C11.3068 13.5414 11.3227 13.5388 11.3376 13.5329C11.3524 13.527 11.3658 13.518 11.3769 13.5064C11.4873 13.3888 11.5499 13.2342 11.5523 13.073C11.5547 12.9117 11.4968 12.7553 11.39 12.6344C10.3869 11.5103 9.46256 10.3184 8.62365 9.06707C8.49834 8.88078 8.37938 8.69091 8.30205 8.47806C8.21005 8.22121 8.33655 8.04205 8.60779 8.04205C8.83938 8.04205 9.04717 8.12133 9.24227 8.23667C10.2067 8.79927 11.1423 9.40992 12.0455 10.0663C12.1058 10.1071 12.1571 10.1598 12.1962 10.2213C12.2814 10.3676 12.3635 10.515 12.2311 10.6771C12.0986 10.8393 11.9467 10.796 11.7826 10.731C11.386 10.5725 11.0418 10.3263 10.6817 10.1052C10.5977 10.0532 10.51 10.0069 10.4216 9.96208C10.3748 9.93869 10.3145 9.91293 10.2753 9.96208C10.2313 10.0168 10.2896 10.0592 10.3205 10.0976C10.7032 10.5697 11.0791 11.0489 11.4705 11.5103C12.2371 12.4125 13.0423 13.2777 13.8858 14.1062C14.2099 14.4267 14.5613 14.7185 14.9359 14.9782C14.9577 14.9928 14.9799 15.0079 15.0005 15.0241C15.1528 15.1454 15.1885 15.2858 15.0921 15.4205C14.9875 15.5656 14.8507 15.5624 14.7063 15.4851C14.2181 15.2204 13.7569 14.9086 13.3295 14.5541C13.0523 14.3302 12.7875 14.0914 12.5364 13.8386C12.4289 13.7288 12.3849 13.7593 12.3381 13.8885C12.2005 14.2643 12.2314 14.4118 12.5142 14.6781C12.8711 15.0138 13.2407 15.3321 13.6245 15.6377C13.7165 15.7131 13.8036 15.7941 13.8855 15.8803C13.987 15.9846 14.0687 16.1011 13.9572 16.2462C13.8537 16.3813 13.7193 16.3742 13.5853 16.3009C13.4727 16.2457 13.3649 16.1814 13.2629 16.1086C12.9762 15.8855 12.6966 15.6532 12.4143 15.4249L12.1902 15.2453Z" fill="url(#paint2_linear_124_1179)"/>
<path d="M23.0636 7.81057C23.0798 8.01946 23.0219 8.24896 22.9149 8.46458C22.1733 9.95455 21.2525 11.3141 20.0093 12.4378C19.9455 12.4957 19.8836 12.5567 19.796 12.5758C19.7534 12.5838 19.7094 12.5797 19.6691 12.5638C19.6287 12.548 19.5937 12.5211 19.568 12.4862C19.5335 12.4493 19.5124 12.4019 19.508 12.3516C19.5037 12.3013 19.5162 12.251 19.5438 12.2087C19.6378 12.0422 19.7421 11.8805 19.8341 11.7136C20.2211 11.0184 20.5415 10.2966 20.7065 9.51339C20.7672 9.22483 20.6752 8.99057 20.4475 8.81379C20.2199 8.63701 19.963 8.62551 19.7052 8.76345C19.0202 9.13588 18.3598 9.55173 17.728 10.0085C16.7339 10.7193 15.7959 11.5055 14.9224 12.3601C14.8518 12.4291 14.786 12.5064 14.6885 12.5389C14.493 12.6047 14.2919 12.4509 14.301 12.2166C14.3062 12.0581 14.2471 12.0668 14.1385 12.1041C13.9064 12.1816 13.686 12.2904 13.4834 12.4275C13.3247 12.5357 13.2058 12.5143 13.092 12.3669C12.9956 12.2408 12.8937 12.1203 12.7973 11.9939C12.6696 11.8234 12.6855 11.7164 12.8612 11.5975C13.498 11.1591 14.2047 10.9237 14.9768 10.9114C15.0878 10.9145 15.1981 10.8924 15.2995 10.8469C15.4008 10.8014 15.4906 10.7336 15.5621 10.6486C16.6549 9.44283 17.82 8.31317 19.131 7.34364C19.6082 6.98961 20.1051 6.66287 20.6192 6.365C21.7177 5.73279 23.0628 6.50809 23.0636 7.81057Z" fill="url(#paint3_linear_124_1179)"/>
<path d="M18.9708 14.9029C18.9755 15.5526 18.826 16.1941 18.5346 16.7749C18.376 17.0976 18.3883 17.1737 18.6658 17.402C19.6176 18.1856 20.6486 18.8535 21.7133 19.4695C21.7647 19.4993 21.8203 19.5211 21.8783 19.5341C22.0845 19.5793 22.1816 19.4944 22.1697 19.2848C22.159 19.0889 22.0563 18.9363 21.935 18.7933C21.4524 18.2233 20.9575 17.6652 20.4206 17.1447C20.2527 16.9852 20.1051 16.8056 19.9812 16.61C19.8864 16.4574 19.8832 16.308 20.0038 16.172C20.1307 16.0293 20.2925 16.0175 20.4563 16.0955C20.6693 16.2032 20.8608 16.349 21.0213 16.5256C21.8969 17.4444 22.7388 18.3921 23.497 19.412C23.7056 19.6926 23.8444 20.0065 23.9613 20.3264C24.1045 20.72 23.8341 21.1148 23.4133 21.1525C23.1952 21.1712 22.9757 21.1414 22.7705 21.0653C21.9945 20.7878 21.2878 20.3732 20.5895 19.9439C19.685 19.3838 18.8121 18.7743 17.9747 18.1182C17.6948 17.8969 17.4298 17.6574 17.1816 17.4012C17.0166 17.2339 17.0071 17.0651 17.1637 16.8915C17.6427 16.3611 17.9128 15.742 17.9457 15.0285C17.9854 14.143 17.6887 13.3816 17.0336 12.7743C16.8774 12.6301 16.6898 12.632 16.5074 12.7648C16.325 12.8976 16.1505 13.0383 15.9729 13.1755C15.8539 13.2682 15.7223 13.3158 15.5997 13.1917C15.4772 13.0677 15.5236 12.94 15.6271 12.8235C15.9911 12.4136 16.352 12.001 16.7196 11.5947C16.8667 11.4318 16.9972 11.4164 17.1756 11.5377C18.1609 12.1983 18.7479 13.1157 18.9367 14.2901C18.9537 14.3877 18.9656 14.4861 18.9724 14.585C18.9755 14.6912 18.9708 14.7994 18.9708 14.9029Z" fill="url(#paint4_linear_124_1179)"/>
<path d="M21.682 22.4534C21.1233 22.4371 20.597 22.3083 20.0708 22.1814C19.058 21.9377 18.075 21.6174 17.1863 21.055C16.9226 20.8881 16.6708 20.7089 16.4725 20.4604C16.308 20.2527 16.2719 20.0664 16.3663 19.9582C16.4606 19.85 16.6363 19.852 16.8683 20.0208C17.3838 20.397 17.9314 20.7109 18.5358 20.921C18.598 20.9424 18.6825 21.0169 18.7285 20.9285C18.7745 20.8401 18.6682 20.8096 18.6143 20.77C17.8705 20.2201 17.1681 19.6166 16.5126 18.9641C16.3266 18.7782 16.116 18.7057 15.8476 18.7584C15.501 18.8238 15.1879 19.0076 14.9621 19.2784C14.4224 19.8944 13.8847 20.5127 13.3005 21.0882C13.2212 21.1675 13.1419 21.2468 13.0551 21.3189C12.9183 21.4335 12.7688 21.4624 12.6264 21.3328C12.492 21.2103 12.4678 21.0553 12.5634 20.9023C12.6531 20.7638 12.754 20.6328 12.8651 20.5107C13.5509 19.7415 14.2382 18.9737 14.9272 18.2074C14.9934 18.1337 15.0549 18.0556 15.1255 17.9847C15.2547 17.8519 15.2587 17.7072 15.181 17.5486C15.152 17.4896 15.1199 17.4297 15.0937 17.3711C15.0299 17.2228 15.0438 17.0865 15.1679 16.9747C15.292 16.8629 15.4209 16.8891 15.549 16.9707C15.8075 17.1352 16.0177 17.3536 16.2326 17.5693C17.4282 18.7675 18.6305 19.9594 20.1259 20.7953C20.808 21.1762 21.5075 21.5203 22.2859 21.6626C22.5122 21.7048 22.7422 21.7247 22.9724 21.722C23.217 21.7181 23.3292 21.8207 23.338 22.0368C23.3455 22.2453 23.2448 22.359 23.012 22.3757C22.5655 22.4074 22.117 22.4288 21.682 22.4534Z" fill="url(#paint5_linear_124_1179)"/>
<path d="M6.33993 7.27467C6.36174 6.94846 6.40695 6.62542 6.74679 6.474C7.07077 6.32893 7.34835 6.48114 7.60413 6.67932C7.73774 6.78793 7.8514 6.91897 7.94 7.06658C8.05223 7.24534 8.02249 7.42331 7.86823 7.53985C7.79581 7.59946 7.70334 7.62917 7.60973 7.62291C7.51612 7.61664 7.42844 7.57488 7.36461 7.50616C7.36025 7.5018 7.35589 7.49625 7.35153 7.49149C7.2742 7.41539 7.21432 7.239 7.12034 7.28419C7.01446 7.33492 7.09337 7.49704 7.1128 7.60921C7.24208 8.34647 7.59184 8.987 7.98521 9.60931C8.45353 10.347 9.03329 11.001 9.5488 11.7029C9.61939 11.7989 9.69195 11.894 9.72844 12.0093C9.76492 12.1247 9.76452 12.2337 9.67094 12.3213C9.57061 12.4148 9.46196 12.3799 9.35885 12.3241C9.08127 12.1726 8.86991 11.9404 8.67322 11.7018C8.01059 10.8983 7.35906 10.0826 6.88757 9.14278C6.59214 8.55337 6.39109 7.93622 6.33993 7.27467Z" fill="url(#paint6_linear_124_1179)"/>
<path d="M6.35183 9.87884C6.46445 9.88162 6.5501 9.94067 6.6314 10.0116C6.80786 10.1666 6.92286 10.3684 7.05689 10.5566C7.89847 11.741 8.82359 12.8637 9.82519 13.9163C9.93 14.0171 10.019 14.1331 10.0893 14.2603C10.1162 14.3065 10.1278 14.36 10.1223 14.4132C10.1168 14.4663 10.0945 14.5163 10.0588 14.556C9.97707 14.6535 9.87199 14.6452 9.76928 14.5996C9.48575 14.4748 9.27122 14.254 9.04043 14.0586C7.98442 13.1652 7.1021 12.1164 6.3209 10.9804C6.17814 10.7723 6.06116 10.5511 6.00881 10.301C5.96044 10.0675 6.11628 9.87607 6.35183 9.87884Z" fill="url(#paint7_linear_124_1179)"/>
<path d="M19.963 23.3682C18.9723 23.3228 17.9998 23.0862 17.0991 22.6714C16.4884 22.3963 15.9114 22.0653 15.3999 21.6285C15.3297 21.5687 15.2587 21.5096 15.1945 21.443C15.0323 21.2769 15.0168 21.0716 15.1489 20.9087C15.2809 20.7458 15.4597 20.7172 15.6616 20.8381C16.0522 21.0728 16.4372 21.3138 16.8282 21.5492C17.7839 22.12 18.8245 22.4759 19.8955 22.7538C20.0359 22.7903 20.1731 22.8366 20.3115 22.8826C20.4388 22.9254 20.5098 23.0202 20.4995 23.153C20.4896 23.2933 20.3853 23.3297 20.2616 23.3377C20.1378 23.3456 20.0252 23.361 19.963 23.3682Z" fill="url(#paint8_linear_124_1179)"/>
<path d="M6.14324 19.6827C6.14919 19.5313 6.23842 19.3597 6.35778 19.2098C7.2512 18.0893 8.18111 16.9969 9.23434 16.0202C9.40227 15.8604 9.59845 15.7331 9.8129 15.6449C9.89221 15.6132 9.97866 15.5775 10.0508 15.6556C10.123 15.7337 10.0754 15.805 10.0449 15.8775C9.93028 16.1506 9.74073 16.3722 9.53928 16.5819C8.58241 17.5784 7.6882 18.6292 6.81539 19.6982C6.7222 19.8123 6.61712 19.9122 6.47674 19.9641C6.263 20.043 6.14126 19.9586 6.14324 19.6827Z" fill="url(#paint9_linear_124_1179)"/>
<path d="M9.63049 7.49664C9.63287 7.28974 9.85454 7.13277 10.0703 7.19421C10.1594 7.21979 10.2443 7.25811 10.3225 7.30797C11.1306 7.82603 11.9087 8.38174 12.5693 9.0857C12.7767 9.30727 12.9659 9.54509 13.1621 9.77777C13.2172 9.84371 13.266 9.91456 13.3081 9.98943C13.345 10.0556 13.4048 10.1297 13.3374 10.207C13.27 10.2843 13.1891 10.2324 13.1205 10.1999C13.0435 10.162 12.9695 10.1181 12.8992 10.0687C11.8912 9.37743 10.9347 8.616 9.94019 7.9053C9.87089 7.85417 9.80469 7.79898 9.74192 7.74002C9.70593 7.7107 9.67717 7.6735 9.65785 7.6313C9.63852 7.5891 9.62916 7.54303 9.63049 7.49664Z" fill="url(#paint10_linear_124_1179)"/>
<path d="M15.0263 9.83881C15.0347 9.75992 15.0607 9.68392 15.1025 9.61644C15.2214 9.38258 15.3995 9.19668 15.5783 9.01039C16.2731 8.2775 16.9936 7.57077 17.7566 6.90962C17.7863 6.88346 17.8156 6.8569 17.8474 6.83351C18.0151 6.71103 18.1828 6.72491 18.305 6.87038C18.4212 7.00911 18.4069 7.15695 18.2443 7.30084C17.7899 7.70355 17.3322 8.10349 16.9012 8.52959C16.5443 8.88196 16.1854 9.23196 15.8496 9.60455C15.7032 9.76706 15.5414 9.91491 15.342 10.0096C15.1794 10.0857 15.0271 9.99815 15.0263 9.83881Z" fill="url(#paint11_linear_124_1179)"/>
<path d="M20.5812 14.954C20.4503 14.9508 20.3651 14.8406 20.3924 14.694C20.4233 14.5509 20.4952 14.4199 20.5994 14.317C21.3452 13.5243 22.0553 12.6998 22.7297 11.8437C22.8193 11.7291 22.9347 11.67 23.0751 11.7549C23.2154 11.8397 23.2864 11.9733 23.242 12.1409C23.2215 12.2036 23.1894 12.2618 23.1472 12.3126C22.5137 13.1405 21.8271 13.9266 21.0919 14.6658C20.9527 14.8073 20.8005 14.9373 20.5812 14.954Z" fill="url(#paint12_linear_124_1179)"/>
<path d="M23.4169 9.98229C23.406 10.1212 23.3564 10.2543 23.2737 10.3664C22.7241 11.1488 22.1674 11.9261 21.4805 12.5984C21.4043 12.6809 21.3152 12.7506 21.2168 12.8049C21.1018 12.8615 20.9789 12.917 20.871 12.8049C20.7695 12.6994 20.8132 12.5797 20.8754 12.4763C20.9382 12.368 21.0123 12.2666 21.0963 12.1738C21.7181 11.5071 22.3038 10.8131 22.7642 10.0215C22.8248 9.91096 22.9131 9.81796 23.0203 9.7516C23.11 9.69809 23.2035 9.67233 23.3007 9.72901C23.3979 9.78569 23.4232 9.87646 23.4169 9.98229Z" fill="url(#paint13_linear_124_1179)"/>
<path d="M9.72764 19.4635C9.97271 19.4825 10.1567 19.3791 10.3141 19.196C10.5592 18.9106 10.8142 18.6335 11.0676 18.3549C11.2143 18.1939 11.3816 18.1777 11.5407 18.3021C11.6997 18.4266 11.7199 18.5903 11.5855 18.7715C11.2143 19.2713 10.8118 19.743 10.3225 20.1334C10.1492 20.2717 9.96557 20.3835 9.72764 20.3601C9.60481 20.3487 9.48959 20.2956 9.40114 20.2096C9.31269 20.1237 9.25634 20.01 9.24148 19.8876C9.21213 19.6185 9.39177 19.4623 9.72764 19.4635Z" fill="url(#paint14_linear_124_1179)"/>
<path d="M17.5714 10.9867C17.5719 10.8739 17.6168 10.7659 17.6963 10.6859C18.1781 10.2197 18.7007 9.81066 19.3178 9.53638C19.4625 9.47137 19.6076 9.43173 19.7409 9.55897C19.8741 9.6862 19.8353 9.83088 19.7782 9.97952C19.6332 10.3773 19.4172 10.7454 19.1405 11.066C19.0854 11.1282 19.0235 11.2198 18.9284 11.1484C18.8411 11.0834 18.9177 11.0045 18.949 10.9368C18.9803 10.869 19.0235 10.7972 19.0584 10.7263C19.0981 10.6446 19.1639 10.5515 19.0656 10.4778C18.9748 10.4092 18.9069 10.4932 18.8459 10.5519C18.6294 10.7643 18.418 10.9823 18.1999 11.1936C18.0036 11.3839 17.7367 11.3494 17.6174 11.1219C17.598 11.0783 17.5826 11.0331 17.5714 10.9867Z" fill="url(#paint15_linear_124_1179)"/>
<path d="M11.9146 6.86086C12.0414 6.86713 12.1616 6.91893 12.2533 7.00673C12.789 7.47722 13.3057 7.96714 13.709 8.5609C13.7972 8.70021 13.8747 8.84596 13.941 8.99691C13.9826 9.08411 14.0361 9.18559 13.9326 9.26645C13.8291 9.34731 13.7451 9.26843 13.6642 9.21571C13.5144 9.11932 13.375 9.00775 13.2482 8.88276C12.7768 8.4116 12.3057 7.94058 11.8349 7.46969C11.7449 7.37971 11.6707 7.28062 11.6557 7.14823C11.6346 6.96194 11.7286 6.85729 11.9146 6.86086Z" fill="url(#paint16_linear_124_1179)"/>
<path d="M12.1601 22.2437C12.164 22.2865 12.1244 22.3693 12.0736 22.4478C11.7262 22.9857 11.2698 23.4225 10.788 23.8351C10.7466 23.868 10.6986 23.8916 10.6472 23.9045C10.4886 23.9477 10.3601 23.893 10.2634 23.7677C10.1738 23.6512 10.2265 23.5422 10.3007 23.4423C10.5445 23.1137 10.8067 22.7998 11.0815 22.497C11.2452 22.3162 11.4102 22.1363 11.574 21.9555C11.6703 21.8489 11.783 21.7898 11.9257 21.8497C12.0685 21.9095 12.149 22.0284 12.1601 22.2437Z" fill="url(#paint17_linear_124_1179)"/>
<path d="M19.4114 6.38403C19.4141 6.59529 19.2583 6.7586 19.058 6.75463C18.8748 6.75107 18.6904 6.56715 18.6845 6.38284C18.6785 6.19852 18.8534 6.00866 19.0414 6.00034C19.2389 5.99122 19.4082 6.16761 19.4114 6.38403Z" fill="url(#paint18_linear_124_1179)"/>
<path d="M10.2618 17.0627C10.3551 17.0682 10.4428 17.1095 10.5064 17.1779C10.5701 17.2463 10.6049 17.3367 10.6036 17.4301C10.5949 17.6176 10.4188 17.7825 10.236 17.7734C10.1897 17.7707 10.1444 17.7588 10.1028 17.7384C10.0611 17.718 10.024 17.6894 9.99362 17.6543C9.96323 17.6193 9.94018 17.5785 9.92583 17.5344C9.91147 17.4903 9.90611 17.4438 9.91006 17.3976C9.92037 17.2173 10.0869 17.0587 10.2618 17.0627Z" fill="url(#paint19_linear_124_1179)"/>
<path d="M16.0633 16.0515C16.0668 15.966 16.1042 15.8854 16.1672 15.8274C16.1984 15.7987 16.2349 15.7764 16.2747 15.7618C16.3145 15.7472 16.3568 15.7406 16.3992 15.7424C16.4415 15.7441 16.4831 15.7542 16.5216 15.772C16.5601 15.7898 16.5947 15.815 16.6234 15.8462C16.6521 15.8774 16.6744 15.9139 16.689 15.9537C16.7036 15.9935 16.7102 16.0358 16.7085 16.0781C16.705 16.1636 16.6676 16.2442 16.6046 16.3022C16.5416 16.3602 16.4582 16.3908 16.3726 16.3873C16.287 16.3838 16.2064 16.3464 16.1484 16.2834C16.0904 16.2205 16.0598 16.1371 16.0633 16.0515Z" fill="url(#paint20_linear_124_1179)"/>
<path d="M10.2899 12.5797C10.367 12.5837 10.4395 12.6177 10.4919 12.6743C10.5443 12.731 10.5724 12.8058 10.5704 12.8829C10.5683 12.9601 10.5362 13.0333 10.4808 13.0871C10.4254 13.1408 10.3513 13.1709 10.2741 13.1707C10.1977 13.1652 10.1262 13.1309 10.0741 13.0748C10.022 13.0186 9.99313 12.9449 9.99333 12.8683C10.0005 12.7117 10.1397 12.5762 10.2899 12.5797Z" fill="url(#paint21_linear_124_1179)"/>
<defs>
<filter id="filter0_b_124_1179" x="-1" y="-1" width="32" height="32" filterUnits="userSpaceOnUse" color-interpolation-filters="sRGB">
<feFlood flood-opacity="0" result="BackgroundImageFix"/>
<feGaussianBlur in="BackgroundImage" stdDeviation="1"/>
<feComposite in2="SourceAlpha" operator="in" result="effect1_backgroundBlur_124_1179"/>
<feBlend mode="normal" in="SourceGraphic" in2="effect1_backgroundBlur_124_1179" result="shape"/>
</filter>
<linearGradient id="paint0_linear_124_1179" x1="15" y1="0" x2="15" y2="30" gradientUnits="userSpaceOnUse">
<stop stop-color="#D51321"/>
<stop offset="1" stop-color="#850000"/>
</linearGradient>
<linearGradient id="paint1_linear_124_1179" x1="15" y1="0" x2="15" y2="30" gradientUnits="userSpaceOnUse">
<stop stop-color="#D51321"/>
<stop offset="1" stop-color="#850000"/>
</linearGradient>
<linearGradient id="paint2_linear_124_1179" x1="15" y1="6" x2="15" y2="24" gradientUnits="userSpaceOnUse">
<stop stop-color="#D51321"/>
<stop offset="1" stop-color="#850000"/>
</linearGradient>
<linearGradient id="paint3_linear_124_1179" x1="15" y1="6" x2="15" y2="24" gradientUnits="userSpaceOnUse">
<stop stop-color="#D51321"/>
<stop offset="1" stop-color="#850000"/>
</linearGradient>
<linearGradient id="paint4_linear_124_1179" x1="15" y1="6" x2="15" y2="24" gradientUnits="userSpaceOnUse">
<stop stop-color="#D51321"/>
<stop offset="1" stop-color="#850000"/>
</linearGradient>
<linearGradient id="paint5_linear_124_1179" x1="15" y1="6" x2="15" y2="24" gradientUnits="userSpaceOnUse">
<stop stop-color="#D51321"/>
<stop offset="1" stop-color="#850000"/>
</linearGradient>
<linearGradient id="paint6_linear_124_1179" x1="15" y1="6" x2="15" y2="24" gradientUnits="userSpaceOnUse">
<stop stop-color="#D51321"/>
<stop offset="1" stop-color="#850000"/>
</linearGradient>
<linearGradient id="paint7_linear_124_1179" x1="15" y1="6" x2="15" y2="24" gradientUnits="userSpaceOnUse">
<stop stop-color="#D51321"/>
<stop offset="1" stop-color="#850000"/>
</linearGradient>
<linearGradient id="paint8_linear_124_1179" x1="15" y1="6" x2="15" y2="24" gradientUnits="userSpaceOnUse">
<stop stop-color="#D51321"/>
<stop offset="1" stop-color="#850000"/>
</linearGradient>
<linearGradient id="paint9_linear_124_1179" x1="15" y1="6" x2="15" y2="24" gradientUnits="userSpaceOnUse">
<stop stop-color="#D51321"/>
<stop offset="1" stop-color="#850000"/>
</linearGradient>
<linearGradient id="paint10_linear_124_1179" x1="15" y1="6" x2="15" y2="24" gradientUnits="userSpaceOnUse">
<stop stop-color="#D51321"/>
<stop offset="1" stop-color="#850000"/>
</linearGradient>
<linearGradient id="paint11_linear_124_1179" x1="15" y1="6" x2="15" y2="24" gradientUnits="userSpaceOnUse">
<stop stop-color="#D51321"/>
<stop offset="1" stop-color="#850000"/>
</linearGradient>
<linearGradient id="paint12_linear_124_1179" x1="15" y1="6" x2="15" y2="24" gradientUnits="userSpaceOnUse">
<stop stop-color="#D51321"/>
<stop offset="1" stop-color="#850000"/>
</linearGradient>
<linearGradient id="paint13_linear_124_1179" x1="15" y1="6" x2="15" y2="24" gradientUnits="userSpaceOnUse">
<stop stop-color="#D51321"/>
<stop offset="1" stop-color="#850000"/>
</linearGradient>
<linearGradient id="paint14_linear_124_1179" x1="15" y1="6" x2="15" y2="24" gradientUnits="userSpaceOnUse">
<stop stop-color="#D51321"/>
<stop offset="1" stop-color="#850000"/>
</linearGradient>
<linearGradient id="paint15_linear_124_1179" x1="15" y1="6" x2="15" y2="24" gradientUnits="userSpaceOnUse">
<stop stop-color="#D51321"/>
<stop offset="1" stop-color="#850000"/>
</linearGradient>
<linearGradient id="paint16_linear_124_1179" x1="15" y1="6" x2="15" y2="24" gradientUnits="userSpaceOnUse">
<stop stop-color="#D51321"/>
<stop offset="1" stop-color="#850000"/>
</linearGradient>
<linearGradient id="paint17_linear_124_1179" x1="15" y1="6" x2="15" y2="24" gradientUnits="userSpaceOnUse">
<stop stop-color="#D51321"/>
<stop offset="1" stop-color="#850000"/>
</linearGradient>
<linearGradient id="paint18_linear_124_1179" x1="15" y1="6" x2="15" y2="24" gradientUnits="userSpaceOnUse">
<stop stop-color="#D51321"/>
<stop offset="1" stop-color="#850000"/>
</linearGradient>
<linearGradient id="paint19_linear_124_1179" x1="15" y1="6" x2="15" y2="24" gradientUnits="userSpaceOnUse">
<stop stop-color="#D51321"/>
<stop offset="1" stop-color="#850000"/>
</linearGradient>
<linearGradient id="paint20_linear_124_1179" x1="15" y1="6" x2="15" y2="24" gradientUnits="userSpaceOnUse">
<stop stop-color="#D51321"/>
<stop offset="1" stop-color="#850000"/>
</linearGradient>
<linearGradient id="paint21_linear_124_1179" x1="15" y1="6" x2="15" y2="24" gradientUnits="userSpaceOnUse">
<stop stop-color="#D51321"/>
<stop offset="1" stop-color="#850000"/>
</linearGradient>
</defs>
</svg>
