<svg width="30" height="30" viewBox="0 0 30 30" fill="none" xmlns="http://www.w3.org/2000/svg">
<g filter="url(#filter0_b_124_1181)">
<circle cx="15" cy="15" r="14" fill="black" fill-opacity="0.7"/>
</g>
<path d="M29.0423 16.9154C29.0313 16.946 29.0215 16.9765 29.0123 17.001C29.0264 17.0083 29.0368 16.9863 29.0423 16.9154Z" fill="url(#paint0_linear_124_1181)"/>
<path d="M26.4809 5.89289C25.998 5.28579 25.4309 4.74656 24.9402 4.14558C24.0588 3.06569 22.924 2.22147 21.6371 1.68845C20.9186 1.38277 19.7649 0.932183 19.0495 0.608154C18.5044 0.363603 18.6832 0.878382 17.9971 0.576362C16.7935 0.0346329 15.4545 -0.130306 14.1557 0.103157C13.1021 0.303077 11.9795 0.237048 10.9356 0.539679C10.0108 0.807462 9.15623 1.26599 8.28881 1.67011C7.46472 2.05528 6.82377 2.60307 5.9185 3.03348C4.9821 3.48223 4.4382 4.36506 4.03288 5.33226C3.73132 6.05001 3.174 6.62409 2.63255 7.17066C2.17717 7.62981 2.36762 8.41359 1.89515 8.76513C1.5533 9.02008 1.94703 9.59049 1.73582 10.0074C1.44282 10.5852 1.21024 10.7986 0.854361 11.369C0.558912 11.8336 0.152364 13.8016 0.0302781 14.3684C-0.1089 15.0116 0.278724 14.6564 0.246371 15.2989C0.200589 16.2172 0.146871 17.1771 0.558912 18.033C0.81288 18.5456 1.01256 19.0835 1.15469 19.6378C1.26823 20.1007 1.39887 20.5549 1.61191 20.9774C2.29071 22.3224 3.00308 23.646 4.03166 24.7777C4.75075 25.5682 5.47838 26.344 6.2695 27.0655C6.71756 27.4745 7.42383 27.6891 7.90607 28.0339C8.95723 28.7859 9.54385 28.8446 10.7751 29.1509C11.7072 29.3832 13.0947 29.8399 14.044 29.967C14.8095 30.0673 15.5876 29.9375 16.2794 29.5941C17.0729 29.2022 18.0887 29.2438 18.8975 28.9448C19.55 28.7039 20.1074 28.4557 20.7288 28.1592C21.6444 27.7208 21.9179 27.6395 22.8043 27.137C23.0655 26.989 23.842 26.2762 24.0941 26.2248C24.663 26.1086 25.0018 25.6599 25.3723 25.2741C25.6837 24.9507 25.8607 24.5185 26.2215 24.2464C26.5206 24.0208 26.6964 23.6998 26.9308 23.4247C27.2018 23.1074 27.1139 22.669 27.4716 22.4117C27.9087 22.0968 27.996 21.6511 28.0912 21.0483C28.1175 20.8789 28.0582 20.7652 28.1187 20.6319C28.2896 20.2504 28.698 19.7332 28.7859 19.345C28.919 18.7581 28.9232 18.2934 28.9116 17.6845C28.9049 17.3409 28.9324 17.2394 29.0148 17.0016C28.9568 16.9722 28.8317 16.4514 28.7138 16.6537C28.4477 17.111 28.1962 18.3656 28.0338 18.8687C27.7652 19.7039 27.344 20.4314 26.9027 21.203C26.3252 22.2123 25.6953 23.174 24.8797 23.9976C24.3401 24.5423 23.7748 25.0546 23.3805 25.7265C23.2657 25.9228 23.1137 26.1258 22.927 26.245C22.1993 26.7096 21.4833 27.1951 20.6983 27.5649C20.1434 27.826 19.3053 27.7325 18.751 27.974C18.0313 28.2876 17.5002 28.5798 16.7396 28.6495C15.1079 28.7987 13.5904 28.6868 11.9783 28.4759C11.5345 28.4178 10.9814 28.1996 10.5743 28.0259C9.43642 27.5429 8.30834 27.0318 7.20041 26.4834C6.62599 26.1985 6.19564 26.1166 5.84647 25.5823C5.60779 25.2154 5.6023 25.3817 5.43992 25.3567C5.38903 25.3461 5.3432 25.3187 5.30994 25.2787C5.27667 25.2387 5.25793 25.1886 5.25679 25.1366C5.23421 24.8358 4.65186 24.118 4.45469 23.9095C4.1629 23.6038 3.9346 23.2303 3.66113 22.8971C3.28876 22.4453 2.99942 21.9244 2.67528 21.4328C2.6063 21.3277 2.54831 21.2079 2.45613 21.1351C2.32123 20.7365 1.70469 20.2926 1.73949 19.9643C1.74986 19.8708 1.50569 18.7171 1.43732 18.5655C1.15347 17.9364 1.18521 18.0856 0.901364 17.616C0.918456 17.4277 0.923339 17.2058 1.00453 17.2419C1.03078 17.1514 1.09914 17.0487 1.07473 16.9796C0.85314 16.3639 1.08449 15.7617 1.14432 15.1632C1.21635 14.4418 1.42267 13.735 1.5356 13.016C1.74315 11.6924 2.20158 10.6066 2.83826 9.41625C3.14653 8.83911 3.4487 8.07122 3.77894 7.51426C4.27949 6.66567 4.92472 6.05001 5.55468 5.29252C5.99664 4.76245 6.58265 4.25318 7.13509 3.83133C8.1594 3.0506 9.29785 2.53338 10.5431 2.2228C11.8788 1.89265 13.2089 1.2501 14.6129 1.34242C16.8153 1.48242 19.0837 2.03266 20.9864 3.29882C22.0522 4.00924 22.9886 4.86027 23.9238 5.72659C25.0116 6.73475 25.8949 7.53627 26.6469 8.85317C27.1188 9.67914 27.761 10.7387 28.2286 11.5665C28.2737 11.6472 28.2926 11.7829 28.4837 11.7346C28.4227 11.6459 28.6131 11.852 28.6058 11.7829C28.5051 10.8903 27.8531 9.82648 27.5491 9.00846C27.4997 8.87701 27.46 8.74557 27.424 8.61596C27.7817 9.11423 28.1034 9.6284 28.3268 10.1603C28.6754 10.9875 28.7004 11.8257 28.9312 12.6822C29.0166 13.0014 28.9794 13.3816 29.0532 13.735C29.204 14.3998 29.2258 15.0875 29.1173 15.7605C29.11 15.8125 29.1163 15.8655 29.1357 15.9143C29.155 15.9631 29.1868 16.006 29.2278 16.0387C29.2889 16.0858 29.3426 16.1414 29.3725 16.1328C29.5385 16.082 29.6855 15.9823 29.7943 15.8468C29.9032 15.7113 29.9689 15.5462 29.9829 15.3729C30.0257 14.8642 30.0049 14.3066 29.7229 13.9245C29.6461 13.8152 29.5951 13.6897 29.5739 13.5577C29.4555 13.0295 29.3231 12.6627 29.2938 12.1369C29.2461 11.2883 29.1717 10.787 28.8665 10.0001C28.3238 8.61229 27.4032 7.05267 26.4809 5.89289ZM25.8125 6.36487C25.8072 6.3494 25.8061 6.33284 25.8091 6.31678C25.812 6.30072 25.8191 6.2857 25.8296 6.27316C25.8906 6.22731 25.9376 6.26216 25.9767 6.31474C26.0731 6.44557 26.1073 6.49387 26.2038 6.6247C25.9083 6.70907 25.9431 6.50304 25.8125 6.36487Z" fill="url(#paint1_linear_124_1181)"/>
<path d="M21.6268 8.50426C21.5685 9.94231 21.022 11.1835 20.0942 12.2507C19.4408 13.0022 18.7526 13.7218 18.0772 14.4528C17.8355 14.7141 17.596 14.7304 17.3286 14.4831C16.4859 13.6933 15.6481 12.898 14.8154 12.0972C14.5977 11.889 14.5672 11.6287 14.7619 11.4216C15.6629 10.4726 16.4613 9.42175 17.481 8.5959C18.2473 7.96876 19.1603 7.55281 20.1316 7.3883C20.3779 7.34817 20.6281 7.33907 20.8765 7.36119C21.2776 7.39373 21.5845 7.72504 21.6251 8.15288C21.6364 8.26892 21.6268 8.38768 21.6268 8.50426Z" fill="url(#paint2_linear_124_1181)"/>
<path d="M10.8573 18.1162C10.6605 18.101 10.4947 18.1916 10.3488 18.3402C10.2028 18.4888 10.0359 18.6373 9.80868 18.6655C9.46859 18.7094 9.17235 18.5647 9.01888 18.2789C8.85846 17.9747 8.90017 17.6396 9.16112 17.3571C9.77499 16.6901 10.3953 16.0291 11.0134 15.3654C11.0252 15.3524 11.038 15.3394 11.0509 15.3269C11.3252 15.0623 11.6326 15.0319 11.9107 15.2895C12.7064 16.0269 13.4937 16.7734 14.2726 17.529C14.5608 17.8088 14.5501 18.1444 14.2726 18.4448C13.3304 19.4679 12.3857 20.4879 11.4385 21.5048C11.1022 21.8654 10.6461 21.8843 10.321 21.572C10.0087 21.2705 10.006 20.8128 10.3242 20.4582C10.683 20.0564 11.0546 19.6665 11.4113 19.2653C11.6123 19.0386 11.615 18.7626 11.4974 18.5029C11.3797 18.2431 11.1632 18.1054 10.8573 18.1162Z" fill="url(#paint3_linear_124_1181)"/>
<path d="M16.6789 15.7037C16.6703 15.8241 16.619 15.9372 16.5345 16.022C16.3121 16.2682 16.0918 16.5166 15.8613 16.7546C15.6308 16.9927 15.3827 17.0095 15.1335 16.7752C14.2919 15.9828 13.4541 15.1875 12.6203 14.3893C12.3684 14.148 12.3684 13.9149 12.5994 13.6573C12.8208 13.41 13.0427 13.1628 13.2743 12.9258C13.4967 12.6986 13.7266 12.6877 13.9566 12.9041C14.8073 13.7017 15.6485 14.5054 16.4928 15.3068C16.5499 15.3557 16.596 15.4165 16.6281 15.4849C16.6602 15.5534 16.6775 15.628 16.6789 15.7037Z" fill="url(#paint4_linear_124_1181)"/>
<path d="M9.67393 11.132C9.37608 11.1277 9.16914 10.9769 9.04615 10.7101C8.92317 10.4434 8.97878 10.1473 9.21566 9.92116C9.75574 9.41036 10.306 8.91095 10.8503 8.40774C11.0284 8.24506 11.2006 8.07263 11.3851 7.91971C11.7129 7.65509 12.1048 7.68763 12.3663 7.98695C12.4263 8.05444 12.4725 8.13331 12.5023 8.21901C12.5321 8.30471 12.5449 8.39554 12.54 8.48627C12.535 8.577 12.5124 8.66583 12.4734 8.74766C12.4344 8.82948 12.3798 8.90267 12.3128 8.963C11.599 9.63919 10.8691 10.298 10.1402 10.9596C10.0775 11.018 10.004 11.0633 9.92402 11.0929C9.84401 11.1225 9.75902 11.1358 9.67393 11.132Z" fill="url(#paint5_linear_124_1181)"/>
<path d="M18.3692 20.0277C18.0542 20.0277 17.8548 19.884 17.7275 19.6297C17.5863 19.3439 17.6526 19.0793 17.85 18.8531C18.3205 18.3109 18.8002 17.7789 19.2766 17.2427C19.4434 17.0556 19.6049 16.8631 19.7798 16.6831C20.0696 16.3859 20.4846 16.3637 20.7632 16.6191C20.8321 16.6805 20.8882 16.7552 20.9282 16.839C20.9681 16.9228 20.9911 17.0138 20.9957 17.1067C21.0004 17.1997 20.9866 17.2926 20.9552 17.38C20.9238 17.4674 20.8754 17.5476 20.8129 17.6157C20.1669 18.3602 19.5049 19.0907 18.8462 19.8243C18.7872 19.8928 18.7136 19.9468 18.6309 19.982C18.5482 20.0173 18.4587 20.0329 18.3692 20.0277Z" fill="url(#paint6_linear_124_1181)"/>
<path d="M15.7629 6.00176C15.8932 6.00213 16.0207 6.04058 16.1301 6.11251C16.2394 6.18445 16.326 6.28682 16.3794 6.40737C16.5083 6.6785 16.4741 6.95396 16.2725 7.16652C15.9753 7.47806 15.6588 7.77003 15.325 8.04063C15.0303 8.2776 14.6475 8.21632 14.4106 7.94465C14.1737 7.67299 14.1512 7.29395 14.4004 7.03096C14.7015 6.71266 15.0362 6.42581 15.3629 6.13407C15.4177 6.08632 15.4812 6.05003 15.5499 6.02732C15.6185 6.00461 15.6909 5.99593 15.7629 6.00176Z" fill="url(#paint7_linear_124_1181)"/>
<path d="M21.5316 14.6572C21.2722 14.6507 21.0653 14.5455 20.9396 14.3096C20.814 14.0737 20.799 13.8129 20.9605 13.5911C21.2315 13.2215 21.5384 12.8803 21.8765 12.5728C22.1283 12.3429 22.5032 12.3738 22.7572 12.6004C23.0005 12.8173 23.0844 13.1801 22.8999 13.4594C22.6326 13.8644 22.2909 14.2104 21.9332 14.5357C21.8776 14.5821 21.8134 14.6168 21.7445 14.6376C21.6755 14.6585 21.6031 14.6651 21.5316 14.6572Z" fill="url(#paint8_linear_124_1181)"/>
<path d="M9.78087 22.7362C9.75574 23.3256 9.16166 23.9574 8.72211 23.997C8.15262 24.0485 7.72484 23.4368 7.98472 22.9157C8.13617 22.6177 8.36319 22.3659 8.64243 22.1864C8.89536 22.0237 9.16754 22.0313 9.4226 22.1956C9.66484 22.3523 9.78462 22.5822 9.78087 22.7362Z" fill="url(#paint9_linear_124_1181)"/>
<path d="M7.00027 19.9648C7.00027 19.5006 7.43447 19.0657 7.89487 19.0695C8.0927 19.0729 8.28131 19.1549 8.42011 19.2979C8.55892 19.4409 8.63682 19.6334 8.63708 19.8341C8.63708 20.2847 8.18469 20.7342 7.73445 20.7288C7.63637 20.7289 7.53927 20.7091 7.44888 20.6705C7.3585 20.6319 7.27666 20.5753 7.20821 20.504C7.13976 20.4328 7.0861 20.3484 7.05038 20.2558C7.01466 20.1631 6.99762 20.0642 7.00027 19.9648Z" fill="url(#paint10_linear_124_1181)"/>
<defs>
<filter id="filter0_b_124_1181" x="-1" y="-1" width="32" height="32" filterUnits="userSpaceOnUse" color-interpolation-filters="sRGB">
<feFlood flood-opacity="0" result="BackgroundImageFix"/>
<feGaussianBlur in="BackgroundImage" stdDeviation="1"/>
<feComposite in2="SourceAlpha" operator="in" result="effect1_backgroundBlur_124_1181"/>
<feBlend mode="normal" in="SourceGraphic" in2="effect1_backgroundBlur_124_1181" result="shape"/>
</filter>
<linearGradient id="paint0_linear_124_1181" x1="15" y1="0" x2="15" y2="30" gradientUnits="userSpaceOnUse">
<stop stop-color="#D51321"/>
<stop offset="1" stop-color="#850000"/>
</linearGradient>
<linearGradient id="paint1_linear_124_1181" x1="15" y1="0" x2="15" y2="30" gradientUnits="userSpaceOnUse">
<stop stop-color="#D51321"/>
<stop offset="1" stop-color="#850000"/>
</linearGradient>
<linearGradient id="paint2_linear_124_1181" x1="15" y1="6" x2="15" y2="24" gradientUnits="userSpaceOnUse">
<stop stop-color="#D51321"/>
<stop offset="1" stop-color="#850000"/>
</linearGradient>
<linearGradient id="paint3_linear_124_1181" x1="15" y1="6" x2="15" y2="24" gradientUnits="userSpaceOnUse">
<stop stop-color="#D51321"/>
<stop offset="1" stop-color="#850000"/>
</linearGradient>
<linearGradient id="paint4_linear_124_1181" x1="15" y1="6" x2="15" y2="24" gradientUnits="userSpaceOnUse">
<stop stop-color="#D51321"/>
<stop offset="1" stop-color="#850000"/>
</linearGradient>
<linearGradient id="paint5_linear_124_1181" x1="15" y1="6" x2="15" y2="24" gradientUnits="userSpaceOnUse">
<stop stop-color="#D51321"/>
<stop offset="1" stop-color="#850000"/>
</linearGradient>
<linearGradient id="paint6_linear_124_1181" x1="15" y1="6" x2="15" y2="24" gradientUnits="userSpaceOnUse">
<stop stop-color="#D51321"/>
<stop offset="1" stop-color="#850000"/>
</linearGradient>
<linearGradient id="paint7_linear_124_1181" x1="15" y1="6" x2="15" y2="24" gradientUnits="userSpaceOnUse">
<stop stop-color="#D51321"/>
<stop offset="1" stop-color="#850000"/>
</linearGradient>
<linearGradient id="paint8_linear_124_1181" x1="15" y1="6" x2="15" y2="24" gradientUnits="userSpaceOnUse">
<stop stop-color="#D51321"/>
<stop offset="1" stop-color="#850000"/>
</linearGradient>
<linearGradient id="paint9_linear_124_1181" x1="15" y1="6" x2="15" y2="24" gradientUnits="userSpaceOnUse">
<stop stop-color="#D51321"/>
<stop offset="1" stop-color="#850000"/>
</linearGradient>
<linearGradient id="paint10_linear_124_1181" x1="15" y1="6" x2="15" y2="24" gradientUnits="userSpaceOnUse">
<stop stop-color="#D51321"/>
<stop offset="1" stop-color="#850000"/>
</linearGradient>
</defs>
</svg>
