<svg width="300" height="301" viewBox="0 0 300 301" fill="none" xmlns="http://www.w3.org/2000/svg">
<path d="M181.255 2.27973C187.023 3.86239 190.781 5.28378 193.306 6.5081C194.575 7.10533 195.544 7.61894 196.31 8.0788C197.07 8.55659 197.614 9.00451 198.057 9.3927C199.792 10.9992 199.81 11.9011 203.484 14.1645C203.484 14.1645 202.802 13.8958 201.755 13.5673C200.702 13.2448 199.302 12.8208 197.902 12.3908C196.501 11.9608 195.107 11.5248 194.036 11.2859C192.971 11.0172 192.265 10.838 192.265 10.838C185.025 8.12658 175.523 5.46892 168.282 3.96391C164.674 3.18752 161.652 2.60821 159.839 2.05876C158.02 1.60487 157.398 1.19278 158.595 0.852364C159.367 0.703057 162.532 0.517917 166.792 0.5C168.917 0.5 171.298 0.720974 173.781 0.94792C176.265 1.16889 178.802 1.73029 181.267 2.27376L181.255 2.27973Z" fill="#850000"/>
<path d="M153.826 5.88698C155.968 5.95268 156.309 6.22143 158.439 6.28115L152.198 7.87575L153.826 5.88698Z" fill="#850000"/>
<path d="M219.431 20.8535C219.431 20.8535 221.89 22.0718 224.242 23.4992C225.427 24.192 226.617 24.8788 227.509 25.3984C228.401 25.918 228.963 26.3121 228.963 26.3121C229.962 27.1124 229.119 26.7123 228.047 26.1748C226.964 25.6552 225.618 25.04 225.702 25.2311C225.702 25.2311 226.33 25.6731 227.276 26.33C228.191 27.0348 229.412 27.9664 230.632 28.9041C231.841 29.8477 233.074 30.7555 233.935 31.5259C234.809 32.2724 235.395 32.7681 235.395 32.7681C234.588 32.1172 233.828 31.508 233.122 30.9406C232.392 30.3972 231.692 29.9134 231.039 29.4595C229.735 28.5517 228.604 27.7873 227.611 27.1363C225.594 25.8941 224.14 25.1356 223.087 24.5145C220.981 23.2603 220.358 22.7646 219.437 20.8475L219.431 20.8535Z" fill="#850000"/>
<path d="M284.934 138.041C284.599 141.941 284.079 140.472 283.42 137.719C282.702 134.966 281.901 130.91 281.183 129.465C280.967 127.9 280.853 126.365 280.758 125.028C280.626 123.696 280.578 122.549 280.62 121.743C280.71 120.13 281.177 119.88 282.122 122.31C282.331 123.349 282.523 124.305 282.702 125.201C282.858 126.097 283.002 126.927 283.133 127.703C283.415 129.25 283.69 130.576 283.941 131.764C284.33 134.159 284.683 136.011 284.934 138.041Z" fill="#850000"/>
<path d="M267.893 62.5996C266.876 62.0442 265.332 60.354 263.447 58.2876C261.508 56.263 259.402 53.7189 257.2 51.533C256.117 50.4222 255.1 49.3292 254.118 48.3916C253.119 47.4719 252.216 46.6596 251.462 46.0266C249.954 44.7605 249.038 44.217 249.158 44.9516C249.367 46.2177 249.571 47.4659 251.246 49.7831C251.246 49.7831 251.827 50.249 252.646 50.9955C253.46 51.754 254.543 52.7633 255.632 53.7726C256.733 54.7759 257.804 55.8032 258.564 56.6154C259.342 57.4157 259.863 57.9472 259.863 57.9472C262.202 60.8259 263.597 63.0236 264.554 64.457C265.505 65.9023 265.912 66.6787 265.936 66.9892C265.978 67.2938 265.679 67.1087 265.176 66.6548C264.656 66.2188 263.932 65.5201 263.154 64.7735C261.598 63.2745 259.875 61.5545 259.115 61.3156C258.379 61.0588 258.828 62.1099 261.371 66.2606C262.011 67.0908 262.573 67.8134 263.07 68.4584C263.549 69.1154 263.962 69.6947 264.333 70.2083C265.086 71.2295 265.697 71.982 266.313 72.633C272.153 80.182 271.082 77.6975 268.946 72.3882C272.728 78.3067 274.654 82.5111 275.708 85.5271C276.689 88.579 276.934 90.4005 276.928 91.8876C276.898 93.3807 276.701 94.5035 276.88 96.104C276.958 96.9043 277.168 97.8121 277.467 98.9707C277.748 100.135 278.179 101.527 278.825 103.259C282.397 112.737 283.492 114.517 284.521 114.278C285.485 114.069 286.005 111.901 287.178 114.212C286.4 114.349 286.388 116.768 286.49 120.799C286.532 121.803 286.598 122.908 286.682 124.096C286.729 125.29 286.777 126.575 286.831 127.936C286.873 129.298 287.023 130.725 287.023 132.242C287.053 133.747 287.083 135.324 287.118 136.954C287.13 143.476 287.005 150.912 286.143 158.508C285.317 166.105 283.941 173.857 282.194 181.059C280.937 187.892 278.717 194.754 275.875 201.538C275.121 203.217 274.451 204.949 273.595 206.603C272.752 208.263 271.908 209.935 271.058 211.62C270.125 213.256 269.179 214.904 268.234 216.559C267.276 218.207 266.193 219.79 265.17 221.426C256.685 234.32 245.867 246.289 233.349 257.284C227.623 261.506 220.64 265.848 212.825 269.712C205.01 273.576 196.352 276.926 187.442 279.417C187.4 279.261 187.317 279.124 187.305 278.957C186.91 279.214 186.688 279.435 186.736 279.602C185.031 279.817 183.05 280.086 180.926 280.51C178.808 280.958 176.462 281.262 174.057 281.758C171.645 282.218 169.102 282.522 166.577 282.964C164.028 283.269 161.467 283.573 158.984 283.812C156.489 283.944 154.077 284.141 151.827 284.165C149.577 284.147 147.501 284.099 145.688 283.991C142.068 283.597 139.525 283.018 138.789 282.116L135.528 282.092C131.471 281.812 129.478 281.352 128.599 281.125C127.719 280.874 127.964 280.725 128.419 280.569C129.341 280.271 131.094 279.972 126.594 278.945C119.246 277.936 111.036 275.176 103.976 272.268C102.205 271.551 100.475 270.876 98.8716 270.142C97.262 269.425 95.6823 268.846 94.2462 268.237C91.386 267.006 88.819 266.26 86.8265 265.937C85.8631 265.191 87.3351 265.812 86.3657 265.059C86.3657 265.059 85.6896 264.731 84.6843 264.235C83.6611 263.763 82.3387 263.053 81.0343 262.318C79.7179 261.589 78.4014 260.867 77.4201 260.317C76.4627 259.726 75.8225 259.332 75.8225 259.332C74.7753 259.475 72.2562 258.806 73.5128 260.562C71.1612 258.986 68.6959 258.155 65.5724 255.516C57.656 249.024 65.5425 253.611 63.1071 250.827C58.1526 246.856 53.1922 242.46 48.7224 237.462C44.2226 232.499 40.0281 227.118 36.3601 221.438C32.7399 215.728 29.6224 209.756 27.0614 203.748C24.5662 197.704 22.6933 191.618 21.335 185.754C22.5796 185.389 21.1136 178.689 19.9648 170.524C18.7501 162.366 18.1278 152.691 18.2175 146.94C18.9416 141.219 19.4262 135.324 20.2998 129.429C20.629 126.467 21.1974 123.541 21.6462 120.596C21.8855 119.127 22.2326 117.688 22.5078 116.237C22.795 114.785 23.0703 113.34 23.4533 111.931C23.8123 110.509 24.1653 109.106 24.5124 107.708C24.8953 106.323 25.3441 104.967 25.757 103.617C26.5349 100.9 27.6119 98.3615 28.5693 95.8771C29.6284 93.4344 30.7474 91.1172 31.9202 88.9612C33.1887 86.859 34.3555 84.8403 35.7318 83.1143C33.8469 87.9817 30.532 94.1272 28.3359 99.6814C28.0427 100.368 27.7615 101.037 27.4863 101.688C27.2469 102.351 27.0135 102.996 26.7921 103.617C26.3494 104.853 25.9604 105.994 25.6493 106.997C25.0688 109.016 24.8893 110.503 25.1466 111.094C25.1466 111.094 25.6852 110.037 26.2237 108.98C26.7323 107.917 27.3606 106.902 27.3606 106.902C29.3113 102.011 32.4228 95.9547 35.3847 90.4781C36.1626 89.1284 36.9046 87.7966 37.5867 86.5066C38.2629 85.2166 39.0108 84.0341 39.6092 82.8814C40.794 80.5642 41.8351 78.6112 42.3198 77.0585C41.2966 78.1275 40.4589 78.9218 39.7588 79.531C39.0886 80.164 38.5561 80.606 38.0834 80.9524C37.1439 81.6452 36.4797 81.9378 35.636 82.5888C36.6951 80.4447 37.1379 79.0711 37.7722 77.6318C38.4304 76.2104 39.1604 74.6397 40.788 72.0955C42.0864 70.3098 43.3909 68.4524 44.7552 66.7921C46.1494 65.1557 47.4837 63.6089 48.7104 62.3488C51.2475 59.8942 53.1563 58.3892 53.611 58.8251C52.1869 60.7721 50.4516 62.5518 48.86 64.3973C47.2982 66.2666 45.6228 67.9866 44.4021 69.8022C44.444 70.3337 45.0603 69.9634 46.0058 69.0556C46.9871 68.1717 48.3574 66.7921 49.8114 65.2214C51.2654 63.6507 52.9887 62.0382 54.4667 60.5033C55.9925 59.0163 57.4526 57.7621 58.4219 56.9319C54.0897 58.9864 55.9088 55.5523 56.555 53.4919C56.8662 52.4707 56.8841 51.8316 55.5797 52.4408C54.9334 52.7573 53.9641 53.3904 52.54 54.4714C51.0859 55.5165 49.3088 57.129 46.9691 59.3208C46.9691 59.3208 47.5316 58.646 48.3693 57.6307C49.207 56.6154 50.314 55.2478 51.5227 53.9757C52.7135 52.6797 53.9042 51.3837 54.7958 50.4102C55.7293 49.4785 56.3575 48.8574 56.3575 48.8574C57.8714 46.5163 56.4174 47.1195 53.5751 49.1023C52.1929 50.1295 50.5175 51.5509 48.6865 53.0977C46.9033 54.6864 45.0663 56.496 43.2652 58.1981C41.5599 59.9838 39.8964 61.6799 38.5082 63.0834C37.1738 64.5346 36.0669 65.6514 35.3548 66.2009C33.9546 67.3058 34.0563 66.0695 37.3354 60.5452C37.8261 59.279 37.3354 59.1536 37.3474 58.4549C37.3474 58.1025 37.479 57.6068 37.9218 56.7468C38.3706 55.8868 39.0946 54.6266 40.4589 52.9007C39.9443 53.253 39.3938 53.6711 38.8194 54.1489C38.2689 54.6446 37.7004 55.2 37.12 55.7972C35.9711 56.9917 34.7504 58.3175 33.6554 59.709C31.5252 62.5339 29.6105 65.3827 28.8206 67.2401C25.9484 69.2706 20.8144 77.2376 16.8772 85.0195C14.8308 88.8776 13.1912 92.7237 11.7013 95.5247C10.355 98.3854 9.20011 100.237 8.3983 100.195C7.96149 101.742 7.6623 103.277 7.30926 104.74C6.94426 106.197 6.59721 107.613 6.25614 108.98C5.6817 111.751 4.99956 114.319 4.41316 116.792C3.8866 119.282 3.25233 121.635 2.71379 123.941C2.22313 126.258 3.671 128.51 3.14444 130.749C2.68968 133.013 2.23492 135.258 1.78016 137.534C1.38523 139.821 1.05613 142.162 0.709076 144.587C0.385957 147.012 0.254316 149.538 0.0748054 152.196C-0.0688031 154.853 0.0269359 157.648 0.0927565 160.622C0.37399 164.385 0.607354 167.377 0.960391 169.724C1.3254 172.065 1.64253 173.785 1.91778 175.028C2.49221 177.506 2.98288 178.061 3.32395 177.972C4.04199 177.763 2.51633 174.956 4.18578 178.957C4.62259 182.636 5.55605 186.225 6.47155 189.713C7.58451 193.147 8.66158 196.498 10.0498 199.538C12.6108 205.695 15.6864 210.801 17.9722 214.606C18.8279 216.409 19.7075 217.974 20.3058 219.354C20.9341 220.715 21.347 221.85 21.6043 222.603C22.1309 224.09 21.6821 224.233 20.1562 222.005C33.823 249.024 56.92 271.79 84.8519 285.467C91.8408 288.853 99.0691 291.815 106.537 294.055C113.998 296.288 121.622 298.002 129.341 299.089C137.065 300.099 144.844 300.588 152.623 300.487C160.402 300.296 168.157 299.573 175.822 298.277C188.471 296.975 200.277 293.039 211.389 288.082C222.519 283.024 232.954 276.956 244.042 270.679L240.32 272.71C239.62 272.77 242.133 270.763 244.024 269.079C240.326 271.085 236.772 272.961 233.223 274.466C236.383 272.578 239.375 270.411 242.378 268.266C245.275 265.979 248.201 263.728 250.839 261.207C253.095 257.66 260.551 250.421 267.157 242.018C273.793 233.657 279.471 224.179 280.668 219.031C281.948 216.875 282.93 214.809 283.899 212.957C284.372 212.026 284.845 211.148 285.257 210.288C285.652 209.422 286.035 208.598 286.394 207.809C287.112 206.233 287.795 204.823 288.369 203.515C288.919 202.195 289.416 201.007 289.871 199.92C290.332 198.833 290.751 197.848 291.133 196.94C291.487 196.02 291.81 195.178 292.115 194.384C292.743 192.801 293.288 191.427 293.838 190.048C294.323 188.644 294.807 187.241 295.37 185.616C295.639 184.798 295.926 183.926 296.238 182.977C296.495 182.009 296.776 180.958 297.087 179.799C297.386 178.635 297.71 177.357 298.069 175.941C298.374 174.514 298.667 172.943 299.002 171.199C299.164 170.327 299.337 169.414 299.517 168.452C299.648 167.485 299.786 166.475 299.935 165.412C300.193 163.286 299.588 160.963 299.726 158.395C299.948 147.388 299.912 135.354 297.428 123.134C294.909 110.915 290.852 98.5706 285.646 86.7634C281.901 78.2051 278.227 70.3874 279.519 71.4206C278.759 70.2202 277.963 68.9541 277.132 67.6342C276.276 66.3383 275.337 65.0244 274.403 63.6567C272.584 60.8975 270.388 58.204 268.312 55.4209C263.932 50.028 259.27 44.7903 255.046 40.7113C253.903 39.6422 252.766 38.7106 251.707 37.8565C250.648 37.0025 249.666 36.2141 248.757 35.4796C246.926 34.0343 245.286 32.9593 243.976 32.0395C241.355 30.1941 239.668 29.4237 238.956 29.1848C238.22 28.9698 238.369 29.3998 239.171 30.3016C239.572 30.7495 240.135 31.3169 240.829 31.9798C241.505 32.6726 242.301 33.4729 243.204 34.3508C246.89 37.7789 251.839 42.9031 256.476 48.1169C257.607 49.4487 258.732 50.7745 259.833 52.0645C260.94 53.3545 261.915 54.6983 262.902 55.9286C264.901 58.3772 266.511 60.7482 267.881 62.5877L267.893 62.5996Z" fill="#850000"/>
<path d="M34.8462 210.18C36.7729 210.897 32.3869 201.389 31.8244 197.901C31.8244 197.901 31.2679 196.886 30.7115 195.871C30.2088 194.832 29.7002 193.786 29.7002 193.786C29.1437 192.455 28.6291 191.29 28.1564 190.287C27.7196 189.271 27.3546 188.405 27.0076 187.701C26.3194 186.291 25.7809 185.497 25.4159 185.276C24.6739 184.828 24.6141 186.667 25.3202 190.382C25.7809 190.956 26.493 192.084 27.199 193.595C27.8872 195.112 28.7309 196.964 29.6224 198.923C30.0533 199.908 30.496 200.917 30.9448 201.933C31.3876 202.942 31.8962 203.927 32.345 204.907C32.7938 205.886 33.2246 206.836 33.6375 207.732C34.0743 208.616 34.4812 209.446 34.8522 210.192L34.8462 210.18Z" fill="#850000"/>
<path d="M105.412 269.801L103.455 270.584C103.455 270.584 104.317 270.87 105.615 271.294C106.896 271.754 108.655 272.232 110.408 272.71C112.155 273.2 113.903 273.689 115.243 273.952C116.571 274.245 117.457 274.442 117.457 274.442C117.379 273.94 115.632 273.313 113.268 272.543C110.941 271.665 107.931 270.847 105.412 269.795V269.801Z" fill="#850000"/>
<path d="M89.5311 23.5768C82.7815 26.5689 78.1741 28.9578 73.4769 31.4423C68.9113 34.1298 64.2022 36.9368 58.3561 42.2163L62.2634 42.3238C74.7334 33.8193 89.1122 27.2557 105.711 21.5821C110.995 18.6019 105.723 19.5456 99.7931 21.391C98.2912 21.7911 96.8073 22.3704 95.3951 22.8243C93.9949 23.3021 92.6725 23.6903 91.6374 24.0128C89.573 24.6757 88.472 24.7653 89.5431 23.5768H89.5311Z" fill="#850000"/>
<path d="M59.4571 36.7457C64.5731 31.9738 70.509 27.638 76.8876 23.8814C83.3021 20.1846 90.1474 17.0969 97.0107 14.5169C103.874 11.8951 110.833 10.0078 117.451 8.24006C119.114 7.83394 120.76 7.42185 122.376 6.99185C123.997 6.57977 125.613 6.26324 127.186 5.86309C130.334 5.02698 133.415 4.44767 136.353 3.62947C135.468 2.96057 134.038 2.54251 132.183 2.32751C130.322 2.07071 128.048 2.16029 125.469 2.42307C120.293 2.87099 113.974 4.46558 107.482 6.56185C101.008 8.76561 94.4198 11.6383 88.4899 14.5169C82.59 17.4732 77.2825 20.31 73.1178 22.2868C71.8732 23.1528 70.6885 23.971 69.5456 24.7593C68.4207 25.5656 67.3795 26.4077 66.3383 27.196C65.3091 27.9963 64.2859 28.7608 63.2926 29.567C62.3173 30.3912 61.3479 31.2154 60.3546 32.0575C56.3875 35.4019 52.3245 39.2182 47.1008 44.635C43.6302 48.9828 45.2458 48.0512 48.3574 45.4532C49.937 44.1752 51.9535 42.5388 53.9461 40.9322C55.9507 39.3496 57.9791 37.8685 59.4451 36.7397L59.4571 36.7457Z" fill="#850000"/>
<path d="M143.971 6.00643C147.004 5.96462 150.499 5.71976 152.252 5.54656C154.43 5.06281 148.776 4.58503 146.119 4.19683C144.581 4.11919 141.84 4.66864 140.596 5.09267C139.357 5.54059 139.609 5.98254 143.971 6.00643Z" fill="#850000"/>
</svg>
