<svg width="80" height="100" viewBox="0 0 80 100" fill="none" xmlns="http://www.w3.org/2000/svg">
<path d="M14.13 8.63833C13.9237 9.32436 13.4817 9.2804 13.0363 9.77329C12.5909 10.2662 11.5474 10.1614 11.4916 9.51842C11.6032 8.92593 11.111 8.54387 10.7659 8.66919C10.3909 8.80434 9.55596 8.49991 9.63143 8.10522C9.74488 7.51272 10.0065 8.01169 10.284 7.47344C10.397 6.88094 11.028 7.28638 11.5291 7.44211C12.0678 7.39862 11.6698 7.19192 11.9196 6.30902C12.1695 5.42612 13.4587 6.56669 13.4587 6.56669C14.1994 6.37121 14.3363 7.95277 14.13 8.63833ZM53.7109 33.086C51.0703 37.8347 48.3997 42.5668 45.6992 47.2821C44.3181 48.7566 42.9703 49.9972 41.1889 50.9466C39.6765 51.7523 38.4563 52.6366 37.2758 53.8927C34.5099 56.8388 31.8463 58.8992 28.2679 60.8549C32.9296 61.3015 37.6907 61.0779 42.2802 61.3473C45.4038 61.5306 48.2672 62.0684 51.2319 63.1407C54.5791 64.3514 58.5662 63.6041 61.9814 63.2043C63.5575 63.0196 65.7889 62.6623 67.0256 63.9525C68.1657 65.1394 68.3692 67.312 68.8192 68.8104C65.7346 66.9057 61.6996 63.9179 57.9211 65.8175C58.4321 66.1949 58.7148 65.9826 59.0931 66.1196C59.9609 66.4329 60.6636 66.8837 61.4737 67.4435C62.9485 68.4723 64.3244 69.6413 65.7397 70.7454C67.8137 72.0581 69.4966 72.4949 71.8655 72.0165C73.1101 71.7654 74.0979 71.4881 74.9304 70.4868C75.65 69.6222 75.989 69.162 77.1952 68.8239C77.6846 70.4516 78.1778 72.0784 78.6747 73.7042C73.277 75.0786 67.4349 75.9358 61.9856 74.3121C60.0068 73.7229 58.0604 71.9796 56.2822 71.7719C50.6295 71.113 42.1382 71.6854 36.7077 75.6444L36.6791 75.8394C34.9759 78.0794 33.0806 80.8175 32.4093 83.5228C31.5373 87.0375 30.6986 90.8179 30.2148 94.3944C30.1211 95.1015 29.1835 97.0497 28.9064 96.8374C28.5558 96.5689 29.6499 93.8061 29.8975 92.7759C30.8238 88.9202 31.9274 84.4749 31.5776 80.4564C31.384 78.2314 31.9691 75.9447 32.5841 73.8188C31.3986 72.7114 29.2623 72.6913 27.8118 72.6174C22.9865 72.3728 18.6647 72.4682 13.9922 74.3547C13.0696 74.6487 12.145 74.9375 11.2183 75.2212C7.66765 76.2874 6.37893 78.9708 5.56604 82.3074C4.84222 85.2773 4.09965 88.1926 0.744008 89.0778C-0.668942 86.2804 1.20483 84.5417 1.71957 81.6938C1.9249 80.5602 1.88834 78.9347 2.49121 77.9148C3.22206 76.677 4.5225 75.5402 5.35086 74.3308C4.73299 73.5209 4.10621 73.2665 3.52256 72.8372C3.21878 72.6137 2.92156 72.7614 2.56012 72.002C2.27197 71.1712 1.98491 70.3397 1.69895 69.5076C0.997627 67.2466 -0.0913855 65.9559 0.00612401 63.4522C0.218645 62.3336 0.431165 61.2148 0.643686 60.0959C3.34067 59.8153 5.88763 61.1762 8.59024 60.9942C13.5914 60.6585 17.3244 56.0279 20.1432 52.4084C21.4362 50.803 22.888 49.6339 24.4688 48.3441C26.1424 46.9786 27.1034 45.3045 27.9585 43.3404C29.4732 39.3627 31.0849 35.153 31.4126 30.8657C31.5533 29.0358 31.4201 27.082 30.2992 25.5542C28.4161 22.9874 24.9728 22.32 23.2748 19.4674C24.7524 17.0605 27.8024 14.8453 28.1746 12.2013C28.3467 10.9854 26.3426 9.95286 25.3966 9.38234C23.5556 8.2717 21.6279 7.31023 19.8512 6.09344C18.3342 8.15105 16.6601 10.4467 15.9892 12.9009C15.0423 16.3731 14.1042 20.0679 13.5013 23.6037C13.3827 24.2991 12.4775 26.3628 12.1418 26.129C11.7396 25.8521 12.9894 23 13.2444 22.082C14.3452 18.1277 15.5172 13.4405 15.3953 9.41788C15.3264 7.15357 15.9578 4.54228 16.7009 2.31959L17.0684 2.21811L17.1406 1.82389C19.5596 0.682388 22.4577 0.458389 25.0876 0.241404C27.6557 0.0290962 30.3583 -0.15983 32.9212 0.210072C32.286 0.556125 31.1702 0.741778 30.6072 1.21269C30.0029 1.71774 29.7531 2.8382 29.4638 3.52516C32.7065 4.37299 36.147 5.19417 38.7929 7.34905C40.345 8.61167 41.6525 8.78283 43.6604 8.59203C49.2095 8.06547 55.0755 6.98943 60.3711 9.53666C61.3879 10.1048 61.8923 10.912 62.7207 11.6658C63.865 12.7082 65.2883 13.015 66.7664 13.2806C67.5511 13.4209 68.5806 13.6711 69.3818 13.5368C69.3569 12.8929 71.5331 13.2853 71.9456 13.3213C74.6871 13.5593 78.2059 13.708 80 16.1832C78.1201 17.0596 76.2356 17.9258 74.3463 18.7819C73.8016 19.1537 73.067 19.7125 72.3521 20.0777C71.2377 20.5977 70.6096 21.7794 70.3428 22.9079C70.0897 23.9792 69.8684 25.0894 69.6288 26.1636C69.2979 27.6136 69.1835 29.1045 69.2894 30.5879C69.3583 31.5423 68.7044 32.6923 68.3856 32.4907C68.0668 32.2892 67.9168 31.8472 68.2234 30.9428C68.8084 29.2294 68.9233 27.176 69.3794 25.3845C69.6138 24.4646 69.5262 23.4962 69.3546 22.682C69.1596 21.7603 67.5404 23.8015 67.1564 24.1621C66.2559 25.0076 66.2488 26.3155 65.75 27.3925C65.3951 28.1594 64.578 28.8146 64.4468 29.6419C64.3591 30.196 63.7956 29.7354 63.6676 29.0246C63.5167 28.1852 64.3436 29.0559 64.6394 28.1188C64.9207 27.2218 64.6863 26.3165 63.9048 25.7567C63.421 25.5383 62.7924 25.1161 62.3578 24.5077C59.0523 26.9754 56.5415 30.1263 53.7109 33.086ZM11.9046 29.3795C11.426 29.0428 12.3031 27.2106 12.3031 27.2106C12.83 27.762 13.0452 29.3851 11.9046 29.3795ZM23.3432 52.8129C24.826 51.4217 26.795 50.5734 28.5248 49.3991C30.2992 48.1959 31.1627 46.5727 31.8627 44.5867C28.5811 46.8112 25.5756 49.4838 22.6021 52.0937C19.8127 54.5422 16.9329 57.0039 14.476 59.7915C18.6009 59.5254 20.7424 55.2544 23.3461 52.8129H23.3432ZM31.0451 37.4276C30.5294 39.8083 29.1647 41.8374 28.7011 44.2743C32.2593 42.1012 35.3843 38.9932 38.2537 36.0083C41.1603 32.9813 44.5755 29.4543 45.9753 25.4065C43.9262 25.7506 42.1448 26.5311 40.7027 28.0285C39.3151 29.4702 38.1642 30.9578 36.4653 32.0801C38.6775 29.2458 41.3581 27.1699 44.1789 24.987C46.5566 23.1482 48.6141 21.0789 49.4181 18.0931C44.9646 18.6509 40.2939 19.2991 35.9032 18.9558C34.8719 18.8749 33.7936 18.5691 32.9301 17.9429C32.6099 17.7091 32.18 17.0301 31.7933 16.9221C30.2139 16.4816 27.4719 19.9552 26.555 20.8035C27.8113 22.0053 29.6213 22.1087 30.7249 23.6145C33.4083 27.2775 31.8575 33.462 31.046 37.4285L31.0451 37.4276ZM24.5279 79.3584C24.5279 79.3584 24.8968 79.7143 24.5532 80.3634C24.1838 81.062 22.791 80.9096 22.9171 80.1263C23.0432 79.343 24.1646 79.3065 24.1646 79.3065L24.5279 79.3584ZM35.952 31.9997C36.1531 32.5108 36.2539 32.7662 36.4555 33.2764C34.9978 34.389 33.5345 35.4947 32.0656 36.5933C33.3658 35.0666 34.6612 33.5354 35.952 31.9997ZM30.2162 79.7026C30.0287 80.4041 29.5637 80.4896 29.0677 81.157C28.6706 81.6915 27.4911 81.7579 27.4316 80.9526C27.5254 80.3657 27.0097 80.0996 26.6145 80.2469C26.0079 80.5659 25.2803 80.4658 25.3736 79.8789C25.4359 79.487 25.7369 79.9289 26.0116 79.3645C26.1054 78.7776 26.8297 78.8763 27.3739 78.9474C27.9182 79.0184 27.4986 78.8838 27.7082 77.9934C27.9637 76.9085 29.3691 78.006 29.3691 78.006C30.1539 77.7067 30.4 79.0255 30.2162 79.7026ZM28.8056 99.9981C28.4339 99.9607 29.101 98.0457 29.101 98.0457C29.7629 98.555 29.9181 100.052 28.8056 99.9986V99.9981ZM69.2491 10.6959C68.7536 10.8521 68.4282 11.599 68.0616 11.692C67.4353 11.851 66.1977 10.6249 65.7917 10.3129C66.0693 10.0992 66.6628 9.02694 66.9637 8.96381C67.4846 8.85391 69.0002 10.493 69.2491 10.6959Z" fill="url(#paint0_linear_10_100)"/>
<defs>
<linearGradient id="paint0_linear_10_100" x1="40.001" y1="0.000102539" x2="40.001" y2="100" gradientUnits="userSpaceOnUse">
<stop stop-color="#AA0000"/>
<stop offset="1" stop-color="#9A1400"/>
</linearGradient>
</defs>
</svg>
