<svg width="1920" height="800" viewBox="0 0 1920 800" fill="none" xmlns="http://www.w3.org/2000/svg">
<path fill-rule="evenodd" clip-rule="evenodd" d="M-206.193 20.4318C-197.456 17.5165 -191.389 19.8663 -191.367 10.6865C-188.069 14.2926 -183.465 16.709 -178.364 17.5109C-173.263 18.3128 -167.991 17.4489 -163.475 15.071C-165.534 19.739 -169.473 24.7658 -157.198 24.0101C-173.672 25.6113 -190.289 24.3976 -206.193 20.4318Z" fill="url(#paint0_linear_133_1595)"/>
<path fill-rule="evenodd" clip-rule="evenodd" d="M295.717 15.8865C300.934 11.3846 319.025 14.9961 329.364 12.8801C324.138 17.0955 304.814 14.3916 295.717 15.8865Z" fill="url(#paint1_linear_133_1595)"/>
<path fill-rule="evenodd" clip-rule="evenodd" d="M357.408 31.8876C343.092 37.8845 323.65 31.4562 305.436 33.873C316.908 27.698 336.962 33.5292 357.408 31.8876Z" fill="url(#paint2_linear_133_1595)"/>
<path fill-rule="evenodd" clip-rule="evenodd" d="M575.437 45.3583C544.049 49.9995 504.439 44.0548 468.226 45.7251C503.926 42.8317 539.793 42.709 575.437 45.3583Z" fill="url(#paint3_linear_133_1595)"/>
<path fill-rule="evenodd" clip-rule="evenodd" d="M765.346 47.2822C769.312 43.1149 786.449 46.476 796.788 44.36C791.562 48.5754 774.443 45.7873 765.346 47.2822Z" fill="url(#paint4_linear_133_1595)"/>
<path fill-rule="evenodd" clip-rule="evenodd" d="M768.299 50.8983C780.191 57.9019 752.55 51.5 753.299 55.2003C740.481 48.8058 771.522 53.0699 768.299 50.8983Z" fill="url(#paint5_linear_133_1595)"/>
<path fill-rule="evenodd" clip-rule="evenodd" d="M123.455 82.7039C120.47 87.9811 110.226 83.2093 104.871 83.4139C106.56 77.0389 117.758 82.0611 123.455 82.7039Z" fill="url(#paint6_linear_133_1595)"/>
<path fill-rule="evenodd" clip-rule="evenodd" d="M970.373 48.6286C936.497 44.4728 946.581 54.1269 970.373 48.6286V48.6286Z" fill="url(#paint7_linear_133_1595)"/>
<path fill-rule="evenodd" clip-rule="evenodd" d="M484.753 89.2672C511.328 86.7789 538.083 86.9109 564.552 89.6608C537.964 91.7627 511.251 91.631 484.753 89.2672Z" fill="url(#paint8_linear_133_1595)"/>
<path fill-rule="evenodd" clip-rule="evenodd" d="M895.027 79.0437C881.848 76.6602 868.351 75.9214 854.906 76.8475C851.98 74.0909 894.789 71.5949 895.027 79.0437Z" fill="url(#paint9_linear_133_1595)"/>
<path fill-rule="evenodd" clip-rule="evenodd" d="M506.501 98.7627C512.635 93.3652 525.714 98.0286 534.219 97.7038C528.426 103.949 518.091 96.312 506.501 98.7627Z" fill="url(#paint10_linear_133_1595)"/>
<path fill-rule="evenodd" clip-rule="evenodd" d="M1216.22 73.9445C1224.81 76.4845 1239.9 74.761 1250.04 76.3814C1243.84 79.7735 1218.91 79.2916 1216.22 73.9445Z" fill="url(#paint11_linear_133_1595)"/>
<path fill-rule="evenodd" clip-rule="evenodd" d="M1927.2 88.9487C1931.09 90.4194 1935.37 90.8527 1939.54 90.1984C1943.01 100.105 1925.93 98.4631 1921.08 94.6327C1923.23 92.8295 1928.26 92.3505 1927.2 88.9487Z" fill="url(#paint12_linear_133_1595)"/>
<path fill-rule="evenodd" clip-rule="evenodd" d="M-143.376 358.225C-148.73 358.43 -149.36 358.454 -149.785 355.028C-155.14 355.233 -167.812 353.422 -167.999 357.445C-175.157 350.547 -156.254 340.073 -143.723 347.339C-147.005 353.201 -143.855 353.081 -143.376 358.225Z" fill="url(#paint13_linear_133_1595)"/>
<path fill-rule="evenodd" clip-rule="evenodd" d="M-195.461 455.446C-187.403 460.875 -202.887 469.785 -185.805 471.427C-202.325 477.508 -203.773 461.788 -195.461 455.446Z" fill="url(#paint14_linear_133_1595)"/>
<path fill-rule="evenodd" clip-rule="evenodd" d="M2157.41 592.452C2163.54 587.055 2176.62 591.718 2185.12 591.393C2178.69 597.376 2167.75 590.336 2157.41 592.452Z" fill="url(#paint15_linear_133_1595)"/>
<path fill-rule="evenodd" clip-rule="evenodd" d="M-142.24 680.304C-139.72 680.208 -139.35 681.915 -136.201 681.795L-136.082 685.519C-145.846 685.892 -142.828 691.514 -154.232 689.941C-152.479 685.572 -144.308 684.686 -142.24 680.304Z" fill="url(#paint16_linear_133_1595)"/>
<path fill-rule="evenodd" clip-rule="evenodd" d="M-129.859 692.739C-122.93 692.474 -133.416 690.007 -126.883 687.175C-120.351 684.344 -111.135 686.574 -111.276 692.029C-116.183 686.48 -130.854 701.096 -132.758 690.842C-130.248 690.459 -129.896 691.593 -129.859 692.739Z" fill="url(#paint17_linear_133_1595)"/>
<path fill-rule="evenodd" clip-rule="evenodd" d="M433.412 782.802C431.335 786.897 416.403 783.452 409.214 785.447C412.441 777.866 424.009 784.595 433.412 782.802Z" fill="url(#paint18_linear_133_1595)"/>
<path fill-rule="evenodd" clip-rule="evenodd" d="M837.56 778.262C847.776 775.239 858.674 774.823 869.058 777.059C869.223 782.216 852.318 776.264 854.058 781.361C846.667 777.054 848.009 779.584 837.56 778.262Z" fill="url(#paint19_linear_133_1595)"/>
<path fill-rule="evenodd" clip-rule="evenodd" d="M1327.21 765.007C1332.13 771.129 1354.05 766.276 1359 772.971C1348.8 769.632 1326.57 774.784 1327.21 765.007Z" fill="url(#paint20_linear_133_1595)"/>
<path fill-rule="evenodd" clip-rule="evenodd" d="M1134.56 776.095C1142.34 772.93 1168.26 774.808 1171.27 780.143C1159.3 780.6 1154.79 777.617 1134.56 776.095Z" fill="url(#paint21_linear_133_1595)"/>
<path fill-rule="evenodd" clip-rule="evenodd" d="M917.542 784.386C925.816 785.275 933.986 786.786 941.969 788.903C936.446 793.703 923.933 787.01 910.471 790.106C910.371 786.955 913.187 786.273 913.566 788.267C913.945 790.26 916.643 785.854 917.542 784.386Z" fill="url(#paint22_linear_133_1595)"/>
<path fill-rule="evenodd" clip-rule="evenodd" d="M1653.01 756.289C1657.53 759.559 1672.86 755.531 1677.7 759.075C1671.39 759.029 1650.12 764.431 1653.01 756.289Z" fill="url(#paint23_linear_133_1595)"/>
<path fill-rule="evenodd" clip-rule="evenodd" d="M1174.3 776.298C1179.44 779.257 1192.26 775.612 1202.09 777.245C1200.7 783.321 1176.04 781.395 1174.3 776.298Z" fill="url(#paint24_linear_133_1595)"/>
<path fill-rule="evenodd" clip-rule="evenodd" d="M1403.96 778.711C1393.52 777.418 1382.94 777.149 1372.4 777.909C1376.53 768.859 1401.24 772.505 1403.96 778.711Z" fill="url(#paint25_linear_133_1595)"/>
<path fill-rule="evenodd" clip-rule="evenodd" d="M2105.4 781.172C2102.96 783.182 2099.92 784.487 2096.67 784.918C2093.42 785.349 2090.12 784.886 2087.19 783.589C2089.83 781.926 2092.85 780.841 2096.01 780.421C2099.17 780.002 2102.39 780.259 2105.4 781.172Z" fill="url(#paint26_linear_133_1595)"/>
<path fill-rule="evenodd" clip-rule="evenodd" d="M75.9594 37.1896C90.3254 42.6645 52.966 38.068 44.4616 38.3929C44.2696 32.3766 60.6118 30.6049 62.7303 37.695C66.51 37.5506 65.1404 34.1609 65.6972 31.8449C81.446 31.2432 78.7941 37.0813 99.5826 36.2872C102.531 29.864 89.7269 33.7953 84.0298 33.1524C90.5529 30.0348 98.6874 28.003 99.1162 21.6761C109.771 19.548 117.549 26.135 120.471 18.8524C113.089 14.8318 97.0617 16.5915 88.7443 12.8934C88.5797 7.73658 104.26 14.8822 94.6649 10.6594C109.286 4.36399 117.914 17.8027 131.495 18.4313C135.275 18.2869 137.721 15.8987 137.621 12.7473C128.171 13.1083 128.582 6.20841 110.044 8.3508C105.497 4.22189 117.699 1.17419 109.806 0.902024C121.971 -3.29165 147.59 8.92433 149.557 1.39132C165.06 12.8464 206.824 7.23513 244.398 8.66814C227.339 17.6382 272.586 12.4676 287.408 12.475C271.628 21.9699 275.252 16.9552 296.717 17.5694C293.453 24.0046 284.747 18.0266 281.402 21.8834C358.224 27.8406 439.146 23.8887 526.605 27.1449C526.678 29.4368 520.981 28.794 517.526 29.2128C525.268 34.6539 536.045 26.4974 549.023 28.0095C517.827 38.667 477.793 29.2965 441.821 28.6628C384.08 27.7134 322.974 30.0478 270.236 27.7599C273.624 35.0884 291.792 31.2391 298.073 30.4254C292.363 39.2488 253.876 28.9586 243.181 39.6935C269.954 38.6707 317.292 39.7306 350.456 41.3321L377.859 40.2852C387.696 42.2042 367.204 42.4133 362.795 42.5818C317.854 47.4539 268.046 38.1699 234.284 47.4912C234.348 49.4966 240.269 47.2626 240.388 50.9869C263.773 42.6357 356.176 52.5872 277.24 49.5791C272.716 56.0624 287.634 49.182 286.548 54.6735C309.947 52.8531 333.437 52.5308 356.843 53.7091L381.411 52.7705C391.805 52.3735 398.826 54.9737 384.625 54.6557C353.127 55.8589 331.079 56.7012 311.29 59.1783C303.101 59.4911 319.393 66.0397 305.164 64.8623C315.672 65.1156 326.196 64.7136 336.662 63.659C336.708 65.0914 333.891 65.7727 333.946 67.4917C334.001 69.2106 342.45 67.1668 343.135 68.8617C353.529 68.4646 367.973 66.4786 374.697 69.6638C381.421 72.849 396.745 68.8215 387.036 70.9135C344.514 72.5379 307.702 65.339 273.644 75.2453C273.351 66.0776 224.193 77.1345 203.578 83.372C220.572 72.3965 146.302 77.2417 151.021 67.0219C137.596 71.2638 123.02 59.1996 102.2 68.887C111.221 70.9409 120.735 70.5775 129.603 67.8402C129.685 70.4186 117.114 71.7594 129.722 71.5646C122.957 76.9861 111.686 69.672 98.2242 72.7679L97.9956 65.6056C72.9895 72.5845 46.5669 54.9493 35.0002 68.0121C25.117 64.6608 42.3493 61.1341 40.6281 56.6104C47.5576 56.3456 53.4101 61.8589 46.9276 56.3697C50.5037 54.3751 54.7845 53.7418 58.832 54.6088C62.8795 55.4758 66.3633 57.7722 68.5198 60.9948C74.1894 60.7782 91.3851 56.1055 80.5204 51.6443C104.552 46.477 129.199 44.2811 153.791 45.1162C152.048 49.7723 192.269 55.1199 199.518 45.0904C181.769 42.3264 115.203 31.6746 104.906 44.9759C95.668 41.2858 85.9435 38.67 75.9594 37.1896Z" fill="url(#paint27_linear_133_1595)"/>
<path fill-rule="evenodd" clip-rule="evenodd" d="M221.162 80.9792C221.235 83.2711 217.501 84.848 212.146 85.0525C236.262 89.8436 261.076 91.3127 285.765 89.4112C283.82 87.7644 278.771 87.6704 279.606 84.1964C294.557 88.2148 310.994 79.5553 331.523 80.4921C315.327 86.8476 344.437 79.9987 340.94 89.0244L331.806 89.3733C345.643 98.0236 330.282 100.905 363.77 102.781C363.88 106.219 332.273 103.984 321.052 108.142C392.658 118.601 466.494 110.044 559.728 106.482C556.997 99.9888 552.483 106.759 541.395 105.174C530.307 103.59 564.918 101.12 541.285 101.736C589.419 98.1179 637.698 96.848 685.915 97.9323C671.613 94.4629 692.753 94.8026 685.741 92.4889C693.9 91.6038 702.113 91.2901 710.309 91.5504C702.266 96.4471 698.386 93.4401 689.009 96.093C725.814 98.404 762.855 96.3139 799.187 89.876C803.734 94.005 812.101 89.3827 808.495 94.9704C830.594 85.8078 885.318 100.928 896.894 88.1513C915.793 87.4293 945.739 96.8984 958.055 87.5359C964.51 92.1656 973.804 86.9342 973.662 92.3896C986.782 88.4463 992.561 91.6676 1005.11 89.4674C991.553 84.3198 977.02 81.5659 962.272 81.3511C970.055 78.1853 995.568 77.2107 993.834 82.1532C996.984 82.0329 996.847 77.7355 1002.85 78.0799C999.458 80.5042 1002.94 80.9448 1003.02 83.5232C1016.46 82.0155 1030.06 82.7598 1043.14 85.7195C1050.07 85.4547 1042.99 80.8491 1036.73 82.2357C1047.62 77.8037 1051.53 81.6702 1064.44 81.1768C1064.57 85.1877 1053.42 81.598 1049.07 83.7719C1088.84 85.9691 1128.77 85.594 1168.56 82.6493C1166.58 89.8958 1204.07 88.4639 1200.18 85.1704C1267.27 82.6074 1336.02 92.6019 1396.31 94.3145C1396.21 91.1631 1393.99 90.9608 1390.2 90.8187C1388.1 84.3016 1400.12 95.3161 1408.59 93.8452C1408.53 91.8398 1404.77 92.5572 1402.54 92.0684C1400.32 91.5797 1415.46 91.5751 1420.76 89.6516C1395.99 84.2873 1426.69 87.704 1442.11 86.8279C1451.65 89.3318 1428.94 89.0522 1423.91 89.5312C1445.3 97.8927 1464.6 89.9844 1487.08 92.568C1475.77 84.1079 1455.5 91.1928 1446.73 83.2095C1459.96 82.7041 1485.05 88.3428 1489.56 81.573C1485.29 76.2861 1460.33 84.411 1455.74 79.1361C1451.4 81.31 1443.53 81.8973 1440.8 85.1571C1402.08 82.7014 1363.21 82.3664 1324.4 84.1538C1314.57 82.5214 1332.52 81.8355 1336.63 81.9656C1349.75 80.0407 1362.98 78.8646 1376.25 78.444C1335.71 73.1084 1344.59 74.4905 1370.15 74.9483C1401.45 79.1274 1433.32 79.166 1464.76 75.0628C1452.65 72.9215 1441.02 69.0067 1430.33 63.4702C1448.6 62.7723 1453.81 68.0231 1473.28 65.5581C1464.51 57.5748 1435.05 63.2897 1418.04 63.9395C1418.04 63.9395 1421.13 61.8137 1421.07 60.0948C1365.64 62.2126 1349.42 57.9559 1289.3 61.4001C1306.45 58.6491 1323.84 57.4086 1341.21 57.6958C1345.62 57.5273 1350.03 57.3588 1350.4 59.0658C1359.05 53.2855 1368.67 58.3679 1374.8 52.6839C1374.72 50.3919 1367.24 52.9726 1362.46 51.4342C1375.62 48.9234 1407.83 60.0272 1414.36 47.4433C1414.2 42.2865 1407.22 41.1187 1401.8 39.0314C1403.55 34.6618 1419.75 38.3455 1411.04 42.1203C1447.2 38.7311 1447.26 40.7365 1487.58 39.1963C1479.28 36.0713 1460.81 40.2191 1450.93 37.1542C1457.78 34.3111 1492.34 30.1226 1490.73 39.076C1514.95 34.8218 1539.69 33.8768 1564.12 36.2723C1569.63 31.1854 1566.16 31.0313 1579.44 32.2448C1574.81 25.5375 1556.61 28.2408 1542.41 27.9228C1528.21 27.6049 1556.9 27.3693 1554.58 24.0157C1552.27 20.662 1536.94 24.6895 1536.14 19.2702C1562.91 18.2474 1657.26 10.0537 1683.15 20.8252C1682.97 15.0954 1690.03 19.128 1701.42 20.1273C1694.29 24.1284 1678.3 17.2813 1674.13 24.8985C1676.79 29.0997 1683.48 31.1389 1680.58 39.281C1732.92 38.716 1755.41 32.1198 1784.53 35.3101C1788.11 29.1494 1774.76 35.6832 1778.3 28.09C1799.48 29.5757 1841.3 25.6834 1870.03 26.5939C1869.9 22.583 1865.51 23.3244 1860.77 23.2184C1856.04 23.1124 1892.27 22.0151 1900.51 23.4212C1908.76 24.8273 1900.36 18.5509 1894.42 20.2119C1911.9 14.6677 1960.25 17.6971 1961.15 6.47578C1960.95 0.172967 1971.36 10.1016 1970.23 4.40788C1979.37 4.05893 1967.53 8.52706 1970.46 11.5702C1987.27 4.61758 1998.49 10.4992 2010.41 8.32304C2010.53 12.0474 2022.59 14.4551 2022.84 22.4769C2013.88 24.6505 2004.52 25.0079 1995.44 23.5237C1991.82 28.5385 1995.69 31.259 1998.94 34.2901C1981.4 38.1153 1981.54 32.6599 1962.03 33.979C1980.09 46.4837 1975.37 56.7035 1969.5 70.4092C1974.23 70.2287 1974.49 68.4977 1978.57 68.0548C1971.81 73.4764 1938.89 69.571 1920.54 77.7297C1927.24 80.0554 1933.14 77.2484 1941.96 76.9115C1947.79 81.8517 1942.02 78.9169 1951.27 82.0058C1930.95 87.6583 1916.75 77.5876 1899.35 85.7102C1899.35 85.7102 1902.44 83.8709 1902.38 81.8655C1888.04 87.0029 1879.34 91.0642 1868.8 86.8774C1864.39 87.0459 1868.97 92.3207 1862.99 92.5494C1871.02 97.4054 1873.44 94.1577 1881.25 91.8515C1877.56 94.5743 1881.35 94.7164 1881.43 97.2948C1888.67 97.018 1890.46 93.7944 1899.64 94.8779C1899.74 98.0294 1902.27 98.2196 1906.06 98.3617C1906.14 100.94 1898.19 98.6625 1893.83 100.55C1889.48 102.437 1896.77 103.593 1897.15 105.873C1906.92 105.5 1909.97 102.228 1921.35 103.227C1919.58 107.024 1912.36 107.874 1909.61 110.847C1901.11 111.172 1893.65 104.859 1884.99 110.067C1901.8 115.297 1920.12 115.203 1937.02 109.8C1930.72 110.041 1934.37 105.885 1924.56 104.826C1928.56 101.805 1938.01 101.444 1947.51 102.802C1929.35 126.443 2014.1 114.026 2042.65 119.246C2033.73 126.471 2050.23 129.57 2046.44 139.18C2028.6 143.591 2011.27 153.719 2028.44 158.226C2015.94 156.386 2003.22 155.909 1990.55 156.805C1990.45 153.653 1993.27 152.972 1993.65 154.965C1994.02 156.959 2010.88 151.439 2015.12 155.866C2028.06 146.48 1988.31 145.99 1978.04 150.112C1978.74 151.104 1979.68 151.935 1980.79 152.539C1981.9 153.143 1983.16 153.504 1984.46 153.595C1970.28 154.137 1964.21 161.54 1951.04 163.764C1967.07 182.083 2072.96 179.759 2092.05 175.014C2092.04 174.634 2092.19 174.263 2092.48 173.984C2092.76 173.704 2093.16 173.537 2093.58 173.521C2093.99 173.506 2094.4 173.641 2094.7 173.898C2095.01 174.156 2095.19 174.514 2095.2 174.894C2097.72 174.797 2098.03 174.785 2098.29 173.054C2107.04 180.465 2086.78 178.084 2089.44 182.285C2077.47 182.742 2089.4 180.852 2086.12 176.962C2058.93 182.684 2030.8 183.172 2003.54 178.395C2024 184.539 2045.34 188.068 2066.95 188.881C2083.08 190.559 2109.57 190.408 2082.12 190.022C2067.63 190.576 2065.74 190.648 2048.36 189.591C2050.3 190.951 2056.95 191.844 2051.62 192.908C2067.78 195.16 2107.65 199.373 2110.53 210.737C2114.63 210.58 2110.43 207.585 2107.27 207.419C2135.69 208.628 2150.15 236.76 2171.79 252.57C2168.34 252.645 2164.93 252.085 2161.75 250.925C2158.57 249.764 2155.69 248.028 2153.28 245.819C2149.5 245.964 2155.39 252.623 2150.48 256.826C2155.2 256.646 2152.81 251 2162.65 252.919C2155.26 258.365 2156.18 257.756 2153.92 265.874C2162.22 268.999 2159.33 257.635 2163 263.806C2163.95 264.39 2164.73 265.184 2165.25 266.116C2165.78 267.048 2166.04 268.088 2166.01 269.141C2158.02 266.004 2143.69 271.428 2134.63 274.068C2137.63 279.117 2142.42 271.189 2150.06 273.479C2150.18 277.203 2150.25 279.209 2143.94 279.163C2147.89 284.462 2155.82 276.127 2159.43 280.292C2163.03 284.457 2147.3 285.632 2150.7 293.533C2154.91 287.062 2182.2 292.33 2171.77 281.828C2184.3 279.055 2182.01 286.314 2199.18 280.781C2196.44 284.041 2187.93 284.08 2187.12 288.413C2191.66 292.255 2201.91 277.522 2211.57 283.75C2205.33 285.71 2186.28 291.601 2180.54 299.564C2185.94 300.792 2189.43 311.272 2190.09 312.108C2190.74 312.943 2202.06 311.65 2202.25 307.914C2204.3 312.712 2202.69 321.666 2205.87 322.405C2218.06 322.183 2229.93 325.666 2239.61 332.302C2242.94 337.625 2223.55 332.916 2233.86 339.693C2234.02 344.85 2225.53 335.709 2227.99 343.646C2224.08 339.78 2213.38 340.475 2212.26 335.068C2203.28 340.001 2187.93 343.456 2180.65 332.547C2167.17 335.07 2127.28 330.283 2141.37 346.955C2132.92 351.154 2123.26 352.828 2113.77 351.739C2116.85 359.366 2122.94 362.288 2111.46 368.177C2117.27 372.544 2125.48 362.765 2129.5 360.317C2129.57 362.609 2137.82 364.015 2135.89 372.694C2142.88 364.682 2139.35 372.561 2151.15 366.661C2151.16 367.041 2151.34 367.399 2151.64 367.656C2151.94 367.913 2152.35 368.049 2152.77 368.033C2153.18 368.017 2153.58 367.851 2153.87 367.571C2154.15 367.291 2154.31 366.92 2154.3 366.54C2157.76 366.408 2156.92 369.882 2157.3 371.876C2168.33 371.454 2175.57 371.178 2178.55 365.614C2180.9 370.114 2178.6 367.333 2194.04 366.743C2193.98 365.024 2190.21 365.455 2187.68 365.265C2190.36 360.286 2200.28 364.784 2197.31 370.347C2201.4 370.191 2199.68 365.667 2199.91 363.077C2204.5 368.352 2233.3 361.801 2233.96 372.676C2230.32 367.365 2221.99 373.133 2227.8 367.461C2224.54 369.145 2220.9 370.098 2217.17 370.241C2213.44 370.383 2209.75 369.71 2206.39 368.279C2198.91 371.147 2203.22 377.866 2191.13 374.312C2193.83 379.946 2209.21 377.637 2212.84 382.662C2201.4 379.944 2189.96 387.265 2200.96 396.023C2205.69 395.843 2200.88 393.445 2200.78 390.293C2209.35 391.974 2214.95 399.505 2204.29 401.346C2217.89 402.548 2202.76 412.878 2210.74 415.729C2175.29 439.027 2135.38 456.03 2093.13 465.829C2102.42 470.351 2126.52 464.554 2129.67 464.434C2132.82 464.313 2129.87 470.736 2129.91 471.882C2144.8 470.977 2159.65 473.57 2173.04 479.414C2165.93 483.988 2173.37 490.014 2173.56 495.744C2185.15 493.293 2192.93 499.88 2194.92 493.206C2199.71 495.031 2202.64 498.074 2207.43 499.899C2196.09 500.333 2184.34 497.626 2167.63 497.691C2176.58 491.612 2143.56 494.595 2139.51 486.144C2132.26 486.421 2132.99 489.548 2124.44 488.441C2129.68 494.551 2127.04 500.676 2118.73 507.017C2109.83 504.776 2107.11 498.569 2094.18 498.776C2082.67 503.518 2098.69 511.512 2106.99 514.637C2102.99 517.944 2093.22 518.031 2088.59 521.076C2092.98 530.374 2080.06 530.581 2083.18 539.354C2075.06 541.959 2069.78 534.416 2070.96 541.829C2068.25 542.3 2065.48 542.266 2062.81 541.727C2060.13 541.188 2057.61 540.156 2055.41 538.694C2053.2 538.778 2052.63 540.521 2049.48 540.641C2050.38 542.225 2050.88 543.981 2050.92 545.775C2050.96 547.569 2050.55 549.353 2049.72 550.991C2048.89 552.629 2047.66 554.076 2046.13 555.223C2044.59 556.37 2042.8 557.185 2040.87 557.607C2060.19 560.024 2050.88 574.722 2059.9 580.688C2060.06 585.845 2042.52 569.591 2044.84 582.984C2042.04 577.124 2039.74 571.076 2037.95 564.89C2031.28 573.176 2026.73 559.008 2010.43 562.212C2010.48 563.931 2010.48 563.931 2013.64 564.097C2010.36 569.959 2000.81 557.13 2016.36 560.264C2009.62 556.506 2000.3 560.878 1982.48 556.109C1982.37 552.671 1992.88 555.711 1991.76 550.304C1996.48 550.124 1994.46 555.938 2003.85 553.571C2005.65 550.634 2006.92 551.159 2009.91 545.882C1991.86 543.703 1972.79 538.982 2003.49 542.398C2015 537.369 2005.93 539.724 2018.63 532.641C2002.57 533.255 1945.08 530.288 1905.44 533.523C1890.33 534.1 1868.33 536.662 1872.14 547.416C1865.22 547.681 1856.51 551.742 1850.73 548.234C1855.02 554.381 1863.43 551.191 1869.17 552.98C1859.5 556.218 1865.91 559.701 1878.49 558.361C1871.58 563.879 1863.4 567.917 1854.58 570.174C1897.15 574.719 1940.16 575.478 1983 572.439C1986.34 578.048 1976.5 576.129 1971.15 576.62C1968.92 585.598 1989.54 579.647 1989.77 586.809C1987.02 589.496 1969.3 587.591 1977.38 583.84C1970.13 584.117 1964.2 586.065 1962.12 589.873C1960.03 593.682 1964.78 594.361 1968.59 595.076C1965.75 595.184 1946.46 593.34 1953.45 604.833C1943.01 603.798 1941.88 607.857 1932.08 607.371C1938.13 609.147 1944.79 610.327 1941.57 617.908L1932.43 618.257C1940.13 622.266 1937.35 624.093 1935.99 631.029C1939.77 630.885 1956.78 639.988 1951.89 645.05C1956.52 651.758 1972.28 641.404 1970.46 653.52L2004.16 652.233C2002.94 653.122 2002.01 654.307 2001.5 655.647C2000.98 656.987 2000.9 658.428 2001.25 659.802C2003.71 657.987 2009.75 659.477 2010.26 655.729C2010.77 651.98 2010.45 661.745 2019.62 662.542C2028.79 663.339 2026.45 659.126 2025.69 655.139C2031.24 660.951 2035.85 676.838 2050.47 670.542C2057.4 670.278 2050.76 679.71 2054.03 683.314C2059.7 683.098 2072.7 685.183 2069.35 679C2069.64 688.168 2092.76 691.3 2097.56 703.451C2108.81 700.153 2103.55 703.223 2109.97 706.706C2113.61 702.264 2119.94 703.17 2128.23 706.008C2121.23 703.981 2111.1 712.686 2094.65 711.02C2100.22 707.652 2091.98 706.533 2094.3 700.134C2079.32 703.173 2063.97 704.339 2048.69 703.597C2038.51 691.078 1983.74 714.11 2003.29 723.69C1995.41 723.99 1990.19 728.492 1997.65 734.805C2000.23 733.029 2003.25 731.874 2006.44 731.452C2009.63 731.029 2012.87 731.351 2015.86 732.388C1999.67 738.744 2022.71 739.584 2031.27 740.978C2020.15 748.287 2040.12 761.293 2044.37 766.007C2041.66 769.839 2035.73 771.787 2026.28 772.148L2026.45 777.591C2026.61 782.462 2038.26 772.264 2035.7 780.967C2026.64 783.607 2025.31 781.364 2017.38 779.946C2015.83 790.618 2025.03 792.275 2011.48 792.792C2009.44 798.033 2017.9 796.276 2018.02 800C2005.79 792.435 1934.99 797.148 1907.07 782.152C1897.36 784.244 1896.92 789.997 1901.5 795.272C1889.22 795.742 1891.76 786.466 1882.88 785.084C1882.79 782.219 1886.66 784.939 1892.02 784.735C1891.91 781.297 1888.11 780.868 1888.63 777.406C1868.26 776.651 1847.85 776.856 1827.47 778.022C1826.22 777.204 1825.25 776.09 1824.65 774.799C1824.06 773.508 1823.86 772.088 1824.08 770.693C1792.38 765.594 1738.09 773.978 1719.56 756.329C1702.76 753.815 1712.28 765.499 1695.16 762.711C1707.1 751.355 1654.84 754.211 1642.84 753.809C1642.6 746.36 1607.34 747.995 1602.57 736.99C1602.75 742.72 1591.77 744.573 1596.59 737.219C1505.37 734.68 1440.72 734.855 1375.64 731.031C1375.84 737.333 1392.75 733.819 1400.39 735.822C1400.48 738.687 1397.64 738.795 1397.41 741.385C1470.74 750.217 1544.6 755.343 1618.65 756.741C1592.3 761.494 1565.27 761.846 1538.9 757.78C1534.01 762.556 1534.4 764.836 1529.77 758.129C1525.36 758.297 1529.84 760.421 1529.94 763.572C1523.93 762.13 1517.78 761.212 1511.56 760.832C1523.6 752.628 1493.46 756.934 1477.74 758.396C1485.69 760.387 1485.53 765.269 1471.61 764.08C1471.72 767.517 1482.01 763.682 1484.02 767.335C1451.21 768.671 1418.38 766.848 1386.08 761.897C1361.71 767.536 1336.15 766.619 1312.52 759.257C1301.96 764.537 1272.08 757.073 1249.35 756.221C1260.83 770.124 1297.32 757.257 1307.83 770.337C1266.89 771.28 1225.97 769.777 1185.32 765.838C1176.27 768.765 1185.56 773.286 1166.91 771.991C1179.95 765.469 1159.89 769.391 1154.94 772.448C1155.86 771.792 1156.58 770.941 1157.05 769.971C1157.51 769.002 1157.7 767.945 1157.6 766.897C1094.76 774.173 1012.82 765.83 955.649 772.891C962.168 779.526 984.143 776.392 989.58 778.765C952.664 778.168 898.845 791.411 870.345 777.87C879.932 781.807 883.259 777.377 894.717 780.668C894.416 771.214 871.614 778.109 862.982 774.423C860.622 769.637 868.848 770.47 869.053 767.02C889.154 773.969 910.887 776.29 932.341 773.781C934.559 764.231 921.216 771.051 917.103 770.634C853.852 765.019 780.448 757.497 720.588 749.458C717.438 749.578 718.141 751.846 717.557 753.302C708.555 747.909 685.959 751.354 671.396 749.616C674.683 753.793 682.289 754.936 692.989 754.241C662.246 756.539 631.358 755.212 601.093 750.294C612.207 752.657 623.858 752.211 634.795 749.006C607.617 743.13 579.236 743.036 551.846 748.733C565.774 740.456 545.314 751.564 545.688 743.518C543.62 747.9 517.089 746.619 524.206 742.331C502.322 748.33 483.121 739.598 472.472 751.765C466.634 756.578 472.308 746.608 472.234 744.316C463.045 742.946 467.008 748.532 466.488 751.994C465.967 755.456 460.571 744.475 460.188 752.234C452.761 746.781 458.298 752.307 447.904 752.704C447.803 749.552 450.953 749.432 450.88 747.14C439.792 745.556 448.662 756.69 438.706 751.047C434.31 761.541 452.775 757.107 454.551 763.35C428.821 764.276 403.089 762.76 377.774 758.825C361.633 766.899 333.549 756.499 316.787 764.884C336.966 768.191 357.545 769.235 378.067 767.993C389.84 771.272 362.318 768.594 369.115 774.071C354.685 766.591 303.34 778.305 286.408 771.494C283.888 771.59 283.323 773.62 280.173 773.74C305.608 782.472 333.143 785.17 360.209 781.583C353.212 789.595 342.571 782.257 328.767 784.505C297.406 790.006 223.048 782.233 181.932 788.393C169.064 790.319 154.22 799.491 145.135 791.52C140.41 791.701 148.08 794.85 142.104 795.365C137.133 792.104 132.929 787.976 129.733 783.216C121.858 783.517 117.855 786.539 117.33 779.961C114.436 788.103 104.863 774.701 95.9661 782.499C86.1875 772.546 62.4413 779.477 43.6473 773.597C37.0287 783.603 29.0721 781.325 19.5455 789.147C2.38132 784.926 -14.7189 782.711 -14.157 790.434C-19.5117 790.639 -20.5298 788.383 -26.496 789.185C-21.449 785.007 -14.8733 782.706 -8.09525 782.745C-14.2627 777.244 -4.49841 776.871 -5.60797 771.75C-0.405701 770.941 4.91946 771.33 9.88077 772.879C16.8103 772.615 13.1809 767.59 18.8413 767.087C15.7413 758.887 -7.42978 764.075 -14.8612 768.375C-20.7411 762.002 -23.6805 768.711 -33.1299 769.072C-31.1537 761.826 -16.9797 761.284 -15.3276 753.763C-24.147 754.1 -15.4922 748.607 -27.7855 748.789C-40.0787 748.972 -32.1352 760.716 -45.7066 760.374C-46.0175 750.633 -37.4766 751.454 -43.133 742.205C-56.1213 741.303 -69.2122 742.483 -81.8112 745.69C-86.7462 739.281 -71.4169 745.293 -72.8506 739.898C-79.8532 737.871 -93.064 738.949 -100.372 737.22C-95.1276 733.578 -84.1034 733.157 -88.4908 724.146C-57.1211 718.931 -49.7984 730.986 -21.2909 725.02C-27.6819 722.396 -49.082 723.787 -39.8522 716.551C-26.6455 725.225 -13.0792 715.528 -2.81699 720.872C-7.04483 706.979 -25.8703 709.993 -37.1048 703.825C-41.5544 708.5 -47.3352 711.967 -53.7952 713.836C-60.2551 715.705 -67.137 715.9 -73.6645 714.4C-71.6098 712.695 -69.1691 711.422 -66.5198 710.676C-63.8705 709.93 -61.0794 709.728 -58.3495 710.086C-58.4958 705.502 -62.9878 703.092 -70.8714 703.107C-48.1067 695.066 -91.3368 684.383 -108.483 680.736C-106.648 678.945 -100.061 677.832 -105.443 677.177C-101.846 671.303 -93.7063 679.311 -90.0729 674.582C-105.237 673.728 -90.3289 666.561 -90.5941 658.252C-107.498 652.301 -112.328 659.083 -122.33 652.007C-113.647 647.373 -104.618 653.625 -94.9815 649.241C-102.678 645.233 -118.582 640.964 -126.598 646.72C-131.245 639.44 -159.018 638.78 -179.752 641.293C-176.945 642.892 -173.798 643.943 -170.508 644.382C-180.902 644.779 -179.911 646.175 -182.499 654.019C-184.472 651.513 -194.154 654.464 -194.578 651.038C-203.667 652.819 -194.368 657.627 -200.649 658.441C-216.083 659.031 -200.987 647.841 -197.911 645.429C-206.999 647.21 -234.919 641.966 -237.534 648.95C-242.889 649.155 -225.931 637.033 -241.095 636.178C-214.64 638.056 -187.992 637.038 -161.721 633.146C-161.922 626.843 -173.234 628.136 -183.313 628.521C-186.016 622.887 -175.243 624.484 -174.093 620.998C-172.942 617.512 -180.652 622.969 -186.377 621.467C-194.141 625.206 -171.884 611.161 -165.077 616.924C-162.129 610.501 -174.933 614.432 -180.63 613.79C-178.923 607.988 -186.482 608.276 -180.923 604.622C-175.363 600.967 -174.235 606.661 -168.574 606.158C-168.492 608.737 -177.709 606.507 -177.599 609.945C-163.555 611.138 -149.426 611.461 -135.31 610.911C-131.215 610.754 -132.936 606.231 -132.713 603.354C-130.147 605.279 -126.984 606.435 -123.65 606.667C-120.316 606.898 -116.971 606.194 -114.065 604.649C-134.48 597.398 -163.202 606.526 -177.353 597.888C-156.565 597.094 -172.351 576.758 -150.599 576.5C-150.782 570.771 -156.155 570.402 -154.152 564.015C-130.321 564.004 -106.591 560.581 -83.8345 553.871C-54.2267 552.74 -3.62405 567.157 32.5109 553.155C9.7594 551.73 25.4391 539.083 44.2737 536.356C31.6014 534.545 19.1945 541.043 10.5072 535.638C12.6 528.06 15.4241 520.657 18.9464 513.516C14.4594 510.431 8.99557 508.732 3.33881 508.662C13.9932 506.534 19.5164 501.733 30.819 500.154C30.5538 491.846 20.187 493.103 33.6213 489.147C9.59473 482.98 -15.3868 480.257 -40.4308 481.076C-37.9161 470.941 -62.6987 475.043 -74.2299 469.46C-77.6398 471.311 -74.1019 473.471 -80.3009 476.863C-74.2876 479.189 -67.9904 480.874 -61.5343 481.882C-74.2746 487.819 -18.8336 495.741 2.03723 497.525C-16.7151 502.831 -36.2762 492.678 -56.1472 492.577C-57.5391 498.367 -48.4231 497.445 -43.6344 499.27C-53.2524 504.227 -67.1988 492.138 -80.5416 498.959C-86.9692 495.188 -97.4274 493.58 -102.308 488.89C-102.079 496.052 -91.2325 499.941 -83.0838 508.235C-94.9848 500.944 -124.492 505.227 -126.506 491.536C-116.112 491.138 -112.451 487.27 -114.884 480.192C-93.2556 485.963 -97.4925 471.783 -81.4744 469.736C-92.1011 465.379 -103.703 463.273 -115.415 463.575C-121.171 458.034 -128.531 454.082 -136.67 452.164C-144.809 450.245 -153.403 450.436 -161.489 452.714C-204.085 444.855 -247.377 440.272 -290.909 439.014C-269.404 431.021 -238.106 443.307 -228.261 425.721C-242.468 422.502 -256.865 419.988 -271.39 418.189C-246.507 417.239 -222.989 422.938 -191.788 422.319C-191.687 425.471 -194.522 425.579 -194.449 427.871C-167.676 426.848 -157.792 430.199 -151.722 422.797C-165.567 413.86 -181.393 421.922 -188.866 415.037C-191.208 410.824 -164.928 414.122 -176.701 410.843C-159.134 410.527 -141.589 409.282 -124.155 407.115C-122.115 401.873 -130.258 403.619 -130.377 399.894C-162.246 398.889 -193.964 395.787 -225.282 390.612C-240.401 391.19 -222.297 385.335 -222.447 390.504C-201.262 391.037 -180.146 392.721 -159.214 395.546C-153.859 395.341 -153.275 393.885 -153.033 391.581C-143.696 393.256 -134.105 393.567 -124.621 392.503C-118.952 392.287 -122.933 386.128 -118.875 384.826C-129.047 381.709 -139.772 380.274 -150.546 380.586C-145.087 373.78 -126.489 383.396 -122.883 377.808C-167.5 370.687 -212.626 366.278 -257.963 364.611C-258.201 357.162 -246.556 356.43 -240.051 352.74C-239.832 359.615 -211.794 368.584 -203.276 358.793C-180.06 363.488 -156.279 365.66 -132.429 365.265C-149.245 371.931 -118.524 366.168 -113.986 370.01C-114.05 368.005 -114.087 366.859 -110.955 366.166C-115.726 364.914 -136.743 358.546 -123.532 357.467C-130.211 355.715 -137.825 354.284 -145.124 352.842C-142.445 347.864 -134.305 355.871 -130.06 350.546C-133.758 345.799 -139.19 342.408 -145.405 340.967C-151.62 339.527 -158.222 340.128 -164.056 342.665C-158.245 336.993 -177.709 339.745 -188.547 336.143C-199.384 332.541 -178.7 338.349 -176.317 333.955C-173.935 329.561 -192.965 336.025 -191.87 330.82C-164.157 319.722 -123.789 329.654 -94.086 321.635C-106.238 316.362 -131.171 325.633 -131.167 315.88C-108.648 315.878 -86.1382 314.347 -63.8259 311.3C-76.4798 310.062 -82.0173 304.537 -97.757 305.425C-103.527 302.49 -97.94 299.695 -91.6953 297.736C-105.993 293.339 -121.377 292.54 -136.235 295.421C-143.868 293.418 -131.054 289.773 -139.613 288.379C-139.778 283.222 -129.849 288.006 -133.204 291.577C-129.739 291.444 -130.785 288.329 -130.543 286.025C-146.599 282.884 -163.083 281.776 -179.529 282.733C-189.358 281.101 -171.404 280.415 -167.3 280.545C-186.536 277.32 -206.161 276.24 -225.744 277.328C-223.303 264.9 -242.037 270.779 -250.29 269.086C-224.707 266.044 -199.357 261.434 -174.413 255.288C-198.07 247.383 -223.02 243.01 -248.306 242.334C-241.299 234.609 -216.863 239.412 -211.627 235.483C-225.939 231.727 -216.727 223.918 -230.363 221.57C-228.528 219.779 -208.314 220.728 -196.975 220.295C-199.308 216.368 -215.874 221.017 -212.323 213.71C-235.847 213.919 -259.351 212.998 -282.736 210.95L-249.586 202.226C-260.546 199.482 -272.216 199.928 -282.974 203.501C-290.218 203.778 -290.374 198.908 -286.361 196.173C-300.645 193.276 -301.48 196.75 -320 199.466C-270.848 187.613 -221.024 178.335 -170.775 171.678C-169.013 167.595 -179.777 166.285 -168.114 166.126C-172.809 162.867 -178.362 160.772 -184.239 160.042C-190.116 159.312 -196.121 159.972 -201.675 161.959C-201.776 158.807 -204.629 158.343 -204.88 160.36C-205.026 155.776 -182.302 156.342 -168.407 156.959C-194.53 149.944 -222.674 151.731 -247.717 161.996C-249.2 164.922 -258.221 158.956 -258.376 154.085C-245.777 153.604 -243.459 147.205 -231.028 151.32C-230.263 150.756 -229.65 150.04 -229.238 149.227C-228.826 148.415 -228.626 147.529 -228.655 146.639C-228.683 145.75 -228.939 144.881 -229.402 144.102C-229.864 143.323 -230.521 142.656 -231.321 142.152C-212.932 142.311 -194.534 141.608 -176.2 140.046C-173.836 135.079 -194.168 130.406 -179.697 129.28C-181.094 125.03 -189.284 125.343 -193.693 125.512C-198.103 125.68 -185.358 129.783 -187.819 121.845C-182.523 129.674 -163.948 128.678 -159.579 137.116C-151.76 135.097 -142.347 133.59 -141.603 127.251C-135.5 130.746 -127.114 126.697 -120.24 124.714C-124.718 117.428 -131.215 111.35 -139.094 107.076C-133.272 104.827 -126.776 104.579 -120.825 106.378C-114.21 106.125 -121.035 99.7888 -117.968 97.09C-109.705 99.0691 -102.675 101.956 -102.437 109.405L-93.3031 109.056C-91.1721 106.758 -89.7946 103.964 -89.3309 101.001C-88.8672 98.0384 -89.3363 95.0273 -90.6837 92.3188C-78.3264 94.1414 -93.4311 105.045 -81.019 108.586C-74.4959 105.469 -83.3701 104.087 -78.1618 99.2983C-67.3886 100.895 -75.7233 116.416 -86.9487 110.534C-86.7566 116.55 -80.1147 117.157 -77.4668 121.072C-75.4083 116.404 -74.5639 113.216 -68.3325 120.723C-56.1032 118.534 -64.0691 115.97 -56.3319 111.372C-56.4599 107.361 -67.7259 110.086 -68.7989 106.112C-69.8718 102.137 -59.0346 105.739 -59.8932 98.6003C-68.174 96.0483 -71.8623 99.0576 -81.4305 95.6942C-73.7756 88.5176 -69.4614 95.2369 -54.0824 92.9284C-67.2029 88.4755 -80.5888 84.6779 -94.181 81.5524C-94.2724 78.6875 -94.4005 74.6766 -91.2599 74.2698C-88.1192 73.863 -74.6159 81.9523 -78.9209 75.5195C-59.7622 73.0665 -17.2667 90.3746 -8.56213 76.5605C-0.541382 80.8436 3.02396 83.8626 4.12436 88.6969C26.4237 85.8371 20.8415 98.6713 43.9944 92.9106C36.2662 97.7952 49.0797 94.1505 47.3728 99.9525C37.2935 100.338 33.6642 95.3131 19.8509 97.275C26.5813 99.6641 33.8288 100.661 41.0732 100.193C37.3941 103.489 29.223 104.375 26.1921 108.22C29.1823 112.982 39.6172 103.978 32.2864 111.429C35.2858 116.477 37.8005 106.342 47.6654 109.12C55.6547 122.297 150.348 105.198 169.876 104.451C167.932 102.805 179.978 94.8867 188.341 100.017C197.831 91.7893 208.983 85.3204 221.162 80.9792ZM1920.56 78.3027C1920.34 71.4269 1887.07 76.4268 1887.05 75.8538C1898.09 77.6957 1909.31 78.5162 1920.56 78.3027ZM2206.82 411.576C2215.45 395.47 2206.9 414.154 2179.19 405.46C2189.29 411.275 2201.18 414.032 2213.19 413.341C2213.19 413.341 2205.98 414.763 2206.87 413.008L2206.82 411.576ZM-57.2007 84.1554C-48.2899 86.6834 -47.7514 83.7944 -35.7182 85.3426C-36.207 79.9113 -58.3011 79.3212 -57.2007 84.1554ZM-32.8286 86.9533C-22.3238 85.6397 -11.6799 85.8137 -1.27597 87.469C-3.96039 82.4084 -30.5099 80.5542 -32.8286 86.9533ZM-32.3622 101.564C-28.951 102.094 -25.6985 103.237 -22.7939 104.928C-13.3446 104.567 -11.3044 99.3257 -4.76306 96.7811C-14.8149 98.0256 -31.2943 95.4999 -32.3622 101.564ZM-50.0638 120.025C-43.7643 119.784 -29.9785 116.963 -28.5905 120.925C-27.2026 124.888 -32.0552 121.058 -34.511 123.16C-42.0705 123.448 -50.3788 120.037 -49.8352 127.187C-34.7163 126.609 -25.3259 134.282 -13.0378 124.06C-25.9518 124.554 -13.1292 121.195 -13.2115 118.617C-22.3459 118.966 -30.1156 112.665 -19.8037 109.69C-26.7972 107.949 -38.0724 110.388 -44.1758 106.892C-41.6509 116.835 -43.9197 114.914 -50.0638 120.025ZM150.106 107.501C143.008 112.362 150.289 113.231 141.264 117.018C154.717 113.636 153.777 123.711 162.738 117.919C171.698 112.127 149.194 118.436 153.366 110.819C164.705 110.386 166.695 113.465 177.998 111.886C179.481 108.961 182.261 107.134 183.745 104.209C165.384 102.042 158.451 112.059 150.106 107.501ZM1685.62 48.8412C1721.72 43.733 1717.26 52.2218 1685.62 48.8412V48.8412ZM1737.59 46.8558C1732.24 47.0603 1719.56 45.2497 1719.06 49.2847C1718.56 53.3196 1736.17 51.7863 1736.02 46.9159L1737.59 46.8558ZM1737.99 59.4614C1758.96 61.0296 1780.06 60.8953 1801.05 59.0603C1779.8 54.8534 1757.72 55.011 1736.42 59.5216L1737.99 59.4614ZM612.644 104.46C674.836 105.694 737.099 103.89 799.165 99.0558C742.118 100.088 680.227 97.5759 611.069 104.52L612.644 104.46ZM1805.2 60.6228C1776.81 70.3125 1729.4 56.9214 1698.37 62.983C1708.5 64.3169 1695.01 66.5533 1695.39 68.5467C1710.59 70.261 1700.7 76.6624 1710.92 80.8612C1704.62 81.1019 1691.14 83.6247 1689.44 79.674C1693.22 79.5296 1698.26 79.3371 1698.84 77.5941C1667.18 73.927 1631.58 75.0002 1600.59 72.1686C1595.23 72.3731 1600.86 80.7633 1594.58 81.5769C1588.3 82.3906 1576.69 84.2683 1576.25 80.2694C1580.97 80.0889 1587.59 79.8362 1588.48 78.0812C1579.97 78.4061 1566.89 73.7426 1561.07 79.128C1564.22 79.0077 1568.42 82.0027 1564.03 82.7441C1559.63 83.4856 1556.07 80.4665 1548.84 81.3163C1531.83 81.966 1525 85.0957 1545.76 83.442C1599.71 88.2397 1654.04 89.2329 1708.26 86.4128C1699.91 91.6081 1712.73 87.9633 1714.42 91.6275C1671.33 95.2815 1612.43 87.4924 1564.25 89.9064C1568.98 89.7259 1564.36 93.0578 1561.54 93.7391C1547.25 90.5562 1531.94 85.4039 1521.59 96.9862C1630.93 103.996 1742.62 105.753 1831.17 103.517C1825.81 103.722 1815.68 102.388 1819 107.711C1823.48 108.188 1828.02 107.674 1832.26 106.214C1836.49 104.754 1840.29 102.39 1843.33 99.3238C1826.8 95.0791 1800.97 105.819 1794.34 95.7455C1798.75 95.5771 1810.16 97.4358 1809.4 93.449C1808.65 89.4622 1805.42 87.2906 1800.03 86.3492C1812.13 88.0046 1824.43 88.2095 1836.63 86.9588C1828.26 81.5418 1818.68 87.6447 1812.21 82.442C1789.17 88.3569 1765 89.2802 1741.65 85.1374C1753.3 84.6921 1769.42 85.7974 1773.03 80.2097C1778.88 85.7229 1811.86 81.5945 1818.7 78.4649C1813.2 74.0856 1790.35 79.5479 1784.88 76.028C1799.11 77.2055 1788.25 73.0308 1794.21 71.9427C1821.67 76.0107 1849.87 74.345 1876.68 67.0711C1874.63 72.0257 1883.09 70.2683 1885.99 72.1655C1874.73 65.1378 1888.39 68.3448 1894.83 62.6488C1846.07 66.5193 1831.91 67.3473 1790.95 68.6251L1790.83 64.9007C1794.94 65.3173 1815.09 64.2607 1803.63 60.683L1805.2 60.6228ZM1827.38 83.5834C1836.77 81.5034 1839.66 92.8668 1846.08 86.5978C1839.08 84.5706 1829.37 76.9098 1825.8 83.6435L1827.38 83.5834ZM1554.54 72.2064C1568.98 69.9339 1574.97 79.7446 1579.05 69.2624C1570.88 70.1482 1544.67 69.1415 1552.97 72.2666L1554.54 72.2064ZM1839.48 106.929C1850.11 106.563 1860.67 104.906 1870.86 102.001C1865.57 100.117 1859.79 99.5831 1854.16 100.455C1848.52 101.327 1843.23 103.573 1838.85 106.953L1839.48 106.929ZM1857.86 109.955C1859.75 109.883 1872.49 113.699 1873.3 109.366C1874.11 105.032 1867.31 109.594 1867.25 107.589C1867.19 105.584 1873.23 107.36 1873.18 105.641C1864.98 105.668 1857.74 105.945 1857.23 109.98L1857.86 109.955ZM2176.92 373.994C2183.98 377.741 2185.17 375.4 2192.16 377.141C2192.02 372.557 2185.4 372.81 2182.79 370.041C2184.13 372.572 2178.75 371.917 2176.92 373.994ZM2155.85 385.699C2162.78 385.435 2167.19 385.266 2168.02 381.506C2164.24 381.65 2159.2 381.843 2158.83 380.136C2163.55 379.955 2165.47 370.703 2161.55 376.303C2159.74 377.174 2158.32 378.579 2157.51 380.282C2156.71 381.984 2156.56 383.881 2157.11 385.651L2155.85 385.699ZM2195.42 380.459C2195.49 382.751 2192.05 383.456 2189.56 384.412C2187.06 385.368 2193.82 379.659 2189.38 378.968C2184.94 378.277 2182.52 381.239 2180.37 383.042C2178.22 384.845 2180.25 379.317 2177.1 379.438C2177.36 387.746 2208.88 387.116 2196.68 380.411L2195.42 380.459ZM2070.13 407.332C2074.54 407.163 2075.27 410.291 2079.39 410.707C2070.87 400.706 2085.06 410.491 2091.5 404.795C2086.43 404.128 2077.86 402.447 2072.02 407.26L2070.13 407.332ZM2198.82 407.866C2198.73 405.001 2206.65 406.132 2204.63 402.194C2197.7 402.458 2191.27 398.688 2189.57 404.49C2193.03 404.358 2198.07 404.165 2198.76 406.147C2199.46 408.128 2197.22 407.066 2200.68 406.934L2198.82 407.866ZM-112.355 569.302C-112.511 564.432 -116.642 563.443 -124.498 564.316C-125.288 569.223 -118.951 570.128 -112.355 569.302ZM1961.84 502.111C1967.47 503.505 1973.39 503.779 1979.18 502.915C1984.97 502.05 1990.51 500.067 1995.42 497.099C1984.02 497.016 1972.66 498.711 1961.84 502.111ZM2023.99 522.684C1988.08 524.055 1960.88 521.366 1925.91 522.701C1958.14 529.112 1991.59 529.106 2023.99 522.684ZM1772.33 601.713C1772.4 603.719 1772.5 606.87 1769.36 607.277L1769.24 603.552C1693.56 613.615 1612.15 622.174 1537.54 636.211C1550.46 635.718 1537.54 636.211 1537.66 639.936C1577.09 640.151 1624.97 638.608 1666.4 642.189C1666.5 645.34 1637.32 640.144 1648.25 646.611C1648.3 648.043 1673.9 649.934 1682.19 652.772C1677.92 657.238 1672.31 649.421 1673.18 656.846C1701.15 644.016 1748.1 662.589 1761.57 649.74C1779.89 651.432 1798.39 651.303 1816.74 649.353C1824.62 649.052 1861.78 647.632 1874.29 634.247C1866.1 634.56 1852 637.68 1855.84 629.502C1861.2 629.297 1868.93 634.451 1871.28 628.912C1861.54 620.392 1854.14 625.551 1839.61 624.672C1839.53 622.38 1843.3 621.949 1842.27 619.12C1819.04 620.176 1795.91 616.656 1774.45 608.803C1790.29 601.314 1799.44 601.251 1772.02 601.725L1772.33 601.713ZM1409.56 657.737C1399.8 658.11 1386.88 658.604 1381.78 656.791C1383.52 661.888 1409.1 662.918 1409.56 657.737ZM1351.47 665.407C1377.29 668.259 1403.43 668.415 1429.37 665.873C1403.71 661.467 1377.32 661.31 1351.47 665.407ZM1617.97 666.126C1551.51 668.665 1486.76 655.649 1412.51 661.067C1480.93 667.044 1549.79 668.726 1618.6 666.102L1617.97 666.126ZM1565.65 657.224C1603.02 652.355 1637.45 663.947 1669.59 653.253C1634.92 652.568 1600.2 653.894 1565.65 657.224ZM1434.22 669.416C1436.93 665.584 1460.83 673.276 1465.72 668.213C1455.52 664.874 1429.24 661.575 1434.22 669.416ZM1351.93 680.018C1347.21 680.198 1341.22 680.427 1342.68 676.642C1334.17 676.967 1336.48 680.034 1330.39 677.112C1328.37 682.926 1348.28 684.173 1351.93 680.018ZM1431.77 691.597C1456.79 684.904 1475.11 695.678 1494.82 690.909C1465.41 686.145 1435.59 683.638 1405.65 683.416C1416.09 684.451 1428.11 685.426 1431.77 691.597ZM1419.98 697.497C1382.29 693.462 1344.3 691.846 1306.29 692.661C1349.27 705.362 1432.69 700.74 1472.41 710.123C1470.52 710.195 1468.9 708.823 1472.36 708.404C1470.34 704.465 1450.18 705.235 1468.92 699.356C1460.73 699.669 1449.53 694.647 1444.35 700.295C1449.07 700.115 1455.69 699.862 1456.69 701.545C1442.79 700.928 1418.87 702.416 1419.98 697.497ZM1300.77 707.501C1298.25 707.597 1294.79 707.73 1294.84 709.449C1304.12 709.273 1313.37 710.173 1322.37 712.126C1317.44 706.004 1301.7 706.892 1294.62 702.286C1293.78 705.76 1298.83 705.854 1300.77 707.501ZM1334.65 711.657C1352.29 710.983 1378.36 717.732 1386.62 709.671C1370.49 708.28 1348.51 711.127 1340.41 704.266C1340.52 707.704 1332.29 706.871 1336.23 711.597L1334.65 711.657ZM1475.37 713.739C1487.67 712.659 1500.04 712.764 1512.28 714.05C1506.65 705.66 1492.12 714.82 1484.64 707.935C1484.64 707.935 1484.57 705.643 1481.43 706.049C1478.29 706.456 1473 708.666 1475.37 713.739ZM420.684 759.48L435.803 758.903C435.657 754.319 428.727 754.584 426.431 751.803C425.262 754.716 416.721 753.895 420.684 759.48ZM285.755 760.906C279.455 761.147 265.838 759.372 264.391 763.443C268.568 765.865 285.947 766.922 285.755 760.906ZM292.173 764.39C297.528 764.185 309.968 768.586 313.592 763.572C306.941 762.678 294.159 757.43 292.173 764.39ZM244.708 779.111C244.635 776.819 244.535 773.668 241.691 773.489C238.847 773.311 226.905 774.628 228.33 779.737L244.708 779.111ZM988.228 756.157C984.757 753.727 980.543 752.323 976.144 752.133C971.745 751.942 967.369 752.973 963.596 755.09C977.008 760.314 1015.27 763.442 1021.99 756.588C1027.45 759.821 1053.65 760.542 1058.52 755.192C1037.3 753.917 1016.18 751.661 995.235 748.431C988.657 749.83 992.628 755.702 986.968 756.205L988.228 756.157ZM1337.1 739.1C1332.94 737.251 1325.71 737.814 1321.55 735.965C1314.21 743.13 1334.06 742.658 1337.1 739.1ZM1065.14 754.94C1065.29 759.81 1071.58 759.283 1077.28 759.926C1077.2 757.347 1080.76 750.327 1074.15 750.866C1073 754.352 1069.57 755.344 1063.56 755L1065.14 754.94ZM1646.27 732.739C1643.31 728.836 1634.79 728.875 1624.73 729.833C1620.8 735.146 1641.03 736.668 1644.69 732.799L1646.27 732.739ZM1144.69 757.351C1120.84 761.13 1116.51 753.838 1101.62 751.825C1097.86 762.581 1136.72 764.826 1143.11 757.411L1144.69 757.351ZM1147.95 760.955C1166.16 764.035 1184.89 763.903 1203.13 760.568C1177.62 761.543 1159.66 752.189 1146.38 761.015L1147.95 760.955ZM1077.52 767.374C1077.32 761.072 1066 762.364 1055.93 762.749C1054.22 768.551 1068.32 765.718 1075.94 767.435L1077.52 767.374ZM1239.73 761.177C1228.86 757.852 1217.36 756.442 1205.85 757.022C1205.75 763.623 1231.32 764.367 1238.16 761.238L1239.73 761.177ZM1987.07 769.056C1987.25 774.499 1991.14 777.793 2002.74 775.915C2002.67 773.623 2002.58 770.758 2005.72 770.352C2005.99 778.946 2025.29 780.791 2027.25 772.971C2008.96 763.057 2000.42 772.275 1985.5 769.116L1987.07 769.056Z" fill="url(#paint28_linear_133_1595)"/>
<path fill-rule="evenodd" clip-rule="evenodd" d="M672.787 32.4604C669.322 32.5927 670.377 35.9945 670.126 38.012C662.251 38.3128 666.346 38.1564 666.866 34.6944C631.239 31.4447 595.386 30.3231 559.536 31.3368C635.226 21.5611 717.427 37.926 804.621 32.874C795.401 40.3972 780.683 33.7885 758.698 36.6362C772.444 42.4216 803.74 34.9155 817.317 45.2968C776.041 36.5474 709.124 44.5537 672.787 32.4604Z" fill="url(#paint29_linear_133_1595)"/>
<path fill-rule="evenodd" clip-rule="evenodd" d="M820.174 36.0087C868.219 34.9079 916.261 36.1365 964.096 39.6895C917.804 41.7448 870.707 38.3809 820.174 36.0087Z" fill="url(#paint30_linear_133_1595)"/>
<path fill-rule="evenodd" clip-rule="evenodd" d="M434.999 61.9102C436.51 59.8446 455.157 61.14 466.496 60.7069C466.359 56.4095 453.582 61.2002 448.164 59.3993C463.387 52.2204 474.471 63.5574 494.214 59.648C474.71 63.4047 454.695 64.1693 434.999 61.9102Z" fill="url(#paint31_linear_133_1595)"/>
<path fill-rule="evenodd" clip-rule="evenodd" d="M695.029 57.4264C692.249 59.2536 684.004 57.8475 686.068 63.2187C679.152 54.0171 668.977 61.29 654.506 62.4165C637.048 62.2531 619.633 61.0982 602.361 58.9586C600.471 59.0308 543.091 59.5018 562.564 57.0368C609.404 52.1096 656.608 51.4594 703.469 55.096C724.615 53.8705 745.814 54.8896 766.638 58.1328C766.638 58.1328 759.818 61.8354 757.568 60.4872C762.069 63.1837 789.239 64.7272 791.499 66.362C793.759 67.9967 776.38 66.9395 770.144 69.1856C799.46 58.8868 694.636 64.8992 695.029 57.4264Z" fill="url(#paint32_linear_133_1595)"/>
<path fill-rule="evenodd" clip-rule="evenodd" d="M1028.53 42.6781C1049.58 40.9912 1070.75 41.4332 1091.64 43.9959C1070.58 45.3809 1049.44 44.9397 1028.53 42.6781Z" fill="url(#paint33_linear_133_1595)"/>
<path fill-rule="evenodd" clip-rule="evenodd" d="M464.205 67.9654C495.785 69.3406 554.038 66.5415 580.669 70.9741C568.532 76.0272 528.173 66.3822 519.619 75.0274C513.803 70.6601 498.146 74.1267 485.861 74.596C499.898 69.7571 474.321 68.7263 467.474 71.5695C466.456 69.3136 464.214 68.2519 464.205 67.9654Z" fill="url(#paint34_linear_133_1595)"/>
<path fill-rule="evenodd" clip-rule="evenodd" d="M1386.87 45.6253C1369.91 47.7075 1323.49 35.9992 1288.55 38.1943C1282.52 36.9905 1282.38 32.4066 1288.5 36.4754C1316.48 33.6855 1342.92 42.141 1356.02 37.6247C1361.56 43.15 1377.94 42.5243 1386.87 45.6253Z" fill="url(#paint35_linear_133_1595)"/>
<path fill-rule="evenodd" clip-rule="evenodd" d="M991.965 53.2537C988.186 53.3981 1016.53 52.3151 1010.61 54.5492C1010.3 54.5612 966.489 55.3743 991.965 53.2537Z" fill="url(#paint36_linear_133_1595)"/>
<path fill-rule="evenodd" clip-rule="evenodd" d="M796.603 68.1749C796.502 65.0235 793.973 64.8333 790.184 64.6912C808.138 64.0053 859.164 62.056 884.622 59.3623C873.133 64.9644 916.303 63.8889 933.987 64.6475C884.924 68.8166 854.96 58.7745 796.603 68.1749Z" fill="url(#paint37_linear_133_1595)"/>
<path fill-rule="evenodd" clip-rule="evenodd" d="M961.413 54.4209C963.874 62.3584 955.382 53.217 955.547 58.3739C913.655 59.9743 914.509 57.0732 952.342 56.7753C955.104 55.2989 958.228 54.4882 961.413 54.4209Z" fill="url(#paint38_linear_133_1595)"/>
<path fill-rule="evenodd" clip-rule="evenodd" d="M1071.72 52.2148C1104.49 51.7637 1137.21 53.4853 1169.65 57.3659C1169.86 63.9552 1161.46 57.6787 1160.63 61.4392C1159.8 65.1997 1179.53 60.7172 1179.33 64.4537C1170.73 71.6664 1158.86 65.2358 1142.6 69.5859C1155.92 71.9454 1174.2 71.534 1188.76 73.2724C1165.27 78.4723 1138.19 69.7544 1108.95 72.5924C1108.91 71.1599 1108.9 70.8734 1112.05 70.7531C1115.2 70.6327 1111.99 69.0341 1108.83 68.868C1114.06 64.6525 1132.14 67.9775 1142.48 65.8615C1145.63 65.7412 1145.49 61.4438 1151.5 61.7882C1125.28 56.5511 1098.59 53.3485 1071.72 52.2148Z" fill="url(#paint39_linear_133_1595)"/>
<path fill-rule="evenodd" clip-rule="evenodd" d="M603.718 71.8146C612.678 66.0223 628.916 70.852 640.57 70.4068C639.215 77.3427 619.348 67.4886 603.718 71.8146Z" fill="url(#paint40_linear_133_1595)"/>
<path fill-rule="evenodd" clip-rule="evenodd" d="M653.603 73.6378L647.618 73.8664C638.393 71.3505 662.646 70.4239 656.862 76.9554L678.281 76.1371C677.339 75.5213 676.556 74.7279 675.982 73.8099C675.409 72.8919 675.06 71.8705 674.957 70.8141C677.669 76.7342 690.223 74.8204 693.715 75.5475C686.078 83.2971 673.241 76.3297 656.981 80.6798C655.831 79.8494 654.922 78.775 654.334 77.5485C653.746 76.322 653.495 74.9801 653.603 73.6378Z" fill="url(#paint41_linear_133_1595)"/>
<path fill-rule="evenodd" clip-rule="evenodd" d="M1182.29 68.0697C1199.68 61.0886 1219.09 59.6397 1237.34 63.9585C1219.1 66.4665 1200.7 67.8401 1182.29 68.0697Z" fill="url(#paint42_linear_133_1595)"/>
<path fill-rule="evenodd" clip-rule="evenodd" d="M2005.99 67.5809C2016.7 67.1718 2006.32 77.8947 2018.69 80.0038C2013.33 80.2084 1974.69 84.8398 1972.53 76.3173C1977.29 77.3425 1982.25 77.3404 1987.04 76.3111C1991.82 75.2817 1996.29 73.2536 2000.09 70.388C2006.08 70.1594 1993.72 78.376 2009.4 75.4824C2008.04 74.6233 2006.99 73.4166 2006.39 72.0121C2005.78 70.6075 2005.64 69.0668 2005.99 67.5809Z" fill="url(#paint43_linear_133_1595)"/>
<path fill-rule="evenodd" clip-rule="evenodd" d="M1978.84 96.1551C1978.54 86.7008 1985.06 93.6225 1993.89 93.5721C1993.69 87.2692 1988.54 93.7766 1984.59 88.4777C1990.06 82.2448 1998.13 87.9603 2012.25 85.6998C2005.11 89.4145 1991.55 89.3589 2000.31 97.0558C1993.52 94.4713 1985.92 94.1525 1978.84 96.1551Z" fill="url(#paint44_linear_133_1595)"/>
<path fill-rule="evenodd" clip-rule="evenodd" d="M1970.27 94.4745C1973.3 100.383 1955.93 99.6119 1945.77 97.4185C1946.96 85.3257 1967.54 97.7342 1970.27 94.4745Z" fill="url(#paint45_linear_133_1595)"/>
<path fill-rule="evenodd" clip-rule="evenodd" d="M2150.7 184.821C2142.79 187.614 2134.63 189.751 2126.31 191.203C2130.49 183.872 2112.76 191.72 2116.94 184.103C2122.51 184.533 2127.87 186.199 2132.54 188.956C2131.77 184.397 2141.49 182.878 2150.7 184.821Z" fill="url(#paint46_linear_133_1595)"/>
<path fill-rule="evenodd" clip-rule="evenodd" d="M-237.535 382.188C-237.48 383.907 -241.314 382.333 -243.779 384.148C-243.624 389.018 -231.764 385.123 -234.416 390.961C-241.661 391.238 -241.131 388.062 -249.59 389.82C-249.403 385.797 -245.409 382.489 -237.535 382.188Z" fill="url(#paint47_linear_133_1595)"/>
<path fill-rule="evenodd" clip-rule="evenodd" d="M-199.406 519.562C-205.079 523.051 -211.255 525.798 -217.752 527.721C-219.134 533.798 -215.272 536.232 -214.2 540.207C-229.798 535.639 -220.222 519.497 -199.406 519.562Z" fill="url(#paint48_linear_133_1595)"/>
<path fill-rule="evenodd" clip-rule="evenodd" d="M2115.39 520.913C2118.99 525.078 2110.23 527.134 2109.87 535.753C2106.99 534.603 2103.83 534.132 2100.68 534.383C2096.44 529.955 2109.25 526.311 2100.39 525.215C2098.65 520.118 2118.67 524.804 2115.39 520.913Z" fill="url(#paint49_linear_133_1595)"/>
<path fill-rule="evenodd" clip-rule="evenodd" d="M2160.09 577.721C2168.65 579.115 2152.01 581.472 2157.23 587.009C2125.34 575.893 2110.89 597.385 2080.84 584.478C2089.97 584.129 2105.82 586.678 2099.04 581.774C2105.38 582.679 2141.18 578.156 2160.09 577.721Z" fill="url(#paint50_linear_133_1595)"/>
<path fill-rule="evenodd" clip-rule="evenodd" d="M2007.5 589C1998.42 591.068 2007.69 595.016 2007.79 598.168C2003.92 595.447 1998.83 593.921 1998.37 589.349C2000.14 588.296 2002.19 587.697 2004.3 587.616C2006.41 587.536 2008.5 587.977 2010.34 588.892C2010.08 590.909 2007.54 590.146 2007.5 589Z" fill="url(#paint51_linear_133_1595)"/>
<path fill-rule="evenodd" clip-rule="evenodd" d="M-136.548 670.908C-130.294 669.235 -130.262 680.134 -127.295 674.283C-122.57 674.103 -127.222 676.575 -127.121 679.727C-140.035 680.22 -129.646 669.784 -139.579 674.753C-145.304 673.25 -136.151 673.474 -136.548 670.908Z" fill="url(#paint52_linear_133_1595)"/>
<path fill-rule="evenodd" clip-rule="evenodd" d="M2014.12 608.826C2020.47 610.018 2061.24 612.763 2065.87 599.678C2070.28 599.51 2066.04 605.122 2072.34 604.881C2070.23 606.507 2067.79 607.729 2065.15 608.471C2062.52 609.213 2059.75 609.459 2057.03 609.195C2059.13 615.712 2077.59 611.278 2084.48 609.867C2079.25 604.043 2078.98 605.488 2087.34 600.579C2073.48 601.108 2060.31 593.58 2035.43 604.57C2035.1 594.256 2028.33 599.391 2016.87 596.1C2034.29 588.55 2048.56 600.913 2056.39 589.141C2059.85 589.008 2065.53 599.117 2065.57 590.51C2079.73 599.149 2097.24 594.464 2117.84 597.693C2117.98 601.99 2100.14 596.361 2093.7 602.344C2091.5 602.428 2109.05 608.928 2093.88 607.787C2096.8 610.544 2106.86 609.299 2112.26 610.527C2108.27 614.121 2116.63 618.965 2115.76 621.58C2082.35 632.035 2021.18 622.325 1987.25 626.489C1991.43 619.159 1973.39 627.019 1977.88 619.389C1994.79 625.628 2004.53 614.356 2020.6 614.029C2020.51 611.164 2017.93 609.541 2014.12 608.826Z" fill="url(#paint53_linear_133_1595)"/>
<path fill-rule="evenodd" clip-rule="evenodd" d="M-116.88 714.043C-120.314 705.282 -107.299 707.94 -114.133 701.317C-116.968 701.426 -119.442 702.954 -120.008 704.984C-130.457 703.662 -116.968 701.426 -117.347 699.432C-105.063 698.963 -107.641 707.093 -95.8094 702.338C-100.023 698.77 -84.7263 693.883 -74.6836 692.352C-81.9281 692.629 -87.1862 705.738 -77.2258 701.628C-78.2662 708.552 -106.308 709.337 -116.88 714.043Z" fill="url(#paint54_linear_133_1595)"/>
<path fill-rule="evenodd" clip-rule="evenodd" d="M448.553 773.045C432.083 770.805 420.79 772.671 408.747 770.836C418.503 770.177 441.044 765.013 448.553 773.045Z" fill="url(#paint55_linear_133_1595)"/>
<path fill-rule="evenodd" clip-rule="evenodd" d="M1079.32 774.477C1079.42 777.628 1081.95 777.818 1085.74 777.96C1071.56 788.255 1036.57 768.939 1027.59 783.911C1017.31 781.205 1006.65 779.779 995.916 779.671C995.77 775.087 1009.78 779.141 1004.87 773.592C1009.94 774.831 1015.32 774.625 1020.3 773.002C1016.93 776 1016.98 777.719 1023.32 778.624C1029.66 779.529 1028.74 770.672 1029.62 778.383C1043.56 770.393 1063.03 777.967 1079.32 774.477Z" fill="url(#paint56_linear_133_1595)"/>
<path fill-rule="evenodd" clip-rule="evenodd" d="M2000.27 560.019C2009.72 559.658 2008.03 566.033 2009.75 570.556C2014.6 568.632 2019.89 567.838 2025.13 568.248C2025.32 574.264 2029.58 579.265 2037.93 584.109C2028.21 595.667 2023.69 582.358 2004.23 585.396C2011.01 580.547 2003.84 573.077 1991.6 574.979C2001.49 568.577 2000.58 569.759 2000.27 560.019Z" fill="url(#paint57_linear_133_1595)"/>
<defs>
<linearGradient id="paint0_linear_133_1595" x1="960" y1="0" x2="960" y2="800" gradientUnits="userSpaceOnUse">
<stop stop-color="#D51321"/>
<stop offset="1" stop-color="#850000"/>
</linearGradient>
<linearGradient id="paint1_linear_133_1595" x1="960" y1="0" x2="960" y2="800" gradientUnits="userSpaceOnUse">
<stop stop-color="#D51321"/>
<stop offset="1" stop-color="#850000"/>
</linearGradient>
<linearGradient id="paint2_linear_133_1595" x1="960" y1="0" x2="960" y2="800" gradientUnits="userSpaceOnUse">
<stop stop-color="#D51321"/>
<stop offset="1" stop-color="#850000"/>
</linearGradient>
<linearGradient id="paint3_linear_133_1595" x1="960" y1="0" x2="960" y2="800" gradientUnits="userSpaceOnUse">
<stop stop-color="#D51321"/>
<stop offset="1" stop-color="#850000"/>
</linearGradient>
<linearGradient id="paint4_linear_133_1595" x1="960" y1="0" x2="960" y2="800" gradientUnits="userSpaceOnUse">
<stop stop-color="#D51321"/>
<stop offset="1" stop-color="#850000"/>
</linearGradient>
<linearGradient id="paint5_linear_133_1595" x1="960" y1="0" x2="960" y2="800" gradientUnits="userSpaceOnUse">
<stop stop-color="#D51321"/>
<stop offset="1" stop-color="#850000"/>
</linearGradient>
<linearGradient id="paint6_linear_133_1595" x1="960" y1="0" x2="960" y2="800" gradientUnits="userSpaceOnUse">
<stop stop-color="#D51321"/>
<stop offset="1" stop-color="#850000"/>
</linearGradient>
<linearGradient id="paint7_linear_133_1595" x1="960" y1="0" x2="960" y2="800" gradientUnits="userSpaceOnUse">
<stop stop-color="#D51321"/>
<stop offset="1" stop-color="#850000"/>
</linearGradient>
<linearGradient id="paint8_linear_133_1595" x1="960" y1="0" x2="960" y2="800" gradientUnits="userSpaceOnUse">
<stop stop-color="#D51321"/>
<stop offset="1" stop-color="#850000"/>
</linearGradient>
<linearGradient id="paint9_linear_133_1595" x1="960" y1="0" x2="960" y2="800" gradientUnits="userSpaceOnUse">
<stop stop-color="#D51321"/>
<stop offset="1" stop-color="#850000"/>
</linearGradient>
<linearGradient id="paint10_linear_133_1595" x1="960" y1="0" x2="960" y2="800" gradientUnits="userSpaceOnUse">
<stop stop-color="#D51321"/>
<stop offset="1" stop-color="#850000"/>
</linearGradient>
<linearGradient id="paint11_linear_133_1595" x1="960" y1="0" x2="960" y2="800" gradientUnits="userSpaceOnUse">
<stop stop-color="#D51321"/>
<stop offset="1" stop-color="#850000"/>
</linearGradient>
<linearGradient id="paint12_linear_133_1595" x1="960" y1="0" x2="960" y2="800" gradientUnits="userSpaceOnUse">
<stop stop-color="#D51321"/>
<stop offset="1" stop-color="#850000"/>
</linearGradient>
<linearGradient id="paint13_linear_133_1595" x1="960" y1="0" x2="960" y2="800" gradientUnits="userSpaceOnUse">
<stop stop-color="#D51321"/>
<stop offset="1" stop-color="#850000"/>
</linearGradient>
<linearGradient id="paint14_linear_133_1595" x1="960" y1="0" x2="960" y2="800" gradientUnits="userSpaceOnUse">
<stop stop-color="#D51321"/>
<stop offset="1" stop-color="#850000"/>
</linearGradient>
<linearGradient id="paint15_linear_133_1595" x1="960" y1="0" x2="960" y2="800" gradientUnits="userSpaceOnUse">
<stop stop-color="#D51321"/>
<stop offset="1" stop-color="#850000"/>
</linearGradient>
<linearGradient id="paint16_linear_133_1595" x1="960" y1="0" x2="960" y2="800" gradientUnits="userSpaceOnUse">
<stop stop-color="#D51321"/>
<stop offset="1" stop-color="#850000"/>
</linearGradient>
<linearGradient id="paint17_linear_133_1595" x1="960" y1="0" x2="960" y2="800" gradientUnits="userSpaceOnUse">
<stop stop-color="#D51321"/>
<stop offset="1" stop-color="#850000"/>
</linearGradient>
<linearGradient id="paint18_linear_133_1595" x1="960" y1="0" x2="960" y2="800" gradientUnits="userSpaceOnUse">
<stop stop-color="#D51321"/>
<stop offset="1" stop-color="#850000"/>
</linearGradient>
<linearGradient id="paint19_linear_133_1595" x1="960" y1="0" x2="960" y2="800" gradientUnits="userSpaceOnUse">
<stop stop-color="#D51321"/>
<stop offset="1" stop-color="#850000"/>
</linearGradient>
<linearGradient id="paint20_linear_133_1595" x1="960" y1="0" x2="960" y2="800" gradientUnits="userSpaceOnUse">
<stop stop-color="#D51321"/>
<stop offset="1" stop-color="#850000"/>
</linearGradient>
<linearGradient id="paint21_linear_133_1595" x1="960" y1="0" x2="960" y2="800" gradientUnits="userSpaceOnUse">
<stop stop-color="#D51321"/>
<stop offset="1" stop-color="#850000"/>
</linearGradient>
<linearGradient id="paint22_linear_133_1595" x1="960" y1="0" x2="960" y2="800" gradientUnits="userSpaceOnUse">
<stop stop-color="#D51321"/>
<stop offset="1" stop-color="#850000"/>
</linearGradient>
<linearGradient id="paint23_linear_133_1595" x1="960" y1="0" x2="960" y2="800" gradientUnits="userSpaceOnUse">
<stop stop-color="#D51321"/>
<stop offset="1" stop-color="#850000"/>
</linearGradient>
<linearGradient id="paint24_linear_133_1595" x1="960" y1="0" x2="960" y2="800" gradientUnits="userSpaceOnUse">
<stop stop-color="#D51321"/>
<stop offset="1" stop-color="#850000"/>
</linearGradient>
<linearGradient id="paint25_linear_133_1595" x1="960" y1="0" x2="960" y2="800" gradientUnits="userSpaceOnUse">
<stop stop-color="#D51321"/>
<stop offset="1" stop-color="#850000"/>
</linearGradient>
<linearGradient id="paint26_linear_133_1595" x1="960" y1="0" x2="960" y2="800" gradientUnits="userSpaceOnUse">
<stop stop-color="#D51321"/>
<stop offset="1" stop-color="#850000"/>
</linearGradient>
<linearGradient id="paint27_linear_133_1595" x1="960" y1="0" x2="960" y2="800" gradientUnits="userSpaceOnUse">
<stop stop-color="#D51321"/>
<stop offset="1" stop-color="#850000"/>
</linearGradient>
<linearGradient id="paint28_linear_133_1595" x1="960" y1="0" x2="960" y2="800" gradientUnits="userSpaceOnUse">
<stop stop-color="#D51321"/>
<stop offset="1" stop-color="#850000"/>
</linearGradient>
<linearGradient id="paint29_linear_133_1595" x1="960" y1="0" x2="960" y2="800" gradientUnits="userSpaceOnUse">
<stop stop-color="#D51321"/>
<stop offset="1" stop-color="#850000"/>
</linearGradient>
<linearGradient id="paint30_linear_133_1595" x1="960" y1="0" x2="960" y2="800" gradientUnits="userSpaceOnUse">
<stop stop-color="#D51321"/>
<stop offset="1" stop-color="#850000"/>
</linearGradient>
<linearGradient id="paint31_linear_133_1595" x1="960" y1="0" x2="960" y2="800" gradientUnits="userSpaceOnUse">
<stop stop-color="#D51321"/>
<stop offset="1" stop-color="#850000"/>
</linearGradient>
<linearGradient id="paint32_linear_133_1595" x1="960" y1="0" x2="960" y2="800" gradientUnits="userSpaceOnUse">
<stop stop-color="#D51321"/>
<stop offset="1" stop-color="#850000"/>
</linearGradient>
<linearGradient id="paint33_linear_133_1595" x1="960" y1="0" x2="960" y2="800" gradientUnits="userSpaceOnUse">
<stop stop-color="#D51321"/>
<stop offset="1" stop-color="#850000"/>
</linearGradient>
<linearGradient id="paint34_linear_133_1595" x1="960" y1="0" x2="960" y2="800" gradientUnits="userSpaceOnUse">
<stop stop-color="#D51321"/>
<stop offset="1" stop-color="#850000"/>
</linearGradient>
<linearGradient id="paint35_linear_133_1595" x1="960" y1="0" x2="960" y2="800" gradientUnits="userSpaceOnUse">
<stop stop-color="#D51321"/>
<stop offset="1" stop-color="#850000"/>
</linearGradient>
<linearGradient id="paint36_linear_133_1595" x1="960" y1="0" x2="960" y2="800" gradientUnits="userSpaceOnUse">
<stop stop-color="#D51321"/>
<stop offset="1" stop-color="#850000"/>
</linearGradient>
<linearGradient id="paint37_linear_133_1595" x1="960" y1="0" x2="960" y2="800" gradientUnits="userSpaceOnUse">
<stop stop-color="#D51321"/>
<stop offset="1" stop-color="#850000"/>
</linearGradient>
<linearGradient id="paint38_linear_133_1595" x1="960" y1="0" x2="960" y2="800" gradientUnits="userSpaceOnUse">
<stop stop-color="#D51321"/>
<stop offset="1" stop-color="#850000"/>
</linearGradient>
<linearGradient id="paint39_linear_133_1595" x1="960" y1="0" x2="960" y2="800" gradientUnits="userSpaceOnUse">
<stop stop-color="#D51321"/>
<stop offset="1" stop-color="#850000"/>
</linearGradient>
<linearGradient id="paint40_linear_133_1595" x1="960" y1="0" x2="960" y2="800" gradientUnits="userSpaceOnUse">
<stop stop-color="#D51321"/>
<stop offset="1" stop-color="#850000"/>
</linearGradient>
<linearGradient id="paint41_linear_133_1595" x1="960" y1="0" x2="960" y2="800" gradientUnits="userSpaceOnUse">
<stop stop-color="#D51321"/>
<stop offset="1" stop-color="#850000"/>
</linearGradient>
<linearGradient id="paint42_linear_133_1595" x1="960" y1="0" x2="960" y2="800" gradientUnits="userSpaceOnUse">
<stop stop-color="#D51321"/>
<stop offset="1" stop-color="#850000"/>
</linearGradient>
<linearGradient id="paint43_linear_133_1595" x1="960" y1="0" x2="960" y2="800" gradientUnits="userSpaceOnUse">
<stop stop-color="#D51321"/>
<stop offset="1" stop-color="#850000"/>
</linearGradient>
<linearGradient id="paint44_linear_133_1595" x1="960" y1="0" x2="960" y2="800" gradientUnits="userSpaceOnUse">
<stop stop-color="#D51321"/>
<stop offset="1" stop-color="#850000"/>
</linearGradient>
<linearGradient id="paint45_linear_133_1595" x1="960" y1="0" x2="960" y2="800" gradientUnits="userSpaceOnUse">
<stop stop-color="#D51321"/>
<stop offset="1" stop-color="#850000"/>
</linearGradient>
<linearGradient id="paint46_linear_133_1595" x1="960" y1="0" x2="960" y2="800" gradientUnits="userSpaceOnUse">
<stop stop-color="#D51321"/>
<stop offset="1" stop-color="#850000"/>
</linearGradient>
<linearGradient id="paint47_linear_133_1595" x1="960" y1="0" x2="960" y2="800" gradientUnits="userSpaceOnUse">
<stop stop-color="#D51321"/>
<stop offset="1" stop-color="#850000"/>
</linearGradient>
<linearGradient id="paint48_linear_133_1595" x1="960" y1="0" x2="960" y2="800" gradientUnits="userSpaceOnUse">
<stop stop-color="#D51321"/>
<stop offset="1" stop-color="#850000"/>
</linearGradient>
<linearGradient id="paint49_linear_133_1595" x1="960" y1="0" x2="960" y2="800" gradientUnits="userSpaceOnUse">
<stop stop-color="#D51321"/>
<stop offset="1" stop-color="#850000"/>
</linearGradient>
<linearGradient id="paint50_linear_133_1595" x1="960" y1="0" x2="960" y2="800" gradientUnits="userSpaceOnUse">
<stop stop-color="#D51321"/>
<stop offset="1" stop-color="#850000"/>
</linearGradient>
<linearGradient id="paint51_linear_133_1595" x1="960" y1="0" x2="960" y2="800" gradientUnits="userSpaceOnUse">
<stop stop-color="#D51321"/>
<stop offset="1" stop-color="#850000"/>
</linearGradient>
<linearGradient id="paint52_linear_133_1595" x1="960" y1="0" x2="960" y2="800" gradientUnits="userSpaceOnUse">
<stop stop-color="#D51321"/>
<stop offset="1" stop-color="#850000"/>
</linearGradient>
<linearGradient id="paint53_linear_133_1595" x1="960" y1="0" x2="960" y2="800" gradientUnits="userSpaceOnUse">
<stop stop-color="#D51321"/>
<stop offset="1" stop-color="#850000"/>
</linearGradient>
<linearGradient id="paint54_linear_133_1595" x1="960" y1="0" x2="960" y2="800" gradientUnits="userSpaceOnUse">
<stop stop-color="#D51321"/>
<stop offset="1" stop-color="#850000"/>
</linearGradient>
<linearGradient id="paint55_linear_133_1595" x1="960" y1="0" x2="960" y2="800" gradientUnits="userSpaceOnUse">
<stop stop-color="#D51321"/>
<stop offset="1" stop-color="#850000"/>
</linearGradient>
<linearGradient id="paint56_linear_133_1595" x1="960" y1="0" x2="960" y2="800" gradientUnits="userSpaceOnUse">
<stop stop-color="#D51321"/>
<stop offset="1" stop-color="#850000"/>
</linearGradient>
<linearGradient id="paint57_linear_133_1595" x1="960" y1="0" x2="960" y2="800" gradientUnits="userSpaceOnUse">
<stop stop-color="#D51321"/>
<stop offset="1" stop-color="#850000"/>
</linearGradient>
</defs>
</svg>
