<svg width="31" height="31" viewBox="0 0 31 31" fill="none" xmlns="http://www.w3.org/2000/svg">
<path d="M29.4666 0.822266C29.5182 0.835278 29.615 0.926365 29.7569 1.09553C29.9117 1.25167 30.0665 1.43385 30.2213 1.64204C30.3761 1.85024 30.4857 2.03242 30.5502 2.18856C30.6276 2.34471 30.6083 2.41628 30.4922 2.40327C30.4922 2.40327 30.4277 2.51387 30.2987 2.73508C30.1826 2.94328 30.0278 3.19702 29.8343 3.49631C29.6408 3.79559 29.4473 4.08837 29.2538 4.37464C29.0603 4.66091 28.8862 4.88863 28.7314 5.05779C28.7056 5.08381 28.6798 5.10984 28.654 5.13586C28.4089 5.39611 28.138 5.68238 27.8413 5.99468C27.5575 6.30698 27.1511 6.78193 26.6222 7.41953C26.2352 7.87497 25.9643 8.20678 25.8095 8.41498C25.6676 8.61016 25.5064 8.79884 25.3258 8.98102C25.1581 9.16319 24.8678 9.44946 24.455 9.83983C24.1712 10.1131 23.9519 10.3538 23.7971 10.562C23.6552 10.7572 23.5327 10.9459 23.4295 11.1281C23.3263 11.3363 23.1715 11.5705 22.9651 11.8307C22.7716 12.091 22.4491 12.4228 21.9976 12.8262C21.2494 13.4768 20.4625 14.238 19.6369 15.1098C20.0626 16.0597 20.4883 16.8925 20.914 17.6082C21.1075 17.9595 21.2365 18.2393 21.301 18.4475C21.3655 18.6557 21.4107 18.8379 21.4365 18.994C21.4623 19.1372 21.4945 19.2868 21.5332 19.443C21.5848 19.5991 21.6751 19.7943 21.8041 20.0285C21.9718 20.3538 22.0879 20.5945 22.1524 20.7507C22.2298 20.8938 22.2879 21.0435 22.3266 21.1996C22.3782 21.3688 22.4749 21.6355 22.6168 21.9999C22.8103 22.5204 22.9651 22.9107 23.0812 23.171C23.1973 23.4182 23.3005 23.6525 23.3908 23.8737C23.4037 23.8867 23.4166 23.9062 23.4295 23.9322C23.494 24.0754 23.552 24.2575 23.6036 24.4787C23.6681 24.6999 23.7197 24.9277 23.7584 25.1619C23.81 25.3961 23.8487 25.5978 23.8745 25.767C23.9132 25.9361 23.9326 26.0207 23.9326 26.0207C23.9971 26.0207 24.0035 26.0532 23.9519 26.1183C23.9003 26.1834 23.8165 26.2679 23.7004 26.372C23.5972 26.4631 23.4811 26.5542 23.3521 26.6453C23.2231 26.7364 23.107 26.8145 23.0038 26.8795C22.9006 26.9316 22.8361 26.9576 22.8103 26.9576L19.6369 26.0793C19.6111 26.0012 19.5531 25.8515 19.4628 25.6303C19.3854 25.3961 19.2886 25.1424 19.1725 24.8691C19.0564 24.5828 18.9468 24.3226 18.8436 24.0884C18.7662 23.9062 18.6694 23.6655 18.5533 23.3662C18.4501 23.0669 18.3405 22.7546 18.2244 22.4293C17.9922 21.7917 17.818 21.3232 17.7019 21.024C17.5987 20.8158 17.4375 20.5165 17.2182 20.1261C17.0118 19.7227 16.8247 19.3649 16.6571 19.0526C16.6442 18.9615 16.6248 18.8899 16.599 18.8379C16.5603 18.7598 16.5281 18.6622 16.5023 18.5451C15.0188 20.2367 13.6191 21.8633 12.3033 23.4247C10.2394 25.9231 8.81391 27.5236 8.02702 28.2263C7.89802 28.3434 7.78192 28.441 7.67872 28.5191C7.45942 28.7013 7.27883 28.8444 7.13693 28.9485C6.99503 29.0526 6.83378 29.1307 6.65318 29.1827C6.47258 29.2478 6.22103 29.3063 5.89854 29.3584C5.60184 29.4234 5.16969 29.534 4.6021 29.6902C4.0216 29.8463 3.42821 30.009 2.82191 30.1782C2.21562 30.3603 1.69317 30.51 1.25457 30.6271C0.815978 30.7572 0.59668 30.8223 0.59668 30.8223C0.59668 30.8223 0.674079 30.7442 0.828878 30.588C0.983677 30.4319 1.16428 30.2432 1.37067 30.022C1.57707 29.8008 1.77057 29.5796 1.95117 29.3584C2.13177 29.1502 2.26077 28.981 2.33817 28.8509C2.42846 28.7078 2.72516 28.2718 3.22826 27.5432C3.71845 26.8145 4.29895 25.9687 4.96974 25.0057C5.64054 24.0428 6.27263 23.145 6.86603 22.3122C7.44652 21.4664 7.86577 20.8613 8.12377 20.497L8.49142 20.1847L10.7166 17.6277C10.7682 17.6277 10.8134 17.6147 10.8521 17.5887C10.8908 17.5627 10.9553 17.4716 11.0456 17.3154C11.1488 17.1593 11.2713 16.9706 11.4132 16.7494C11.568 16.4761 11.7357 16.1964 11.9163 15.9101C12.1098 15.6108 12.2904 15.3571 12.4581 15.1489C12.6 14.9797 12.7032 14.8496 12.7677 14.7585C12.8451 14.6674 12.9032 14.5893 12.9419 14.5243C12.9935 14.4592 13.0451 14.3877 13.0967 14.3096C13.1741 14.1925 13.3095 13.9973 13.503 13.724C13.6191 13.5549 13.7223 13.4052 13.8126 13.2751C14.0319 12.9628 14.2383 12.683 14.4318 12.4358L13.6965 10.6011L13.5224 10.3278C13.445 10.0415 13.316 9.56657 13.1354 8.90294C12.9548 8.23931 12.7613 7.53014 12.5549 6.77542C12.3614 6.00769 12.1937 5.33756 12.0518 4.76501C11.9099 4.19247 11.826 3.85415 11.8002 3.75005C11.7873 3.64595 11.7422 3.50932 11.6648 3.34016C11.6003 3.15798 11.5293 2.97581 11.4519 2.79364C11.3745 2.61147 11.3036 2.45532 11.2391 2.32519C11.1746 2.19507 11.1423 2.13001 11.1423 2.13001C11.1423 2.13001 11.2713 2.20808 11.5293 2.36423C11.8002 2.50737 12.1163 2.68303 12.4775 2.89123C12.8516 3.09943 13.2063 3.30112 13.5417 3.49631C13.89 3.67848 14.1609 3.81511 14.3544 3.9062C14.5608 3.99728 14.7156 4.07536 14.8188 4.14042C14.922 4.20548 15.0059 4.28355 15.0704 4.37464C15.1478 4.46573 15.2381 4.58934 15.3413 4.74549C15.3929 4.81055 15.4509 4.88863 15.5154 4.97972C15.8508 5.57828 16.3926 6.89253 17.1408 8.92246C17.244 9.18271 17.3472 9.45597 17.4504 9.74224C17.6439 9.58609 17.8309 9.42994 18.0115 9.27379C18.3856 8.9615 18.6952 8.70125 18.9403 8.49305C19.1983 8.28486 19.3467 8.16124 19.3854 8.1222C19.6563 7.8099 20.1013 7.2764 20.7205 6.52168C21.0688 6.09227 21.4107 5.68238 21.7461 5.29201C22.0815 4.88863 22.3524 4.56983 22.5588 4.3356C22.8039 4.06234 23.0747 3.75655 23.3714 3.41823C23.681 3.0669 23.9519 2.7546 24.1841 2.48134C24.4292 2.19507 24.5905 1.99988 24.6679 1.89579L29.4666 0.822266Z" fill="#4E050E"/>
</svg>
