<svg width="25" height="30" viewBox="0 0 25 30" fill="none" xmlns="http://www.w3.org/2000/svg">
<path d="M4.65147 20.4621L4.41142 20.7595L3.90391 21.329L3.06166 22.2954C2.72111 22.6762 2.43095 22.9983 2.19118 23.2617C1.86448 23.6468 1.47839 23.9653 1.05073 24.2026C0.956872 24.2623 0.866693 24.3288 0.780783 24.4015L0.630441 24.5001L0.480098 24.5995C0.43705 24.5813 0.396733 24.5561 0.360489 24.5247L0.299854 24.4754L0.210147 24.4262L0.332248 24.3267L0.452688 24.2026L0.664496 24.0292C1.19493 23.6924 1.67975 23.2756 2.10479 22.7909L3.00518 21.6767L3.93548 20.5862C4.71626 19.6621 5.32538 18.9271 5.76284 18.3814C6.06242 18.0347 6.41183 17.5957 6.81108 17.0646L7.32191 16.3957L7.83192 15.7022L7.80201 15.6529L7.77128 15.5781C7.73894 15.5393 7.70897 15.4981 7.68157 15.4549C6.56134 14.3313 5.53082 13.4394 4.59001 12.7793C4.14701 12.4818 3.62676 12.1515 3.02927 11.7883L1.44029 10.8502C1.21969 10.7202 1.00912 10.5707 0.810685 10.403L0.510001 10.1293L0.177753 9.88198C0.275468 9.80943 0.392293 9.77445 0.510001 9.78251C0.589782 9.78363 0.669301 9.7928 0.747558 9.80989C0.935039 10.0496 1.16009 10.2505 1.41205 10.403L1.80245 10.6257L2.22274 10.873L4.80347 12.4837C5.68393 13.0312 6.70449 13.8981 7.86514 15.0844C7.86514 15.1017 7.96481 15.1839 8.16499 15.3326C8.14412 15.2778 8.13394 15.2187 8.13509 15.1592L8.10519 15.0351C8.09114 14.9592 8.07113 14.8847 8.04538 14.8125L7.47558 13.972L6.87504 13.1297L5.37992 10.9497C5.09252 10.5238 4.74838 10.1478 4.35909 9.83452C4.19906 9.70312 4.00913 9.53795 3.78929 9.33901L3.27929 8.8435C3.05834 8.66099 2.94704 8.47209 2.94704 8.27407C2.94942 8.23093 2.95958 8.18874 2.97694 8.14996C3.03675 8.11711 3.11649 8.07605 3.21699 8.02677L3.45704 7.90266C3.30759 7.61528 3.22512 7.29177 3.21699 6.96091C3.21846 6.65696 3.29081 6.35849 3.42714 6.09399C3.12368 5.68152 2.83158 5.26875 2.55083 4.85567V4.56274C2.78839 4.27985 3.12867 4.06357 3.57167 3.91392L3.69127 3.96411C3.73114 3.98053 3.75191 3.99696 3.75191 4.01338L5.46216 5.94525C6.13994 6.72152 6.7103 7.36578 7.17323 7.87802L7.29284 8.00122L7.41328 8.14996C7.51296 8.28228 7.59353 8.38175 7.65333 8.44745C7.85128 8.6448 8.10636 8.7589 8.37348 8.76958L9.66426 10.2297C10.1626 10.7906 10.5929 11.2694 10.955 11.666C11.1363 11.5391 11.29 11.3699 11.4052 11.1705L12.7251 9.11635C13.8123 7.47488 15.0385 5.95021 16.3873 4.56274C16.7871 4.13384 17.4574 3.61369 18.3982 3.00228C18.4917 2.94214 18.5818 2.87602 18.6682 2.80426L18.968 2.55513L19.1184 2.6546L19.2679 2.75316V2.8289L19.238 2.87817L18.8783 3.19392C18.738 3.30981 18.6175 3.40015 18.5178 3.46768C17.9779 3.76456 17.4378 4.28471 16.8973 5.02814C16.7024 5.29083 16.4918 5.53899 16.2669 5.77095L15.9346 6.14236L15.6339 6.53932C14.6339 7.76091 13.8437 8.75164 13.2633 9.51148C12.9855 9.8422 12.7248 10.1898 12.4826 10.5527L11.7026 11.593C11.627 11.7087 11.5851 11.8467 11.5822 11.989L11.7923 11.791L11.9427 11.593C12.4626 10.9159 13.0828 10.1728 13.8032 9.36365L14.7634 8.26859L15.7569 7.20913C16.1772 6.74677 16.6772 6.17703 17.257 5.49992L18.7521 3.76517C19.6632 2.72572 20.4965 1.60727 21.2439 0.420684C21.2838 0.371407 21.3436 0.305703 21.4242 0.222662L21.6094 0H22.1776L22.7183 0.222662L22.9882 0.346768L23.2881 0.470875C23.3631 0.511351 23.4337 0.561267 23.4982 0.61962L23.558 0.668897L23.6187 0.742814L23.7981 0.86692L23.2299 1.46008L22.69 2.05414C22.215 2.56527 21.7643 3.10286 21.3395 3.66479L20.7389 4.50707L20.1085 5.32837L19.8385 5.72441L19.5686 6.14509C19.3285 6.49186 19.1375 6.7565 18.9979 6.9381C18.9397 7.02466 18.8686 7.09992 18.7878 7.16076L18.6682 7.28487L18.5178 7.40897L18.1856 7.7311L17.8251 8.05323C17.5444 8.30053 17.3043 8.50951 17.105 8.67194C16.9051 8.82038 16.6249 9.06008 16.2644 9.39103C16.191 9.45263 16.1208 9.51874 16.0542 9.58905L15.874 9.81171V9.96046C15.874 10.508 15.5941 11.1355 15.0342 11.843C14.7939 12.157 14.4838 12.522 14.1039 12.9381L13.1429 14.0332V14.108C13.1416 14.2034 13.1624 14.2977 13.2035 14.3817C13.231 14.4419 13.2722 14.4932 13.3231 14.5305L13.4436 14.6792L14.7335 16.2397C15.2319 16.884 15.6622 17.4041 16.0243 17.8002C16.2846 18.1141 16.6046 18.4858 16.9845 18.9153L17.9754 20.0103L18.125 20.1582C18.161 20.2193 18.2012 20.2773 18.2454 20.3316C18.3003 20.4006 18.3319 20.4882 18.3351 20.5798C18.3348 20.6311 18.3246 20.6818 18.3052 20.7285L18.1906 20.8061L18.0701 20.9302C17.9856 20.9983 17.9054 21.0727 17.8301 21.1529C18.9708 22.5405 19.8911 23.5811 20.5911 24.2747C21.0712 24.7541 21.4114 25.2329 21.6119 25.711C21.7118 25.9084 21.8325 26.0922 21.9716 26.2586L22.1817 26.5059L22.3918 26.7541C22.5123 26.9028 22.6817 27.0917 22.9027 27.3235L23.1726 27.5973L23.4127 27.871C23.4318 27.871 23.4625 27.9459 23.5024 28.0946L23.3828 28.0444L23.2922 28.0198C23.25 28.0112 23.2096 27.9945 23.1726 27.9705L22.9027 27.7223L22.6319 27.475C22.4104 27.2767 22.2205 27.1115 22.0621 26.9795C21.6192 26.6057 21.1587 26.2578 20.6824 25.9373C20.2023 25.6398 19.872 25.3661 19.6915 25.116C19.6516 25.0668 19.6018 25.0084 19.542 24.9427L19.4515 24.8432C19.4318 24.7943 19.4009 24.7518 19.3618 24.72C19.3226 24.813 19.3022 24.9141 19.3019 25.0166C19.3083 25.1738 19.3494 25.3269 19.4216 25.4628L19.4814 25.6116L19.542 25.7849C19.5962 25.8852 19.6365 25.9938 19.6616 26.1071L19.2413 26.4046C19.0976 26.5002 18.947 26.5829 18.7911 26.6519C18.6172 26.7168 18.4349 26.7504 18.2512 26.7513C18.0363 26.7482 17.8233 26.7063 17.6208 26.6272L17.3807 26.379C17.2802 26.2805 17.2005 26.2056 17.1407 26.1564C16.8599 25.9252 16.7099 25.6608 16.6905 25.3633C16.6869 25.1791 16.6669 24.9957 16.6307 24.8158L16.6008 24.5421L16.5401 24.2683L16.7802 23.9945L16.7503 23.9452V23.9087L16.3607 23.5118L15.9703 23.1157C15.7143 22.8576 15.4435 22.6177 15.1596 22.3976C14.6407 22.0327 14.1579 21.6091 13.7193 21.1337L13.0889 20.4402C12.8292 20.1427 12.6191 19.9197 12.4585 19.7713C12.1817 19.4488 11.8691 19.1658 11.5282 18.929L12.4593 20.3635L13.4195 21.7998C13.5402 21.9653 13.7005 22.2047 13.9004 22.518L14.1405 22.8903L14.3805 23.2371C14.7144 23.743 15.0967 24.208 15.521 24.6242C15.4333 24.7155 15.3529 24.8151 15.2809 24.9217L15.1007 24.8715C14.7402 24.6403 14.3999 24.2771 14.0798 23.7819C12.9167 21.8782 11.6543 20.05 10.2989 18.3066C10.2647 18.2587 10.2241 18.2169 10.1784 18.1825L10.1186 18.1077L10.0588 18.0338L9.96827 18.1077L9.90846 18.1579C9.85582 18.1858 9.80551 18.2188 9.75812 18.2564L8.26301 20.2385C7.65665 21.0488 7.1533 21.7098 6.75294 22.2214C6.30994 22.783 5.67978 23.5592 4.86245 24.5503L3.00103 26.8535C2.82162 27.0847 2.61175 27.3655 2.37142 27.6958L2.07074 28.1421L1.7443 28.5627C1.42368 29.0257 1.10362 29.3314 0.784105 29.4798C0.679747 29.5471 0.579323 29.6215 0.483421 29.7025L0.363812 29.8513L0.213469 30L0.0930294 29.9252L0 29.8513L0.12044 29.3311C0.180245 29.1157 0.230082 28.9424 0.269951 28.8109C0.355415 28.5524 0.477038 28.3101 0.630441 28.0928C1.31887 27.0993 1.92173 26.0377 2.43122 24.9217C2.54986 24.6756 2.69066 24.4433 2.85152 24.2281L3.09157 23.8814L3.33162 23.5592C3.61126 23.1942 3.95126 22.7565 4.35162 22.2461L5.39903 20.9329L5.45883 20.8335L5.54937 20.6856L5.39903 20.5615L5.25201 20.4411L4.91976 20.1673L4.65147 20.4621ZM8.1326 16.0526C8.08236 16.1512 8.02188 16.2431 7.95235 16.3264L7.77211 16.6002C7.61208 16.7991 7.53206 16.9892 7.53206 17.1705L8.37265 16.2287L8.31284 16.1795L8.1326 16.0526ZM15.6356 11.6724C16.1157 11.8373 16.4258 12.1414 16.5659 12.5849L16.266 12.8076C16.0183 12.7663 15.7872 12.6457 15.6015 12.4608C15.5417 12.3951 15.4711 12.3121 15.3914 12.2126L15.3017 12.0648L15.1812 11.9407L15.6356 11.6724ZM15.756 13.9017L15.8457 13.8278C15.8733 13.7738 15.9154 13.7305 15.9662 13.7037L16.6863 13.085L17.4065 12.49C18.053 11.9854 18.6469 11.4039 19.1774 10.7562C19.7173 10.0955 20.2275 9.60882 20.7082 9.29612C20.8278 9.21399 20.9579 9.11483 21.0986 8.99863L21.278 8.84989L21.4582 8.70205L21.43 8.57156L21.3702 8.42281L21.3096 8.1746L22.0903 7.68C22.3705 7.49749 22.6197 7.34874 22.8379 7.23376C23.2383 7.01962 23.6585 6.67285 24.0988 6.19346H24.1586C24.2555 6.18739 24.3523 6.20663 24.4411 6.24962C24.5299 6.29261 24.6081 6.35811 24.6694 6.44076L24.73 6.54023L24.8198 6.63878C24.8516 6.71281 24.9043 6.7736 24.9701 6.81217C24.9895 6.89321 24.9995 6.9766 25 7.06038C25 7.34145 24.8699 7.58084 24.6096 7.77855L22.3885 9.51239L22.1485 9.71133C21.4879 10.2722 20.6475 10.8252 19.6275 11.3703C18.6862 11.8832 17.9458 12.4201 17.4065 12.981C17.2169 13.1904 17.0052 13.3742 16.776 13.5285L16.4164 13.7521L16.0559 13.9994H15.6655L15.756 13.9017ZM17.8567 8.97399L17.9771 8.84989C18.4308 8.88164 18.8725 9.02344 19.2704 9.26509C19.3645 9.29488 19.4482 9.35534 19.5104 9.43848C19.529 9.45211 19.5443 9.47056 19.5549 9.49221C19.5654 9.51385 19.571 9.53802 19.5711 9.56259C19.5681 9.61866 19.5466 9.67159 19.5104 9.71133C19.3928 9.74387 19.272 9.76042 19.1508 9.76061C18.9553 9.75753 18.7619 9.71548 18.5801 9.6365L18.4605 9.61186L18.3401 9.56259C18.2205 9.52973 18.1399 9.50418 18.1 9.48776C18.0191 9.45021 17.947 9.39276 17.8894 9.31983C17.8318 9.2469 17.7902 9.16043 17.7678 9.06707L17.8567 8.97399Z" fill="url(#paint0_linear_355_140)"/>
<defs>
<linearGradient id="paint0_linear_355_140" x1="12.5" y1="0" x2="12.5" y2="30" gradientUnits="userSpaceOnUse">
<stop stop-color="#D51321"/>
<stop offset="1" stop-color="#850000"/>
</linearGradient>
</defs>
</svg>
