<svg width="70" height="100" viewBox="0 0 70 100" fill="none" xmlns="http://www.w3.org/2000/svg">
<path d="M26.4927 42.4752C26.4927 42.5226 26.4607 42.5118 26.4463 42.5181L26.4927 42.4752ZM61.5755 5.25306C62.3765 4.35598 63.1098 3.38314 64.1767 2.77773C63.2885 3.58958 62.522 4.51822 61.5755 5.25306ZM66.8638 1.09215L65.6325 1.90779L65.5616 1.79984C65.9073 1.43305 66.2817 1.10541 66.7779 0.957684L66.8638 1.09215ZM65.7661 1.16223C66.0484 0.734203 66.5502 0.508829 66.7302 0H67.232C66.9522 0.659078 66.2554 0.772081 65.7649 1.16223H65.7661ZM47.0863 8.09517C47.11 8.12925 47.1237 8.16944 47.1256 8.21104C47.1275 8.25263 47.1175 8.2939 47.0969 8.33002C46.9357 8.69491 46.6108 8.84074 46.259 8.90135C45.9667 8.95122 45.6643 8.94996 45.3695 9.0516C45.8124 8.62421 46.3461 8.35717 46.8605 8.0655C46.8948 8.04059 46.9373 8.02979 46.9792 8.03531C47.0212 8.04082 47.0595 8.06223 47.0863 8.09517ZM50.6427 5.57313C50.2156 5.79156 49.7859 6.00936 49.3431 6.19243C48.5716 6.5125 47.785 6.79533 47.0123 7.11161C46.3493 7.38307 45.7252 7.73218 45.2692 8.30287C44.8721 8.79971 44.3848 9.19175 43.903 9.5901C43.7218 9.73971 43.5788 10.0169 43.2915 9.95373C43.134 9.91964 43.2344 9.53517 43.5085 9.17849C43.5976 9.06233 43.7029 8.95943 43.8027 8.85211C44.2606 8.35717 44.7925 7.9525 45.3419 7.5693C47.4231 6.11731 49.6787 4.97276 51.8928 3.75372C51.9631 3.71521 52.0409 3.67733 52.15 3.75372C51.8583 4.5359 51.4042 5.18298 50.6427 5.57313ZM56.1292 5.13122C56.3312 4.76127 56.5733 4.59461 56.7721 4.39133C56.8581 4.30358 56.9678 4.21078 57.0914 4.3282C57.198 4.43237 57.1698 4.56557 57.0952 4.671C56.8907 4.9696 56.5821 5.06367 56.1292 5.13437V5.13122ZM49.6925 7.28585C49.7113 7.19368 49.8907 7.12739 49.9465 7.22272C50.0632 7.41716 50.2206 7.34898 50.3774 7.36602C50.6377 7.39759 50.7255 7.55541 50.6484 7.80793C50.5744 8.04783 50.3975 8.18987 50.1736 8.26689C49.764 8.40893 49.3462 8.49542 48.8946 8.37421C49.1066 7.95439 49.5946 7.77005 49.6925 7.289V7.28585ZM60.6353 91.8796C61.3347 92.1428 61.7762 92.5923 62.0779 93.2003C61.6025 93.0538 60.8222 92.3158 60.6353 91.8796ZM0.0476607 52.0192C0.15985 51.8168 0.302933 51.6334 0.471676 51.4757C1.28144 50.6487 2.20787 49.9605 3.12741 49.2705C3.73583 48.8122 3.74336 48.7825 3.45859 48.0793C3.44545 48.0337 3.42227 47.9917 3.39078 47.9564C3.35929 47.9211 3.32029 47.8934 3.27669 47.8754C3.10357 48.0603 2.93234 48.268 2.73538 48.4435C2.55599 48.6064 2.42678 48.8633 2.06674 48.9056C2.23422 48.5161 2.39165 48.2485 2.69398 48.0515C3.0835 47.799 3.29677 47.4574 3.17822 46.9644C3.08978 47.0275 3.00133 47.0862 2.90913 47.1424C2.84076 47.1841 2.66639 47.3318 2.55599 47.2605C2.57916 47.2123 2.60535 47.1657 2.6344 47.1209C2.68063 47.0655 2.73627 47.0186 2.79874 46.9827C2.83424 46.96 2.86818 46.9349 2.90035 46.9076C2.9511 46.8569 2.99139 46.7966 3.0189 46.7302C3.03914 46.6908 3.06659 46.6557 3.09981 46.6266C3.07361 46.3522 3.08035 46.0756 3.11988 45.8028C3.1411 45.5635 3.22796 45.3349 3.37078 45.1425C3.3379 45.1412 3.30555 45.1337 3.27544 45.1204C3.26665 45.0515 3.36325 44.9796 3.40088 44.931C3.43918 44.876 3.48335 44.8254 3.5326 44.7801C3.67373 44.6652 3.85814 44.5907 4.01871 44.508C4.28451 44.376 4.52094 44.1911 4.7137 43.9644C4.78014 43.8886 4.82672 43.7972 4.84919 43.6987C4.86471 43.6121 4.87414 43.5246 4.87741 43.4367C4.89246 43.2384 5.00286 43.0238 5.21612 43.0427C5.31059 43.0553 5.40046 43.0913 5.47768 43.1475C5.5473 43.1917 5.65142 43.2738 5.72857 43.2384C5.77619 43.212 5.81869 43.1772 5.85402 43.1355C5.89605 43.0888 5.93368 43.0364 5.97257 42.9866C5.98206 42.9613 5.99862 42.9394 6.02024 42.9234C6.0359 42.9003 6.0576 42.8819 6.08296 42.8704C6.09918 42.8665 6.11588 42.865 6.13252 42.866C6.13942 42.8092 6.08924 42.746 6.14318 42.6955C6.10429 42.705 6.08045 42.6191 6.03968 42.6457C5.92231 42.7567 5.79292 42.8541 5.65393 42.9361C5.68028 42.9076 5.64515 42.8729 5.65393 42.842C5.63386 42.8502 5.61128 42.8736 5.5956 42.854C5.90169 42.8035 5.86092 42.5383 5.95689 42.4866C6.15196 42.6955 6.26173 42.1659 6.61988 42.2113C6.64685 42.1829 6.63055 42.1482 6.65375 42.1217C6.87454 42.0131 6.73655 42.1293 6.67821 42.1993C6.68574 42.2524 6.80931 42.1198 6.75098 42.2082C6.68825 42.2454 6.64936 42.2189 6.71711 42.2972C6.54211 42.4234 6.55088 42.6046 6.36899 42.592C6.44174 42.5554 6.42606 42.414 6.34139 42.4203C6.34139 42.4834 6.11056 42.5636 6.13063 42.6728C6.25106 42.7056 6.17015 42.6999 6.25608 42.5762C6.27992 42.6589 6.32696 42.6002 6.36021 42.6255C6.30815 42.7151 6.20026 42.6886 6.21908 42.7953C6.22957 42.8029 6.24181 42.8077 6.25464 42.8092C6.26747 42.8107 6.28048 42.809 6.29246 42.8041C6.34829 42.7669 6.33449 42.722 6.36899 42.6829C6.4361 42.6993 6.43171 42.746 6.45868 42.7814C6.60771 42.6473 6.74381 42.4994 6.86513 42.3395C6.85695 42.3122 6.85252 42.284 6.85196 42.2555C6.87203 42.2505 6.88771 42.27 6.90339 42.2871C6.98931 42.1673 7.06526 42.0406 7.13046 41.9083C7.08173 41.9222 7.03113 41.9281 6.98054 41.926C6.93183 41.9735 6.86818 42.0026 6.80053 42.008C6.83252 41.9203 6.86325 41.9291 6.89963 41.9096C6.89035 41.904 6.88243 41.8964 6.87645 41.8873C6.87048 41.8782 6.86662 41.8679 6.86513 41.8572C6.85711 41.8556 6.84971 41.8517 6.84381 41.846C6.83792 41.8403 6.83378 41.833 6.83189 41.825L6.85886 41.8048C6.85886 41.7416 6.87329 41.6785 6.87454 41.6204C6.87696 41.5956 6.87236 41.5705 6.86126 41.5482C6.85017 41.5259 6.83303 41.5071 6.81182 41.4942C6.78481 41.4741 6.7534 41.4609 6.72024 41.4557C6.65817 41.4635 6.59728 41.4789 6.53897 41.5017L6.35895 41.5598C6.24228 41.5971 6.12436 41.6318 6.00331 41.6577C5.95086 41.6745 5.89581 41.6815 5.84085 41.6785C5.84963 41.6564 5.9663 41.6091 5.96316 41.6116C6.07718 41.5453 6.1849 41.4686 6.28494 41.3824C6.37275 41.3086 6.46182 41.2379 6.49381 41.1173C6.50775 41.0674 6.51905 41.0168 6.52768 40.9658C6.53709 40.9115 6.53207 40.854 6.54085 40.7997C6.54781 40.7412 6.56705 40.6848 6.5973 40.6343C6.61787 40.596 6.64646 40.5625 6.68112 40.5364C6.71577 40.5102 6.75566 40.4919 6.79802 40.4828C6.86074 40.4639 6.91092 40.5358 6.95671 40.5781C7.00229 40.6268 7.0602 40.6619 7.12418 40.6798C7.15632 40.6902 7.19061 40.692 7.22364 40.6849C7.25667 40.6778 7.28727 40.6621 7.31236 40.6394C7.34676 40.5881 7.37182 40.531 7.38637 40.4708C7.41072 40.3938 7.45385 40.3241 7.51182 40.2682C7.60253 40.2 7.67868 40.1141 7.73574 40.0157C7.76738 39.9438 7.78851 39.8676 7.79847 39.7897C7.80537 39.7448 7.79847 39.6968 7.80787 39.6527C7.80787 39.6426 7.80788 39.6388 7.81352 39.6306C7.82738 39.6175 7.84491 39.6091 7.8637 39.6066C7.93818 39.5935 8.0148 39.6014 8.08512 39.6293C8.17168 39.6571 8.25761 39.6867 8.34354 39.7164C8.39068 39.7354 8.44165 39.7428 8.4922 39.7379H8.5016C8.76128 39.4102 9.07114 39.183 9.30635 38.8408C8.85348 38.9361 8.65026 39.3244 8.22813 39.409C8.28332 39.1325 8.46397 39.0131 8.60447 38.8755C10.2391 37.2821 12.0706 36.0082 14.2032 35.2272C14.1656 35.2336 14.1292 35.2569 14.1198 35.2014C14.1786 35.178 14.234 35.1471 14.2848 35.1092C14.268 35.0869 14.2595 35.0594 14.2609 35.0315C14.2271 35.0789 14.1813 35.1521 14.1355 35.0915C14.1617 35.047 14.1982 35.0096 14.2419 34.9824C14.2856 34.9551 14.3351 34.9388 14.3864 34.9349C14.3807 34.9842 14.2885 35.0227 14.3236 35.077C14.3525 35.0555 14.3701 35.0978 14.397 35.0858C14.5137 35.0227 14.4836 34.9463 14.471 34.8706C14.6222 34.7279 14.6423 34.8661 14.816 34.7064C14.7797 34.6048 14.784 34.6155 14.8988 34.5486C14.8719 34.5233 14.8361 34.5404 14.8104 34.5189C14.8775 34.4558 15.0161 34.4065 14.9358 34.3295C14.8982 34.3674 14.8731 34.3339 14.8411 34.3371C14.8167 34.3649 14.8217 34.3964 14.7702 34.4217C14.7258 34.3986 14.6788 34.3806 14.6304 34.368C14.8417 34.255 14.9785 34.1578 15.2106 34.0265C15.198 34.0334 15.1993 34.0625 15.2262 34.0473C15.3874 33.9558 15.5606 33.6496 15.755 33.6805C15.6741 33.7506 15.5668 33.7437 15.5775 33.8466C15.5879 33.8372 15.6001 33.8301 15.6135 33.8258C15.6268 33.8215 15.6408 33.8201 15.6547 33.8217C15.6686 33.8234 15.682 33.8279 15.694 33.8352C15.706 33.8424 15.7163 33.8521 15.7243 33.8636C15.7011 33.8864 15.6616 33.9059 15.6747 33.9324C15.7826 33.8952 15.7186 33.9817 15.7506 34.0353C15.8372 33.935 15.9595 34.1143 15.8334 34.0985C15.8466 34.0814 15.8453 34.0625 15.824 34.0417C15.8076 34.0858 15.7747 34.1218 15.7324 34.142C15.6835 34.1193 15.7456 34.0252 15.6697 34.0606C15.6308 34.1471 15.7048 34.1319 15.755 34.2197C15.6735 34.2778 15.6766 34.243 15.6296 34.3163C15.4916 34.1932 15.3699 34.4192 15.3122 34.4274C15.358 34.4135 15.3931 34.4634 15.4376 34.4615C15.5192 34.4615 15.5148 34.3478 15.6026 34.3687C15.5593 34.4271 15.5065 34.4777 15.4464 34.5183C15.3807 34.4939 15.3089 34.4919 15.2419 34.5126C15.3435 34.5865 15.3674 34.6786 15.5436 34.6048C15.5248 34.5713 15.4809 34.5347 15.5041 34.5069C15.5668 34.6022 15.7657 34.5038 15.8008 34.4116C15.7525 34.4665 15.6089 34.5284 15.6421 34.4671C15.6753 34.4514 15.7048 34.4672 15.7425 34.423C15.7243 34.3919 15.6948 34.3692 15.6603 34.3598C15.7161 34.2904 15.74 34.4053 15.792 34.3567C15.7544 34.315 15.7607 34.2784 15.8102 34.2475C15.9024 34.2342 15.7989 34.3548 15.8729 34.3289C15.9469 34.303 15.9068 34.2588 15.9645 34.2279C15.9965 34.2607 16.0191 34.3472 16.0686 34.2778C16.0523 34.2551 16.0285 34.239 16.0015 34.2323C16.127 34.1515 16.1201 34.173 16.2455 34.1124C16.2305 34.0922 16.2104 34.101 16.1941 34.0877C16.3089 34.0726 16.3616 33.9615 16.4776 34.0656C16.3001 34.1685 16.2342 34.3333 16.1477 34.25C16.0492 34.3939 15.8572 34.469 15.8296 34.5852C15.7236 34.5915 15.548 34.6818 15.516 34.7746C15.6233 34.7273 15.7258 34.6698 15.8221 34.6029C16.4663 34.149 17.1092 33.6938 17.7038 33.1799C17.692 33.1773 17.6809 33.1717 17.6719 33.1635C17.7195 33.0903 17.7822 33.0922 17.813 32.9937C17.6982 33.0568 17.6976 33.137 17.5985 33.1547C17.5847 32.9653 17.8387 32.9022 17.9472 32.8605C18.1862 32.6679 18.2107 32.3738 18.6447 32.2721C18.6397 32.2788 18.6351 32.2858 18.6309 32.2929C20.7209 30.1996 22.797 28.0929 24.897 26.0102C25.6731 25.2445 26.4976 24.5301 27.3652 23.8714C28.5156 22.9926 29.7299 22.2092 30.9279 21.4011C32.4446 20.379 33.8496 19.2301 35.0947 17.8785C36.6045 16.2402 38.2723 14.7724 40.0374 13.4189C40.6596 12.9423 41.3 12.4903 42.0169 12.1469C41.4355 13.0869 40.7794 13.9549 39.8881 14.6355C40.1615 14.6689 40.3403 14.5237 40.5222 14.4012C41.1511 13.982 41.6887 13.4384 42.1022 12.8034C42.6962 11.8893 43.2752 10.9613 44.0297 10.1652C44.1383 10.0509 44.2292 9.87986 44.4569 10.0251C44.2857 10.3148 44.115 10.5932 43.9551 10.8805C43.8096 11.133 43.6779 11.3767 43.3511 11.4733C43.2285 11.5113 43.1232 11.5914 43.0533 11.6996C42.9835 11.8078 42.9537 11.9373 42.9691 12.0654C43.0017 12.352 42.8612 12.5307 42.7307 12.7498C42.2289 13.5951 41.4913 14.2245 40.8076 14.9006C40.3171 15.3854 39.6717 15.6866 39.2251 16.2263C38.6192 16.3122 38.1387 16.7749 37.5127 16.8008C37.1364 16.8172 36.8491 16.9751 36.6202 17.297C36.3065 17.7351 35.9528 18.1417 35.6166 18.5596C35.54 18.6531 35.4503 18.8027 35.3174 18.6859C35.1029 18.4933 34.9868 18.643 34.8457 18.773C34.6305 18.9725 34.4141 19.1701 34.1915 19.3607C33.0888 20.3033 31.8632 21.0722 30.6702 21.8859C29.7011 22.5488 28.7483 23.242 27.9542 24.1132C27.2059 24.9339 26.5115 25.8063 25.8028 26.6605C25.6629 26.829 25.5481 27.0197 25.422 27.2002C25.567 27.1686 25.6985 27.0922 25.7984 26.9818C26.5351 26.2656 27.313 25.5936 28.1279 24.9692C29.7456 23.7066 31.3714 22.4522 32.9947 21.1953C33.5592 20.7566 34.0378 20.2282 34.4951 19.6802C34.5935 19.5621 34.596 19.3058 34.8288 19.4674C35.0169 19.5937 34.8915 19.7698 34.8099 19.9144C34.7669 19.9868 34.7156 20.0537 34.6569 20.1139C33.7631 21.0514 32.9433 22.0753 31.7396 22.6517C31.6835 22.6803 31.6301 22.7141 31.5803 22.7527C31.3589 22.9188 31.2209 23.1063 31.1676 23.3102C31.3281 23.2344 31.4956 23.17 31.6486 23.0867C31.8632 22.9699 32.1059 22.884 32.3041 22.7439C32.3843 22.6782 32.468 22.6171 32.555 22.5608H32.5594L32.5406 22.4649L34.4643 21.2117C34.3426 21.5564 33.9694 21.6801 33.8753 22.0078C33.8491 22.1029 33.812 22.1946 33.765 22.2811L33.7819 22.3077C33.8302 22.3803 33.8741 22.4548 33.9249 22.5248C33.9657 22.5816 34.0102 22.6328 34.0541 22.6871C34.0616 22.6959 34.0679 22.7054 34.0754 22.7148L34.1689 22.6239C35.1098 21.7269 36.0776 20.8632 37.0417 19.9933C37.302 19.7585 37.5867 19.5514 37.8571 19.333C37.9612 19.4333 37.9022 19.5192 37.9091 19.5987C37.9455 20.0003 38.0615 20.083 38.4279 19.9194C38.6732 19.8043 38.9074 19.6663 39.1272 19.5072C40.0054 18.8967 40.79 18.1644 41.5528 17.4182C42.784 16.2143 43.8108 14.8299 44.9041 13.5042C45.8487 12.3558 46.7432 11.1683 47.9776 10.2896C49.0884 9.50171 50.1961 8.71132 51.3609 8.00742C52.3093 7.43483 53.2426 6.82121 54.2995 6.46263C54.5203 6.38751 54.7468 6.2543 55.0905 6.40644C54.0869 6.82247 53.3624 7.49102 52.5891 8.09265C52.702 8.25048 52.8945 8.09265 52.9184 8.29467C52.7471 8.4708 52.5157 8.51878 52.2993 8.57938C51.8765 8.6968 51.445 8.78014 51.021 8.89188C50.6352 8.99352 50.2576 9.12167 49.9547 9.39692C49.8643 9.47836 49.7439 9.57179 49.8016 9.71257C49.8643 9.86345 50.013 9.80853 50.1315 9.7959C50.617 9.7454 51.1019 9.68921 51.6219 9.63113C51.5165 9.8483 51.3534 9.83883 51.2192 9.87418C50.7343 10.0004 50.2476 10.1267 49.7615 10.2485C49.3128 10.3544 48.8845 10.534 48.4938 10.7801C48.2235 10.9562 48.0064 11.1854 47.9544 11.5206C47.9262 11.7024 47.9995 11.8205 48.2053 11.7353C48.4819 11.6204 48.7246 11.4152 49.0734 11.3622L48.6224 12.2075C48.6639 12.2326 48.7118 12.245 48.7602 12.2434C48.8086 12.2417 48.8555 12.2259 48.8952 12.198C49.7514 11.7561 50.6107 11.3236 51.46 10.8723C53.3204 9.88176 54.8898 8.48343 56.525 7.17916C57.8842 6.09016 59.2278 4.98728 60.6165 3.93995C61.1641 3.52708 61.7769 3.28213 62.4154 3.08012C62.5854 3.02583 62.7729 2.96901 62.9341 3.13378C62.8582 3.39829 62.6205 3.47026 62.438 3.59652C61.7348 4.08894 60.9953 4.53148 60.3236 5.06619C60.0432 5.28778 59.7735 5.5201 59.5897 5.83449C59.527 5.94559 59.4749 6.07122 59.5564 6.18928C59.638 6.30733 59.776 6.31301 59.9014 6.28397C60.2558 6.21011 60.5575 6.02009 60.8548 5.82312C60.9577 5.75494 61.09 5.58828 61.1685 5.6533C61.4344 5.87868 61.6765 5.6331 61.997 5.62868C61.8013 5.94875 61.5266 6.0586 61.2926 6.21137C60.6271 6.64508 59.9215 7.01818 59.2986 7.51943C59.0779 7.69682 58.8596 7.87422 58.758 8.32749C59.9861 7.45882 61.0675 6.6072 62.4305 6.2745C62.4305 6.39697 62.3495 6.43043 62.2818 6.47273C60.3643 7.6722 58.4889 8.93481 56.6178 10.2037C56.4447 10.3211 56.2471 10.4171 56.1367 10.6014C55.6105 11.4796 54.7461 11.9076 53.8787 12.3268C53.6905 12.4177 53.486 12.4695 53.3173 12.6008C51.2813 14.186 49.3331 15.8671 47.664 17.8532C47.314 18.2705 46.9633 18.6935 46.5663 19.0628C45.6367 19.9117 44.6653 20.7132 43.6559 21.4642C42.549 22.2936 41.5179 23.2209 40.5749 24.235C40.086 24.7552 39.6712 25.3412 39.3424 25.9761C39.2853 26.0885 39.1887 26.2028 39.2489 26.3549C39.5142 26.2546 39.5625 25.9635 39.7877 25.8846C40.5586 25.6138 40.992 24.9686 41.4367 24.3524C41.6682 24.0317 41.8858 23.73 42.2967 23.6138C42.0608 24.2521 41.4524 24.6334 41.1595 25.3139C41.2887 25.2306 41.3721 25.1801 41.4512 25.1245C42.1411 24.6473 42.8135 24.1466 43.521 23.7016C43.8685 23.4838 44.1081 23.2243 44.1696 22.8297C44.2875 22.0659 44.746 21.504 45.2146 20.9403C46.2088 19.7408 47.3259 18.6733 48.4813 17.6354C50.1517 16.1388 51.9113 14.7461 53.7501 13.465C54.1939 13.1488 54.6635 12.8709 55.1538 12.6342C55.3119 12.5597 55.4762 12.4966 55.5547 12.7416C55.088 13.198 54.5404 13.5307 53.9608 13.8192C53.6265 13.9858 53.3066 14.1816 52.9874 14.3754C52.818 14.4776 52.6254 14.5704 52.5702 14.8299C52.8456 14.905 53.04 14.763 53.2339 14.6645C53.8607 14.3389 54.4629 13.9671 55.0353 13.5521C55.204 13.4322 55.3577 13.2864 55.5697 13.2428C54.7054 14.2055 53.5983 14.8684 52.559 15.6152C52.5834 15.6544 52.6072 15.6941 52.6311 15.7333L54.5548 14.7724C53.5958 16.0982 52.3833 17.083 51.0486 17.9239C50.9411 17.9896 50.8256 18.0408 50.7048 18.076C49.9327 18.3058 49.2565 18.7206 48.5923 19.1644C47.6693 19.7821 46.7975 20.4739 45.9855 21.2332C45.2685 21.9024 44.5297 22.5652 44.1439 23.5134C44.1 23.6214 43.9827 23.7028 43.8855 23.7824C43.2551 24.2754 42.7163 24.8651 42.1587 25.4332C41.8482 25.7489 41.5804 26.1011 41.4217 26.5203C41.3753 26.6422 41.2649 26.7867 41.4706 26.937C41.692 26.7931 41.8564 26.5828 42.0295 26.3758C42.4736 25.8455 42.8875 25.2893 43.3931 24.812C43.7827 24.4347 44.2889 24.203 44.8276 24.1555C44.7523 24.3739 44.6093 24.4711 44.4939 24.5885C43.4276 25.6567 42.4071 26.7678 41.3288 27.8246C40.2922 28.8406 39.2633 29.8648 38.2422 30.8971C38.2466 30.9218 38.2422 30.9458 38.1908 30.9641L38.1814 30.9584L38.0446 31.0966C38.0459 31.1176 38.0531 31.1377 38.0653 31.1547C38.1205 31.0859 38.1594 31.1112 38.2027 31.1149C38.2127 31.0518 38.3181 30.9925 38.3676 31.0228C38.3005 31.0638 38.2974 31.0827 38.3551 31.096C38.1832 31.1591 38.0873 31.257 37.9518 31.2715C37.9455 31.4016 37.768 31.5057 37.652 31.4969C37.7147 31.56 37.6338 31.6067 37.6426 31.6642C37.721 31.601 37.6871 31.5947 37.768 31.5676C37.8458 31.6724 37.6727 31.6509 37.7153 31.7658C37.6526 31.8289 37.6181 31.7538 37.5629 31.7854C37.5624 31.8035 37.5578 31.8212 37.5495 31.8373C37.5412 31.8533 37.5294 31.8673 37.515 31.8781C37.5005 31.8889 37.4839 31.8963 37.4662 31.8997C37.4486 31.9031 37.4304 31.9024 37.413 31.8978C37.4406 31.9205 37.4757 31.9142 37.4952 31.9609L37.4525 31.9931C37.4324 32.0013 37.4098 32.0246 37.3948 32.0051C37.408 31.988 37.4067 31.9691 37.3854 31.9483C37.3565 31.9887 37.2524 31.9552 37.2788 32.0284C37.3854 32.0032 37.3722 32.1118 37.4556 32.0871C37.6313 32.0272 37.6808 31.8264 37.9279 31.6901C37.9308 31.5987 37.9473 31.5082 37.9769 31.4218C38.0076 31.351 38.0208 31.4104 38.0697 31.4413C38.1186 31.4723 38.192 31.4199 38.2265 31.3952C38.3871 31.2816 38.5063 31.1213 38.6512 30.9899C38.675 30.9678 38.7314 30.9117 38.7697 30.9142C38.7948 30.9464 38.7371 31.0234 38.7264 31.0531C38.7158 31.0827 38.7057 31.1231 38.6938 31.1579C38.6819 31.1926 38.6486 31.221 38.6725 31.2589C38.6963 31.2968 38.7515 31.2879 38.7822 31.2892C38.7963 31.2881 38.8104 31.2903 38.8235 31.2954C38.8367 31.3005 38.8485 31.3085 38.8581 31.3189C38.8964 31.358 38.9159 31.3782 38.9679 31.3649C39.0182 31.347 39.0654 31.3212 39.1078 31.2885C39.2154 31.2224 39.2988 31.123 39.3455 31.0051C39.3623 30.9419 39.3924 30.8831 39.434 30.8327C39.4933 30.7759 39.5573 30.7241 39.6253 30.6781C39.6466 30.6656 39.6711 30.6597 39.6958 30.6611C39.7205 30.6626 39.7441 30.6713 39.7639 30.6863C39.8199 30.7187 39.8792 30.7449 39.9408 30.7646C39.9879 30.7752 40.0312 30.7986 40.0662 30.8321C40.0788 30.846 40.0863 30.8643 40.0982 30.8769C40.1255 30.898 40.16 30.9073 40.1942 30.9028C40.2707 30.9029 40.3472 30.8959 40.4225 30.882C40.5972 30.8456 40.766 30.785 40.9243 30.7021C40.9752 30.6753 41.0283 30.6529 41.083 30.6352C41.1058 30.6248 41.1313 30.6221 41.1557 30.6276C41.0877 30.7036 41.0132 30.7736 40.9331 30.8365C40.8814 30.8728 40.8385 30.9202 40.8076 30.9754C40.7869 31.0196 40.7411 31.0461 40.7267 31.0928C40.7047 31.1654 40.7267 31.2639 40.7267 31.3416C40.7342 31.4175 40.7185 31.494 40.6815 31.5606C40.6724 31.5708 40.6618 31.5795 40.6502 31.5865C40.6113 31.6187 40.5831 31.6623 40.546 31.697C40.3616 31.8605 40.1652 32.0097 39.9583 32.1433C39.8831 32.1951 39.7978 32.2298 39.7181 32.2753C39.5419 32.3833 39.3742 32.5047 39.2163 32.6383C39.0764 32.7494 38.9453 32.8712 38.8042 32.9817C38.7308 33.0391 38.653 33.0878 38.5759 33.1402C38.4297 33.2393 38.2723 33.3295 38.1293 33.435C38.0703 33.4792 38.0101 33.5202 37.9505 33.5612C37.9098 33.5896 37.8878 33.6345 37.8458 33.6641C37.7291 33.7521 37.6083 33.8337 37.4832 33.9091C37.3829 33.9722 37.28 34.0284 37.1759 34.0833C37.0962 34.1206 37.0178 34.1597 36.94 34.2001C36.9021 34.2281 36.8597 34.2495 36.8146 34.2632C36.7701 34.2683 36.7268 34.2752 36.6835 34.2828C36.6464 34.2922 36.6081 34.2956 36.57 34.2929C36.5674 34.2908 36.5643 34.2894 36.561 34.2888C36.5577 34.2881 36.5544 34.2882 36.5512 34.2891C36.5347 34.2909 36.5193 34.298 36.5073 34.3093C36.44 34.3391 36.3711 34.3651 36.3009 34.387C36.2412 34.4108 36.1766 34.4197 36.1127 34.4129C36.0826 34.4028 36.0559 34.3844 36.0356 34.3598C36.0017 34.3336 35.976 34.2981 35.9616 34.2576C35.9559 34.2399 35.9616 34.2336 35.9465 34.2153C35.89 34.2153 35.821 34.2664 35.7721 34.2885C35.5772 34.39 35.3887 34.5034 35.2076 34.6281C35.1261 34.6799 35.0426 34.7304 34.9567 34.779C34.7953 34.8716 34.6312 34.9591 34.4643 35.0416C34.3809 35.0827 34.2962 35.1224 34.2134 35.1616C34.185 35.1736 34.1559 35.1839 34.1262 35.1925C33.9381 35.421 33.7499 35.6546 33.5787 35.8958L33.5442 35.9412C33.5491 35.9787 33.5504 36.0165 33.5479 36.0542C33.5165 36.1577 33.4575 36.2505 33.3773 36.3225C33.1869 36.53 32.9812 36.7226 32.762 36.8989C32.6052 37.0727 32.4438 37.2423 32.2778 37.4078C32.3587 37.361 32.439 37.3137 32.5205 37.2701C32.8109 37.1136 33.112 36.9753 33.415 36.8415C33.6464 36.7398 33.876 36.6193 34.125 36.5549C34.1632 36.5396 34.2044 36.5333 34.2454 36.5366C34.024 36.7556 33.7675 36.9343 33.546 37.1546C33.413 37.2816 33.2713 37.3991 33.122 37.5062C32.9709 37.6186 32.8228 37.7341 32.6723 37.8465C32.5358 37.9602 32.3905 38.0625 32.2376 38.1527C32.1977 38.1733 32.1556 38.1894 32.1122 38.2007C32.1096 38.2062 32.1075 38.2119 32.1059 38.2177C32.1024 38.2134 32.0984 38.2096 32.094 38.2063C31.9372 38.2455 31.7678 38.2486 31.6279 38.3326C31.5764 38.3647 31.5266 38.3995 31.4787 38.4368C31.4748 38.4459 31.4728 38.4558 31.4728 38.4658C31.4728 38.4758 31.4748 38.4857 31.4787 38.4949C31.467 38.5079 31.4512 38.5165 31.434 38.5194C31.4168 38.5222 31.3992 38.5192 31.3839 38.5106L31.3012 38.5794C31.2897 38.5951 31.2746 38.6077 31.2573 38.6161L31.2177 38.6489C31.2362 38.6576 31.2507 38.6729 31.2585 38.6918L31.2152 38.724C31.1952 38.7322 31.1726 38.7556 31.1575 38.736C31.1617 38.7302 31.1639 38.7233 31.1639 38.7161C31.1639 38.709 31.1617 38.702 31.1575 38.6962C31.1318 38.7171 31.1048 38.7366 31.0779 38.7594C31.1456 38.7651 31.1456 38.8433 31.2177 38.8225C31.4059 38.7594 31.446 38.5346 31.7377 38.3995C31.6449 38.4627 31.7609 38.4305 31.7829 38.4627C31.6957 38.534 31.6073 38.7019 31.532 38.7152C31.5602 38.6937 31.5176 38.6375 31.4868 38.652C31.4373 38.8471 31.1211 38.9046 31.1437 39.1331C31.1149 39.0807 31.1236 39.0106 31.0459 39.0466C30.7097 39.4014 29.8961 39.9468 29.4652 40.3319C29.4571 40.2631 29.3153 40.4664 29.2664 40.5138C29.2398 40.4966 29.2094 40.4864 29.1779 40.4841C29.1503 40.5308 29.1115 40.5763 29.1152 40.6268C29.0922 40.6101 29.0637 40.6027 29.0355 40.6061C29.0073 40.6094 28.9813 40.6234 28.9628 40.6451L29.0255 40.7271C28.8461 40.8067 28.7953 40.8629 28.7502 41.0302C28.6874 41.0005 28.7872 40.9039 28.7107 40.9323C28.6699 40.9954 28.6128 41.0642 28.5457 41.0245C28.5658 41.0516 28.5219 41.0718 28.5331 41.0977C28.5455 41.0855 28.5618 41.078 28.5791 41.0766C28.5964 41.0752 28.6137 41.08 28.6279 41.0901C28.5927 41.2038 28.4127 41.1899 28.35 41.2997C28.2873 41.224 28.4522 41.1735 28.4021 41.1009C28.3569 41.1444 28.3437 41.2069 28.2766 41.1975C28.2766 41.2404 28.3111 41.2884 28.3092 41.3319C28.2158 41.3698 28.121 41.4051 28.0282 41.4474C28.0452 41.4696 28.0539 41.4971 28.0527 41.5251C27.9141 41.5649 27.8262 41.6753 27.7227 41.7094C27.8168 41.8212 27.6826 41.7599 27.7077 41.6892C27.7793 41.6456 27.8358 41.5808 27.8695 41.5036C27.8294 41.4828 27.7685 41.587 27.7384 41.5036C28.4911 40.8723 29.1403 40.4153 29.9124 39.8042C29.9463 39.8332 29.9193 39.8806 29.9576 39.8673C30.1044 39.7669 30.1696 39.5264 30.3553 39.5043H30.3741C30.4048 39.5043 30.3822 39.5182 30.3741 39.5043C30.3691 39.4967 30.3685 39.4828 30.3829 39.4525C30.4807 39.253 30.9047 39.1887 31.0101 38.9475C31.0534 39.0378 31.1262 38.8812 31.1356 38.8509C31.0992 38.8509 31.0728 38.7985 31.0358 38.7878C31.0233 38.7966 31.0101 38.8042 30.9976 38.8124C30.9976 38.8806 30.8194 38.8755 30.9769 38.9052C30.9424 38.9803 30.7686 39.0984 30.8182 38.9614C30.7467 38.9803 30.8088 39.106 30.726 39.0624C30.8295 39.0207 30.551 38.9923 30.5736 39.0813C30.6175 39.0813 30.6676 39.0409 30.7053 39.0782C30.6237 39.1912 30.3841 39.4109 30.2405 39.3938C30.1602 39.4778 30.0738 39.5556 29.9821 39.6268C29.8917 39.707 29.6835 39.9664 29.5693 39.7455C29.6459 39.6987 29.7086 39.7335 29.7926 39.6419C29.7531 39.6047 29.7857 39.5788 29.7563 39.5403L29.639 39.6236C29.64 39.6382 29.6365 39.6527 29.629 39.6651C29.6215 39.6775 29.6103 39.6873 29.5969 39.6931C29.5931 39.6827 29.5868 39.6734 29.5788 39.6659L29.4251 39.7726C29.4276 39.7767 29.4299 39.7809 29.432 39.7852C29.3441 39.8871 29.2278 39.9601 29.0983 39.9948L29.0814 40.0062L29.0745 40.0138C29.0211 40.0722 28.9786 40.1397 28.949 40.2133C28.9328 40.2765 28.9387 40.3434 28.9659 40.4026C28.9744 40.4121 28.9798 40.4239 28.9815 40.4365C28.9832 40.4492 28.981 40.462 28.9754 40.4733C28.9499 40.4993 28.9202 40.5206 28.8875 40.5365C28.799 40.5815 28.7064 40.6178 28.6109 40.6451C28.4309 40.8206 28.3042 40.931 28.0866 41.1166C27.9454 41.0535 27.8469 41.306 27.7259 41.26C27.7413 41.2517 27.7531 41.2382 27.7594 41.2218C27.7656 41.2055 27.7657 41.1874 27.7598 41.1709C27.7102 41.2448 27.6845 41.1779 27.6437 41.1943C27.6883 41.2315 27.5434 41.3565 27.4668 41.3597C27.4903 41.3148 27.4989 41.2634 27.4913 41.2132C27.3859 41.2309 27.3753 41.265 27.29 41.301C27.31 41.3269 27.3383 41.3092 27.3564 41.3464C27.2996 41.3954 27.2295 41.426 27.1551 41.4342C27.12 41.3616 27.2228 41.3079 27.2442 41.2397C27.2226 41.2513 27.2002 41.261 27.1771 41.2688C27.1482 41.3046 27.1181 41.3399 27.0867 41.3748C27.0961 41.3995 27.103 41.4235 27.0604 41.4418C27.0541 41.4355 27.0485 41.4279 27.0422 41.4203C27.0259 41.4386 27.0083 41.4557 26.9914 41.4733C27.0026 41.4846 27.0171 41.4919 27.0328 41.4942C26.9205 41.532 27.0328 41.6918 26.8923 41.664C26.9337 41.6185 26.9726 41.5724 26.9475 41.5182C26.8946 41.5682 26.8373 41.6132 26.7762 41.6526C26.5931 41.7688 26.42 41.9007 26.2481 42.0314C26.2431 42.0945 26.1503 42.1798 26.0976 42.1646C26.1035 42.1551 26.1088 42.1452 26.1133 42.1349L26.0035 42.2195C25.9351 42.2707 25.8655 42.3186 25.7959 42.3679C25.7921 42.5024 25.4139 42.6476 25.5224 42.693L25.5167 42.6993C25.591 42.683 25.6677 42.6815 25.7426 42.6949C25.7808 42.705 25.8642 42.741 25.8567 42.7965C25.8354 42.8335 25.8068 42.8657 25.7727 42.8912C25.7147 42.9482 25.6517 42.9997 25.5845 43.0453C25.5437 43.0768 25.5017 43.1084 25.459 43.14C25.4202 43.1658 25.3855 43.1976 25.3562 43.234C25.3005 43.3101 25.2329 43.3766 25.1561 43.431C25.205 43.431 25.2458 43.4828 25.3035 43.431C25.2922 43.4181 25.286 43.4015 25.286 43.3843C25.286 43.3671 25.2922 43.3505 25.3035 43.3376C25.5469 43.1286 26.1314 42.7959 26.4444 42.5169C26.4429 42.5202 26.4421 42.5239 26.4421 42.5276C26.4421 42.5313 26.4429 42.535 26.4444 42.5383C26.7165 42.3493 26.9713 42.1364 27.2059 41.902C27.258 41.9266 27.3075 41.9613 27.3677 41.9399C27.3414 41.8723 27.2943 41.9304 27.2636 41.89C27.2943 41.8654 27.5691 41.6154 27.5722 41.7221C27.4963 41.7486 27.3477 41.8155 27.3891 41.9241C27.4248 41.8786 27.4148 41.813 27.4806 41.8224C27.4888 41.9923 27.2994 41.9942 27.2925 42.1551C27.2479 42.1981 27.2247 42.1135 27.1827 42.1419C27.1093 42.2107 27.0127 42.4165 26.9745 42.4897C26.8383 42.503 26.7863 42.6236 26.6721 42.6217C26.6916 42.7479 26.4984 42.7347 26.484 42.8603C26.4162 42.8092 26.5078 42.7763 26.484 42.7303C26.4212 42.8268 26.4112 42.6476 26.3585 42.6968C26.3115 42.7694 26.2901 42.8451 26.181 42.8622C26.2111 42.9032 26.1421 42.9316 26.1992 42.9758C26.0693 43.0592 26.0581 43.1273 25.9426 43.169C25.9075 43.2321 26.0436 43.2138 25.9966 43.2877C25.929 43.2927 25.8628 43.3103 25.8015 43.3395C25.7388 43.3041 25.8404 43.198 25.7469 43.2208C25.7469 43.2536 25.7714 43.2839 25.7432 43.3508C25.6742 43.3571 25.7331 43.2807 25.6767 43.3054C25.6592 43.3167 25.645 43.3323 25.6353 43.3508C25.6257 43.3693 25.6209 43.3899 25.6215 43.4108C25.652 43.4004 25.6846 43.398 25.7162 43.4039C25.6535 43.4967 25.6133 43.4241 25.5632 43.4228C25.2009 43.8127 24.767 44.1283 24.2855 44.3521C24.3081 44.33 24.3482 44.3098 24.3344 44.2833C24.2033 44.3817 24.2297 44.4455 24.044 44.5661C23.9744 44.5718 24.0333 44.496 23.9769 44.5206C24.076 44.6766 23.4349 44.9764 23.6187 44.9815C23.5441 45.0219 23.551 45.1077 23.5391 45.0093C23.4763 45.0515 23.4205 45.0945 23.4763 45.1513C23.5892 45.1084 23.6369 45.0295 23.7172 44.9379C23.6902 45.0983 23.5177 45.2195 23.3929 45.3091C23.2681 45.3988 23.1627 45.407 23.0793 45.5143C22.9959 45.6216 22.8842 45.746 22.7218 45.7517C22.7362 45.7782 22.7688 45.8072 22.7462 45.8293C22.7108 45.7992 22.6705 45.7755 22.6271 45.7592C22.5869 45.7851 22.5926 45.8167 22.6302 45.8527C22.543 45.9259 22.4771 45.8748 22.3981 45.8994C22.4143 45.9221 22.4382 45.9383 22.4652 45.9448C22.2206 46.2333 21.8273 46.1721 21.7408 46.3621C21.7665 46.3956 21.8091 46.3287 21.8355 46.3546C21.8254 46.4246 21.7615 46.4177 21.71 46.4511C21.6636 46.3994 21.7019 46.3577 21.668 46.3072L21.6115 46.3482C21.6086 46.3589 21.6079 46.3701 21.6095 46.3811C21.6111 46.392 21.615 46.4025 21.6209 46.4119C21.6268 46.4212 21.6347 46.4292 21.6438 46.4353C21.653 46.4415 21.6634 46.4455 21.6743 46.4474C21.6352 46.49 21.6025 46.538 21.5771 46.59C21.5432 46.5679 21.5068 46.5616 21.4736 46.5395C21.4968 46.4928 21.5745 46.4524 21.5708 46.4025C21.4786 46.4871 21.4039 46.4657 21.3575 46.5635C21.3488 46.554 21.3381 46.5464 21.3262 46.5414C21.2007 46.6222 21.0815 46.7049 20.9642 46.7939C20.8742 46.8721 20.7784 46.9432 20.6776 47.0067C20.6084 47.0415 20.5374 47.0727 20.465 47.1001C20.3542 47.145 20.2478 47.2 20.1469 47.2643C20.0347 47.3362 19.9287 47.417 19.8233 47.4991C19.7083 47.5834 19.6087 47.6872 19.5291 47.8059C19.4825 47.89 19.4244 47.9671 19.3566 48.0351C19.282 48.0982 19.1998 48.1557 19.1208 48.215C19.016 48.2933 18.9113 48.3716 18.8072 48.4511C18.7236 48.5196 18.6327 48.5784 18.5362 48.6266C18.5067 48.6405 18.4772 48.6519 18.4471 48.6632C18.698 48.8109 18.8517 48.9757 19.0744 49.1828C19.5987 49.6758 20.2279 50.0407 20.746 50.5407C20.7928 50.5872 20.8349 50.6384 20.8714 50.6935L21.3531 51.0723C21.3941 51.0617 21.4367 51.0591 21.4786 51.0647C21.7922 51.1089 22.2582 51.5767 22.5022 51.7894C22.9305 52.173 23.3795 52.5325 23.847 52.8664C23.7961 52.8783 23.7467 52.8959 23.6996 52.9188L24.1588 53.2818C24.1531 53.2749 24.1469 53.2679 24.1418 53.261C24.2002 53.2869 24.2604 53.3014 24.3187 53.3241C24.388 53.3554 24.4501 53.4008 24.5012 53.4573C24.5558 53.5078 24.6123 53.5577 24.6687 53.6057C24.7057 53.6372 24.7841 53.6852 24.8017 53.7319C24.778 53.7376 24.7533 53.7376 24.7296 53.7319L25.7432 54.5299C25.7212 54.5019 25.6966 54.4762 25.6698 54.4529C25.629 54.3973 25.5933 54.3266 25.5588 54.2793C25.5243 54.2319 25.4841 54.1783 25.4427 54.1322C25.3857 54.0691 25.3072 54.0217 25.2546 53.9567C25.2288 53.9251 25.2113 53.8841 25.1918 53.8531C25.2464 53.8772 25.2957 53.912 25.3367 53.9554C25.4076 54.0135 25.4797 54.0697 25.5494 54.1303C25.6132 54.1845 25.6724 54.244 25.7262 54.3083C25.7705 54.3707 25.8252 54.4248 25.8881 54.468C25.979 54.5312 26.122 54.5943 26.1816 54.6909C26.1722 54.7004 26.1603 54.7294 26.1478 54.7332C26.1195 54.7414 26.0223 54.6738 25.9985 54.6618C25.9479 54.6357 25.8941 54.6163 25.8385 54.6044L27.1193 55.6145C27.1463 55.73 27.2385 55.7893 27.3207 55.85C27.4461 55.9421 27.5716 56.0393 27.697 56.1334C27.8538 56.2224 28.0019 56.3045 28.0991 56.4623C28.4303 56.7439 28.747 57.0393 29.0525 57.3461C29.1459 57.392 29.2335 57.449 29.3134 57.516C29.3799 57.5841 29.3686 57.605 29.3379 57.6422C29.4893 57.8 29.6379 57.9606 29.7839 58.1239C29.7983 58.1332 29.8114 58.1444 29.8228 58.1574C29.8308 58.1674 29.8375 58.1784 29.8428 58.1902C29.9168 58.2744 29.9902 58.3585 30.063 58.4427C30.9129 58.485 31.118 59.5159 31.7885 59.9414C32.0576 60.1125 32.3493 60.0677 32.6817 60.1662C32.8843 60.2293 33.196 60.2886 33.3629 60.4231C33.6376 60.6434 33.7292 60.9818 34.103 61.1908C34.5973 61.4679 35.133 61.3953 35.6253 61.6182C36.5104 62.019 37.1728 63.2191 37.7837 63.9268C38.2033 64.4129 38.6085 64.8738 39.1498 65.238C40.8879 66.3984 42.4673 67.7916 44.1282 69.0751C44.5453 69.397 44.9606 69.7417 45.2811 70.159C45.3871 70.2966 45.4887 70.6009 45.5985 70.7057C45.7082 70.8105 45.8588 70.7689 45.9717 70.8604C46.348 71.1685 46.1116 71.5763 46.3217 71.9488C46.6384 72.5119 47.4952 73.0112 47.9782 73.4513C48.1106 73.5718 48.2335 73.7353 48.3546 73.842C48.6268 74.0775 48.9323 74.2139 49.2214 74.4235C50.013 74.9998 50.6822 75.7157 51.1201 76.5377C51.5014 77.2536 52.1682 77.8192 52.5627 78.5579C52.7101 78.8331 52.8136 79.0913 52.8236 79.2902C53.9213 80.2857 55.167 81.0799 56.3914 81.9006C57.7839 82.8343 59.1512 83.8033 60.4139 84.9106C61.292 85.6777 62.0265 86.5602 62.5754 87.5918C62.926 88.2496 63.1292 88.9541 63.1004 89.7111C63.0797 90.2464 62.8971 90.3802 62.3815 90.2376C62.0108 90.1347 61.7079 89.9112 61.4093 89.6763C60.3932 88.8777 59.6236 87.8456 58.8201 86.8557C57.6967 85.4668 56.594 84.0679 55.2762 82.8564C54.7286 82.3513 54.1233 81.9561 53.3875 81.7832C53.0024 81.6916 52.6587 81.7529 52.293 81.9637C52.5063 82.3027 52.7634 82.5508 52.956 82.8475C54.2565 84.8555 55.5666 86.8569 56.8863 88.8518C57.1635 89.2717 57.4282 89.7085 57.8165 90.0368C58.7799 90.8506 59.6355 91.7716 60.5136 92.6763C60.8904 93.0717 61.2195 93.5106 61.494 93.9837C62.0855 94.9843 62.0961 96.0758 61.8703 97.1636C61.7211 97.8782 61.1634 98.1692 60.4396 98.0474C60.0274 97.9767 59.6241 97.8605 59.2372 97.7008C58.8338 97.5268 58.4213 97.3751 58.0015 97.2463C57.4891 97.1004 57.2112 97.2557 57.028 97.7614C56.9352 98.0139 56.9089 98.2955 56.8248 98.555C56.6956 98.9527 56.7219 99.2936 57.0713 99.5739C57.2026 99.6814 57.2915 99.8325 57.3222 100H57.0713C56.6573 99.4438 56.2653 98.8776 56.037 98.2103C55.963 97.9944 55.8319 97.7968 55.7234 97.5947C54.7825 95.9085 53.417 94.6175 51.9273 93.4477C49.9942 91.9326 47.8578 90.7249 45.7672 89.451C43.708 88.1959 41.6901 86.8853 40.0505 85.0754C39.1504 84.0811 38.2466 83.09 37.3597 82.0837C36.2852 80.8646 35.0947 79.7845 33.6928 78.96C32.0331 77.9846 30.3496 77.0503 28.6987 76.0611C26.849 74.9531 25.2182 73.5952 24.0214 71.7575C22.3423 69.1786 20.1896 67.0448 17.7904 65.1553C15.2814 63.1794 12.563 61.5241 9.7473 60.0418C8.36738 59.3145 7.19381 58.3884 6.23915 57.1542C5.7292 56.4945 5.20985 55.8323 4.5318 55.3285C4.3775 55.2136 4.24264 55.1057 4.17741 54.9093C4.09398 54.6568 4.39631 54.5993 4.43583 54.4295C4.29596 54.3089 4.16863 54.3348 4.04443 54.3298C3.35071 54.302 3.21648 54.0634 3.48744 53.4112C3.68189 52.9441 3.93718 52.5104 4.16549 52.0615C4.26962 51.8551 4.37624 51.648 4.37185 51.4069C4.36809 51.2175 4.30286 51.0817 4.09837 51.0445C3.79291 50.9883 3.35133 51.1827 3.2146 51.482C3.09503 51.7525 2.88478 51.9722 2.6206 52.1025C1.85725 52.4996 1.04435 52.458 0.228934 52.3797C0.00438203 52.3538 -0.0526978 52.2156 0.0476607 52.0192ZM47.4344 16.3248C47.531 16.4385 47.6677 16.3879 47.775 16.3248C47.8689 16.274 47.9488 16.2005 48.0075 16.1109C48.0662 16.0213 48.1018 15.9185 48.1112 15.8116C47.8515 15.7611 47.6878 15.893 47.5279 16.0142C47.4294 16.0887 47.3259 16.1967 47.4344 16.3248ZM46.5745 17.5293C46.6535 17.5811 46.7325 17.5483 46.7984 17.4965C46.9445 17.3816 46.9771 17.2857 47.0675 16.7629C46.7664 16.8823 46.5086 17.191 46.5218 17.4258C46.5232 17.4457 46.5286 17.4652 46.5376 17.483C46.5467 17.5008 46.5592 17.5165 46.5745 17.5293ZM46.5312 14.4663C46.6478 14.6197 46.804 14.5035 46.9263 14.4423C47.4093 14.1992 47.896 13.9612 48.3608 13.6847C48.6537 13.5194 48.8891 13.2675 49.0351 12.9631C49.0928 12.8369 49.106 12.7157 48.9097 12.6873C48.6218 12.8032 48.3617 12.9792 48.1463 13.2037C47.8327 13.5111 47.5391 13.8053 47.0455 13.7611C46.8843 13.7472 46.7357 13.8766 46.6315 14.0136C46.5274 14.1506 46.4082 14.304 46.5312 14.4663ZM42.0571 17.8058C42.3236 17.6985 42.5426 17.5022 42.747 17.8261C42.8399 17.9725 43.0531 17.9296 43.2131 17.8646C44.0864 17.5094 44.8418 16.9122 45.3915 16.1424C45.45 16.0557 45.4961 15.9611 45.5282 15.8614C45.5909 15.6859 45.5282 15.5849 45.34 15.5553C44.3534 15.4 42.382 16.6146 42.0615 17.5798C42.0464 17.6177 42.0571 17.6625 42.0571 17.8058ZM37.4607 32.2424C37.5002 32.229 37.5382 32.2114 37.5742 32.19C37.6216 32.1651 37.6709 32.144 37.7216 32.1269C37.762 32.1085 37.8012 32.0874 37.8389 32.0638C37.8661 32.0514 37.892 32.0362 37.916 32.0183C37.9618 31.976 37.9581 31.8864 37.9443 31.8214C37.9435 31.8185 37.9424 31.8158 37.9411 31.8132C37.8828 31.8864 37.8251 31.9666 37.7762 31.9741C37.8044 31.9527 37.7611 31.8971 37.7304 31.911C37.6927 32.0606 37.5008 32.1288 37.4211 32.2551L37.4607 32.2424ZM37.2229 32.2544C37.2333 32.2407 37.2425 32.2261 37.2505 32.2109C37.2944 32.3012 37.3672 32.1446 37.376 32.1143C37.3271 32.1105 37.2919 32.0209 37.2355 32.06C37.275 32.1465 37.0473 32.1389 37.2173 32.1698C37.2015 32.1988 37.1801 32.2243 37.1546 32.245C37.1775 32.2469 37.2003 32.25 37.2229 32.2544ZM37.0555 32.2513C37.0568 32.2425 37.0589 32.2338 37.0617 32.2254C37.0525 32.228 37.0443 32.2331 37.0379 32.2403C37.0316 32.2475 37.0274 32.2563 37.026 32.2658C37.0354 32.2602 37.0453 32.2554 37.0555 32.2513ZM36.9438 32.3403C36.9553 32.3253 36.9679 32.3112 36.9814 32.298C36.9425 32.285 36.9007 32.2837 36.861 32.2942L36.8165 32.3397C36.8162 32.3415 36.8162 32.3435 36.8165 32.3453C36.8591 32.3447 36.9074 32.3094 36.9444 32.3403H36.9438ZM36.8184 32.5227C36.8593 32.4798 36.8942 32.4314 36.9219 32.3788C36.8569 32.4548 36.7825 32.5221 36.7004 32.5789C36.7418 32.5833 36.7726 32.5619 36.8159 32.5227H36.8184ZM34.2649 23.432C34.2631 23.4294 34.2613 23.4268 34.2592 23.4244L34.2423 23.4352C34.2329 23.4554 34.2254 23.4775 34.2178 23.4983C34.2429 23.4983 34.2686 23.492 34.2943 23.4876C34.2869 23.4664 34.2761 23.4466 34.2624 23.4288L34.2649 23.432ZM34.2548 23.6946C34.2361 23.7158 34.2212 23.7402 34.2109 23.7666C34.2536 23.7156 34.2842 23.6557 34.3006 23.5911C34.2448 23.6028 34.1918 23.6258 34.1451 23.6586L34.1124 23.7117C34.1021 23.7255 34.0925 23.7398 34.0836 23.7546C34.105 23.7318 34.1314 23.7142 34.1607 23.7033C34.1899 23.6923 34.2213 23.6883 34.2523 23.6915L34.2548 23.6946ZM25.5042 42.5813C25.5057 42.5773 25.5076 42.5735 25.5098 42.5699L25.4992 42.5775L25.5042 42.5813ZM25.1216 43.4651C25.1128 43.4727 25.104 43.479 25.0959 43.4866C25.0331 43.5421 24.9654 43.5989 24.9002 43.6551C24.9836 43.597 25.0808 43.5446 25.1216 43.4619V43.4651ZM24.7741 43.8035C24.7784 43.7816 24.7876 43.7611 24.8011 43.7435C24.7772 43.765 24.7546 43.7877 24.7314 43.8066C24.7389 43.8087 24.7467 43.8093 24.7544 43.8082C24.762 43.8071 24.7694 43.8044 24.776 43.8003L24.7741 43.8035ZM17.9033 32.9325C17.9253 32.9367 17.9465 32.9446 17.966 32.9558C18.0288 32.8971 18.0915 32.8359 18.1542 32.7753C18.0745 32.8338 17.9907 32.8863 17.9033 32.9325ZM18.3863 32.5051C18.3361 32.548 18.2859 32.5859 18.2433 32.5815C18.2803 32.6086 18.2753 32.6446 18.2433 32.6856L18.279 32.6515L18.4045 32.5253C18.3973 32.5196 18.3911 32.5128 18.3863 32.5051ZM17.8713 48.3337C17.918 48.3059 17.9625 48.2744 18.0043 48.2396C18.1297 48.1449 18.2552 48.0502 18.37 47.9442C18.4647 47.8583 18.5443 47.7598 18.6322 47.6677C18.6791 47.6247 18.73 47.5863 18.7839 47.5528C18.8517 47.5048 18.9201 47.4568 18.9897 47.4114C19.0593 47.3659 19.139 47.4063 19.2086 47.3665C19.256 47.3349 19.2983 47.2962 19.334 47.2516C19.381 47.2019 19.4242 47.1487 19.4633 47.0925C19.4836 47.056 19.5111 47.024 19.5442 46.9985C19.6069 46.9518 19.6696 46.9063 19.7323 46.8577C19.8032 46.8038 19.8512 46.7248 19.8666 46.6367C19.8749 46.6003 19.8798 46.5631 19.881 46.5256C19.881 46.5256 19.876 46.4814 19.8766 46.4789C19.8772 46.4764 19.8935 46.4606 19.9011 46.4537C19.9857 46.376 20.0742 46.3028 20.1639 46.2308C20.2787 46.1368 20.396 46.0458 20.5038 45.9436C20.5593 45.9019 20.6049 45.8485 20.6374 45.787C20.5314 45.8388 20.4289 45.8976 20.3307 45.9631C20.1572 46.0894 19.9876 46.222 19.822 46.3609C19.6458 46.5067 19.4614 46.6475 19.2719 46.775C19.1678 46.8457 19.0593 46.9133 18.9508 46.977L18.9345 46.9846L18.9075 47.001C18.8843 47.013 18.8611 47.0237 18.8373 47.0351C18.7463 47.0919 18.7118 47.155 18.6754 47.28C18.6096 47.2497 18.7124 47.1538 18.6365 47.1822C18.5995 47.2365 18.55 47.2939 18.4923 47.2788C18.4796 47.301 18.4683 47.324 18.4584 47.3476C18.4707 47.3352 18.487 47.3277 18.5044 47.3263C18.5217 47.3249 18.539 47.3298 18.5531 47.34C18.5186 47.4536 18.338 47.4398 18.2753 47.549C18.2706 47.5435 18.2671 47.537 18.2652 47.53C18.2632 47.523 18.2628 47.5157 18.264 47.5086L18.2213 47.53C18.2283 47.5462 18.2321 47.5636 18.2326 47.5812C18.1391 47.6197 18.0444 47.655 17.9516 47.6973C17.9687 47.7192 17.9772 47.7466 17.9754 47.7743C17.8368 47.8141 17.749 47.9252 17.6455 47.9593C17.7396 48.0711 17.606 48.0098 17.6305 47.9391C17.7027 47.8944 17.7595 47.8282 17.7929 47.7497C17.7615 47.7339 17.7183 47.7914 17.6863 47.7819C17.6813 47.7857 17.6756 47.7882 17.67 47.7927C17.6041 47.8443 17.5413 47.8998 17.4818 47.9587C17.4868 47.9628 17.4899 47.9687 17.4906 47.9751L17.4529 47.9896L17.4467 47.9966L17.8713 48.3337ZM15.2281 34.8926C15.2357 34.8693 15.2413 34.8535 15.2043 34.868C15.1922 34.8719 15.1812 34.8784 15.1719 34.887C15.1625 34.8956 15.1552 34.9061 15.1503 34.9179L15.2281 34.8926ZM14.9459 34.9823C14.9208 34.9741 14.9007 34.9394 14.8712 34.9589C14.8718 34.9751 14.8701 34.9912 14.8662 35.0069L14.9459 34.9823ZM14.6467 35.077C14.7094 35.0568 14.7684 35.0372 14.8298 35.0183C14.8324 35.0142 14.8338 35.0095 14.8338 35.0047C14.8338 34.9999 14.8324 34.9952 14.8298 34.9911C14.7753 35.012 14.6417 34.9482 14.6341 35.0423C14.6529 35.0549 14.6548 35.0663 14.6467 35.077ZM9.18969 41.8168C9.35214 41.7833 9.52338 41.7846 9.68207 41.7385C9.73897 41.7248 9.78856 41.6898 9.82069 41.6406L9.72598 41.6551C9.71338 41.6588 9.70017 41.66 9.68714 41.6584C9.67411 41.6569 9.66151 41.6528 9.65008 41.6463C9.60304 41.6211 9.60743 41.5396 9.58108 41.4998C9.5672 41.4827 9.54863 41.47 9.52767 41.4634C9.50671 41.4568 9.48428 41.4565 9.46316 41.4626C9.416 41.4695 9.37062 41.4856 9.32956 41.5099H9.32015C9.27687 41.5301 9.23422 41.5529 9.19157 41.5731C9.21436 41.5618 9.23957 41.5564 9.26496 41.5573C9.21917 41.6293 9.35402 41.5295 9.37535 41.5706C9.27506 41.6246 9.16122 41.6479 9.04793 41.6375C8.98786 41.6626 8.92942 41.6915 8.87293 41.724C8.89488 41.8136 8.9758 41.8616 9.18843 41.8168H9.18969ZM9.14515 41.5958L9.08243 41.6229C9.08214 41.6253 9.08214 41.6276 9.08243 41.6299L9.14515 41.5958ZM8.8999 39.6053C8.97575 39.5651 9.05565 39.5331 9.13825 39.51C9.16793 39.5047 9.19681 39.4956 9.22418 39.4828C9.25617 39.4033 9.28691 39.3244 9.31701 39.2429C9.14417 39.3427 8.98901 39.4707 8.85787 39.6217L8.8999 39.6053ZM7.22078 42.0409C7.21639 42.0503 7.212 42.0598 7.20823 42.0693C7.21776 42.0658 7.22766 42.0635 7.23772 42.0623C7.22973 42.0571 7.22341 42.0496 7.21952 42.0409H7.22078ZM7.24399 41.9916C7.28037 41.962 7.33807 41.9342 7.28977 41.8931C7.27597 41.9266 7.25841 41.9588 7.24273 41.9916H7.24399ZM7.30671 41.8508V41.8546L7.31486 41.8483L7.30671 41.8508ZM7.19883 42.337C7.4008 42.2795 7.6034 42.2252 7.7991 42.1596C7.7991 42.1596 7.7991 42.1558 7.7991 42.1532C7.77462 42.0826 7.7312 42.0201 7.67365 41.9727C7.5965 41.9096 7.53502 41.8174 7.43529 41.8212C7.41484 41.8231 7.39477 41.828 7.37571 41.8357C7.37571 41.8988 7.43843 41.9493 7.53126 41.9096C7.51809 41.9266 7.51935 41.9462 7.54005 41.967C7.45474 42.0125 7.45411 42.0686 7.42087 42.1204C7.37626 42.1191 7.33187 42.1272 7.29058 42.1443C7.2493 42.1614 7.21205 42.187 7.18126 42.2195C7.17867 42.2592 7.18357 42.2991 7.19569 42.337H7.19883ZM58.7197 11.5017C58.2769 11.9114 57.8115 12.3034 57.2896 12.6178C57.0624 12.7667 56.8123 12.8768 56.5495 12.9436C56.3801 12.9802 56.19 12.9928 56.101 12.8243C56.0119 12.6557 56.1944 12.5673 56.2929 12.4739C56.7627 12.0282 57.2413 11.5901 57.713 11.1481C58.5842 10.3331 59.5012 9.57684 60.5287 8.96448C60.9677 8.70122 61.4313 8.47774 61.8835 8.23596L61.9462 8.36222C61.9179 8.4162 61.8845 8.46735 61.8465 8.51499C60.8504 9.56043 59.776 10.5238 58.7197 11.5017ZM52.1864 9.33379C52.6405 8.88241 53.1272 8.47206 53.715 8.2006C53.9031 8.11285 54.1038 8.04088 54.3165 8.11727C54.4118 8.15136 54.5304 8.1804 54.5379 8.30666C54.5395 8.35994 54.5216 8.41196 54.4876 8.45282C54.4536 8.49368 54.4059 8.52053 54.3535 8.52825C53.5901 8.67408 52.9152 9.04591 52.1864 9.33379ZM62.3477 7.9948C62.3615 7.83066 62.4493 7.76564 62.5202 7.6924C63.6839 6.49056 64.9122 5.35378 66.1995 4.28717C66.9892 3.6344 67.8134 3.02456 68.7712 2.63126C69.0591 2.51195 69.3546 2.39894 69.6757 2.4141C69.9762 2.43177 70.0665 2.55993 69.9523 2.8156C69.8758 2.96483 69.7884 3.10811 69.6908 3.24426C69.2404 3.94311 68.615 4.46456 67.9577 4.94877C66.2642 6.19748 64.3699 7.07436 62.5007 7.99859C62.4693 8.01752 62.4229 7.99859 62.3477 7.9948ZM25.6228 54.4074C25.6373 54.4235 25.6528 54.4387 25.6692 54.4529C25.671 54.4562 25.6731 54.4593 25.6754 54.4624L25.6228 54.4074ZM29.6684 57.2773C29.7531 57.3468 29.8391 57.4143 29.9275 57.4793C29.9978 57.5311 30.0304 57.5576 30.0122 57.6346C29.9764 57.6056 29.9231 57.5463 29.8786 57.5437C29.8381 57.5469 29.7986 57.5583 29.7625 57.5772C29.6967 57.6018 29.676 57.5772 29.6296 57.5235C29.5913 57.4301 29.5212 57.3533 29.432 57.307C29.3823 57.2861 29.3348 57.2603 29.2902 57.23C29.2423 57.1874 29.2047 57.1342 29.1805 57.0747C29.0958 56.9169 28.9515 56.8405 28.8104 56.73C28.732 56.6669 28.6624 56.598 28.5902 56.5305C28.5275 56.4743 28.4717 56.4169 28.4133 56.3588C28.3871 56.336 28.363 56.3108 28.3412 56.2837C28.4074 56.3346 28.4772 56.3806 28.5501 56.4213C28.6385 56.4762 28.7245 56.552 28.816 56.598C28.9076 56.6441 28.9917 56.6384 29.0669 56.7388C29.1029 56.8057 29.1449 56.8691 29.1924 56.9282C29.2326 56.967 29.2788 56.999 29.3291 57.0229C29.3918 57.0513 29.4495 57.0734 29.5104 57.1043C29.5306 57.1147 29.5516 57.1236 29.5731 57.1309C29.5518 57.1826 29.6239 57.2413 29.6684 57.2773ZM32.3656 59.6649C32.3486 59.7956 32.2721 59.8152 32.141 59.7558C32.0522 59.7202 31.9668 59.6767 31.8857 59.6258C31.8023 59.5797 31.6399 59.514 31.584 59.425C31.505 59.2988 31.5759 59.1472 31.4893 59.0134C31.3708 58.8303 31.1613 58.6902 30.9919 58.5519C30.8401 58.4257 30.741 58.2792 30.6156 58.1327C30.7824 58.151 31.0308 58.3379 31.1676 58.4484C31.2842 58.5418 31.3789 58.6472 31.4862 58.7451C31.5784 58.8291 31.6988 58.8613 31.8029 58.9263C31.9184 58.9983 31.8883 59.0222 31.8193 59.1024C31.9102 59.3044 32.3988 59.4219 32.3656 59.6649Z" fill="url(#paint0_linear_255_176)"/>
<defs>
<linearGradient id="paint0_linear_255_176" x1="35" y1="0" x2="35" y2="100" gradientUnits="userSpaceOnUse">
<stop stop-color="#D51321"/>
<stop offset="1" stop-color="#850000"/>
</linearGradient>
</defs>
</svg>
