<svg width="25" height="26" viewBox="0 0 25 26" fill="none" xmlns="http://www.w3.org/2000/svg">
<path d="M0 6.75C0 3.29822 2.79822 0.5 6.25 0.5H18.75C22.2018 0.5 25 3.29822 25 6.75V19.25C25 22.7018 22.2018 25.5 18.75 25.5H6.25C2.79822 25.5 0 22.7018 0 19.25V6.75Z" fill="#4E050E"/>
<path d="M21.5909 0.5H3.40909C2.50494 0.5 1.63783 0.859171 0.9985 1.4985C0.359171 2.13783 0 3.00494 0 3.90909V22.0909C0 22.9951 0.359171 23.8622 0.9985 24.5015C1.63783 25.1408 2.50494 25.5 3.40909 25.5H21.5909C22.4951 25.5 23.3622 25.1408 24.0015 24.5015C24.6408 23.8622 25 22.9951 25 22.0909V3.90909C25 3.00494 24.6408 2.13783 24.0015 1.4985C23.3622 0.859171 22.4951 0.5 21.5909 0.5ZM8.52273 20.2841C8.52291 20.3534 8.50942 20.4221 8.48302 20.4862C8.45662 20.5503 8.41783 20.6086 8.36888 20.6576C8.31993 20.7067 8.26177 20.7457 8.19774 20.7723C8.13371 20.7988 8.06506 20.8125 7.99574 20.8125H5.75C5.68056 20.8127 5.61176 20.7991 5.54757 20.7727C5.48337 20.7462 5.42504 20.7073 5.37594 20.6582C5.32684 20.609 5.28792 20.5507 5.26143 20.4865C5.23494 20.4223 5.2214 20.3535 5.22159 20.2841V10.8693C5.22159 10.7292 5.27726 10.5948 5.37636 10.4957C5.47545 10.3966 5.60986 10.3409 5.75 10.3409H7.99574C8.13563 10.3413 8.26967 10.3971 8.36846 10.4962C8.46725 10.5952 8.52273 10.7294 8.52273 10.8693V20.2841ZM6.87216 9.44886C6.45075 9.44886 6.03881 9.3239 5.68842 9.08978C5.33803 8.85566 5.06493 8.52289 4.90367 8.13356C4.7424 7.74423 4.7002 7.31582 4.78242 6.90251C4.86463 6.48919 5.06756 6.10954 5.36554 5.81156C5.66352 5.51358 6.04317 5.31065 6.45648 5.22844C6.8698 5.14623 7.2982 5.18842 7.68754 5.34969C8.07687 5.51095 8.40963 5.78405 8.64376 6.13444C8.87788 6.48483 9.00284 6.89677 9.00284 7.31818C9.00284 7.88327 8.77836 8.42522 8.37878 8.8248C7.9792 9.22438 7.43725 9.44886 6.87216 9.44886ZM20.2614 20.321C20.2616 20.3849 20.2491 20.4481 20.2248 20.5072C20.2004 20.5662 20.1646 20.6198 20.1195 20.6649C20.0743 20.7101 20.0207 20.7459 19.9617 20.7702C19.9027 20.7946 19.8394 20.807 19.7756 20.8068H17.3608C17.2969 20.807 17.2337 20.7946 17.1747 20.7702C17.1156 20.7459 17.062 20.7101 17.0169 20.6649C16.9717 20.6198 16.9359 20.5662 16.9116 20.5072C16.8872 20.4481 16.8748 20.3849 16.875 20.321V15.9105C16.875 15.2514 17.0682 13.0241 15.152 13.0241C13.6676 13.0241 13.3651 14.5483 13.3054 15.233V20.3267C13.3054 20.4543 13.2552 20.5768 13.1656 20.6677C13.0761 20.7586 12.9543 20.8106 12.8267 20.8125H10.4943C10.4306 20.8125 10.3675 20.7999 10.3086 20.7755C10.2498 20.7511 10.1963 20.7153 10.1513 20.6701C10.1063 20.625 10.0707 20.5714 10.0464 20.5125C10.0221 20.4536 10.0098 20.3904 10.0099 20.3267V10.8281C10.0098 10.7644 10.0221 10.7013 10.0464 10.6423C10.0707 10.5834 10.1063 10.5298 10.1513 10.4847C10.1963 10.4396 10.2498 10.4038 10.3086 10.3793C10.3675 10.3549 10.4306 10.3423 10.4943 10.3423H12.8267C12.9555 10.3423 13.0791 10.3935 13.1702 10.4846C13.2613 10.5757 13.3125 10.6993 13.3125 10.8281V11.6491C13.8636 10.821 14.6804 10.1847 16.4233 10.1847C20.2841 10.1847 20.2585 13.7898 20.2585 15.7699L20.2614 20.321Z" fill="url(#paint0_linear_541_1586)"/>
<defs>
<linearGradient id="paint0_linear_541_1586" x1="12.5" y1="0.5" x2="12.5" y2="25.5" gradientUnits="userSpaceOnUse">
<stop stop-color="#F7F7F7"/>
<stop offset="1" stop-color="#D7D7D7"/>
</linearGradient>
</defs>
</svg>
