<svg width="40" height="30" viewBox="0 0 40 30" fill="none" xmlns="http://www.w3.org/2000/svg">
<path d="M0 15.3457C0.35783 15.1068 0.675196 14.9041 0.952098 14.7376C1.46782 14.6783 2.19776 14.5922 3.14192 14.4794L5.40315 14.2437L5.38173 13.6046L5.39839 13.4042C5.41886 13.2459 5.47148 13.0959 5.55172 12.9671C5.63196 12.8383 5.7374 12.7346 5.85897 12.6648L5.98869 12.71L6.15293 12.7791C6.2381 12.8048 6.32568 12.8176 6.41357 12.8172L7.70485 12.7566L8.96281 12.6705L9.41386 12.6239L9.83398 12.6042C10.1997 12.5694 10.4897 12.5468 10.704 12.5365C11.0919 12.5365 11.5561 12.5365 12.094 12.5209L12.7414 12.5421H13.3877C13.4936 12.4687 13.6257 12.3685 13.7661 12.243L14.1446 11.9608L14.9527 11.9481L15.7929 11.9594C16.4618 11.9594 17.0219 11.95 17.4734 11.9311L19.6703 11.8775C20.532 11.854 21.2544 11.854 21.8375 11.8775L22.3231 11.9057C22.4755 11.9117 22.6274 11.9301 22.7777 11.9608C23.0138 12.007 23.2526 12.0301 23.4918 12.0299L24.2333 11.9692C23.3918 11.3089 25.6971 11.9241 26.3648 11.893L29.2056 11.752C29.8401 11.7163 30.4757 11.72 31.1098 11.7632C31.9762 11.8225 32.9918 11.8521 34.1565 11.8521C34.6007 11.8535 35.0445 11.8836 35.4859 11.9424L36.1357 12.0398L36.7855 12.1357L37.2092 12.219L37.6317 12.3008C37.9311 12.3657 38.2354 12.3941 38.5397 12.3855L38.6409 12.4828C38.4496 12.6613 38.2142 12.7605 37.9708 12.765L37.5841 12.7834C37.4644 12.7876 37.345 12.8017 37.227 12.8257C37.1113 12.8723 36.9915 12.9035 36.87 12.9188L36.4522 12.9908C36.1309 13.0745 35.8429 13.1648 35.5882 13.2617C35.8024 13.2518 36.0726 13.2476 36.3963 13.249L37.1723 13.2631C37.7538 13.2518 38.2493 13.2452 38.6587 13.2433L39.499 13.2038C39.5952 13.2928 39.6848 13.3915 39.7667 13.4987L39.9691 13.7442L39.9512 13.7823L39.9714 13.7894L39.9952 14.5048C39.6382 14.7446 39.3204 14.9464 39.0431 15.1143C38.5274 15.1717 37.7975 15.2577 36.8533 15.3725L34.5921 15.6067L34.6135 16.2473L34.5885 16.4533C34.5688 16.6117 34.5165 16.7619 34.4365 16.8908C34.3564 17.0197 34.2508 17.1233 34.1291 17.1926L33.9982 17.1475L33.834 17.0784C33.7488 17.0523 33.6613 17.0391 33.5733 17.0388L32.2821 17.1009L31.0241 17.187L30.573 17.2336L30.1541 17.2533C29.7876 17.2886 29.4984 17.3098 29.283 17.321C28.895 17.321 28.4308 17.321 27.8929 17.3352L27.2455 17.3154H26.5992C26.4933 17.3888 26.3612 17.4889 26.2208 17.6145L25.8423 17.8967L25.0342 17.9094L24.194 17.8995C23.5251 17.8995 22.965 17.9089 22.5135 17.9278L20.3166 17.9814C19.4549 18.0058 18.7325 18.0058 18.1494 17.9814L17.6638 17.9532C17.5114 17.9472 17.3595 17.9288 17.2092 17.8981C16.973 17.8531 16.7343 17.8305 16.4951 17.8304L15.7525 17.8911C16.5939 18.5514 14.2886 17.9348 13.6209 17.9673L10.7801 18.1084C10.1457 18.144 9.51006 18.1403 8.87593 18.0971C8.0119 18.035 6.99792 18.0063 5.83398 18.011C5.39575 18.0077 4.95798 17.9771 4.52246 17.9193L3.87266 17.8219L3.21333 17.7218L2.79322 17.6371L2.37072 17.5553C2.07122 17.4907 1.76701 17.4618 1.46266 17.4692L1.36269 17.3718C1.5531 17.1925 1.78837 17.0932 2.03154 17.0896L2.41833 17.0713C2.53803 17.0671 2.65733 17.0529 2.77536 17.029C2.89125 16.9827 3.01092 16.951 3.1324 16.9344L3.55013 16.8639C3.87147 16.7802 4.15948 16.6899 4.41416 16.593C4.19994 16.6029 3.92978 16.6071 3.60607 16.6057L2.83011 16.5916C2.24774 16.6019 1.75226 16.608 1.34365 16.6099L0.496281 16.6494C0.40058 16.5597 0.311039 16.4611 0.228503 16.3545L0.127343 16.2261L0.0261827 16.102L0.0440345 16.0653H0.0238024L0 15.3457Z" fill="url(#paint0_linear_350_136)"/>
<path d="M39.9679 24.5791C39.5942 24.342 39.2649 24.1421 38.9801 23.9794C38.4628 23.9625 37.7289 23.9357 36.7783 23.899L34.5135 23.8454L34.4909 23.1173L34.4517 22.8859C34.4255 22.7151 34.3658 22.554 34.2773 22.4157C34.1888 22.2775 34.074 22.1659 33.9423 22.0901L33.8149 22.1536L33.6566 22.2481C33.5741 22.2853 33.4876 22.3086 33.3996 22.3173L32.1083 22.3723L30.848 22.3977L30.3945 22.3878L29.9756 22.4062C29.609 22.4062 29.3175 22.4062 29.1032 22.4146C28.7153 22.4504 28.2527 22.4894 27.7156 22.5317L27.0717 22.6178L26.4278 22.6743C26.291 22.5814 26.1583 22.4801 26.0303 22.3709L25.8316 22.2298L25.634 22.0887L24.8271 22.1522L23.994 22.2467C23.3284 22.3145 22.7694 22.3577 22.3172 22.3765L20.1238 22.5289C19.2637 22.5854 18.5437 22.6554 17.9637 22.7392L17.4877 22.8182C17.3357 22.8402 17.1853 22.8756 17.0378 22.924C16.8064 22.9971 16.5697 23.0444 16.3309 23.0651H15.5882C16.3808 22.2326 14.1244 23.1568 13.4579 23.185L10.6171 23.3064C9.97957 23.3277 9.34371 23.3941 8.71288 23.5053C7.85441 23.6586 6.84519 23.7894 5.68521 23.8976C5.24249 23.9428 4.80251 24.02 4.36775 24.129L3.0848 24.4761L2.66825 24.6101L2.2529 24.7512C1.96 24.8535 1.65806 24.915 1.35317 24.9346L1.25915 25.056C1.45401 25.2395 1.69848 25.3327 1.94704 25.3184L2.33383 25.3015C2.45297 25.2951 2.57235 25.2998 2.69087 25.3156C2.80695 25.3568 2.92686 25.3809 3.0479 25.3875L3.46921 25.4285C3.76555 25.4845 4.05914 25.5594 4.34871 25.6528C4.13448 25.6632 3.86591 25.6843 3.54299 25.7163L2.76941 25.808C2.18863 25.8532 1.69434 25.8941 1.28652 25.9308L0.446296 25.966C0.356022 26.0787 0.273258 26.1994 0.19875 26.3273L0.107111 26.4768L0.0142815 26.6278L0.0357037 26.6673L0.0154716 26.6772L0.0333234 27.5139C0.407022 27.7509 0.736289 27.9508 1.02112 28.1135C1.54002 28.1305 2.27393 28.1573 3.22285 28.194L5.48408 28.2433L5.5055 28.9714L5.54478 29.2028C5.5709 29.3736 5.63064 29.5347 5.71915 29.673C5.80766 29.8112 5.92243 29.9228 6.05415 29.9986L6.18149 29.9351L6.34097 29.8406C6.42307 29.8033 6.50922 29.78 6.59685 29.7714L7.88813 29.7164L9.14847 29.691L9.6019 29.7009L10.0208 29.6825C10.3886 29.6825 10.679 29.6825 10.8944 29.6741C11.2816 29.6393 11.7437 29.6002 12.2809 29.557L12.9247 29.4709L13.5698 29.4145C13.6793 29.4878 13.8078 29.5894 13.9661 29.7178L14.1648 29.8589L14.3624 30L15.1693 29.9365L16.0024 29.842C16.6681 29.7742 17.227 29.731 17.6793 29.7122L19.8727 29.5598C20.7327 29.5033 21.4527 29.4333 22.0327 29.3495L22.5147 29.2705C22.6668 29.2492 22.8172 29.2138 22.9646 29.1647C23.1958 29.0892 23.4325 29.0396 23.6715 29.0166H24.4142C23.6215 29.8476 25.878 28.9234 26.5445 28.8952L29.3865 28.7739C30.024 28.7532 30.6599 28.6868 31.2907 28.5749C32.1492 28.4225 33.1584 28.2918 34.3184 28.1827C34.7629 28.133 35.2045 28.0511 35.6406 27.9372L36.9235 27.5901L37.7554 27.3079C38.0485 27.2063 38.3503 27.1447 38.6552 27.1244L38.7492 27.0031C38.5548 26.8196 38.3107 26.7263 38.0625 26.7407L37.6745 26.7576C37.5554 26.764 37.436 26.7592 37.3175 26.7435C37.2014 26.7023 37.0815 26.6781 36.9604 26.6715L36.5391 26.6306C36.2428 26.5746 35.9492 26.4997 35.6596 26.4063C35.8738 26.3964 36.144 26.3752 36.4653 26.3428L37.2389 26.2511C37.8197 26.2068 38.314 26.1659 38.7218 26.1283L39.562 26.093C39.6523 25.9804 39.7351 25.8596 39.8096 25.7318L39.9012 25.5823L39.994 25.4327L39.9726 25.3918L39.9881 25.3974L39.9679 24.5791Z" fill="url(#paint1_linear_350_136)"/>
<path d="M39.9881 2.79089C39.6176 2.54821 39.2919 2.34268 39.011 2.1743L36.8117 2.04308L34.5504 1.94149L34.5409 1.21767L34.5028 0.987678C34.4796 0.8172 34.4227 0.655676 34.3366 0.516361C34.2505 0.377047 34.1378 0.263914 34.0077 0.186248L33.8792 0.246919L33.7185 0.337221C33.6355 0.37293 33.5485 0.393851 33.4603 0.399304L32.169 0.42329H30.9087L30.4552 0.403537L30.0363 0.410592C29.6686 0.399304 29.3782 0.395071 29.1627 0.399304C28.7764 0.425642 28.3138 0.453861 27.7751 0.483962L27.13 0.55451L26.4838 0.595428C26.3755 0.520647 26.2458 0.416236 26.0922 0.285016L25.8959 0.143919L25.7066 0L24.8985 0.045151L24.0655 0.118521C23.399 0.169316 22.8396 0.199417 22.3874 0.208823L21.2889 0.259618L20.1916 0.309002C19.33 0.344747 18.6087 0.397423 18.028 0.46703L17.5448 0.533346C17.3926 0.551799 17.2418 0.583873 17.0937 0.629292C16.8596 0.698676 16.6206 0.742133 16.3796 0.759101L15.6358 0.744991C16.4439 -0.0620825 14.172 0.80143 13.5043 0.814129L10.6623 0.869156C10.0256 0.875423 9.38975 0.926307 8.75811 1.02154C7.89329 1.15417 6.87811 1.26046 5.71259 1.34042C5.26891 1.37568 4.8274 1.44212 4.39036 1.53937L3.75126 1.69316L3.10741 1.84978L2.68849 1.97536L2.27075 2.09952C1.97578 2.19386 1.67275 2.2483 1.36745 2.26178L1.27224 2.37889C1.46349 2.56818 1.70631 2.66848 1.95537 2.66109L2.34216 2.65262C2.46147 2.65019 2.58078 2.65773 2.6992 2.6752C2.8151 2.71868 2.93495 2.74568 3.05623 2.75562L3.47635 2.805C3.77182 2.8676 4.06422 2.94909 4.35228 3.0491C4.13805 3.0491 3.8679 3.06744 3.54537 3.09284L2.7706 3.16621C2.193 3.19443 1.69751 3.22077 1.28414 3.24523L0.451056 3.26216C0.355839 3.37171 0.268646 3.49066 0.19042 3.61772L0.0963999 3.75882L0.00119012 3.89992L0.0214222 3.95071L0 3.96059L0.0119012 4.77048C0.382426 5.01411 0.708123 5.22011 0.988991 5.38849L3.18834 5.51971L5.44957 5.6213L5.46266 6.34936L5.49836 6.58075C5.52187 6.75112 5.5791 6.91245 5.66537 7.05151C5.75163 7.19058 5.86448 7.30342 5.99464 7.38077L6.12318 7.3201L6.28265 7.23121C6.36712 7.1935 6.45568 7.17022 6.54567 7.16207L7.83695 7.13668H9.09729L9.55073 7.15643L9.97084 7.14796C10.3374 7.16019 10.6282 7.16443 10.8432 7.16066C11.2304 7.13432 11.6929 7.10611 12.2309 7.076L12.8759 7.00546L13.5222 6.96454C13.6573 7.0596 13.788 7.16322 13.9137 7.27495L14.1101 7.41605L14.3053 7.55714L15.1134 7.51199L15.9464 7.43862C16.6129 7.38642 17.1735 7.35679 17.6245 7.34832L19.8215 7.24673C20.6815 7.21193 21.4024 7.15972 21.9839 7.09011L22.4671 7.02239C22.6194 7.00462 22.7702 6.97254 22.9182 6.92644C23.1524 6.85773 23.3914 6.81475 23.6323 6.79804L24.3761 6.81215C23.568 7.61923 25.8399 6.75571 26.5076 6.7416L29.3508 6.68658C29.9875 6.68103 30.6234 6.63014 31.255 6.53419C32.1143 6.4025 33.1251 6.29621 34.2874 6.21531C34.7312 6.18092 35.1727 6.11449 35.6096 6.01637L36.2535 5.85975L36.8938 5.70737L37.3127 5.58461L37.7269 5.46045C38.0219 5.36621 38.3249 5.31178 38.6302 5.29818L38.7254 5.18107C38.5341 4.99179 38.2913 4.89148 38.0422 4.89888L37.6555 4.90594C37.5362 4.9095 37.4168 4.90243 37.2984 4.88477C37.1825 4.84129 37.0627 4.81429 36.9414 4.80435L36.5213 4.75496C36.2275 4.69356 35.9367 4.61349 35.6501 4.5151C35.8651 4.5151 36.1341 4.50052 36.457 4.47136L37.2318 4.39799C37.8126 4.36695 38.3076 4.33826 38.717 4.31192L39.5573 4.29499C39.6499 4.18594 39.7347 4.06795 39.8108 3.94224L39.9048 3.80115L40 3.66005L39.9798 3.61913L40 3.60926L39.9881 2.79089Z" fill="url(#paint2_linear_350_136)"/>
<defs>
<linearGradient id="paint0_linear_350_136" x1="20" y1="0" x2="20" y2="30" gradientUnits="userSpaceOnUse">
<stop stop-color="#D51321"/>
<stop offset="1" stop-color="#850000"/>
</linearGradient>
<linearGradient id="paint1_linear_350_136" x1="20" y1="0" x2="20" y2="30" gradientUnits="userSpaceOnUse">
<stop stop-color="#D51321"/>
<stop offset="1" stop-color="#850000"/>
</linearGradient>
<linearGradient id="paint2_linear_350_136" x1="20" y1="0" x2="20" y2="30" gradientUnits="userSpaceOnUse">
<stop stop-color="#D51321"/>
<stop offset="1" stop-color="#850000"/>
</linearGradient>
</defs>
</svg>
