<svg width="70" height="100" viewBox="0 0 70 100" fill="none" xmlns="http://www.w3.org/2000/svg">
<path d="M43.5073 42.4752C43.5073 42.5226 43.5393 42.5118 43.5537 42.5181L43.5073 42.4752ZM8.42447 5.25306C7.62348 4.35598 6.89024 3.38314 5.8233 2.77773C6.71148 3.58958 7.47796 4.51822 8.42447 5.25306ZM3.13621 1.09215L4.36748 1.90779L4.43836 1.79984C4.09275 1.43305 3.71829 1.10541 3.22214 0.957684L3.13621 1.09215ZM4.23388 1.16223C3.95162 0.734203 3.44983 0.508829 3.26981 0H2.76802C3.04777 0.659078 3.74463 0.772081 4.23513 1.16223H4.23388ZM22.9137 8.09517C22.89 8.12925 22.8763 8.16944 22.8744 8.21104C22.8725 8.25263 22.8825 8.2939 22.9031 8.33002C23.0643 8.69491 23.3892 8.84074 23.741 8.90135C24.0333 8.95122 24.3357 8.94996 24.6305 9.0516C24.1876 8.62421 23.6539 8.35717 23.1395 8.0655C23.1052 8.04059 23.0627 8.02979 23.0208 8.03531C22.9788 8.04082 22.9405 8.06223 22.9137 8.09517ZM19.3573 5.57313C19.7844 5.79156 20.2141 6.00936 20.6569 6.19243C21.4284 6.5125 22.215 6.79533 22.9877 7.11161C23.6507 7.38307 24.2748 7.73218 24.7308 8.30287C25.1279 8.79971 25.6152 9.19175 26.097 9.5901C26.2782 9.73971 26.4212 10.0169 26.7085 9.95373C26.866 9.91964 26.7656 9.53517 26.4915 9.17849C26.4024 9.06233 26.2971 8.95943 26.1973 8.85211C25.7394 8.35717 25.2075 7.9525 24.6581 7.5693C22.5769 6.11731 20.3213 4.97276 18.1072 3.75372C18.0369 3.71521 17.9591 3.67733 17.85 3.75372C18.1417 4.5359 18.5958 5.18298 19.3573 5.57313ZM13.8708 5.13122C13.6688 4.76127 13.4267 4.59461 13.2279 4.39133C13.1419 4.30358 13.0322 4.21078 12.9086 4.3282C12.802 4.43237 12.8302 4.56557 12.9048 4.671C13.1093 4.9696 13.4179 5.06367 13.8708 5.13437V5.13122ZM20.3075 7.28585C20.2887 7.19368 20.1093 7.12739 20.0535 7.22272C19.9368 7.41716 19.7794 7.34898 19.6226 7.36602C19.3623 7.39759 19.2745 7.55541 19.3516 7.80793C19.4256 8.04783 19.6025 8.18987 19.8264 8.26689C20.236 8.40893 20.6538 8.49542 21.1054 8.37421C20.8934 7.95439 20.4054 7.77005 20.3075 7.289V7.28585ZM9.3647 91.8796C8.66533 92.1428 8.22375 92.5923 7.92205 93.2003C8.3975 93.0538 9.17778 92.3158 9.3647 91.8796ZM69.9523 52.0192C69.8401 51.8168 69.6971 51.6334 69.5283 51.4757C68.7186 50.6487 67.7921 49.9605 66.8726 49.2705C66.2642 48.8122 66.2566 48.7825 66.5414 48.0793C66.5546 48.0337 66.5777 47.9917 66.6092 47.9564C66.6407 47.9211 66.6797 47.8934 66.7233 47.8754C66.8964 48.0603 67.0677 48.268 67.2646 48.4435C67.444 48.6064 67.5732 48.8633 67.9333 48.9056C67.7658 48.5161 67.6083 48.2485 67.306 48.0515C66.9165 47.799 66.7032 47.4574 66.8218 46.9644C66.9102 47.0275 66.9987 47.0862 67.0909 47.1424C67.1592 47.1841 67.3336 47.3318 67.444 47.2605C67.4208 47.2123 67.3947 47.1657 67.3656 47.1209C67.3194 47.0655 67.2637 47.0186 67.2013 46.9827C67.1658 46.96 67.1318 46.9349 67.0997 46.9076C67.0489 46.8569 67.0086 46.7966 66.9811 46.7302C66.9609 46.6908 66.9334 46.6557 66.9002 46.6266C66.9264 46.3522 66.9197 46.0756 66.8801 45.8028C66.8589 45.5635 66.772 45.3349 66.6292 45.1425C66.6621 45.1412 66.6944 45.1337 66.7246 45.1204C66.7333 45.0515 66.6368 44.9796 66.5991 44.931C66.5608 44.876 66.5166 44.8254 66.4674 44.7801C66.3263 44.6652 66.1419 44.5907 65.9813 44.508C65.7155 44.376 65.4791 44.1911 65.2863 43.9644C65.2199 43.8886 65.1733 43.7972 65.1508 43.6987C65.1353 43.6121 65.1259 43.5246 65.1226 43.4367C65.1075 43.2384 64.9971 43.0238 64.7839 43.0427C64.6894 43.0553 64.5995 43.0913 64.5223 43.1475C64.4527 43.1917 64.3486 43.2738 64.2714 43.2384C64.2238 43.212 64.1813 43.1772 64.146 43.1355C64.104 43.0888 64.0663 43.0364 64.0274 42.9866C64.0179 42.9613 64.0014 42.9394 63.9798 42.9234C63.9641 42.9003 63.9424 42.8819 63.917 42.8704C63.9008 42.8665 63.8841 42.865 63.8675 42.866C63.8606 42.8092 63.9108 42.746 63.8568 42.6955C63.8957 42.705 63.9195 42.6191 63.9603 42.6457C64.0777 42.7567 64.2071 42.8541 64.3461 42.9361C64.3197 42.9076 64.3548 42.8729 64.3461 42.842C64.3661 42.8502 64.3887 42.8736 64.4044 42.854C64.0983 42.8035 64.1391 42.5383 64.0431 42.4866C63.848 42.6955 63.7383 42.1659 63.3801 42.2113C63.3531 42.1829 63.3695 42.1482 63.3462 42.1217C63.1255 42.0131 63.2635 42.1293 63.3218 42.1993C63.3143 42.2524 63.1907 42.1198 63.249 42.2082C63.3117 42.2454 63.3506 42.2189 63.2829 42.2972C63.4579 42.4234 63.4491 42.6046 63.631 42.592C63.5583 42.5554 63.5739 42.414 63.6586 42.4203C63.6586 42.4834 63.8894 42.5636 63.8694 42.6728C63.7489 42.7056 63.8298 42.6999 63.7439 42.5762C63.7201 42.6589 63.673 42.6002 63.6398 42.6255C63.6919 42.7151 63.7997 42.6886 63.7809 42.7953C63.7704 42.8029 63.7582 42.8077 63.7454 42.8092C63.7325 42.8107 63.7195 42.809 63.7075 42.8041C63.6517 42.7669 63.6655 42.722 63.631 42.6829C63.5639 42.6993 63.5683 42.746 63.5413 42.7814C63.3923 42.6473 63.2562 42.4994 63.1349 42.3395C63.1431 42.3122 63.1475 42.284 63.148 42.2555C63.128 42.2505 63.1123 42.27 63.0966 42.2871C63.0107 42.1673 62.9347 42.0406 62.8695 41.9083C62.9183 41.9222 62.9689 41.9281 63.0195 41.926C63.0682 41.9735 63.1318 42.0026 63.1995 42.008C63.1675 41.9203 63.1367 41.9291 63.1004 41.9096C63.1097 41.904 63.1176 41.8964 63.1235 41.8873C63.1295 41.8782 63.1334 41.8679 63.1349 41.8572C63.1429 41.8556 63.1503 41.8517 63.1562 41.846C63.1621 41.8403 63.1662 41.833 63.1681 41.825L63.1411 41.8048C63.1411 41.7416 63.1267 41.6785 63.1255 41.6204C63.123 41.5956 63.1276 41.5705 63.1387 41.5482C63.1498 41.5259 63.167 41.5071 63.1882 41.4942C63.2152 41.4741 63.2466 41.4609 63.2798 41.4557C63.3418 41.4635 63.4027 41.4789 63.461 41.5017L63.641 41.5598C63.7577 41.5971 63.8756 41.6318 63.9967 41.6577C64.0491 41.6745 64.1042 41.6815 64.1592 41.6785C64.1504 41.6564 64.0337 41.6091 64.0368 41.6116C63.9228 41.5453 63.8151 41.4686 63.7151 41.3824C63.6272 41.3086 63.5382 41.2379 63.5062 41.1173C63.4923 41.0674 63.4809 41.0168 63.4723 40.9658C63.4629 40.9115 63.4679 40.854 63.4591 40.7997C63.4522 40.7412 63.4329 40.6848 63.4027 40.6343C63.3821 40.596 63.3535 40.5625 63.3189 40.5364C63.2842 40.5102 63.2443 40.4919 63.202 40.4828C63.1393 40.4639 63.0891 40.5358 63.0433 40.5781C62.9977 40.6268 62.9398 40.6619 62.8758 40.6798C62.8437 40.6902 62.8094 40.692 62.7764 40.6849C62.7433 40.6778 62.7127 40.6621 62.6876 40.6394C62.6532 40.5881 62.6282 40.531 62.6136 40.4708C62.5893 40.3938 62.5461 40.3241 62.4882 40.2682C62.3975 40.2 62.3213 40.1141 62.2643 40.0157C62.2326 39.9438 62.2115 39.8676 62.2015 39.7897C62.1946 39.7448 62.2015 39.6968 62.1921 39.6527C62.1921 39.6426 62.1921 39.6388 62.1865 39.6306C62.1726 39.6175 62.1551 39.6091 62.1363 39.6066C62.0618 39.5935 61.9852 39.6014 61.9149 39.6293C61.8283 39.6571 61.7424 39.6867 61.6565 39.7164C61.6093 39.7354 61.5583 39.7428 61.5078 39.7379H61.4984C61.2387 39.4102 60.9289 39.183 60.6936 38.8408C61.1465 38.9361 61.3497 39.3244 61.7719 39.409C61.7167 39.1325 61.536 39.0131 61.3955 38.8755C59.7609 37.2821 57.9294 36.0082 55.7968 35.2272C55.8344 35.2336 55.8708 35.2569 55.8802 35.2014C55.8214 35.178 55.766 35.1471 55.7152 35.1092C55.732 35.0869 55.7405 35.0594 55.7391 35.0315C55.7729 35.0789 55.8187 35.1521 55.8645 35.0915C55.8383 35.047 55.8018 35.0096 55.7581 34.9824C55.7144 34.9551 55.6649 34.9388 55.6136 34.9349C55.6193 34.9842 55.7115 35.0227 55.6764 35.077C55.6475 35.0555 55.6299 35.0978 55.603 35.0858C55.4863 35.0227 55.5164 34.9463 55.529 34.8706C55.3778 34.7279 55.3577 34.8661 55.184 34.7064C55.2203 34.6048 55.216 34.6155 55.1012 34.5486C55.1281 34.5233 55.1639 34.5404 55.1896 34.5189C55.1225 34.4558 54.9839 34.4065 55.0642 34.3295C55.1018 34.3674 55.1269 34.3339 55.1589 34.3371C55.1833 34.3649 55.1783 34.3964 55.2298 34.4217C55.2742 34.3986 55.3212 34.3806 55.3696 34.368C55.1583 34.255 55.0215 34.1578 54.7894 34.0265C54.802 34.0334 54.8007 34.0625 54.7738 34.0473C54.6126 33.9558 54.4394 33.6496 54.245 33.6805C54.3259 33.7506 54.4332 33.7437 54.4225 33.8466C54.4121 33.8372 54.3999 33.8301 54.3865 33.8258C54.3732 33.8215 54.3592 33.8201 54.3453 33.8217C54.3314 33.8234 54.318 33.8279 54.306 33.8352C54.294 33.8424 54.2837 33.8521 54.2757 33.8636C54.2989 33.8864 54.3384 33.9059 54.3253 33.9324C54.2174 33.8952 54.2814 33.9817 54.2494 34.0353C54.1628 33.935 54.0405 34.1143 54.1666 34.0985C54.1534 34.0814 54.1547 34.0625 54.176 34.0417C54.1924 34.0858 54.2253 34.1218 54.2676 34.142C54.3165 34.1193 54.2544 34.0252 54.3303 34.0606C54.3692 34.1471 54.2952 34.1319 54.245 34.2197C54.3265 34.2778 54.3234 34.243 54.3704 34.3163C54.5084 34.1932 54.6301 34.4192 54.6878 34.4274C54.642 34.4135 54.6069 34.4634 54.5624 34.4615C54.4808 34.4615 54.4852 34.3478 54.3974 34.3687C54.4407 34.4271 54.4935 34.4777 54.5536 34.5183C54.6193 34.4939 54.6911 34.4919 54.7581 34.5126C54.6565 34.5865 54.6326 34.6786 54.4564 34.6048C54.4752 34.5713 54.5191 34.5347 54.4959 34.5069C54.4332 34.6022 54.2343 34.5038 54.1992 34.4116C54.2475 34.4665 54.3911 34.5284 54.3579 34.4671C54.3247 34.4514 54.2952 34.4672 54.2575 34.423C54.2757 34.3919 54.3052 34.3692 54.3397 34.3598C54.2839 34.2904 54.26 34.4053 54.208 34.3567C54.2456 34.315 54.2393 34.2784 54.1898 34.2475C54.0976 34.2342 54.2011 34.3548 54.1271 34.3289C54.0531 34.303 54.0932 34.2588 54.0355 34.2279C54.0035 34.2607 53.9809 34.3472 53.9314 34.2778C53.9477 34.2551 53.9715 34.239 53.9985 34.2323C53.873 34.1515 53.8799 34.173 53.7545 34.1124C53.7695 34.0922 53.7896 34.101 53.8059 34.0877C53.6911 34.0726 53.6384 33.9615 53.5224 34.0656C53.6999 34.1685 53.7658 34.3333 53.8523 34.25C53.9508 34.3939 54.1428 34.469 54.1704 34.5852C54.2764 34.5915 54.452 34.6818 54.484 34.7746C54.3767 34.7273 54.2742 34.6698 54.1779 34.6029C53.5337 34.149 52.8908 33.6938 52.2962 33.1799C52.308 33.1773 52.3191 33.1717 52.3281 33.1635C52.2805 33.0903 52.2178 33.0922 52.187 32.9937C52.3018 33.0568 52.3024 33.137 52.4015 33.1547C52.4153 32.9653 52.1613 32.9022 52.0528 32.8605C51.8138 32.6679 51.7893 32.3738 51.3553 32.2721C51.3603 32.2788 51.3649 32.2858 51.3691 32.2929C49.2791 30.1996 47.203 28.0929 45.103 26.0102C44.3269 25.2445 43.5024 24.5301 42.6348 23.8714C41.4844 22.9926 40.2701 22.2092 39.0721 21.4011C37.5554 20.379 36.1504 19.2301 34.9053 17.8785C33.3955 16.2402 31.7277 14.7724 29.9626 13.4189C29.3404 12.9423 28.7 12.4903 27.9831 12.1469C28.5645 13.0869 29.2206 13.9549 30.1119 14.6355C29.8385 14.6689 29.6597 14.5237 29.4778 14.4012C28.8489 13.982 28.3113 13.4384 27.8978 12.8034C27.3038 11.8893 26.7248 10.9613 25.9703 10.1652C25.8617 10.0509 25.7708 9.87986 25.5431 10.0251C25.7143 10.3148 25.885 10.5932 26.0449 10.8805C26.1904 11.133 26.3221 11.3767 26.6489 11.4733C26.7715 11.5113 26.8768 11.5914 26.9467 11.6996C27.0165 11.8078 27.0463 11.9373 27.0309 12.0654C26.9983 12.352 27.1388 12.5307 27.2693 12.7498C27.7711 13.5951 28.5087 14.2245 29.1924 14.9006C29.6829 15.3854 30.3283 15.6866 30.7749 16.2263C31.3808 16.3122 31.8613 16.7749 32.4873 16.8008C32.8636 16.8172 33.1509 16.9751 33.3798 17.297C33.6935 17.7351 34.0472 18.1417 34.3834 18.5596C34.46 18.6531 34.5497 18.8027 34.6826 18.6859C34.8971 18.4933 35.0132 18.643 35.1543 18.773C35.3695 18.9725 35.5859 19.1701 35.8085 19.3607C36.9112 20.3033 38.1368 21.0722 39.3298 21.8859C40.2989 22.5488 41.2517 23.242 42.0458 24.1132C42.7941 24.9339 43.4885 25.8063 44.1972 26.6605C44.3371 26.829 44.4519 27.0197 44.578 27.2002C44.433 27.1686 44.3015 27.0922 44.2016 26.9818C43.4649 26.2656 42.687 25.5936 41.8721 24.9692C40.2544 23.7066 38.6286 22.4522 37.0053 21.1953C36.4408 20.7566 35.9622 20.2282 35.5049 19.6802C35.4065 19.5621 35.404 19.3058 35.1712 19.4674C34.9831 19.5937 35.1085 19.7698 35.1901 19.9144C35.2331 19.9868 35.2844 20.0537 35.3431 20.1139C36.2369 21.0514 37.0567 22.0753 38.2604 22.6517C38.3165 22.6803 38.3699 22.7141 38.4197 22.7527C38.6411 22.9188 38.7791 23.1063 38.8324 23.3102C38.6719 23.2344 38.5044 23.17 38.3514 23.0867C38.1368 22.9699 37.8941 22.884 37.6959 22.7439C37.6157 22.6782 37.532 22.6171 37.445 22.5608H37.4406L37.4594 22.4649L35.5357 21.2117C35.6574 21.5564 36.0306 21.6801 36.1247 22.0078C36.1509 22.1029 36.188 22.1946 36.235 22.2811L36.2181 22.3077C36.1698 22.3803 36.1259 22.4548 36.0751 22.5248C36.0343 22.5816 35.9898 22.6328 35.9459 22.6871C35.9384 22.6959 35.9321 22.7054 35.9246 22.7148L35.8311 22.6239C34.8902 21.7269 33.9224 20.8632 32.9583 19.9933C32.698 19.7585 32.4133 19.5514 32.1429 19.333C32.0388 19.4333 32.0978 19.5192 32.0909 19.5987C32.0545 20.0003 31.9385 20.083 31.5721 19.9194C31.3268 19.8043 31.0926 19.6663 30.8728 19.5072C29.9946 18.8967 29.21 18.1644 28.4472 17.4182C27.216 16.2143 26.1892 14.8299 25.0959 13.5042C24.1513 12.3558 23.2568 11.1683 22.0224 10.2896C20.9116 9.50171 19.8039 8.71132 18.6391 8.00742C17.6907 7.43483 16.7574 6.82121 15.7005 6.46263C15.4797 6.38751 15.2532 6.2543 14.9095 6.40644C15.9131 6.82247 16.6376 7.49102 17.4109 8.09265C17.298 8.25048 17.1055 8.09265 17.0816 8.29467C17.2529 8.4708 17.4843 8.51878 17.7007 8.57938C18.1235 8.6968 18.555 8.78014 18.979 8.89188C19.3648 8.99352 19.7424 9.12167 20.0453 9.39692C20.1357 9.47836 20.2561 9.57179 20.1984 9.71257C20.1357 9.86345 19.987 9.80853 19.8685 9.7959C19.383 9.7454 18.8981 9.68921 18.3781 9.63113C18.4835 9.8483 18.6466 9.83883 18.7808 9.87418C19.2657 10.0004 19.7524 10.1267 20.2385 10.2485C20.6872 10.3544 21.1155 10.534 21.5062 10.7801C21.7765 10.9562 21.9936 11.1854 22.0456 11.5206C22.0738 11.7024 22.0005 11.8205 21.7947 11.7353C21.5181 11.6204 21.2754 11.4152 20.9266 11.3622L21.3776 12.2075C21.3361 12.2326 21.2882 12.245 21.2398 12.2434C21.1914 12.2417 21.1445 12.2259 21.1048 12.198C20.2486 11.7561 19.3893 11.3236 18.54 10.8723C16.6796 9.88176 15.1102 8.48343 13.475 7.17916C12.1158 6.09016 10.7722 4.98728 9.38352 3.93995C8.83594 3.52708 8.22313 3.28213 7.58459 3.08012C7.41461 3.02583 7.22707 2.96901 7.06587 3.13378C7.14176 3.39829 7.37949 3.47026 7.56201 3.59652C8.26515 4.08894 9.00467 4.53148 9.67644 5.06619C9.95682 5.28778 10.2265 5.5201 10.4103 5.83449C10.473 5.94559 10.5251 6.07122 10.4436 6.18928C10.362 6.30733 10.224 6.31301 10.0986 6.28397C9.74418 6.21011 9.44248 6.02009 9.14517 5.82312C9.0423 5.75494 8.90995 5.58828 8.83155 5.6533C8.5656 5.87868 8.32348 5.6331 8.00296 5.62868C8.19866 5.94875 8.47339 6.0586 8.70736 6.21137C9.37286 6.64508 10.0785 7.01818 10.7014 7.51943C10.9221 7.69682 11.1404 7.87422 11.242 8.32749C10.0139 7.45882 8.93253 6.6072 7.56954 6.2745C7.56954 6.39697 7.65046 6.43043 7.7182 6.47273C9.63567 7.6722 11.5111 8.93481 13.3822 10.2037C13.5553 10.3211 13.7529 10.4171 13.8633 10.6014C14.3895 11.4796 15.2539 11.9076 16.1213 12.3268C16.3095 12.4177 16.514 12.4695 16.6827 12.6008C18.7187 14.186 20.6669 15.8671 22.336 17.8532C22.686 18.2705 23.0367 18.6935 23.4337 19.0628C24.3633 19.9117 25.3347 20.7132 26.3441 21.4642C27.451 22.2936 28.4821 23.2209 29.4251 24.235C29.914 24.7552 30.3288 25.3412 30.6576 25.9761C30.7147 26.0885 30.8113 26.2028 30.7511 26.3549C30.4858 26.2546 30.4375 25.9635 30.2123 25.8846C29.4414 25.6138 29.008 24.9686 28.5633 24.3524C28.3318 24.0317 28.1142 23.73 27.7033 23.6138C27.9392 24.2521 28.5476 24.6334 28.8405 25.3139C28.7113 25.2306 28.6279 25.1801 28.5488 25.1245C27.8589 24.6473 27.1865 24.1466 26.479 23.7016C26.1315 23.4838 25.8919 23.2243 25.8304 22.8297C25.7125 22.0659 25.254 21.504 24.7854 20.9403C23.7912 19.7408 22.6741 18.6733 21.5187 17.6354C19.8483 16.1388 18.0887 14.7461 16.2499 13.465C15.8061 13.1488 15.3365 12.8709 14.8462 12.6342C14.6881 12.5597 14.5238 12.4966 14.4453 12.7416C14.912 13.198 15.4596 13.5307 16.0392 13.8192C16.3735 13.9858 16.6934 14.1816 17.0126 14.3754C17.182 14.4776 17.3746 14.5704 17.4298 14.8299C17.1544 14.905 16.96 14.763 16.7661 14.6645C16.1393 14.3389 15.5371 13.9671 14.9647 13.5521C14.796 13.4322 14.6423 13.2864 14.4303 13.2428C15.2946 14.2055 16.4017 14.8684 17.441 15.6152C17.4166 15.6544 17.3928 15.6941 17.3689 15.7333L15.4452 14.7724C16.4042 16.0982 17.6167 17.083 18.9514 17.9239C19.0589 17.9896 19.1744 18.0408 19.2952 18.076C20.0673 18.3058 20.7435 18.7206 21.4077 19.1644C22.3307 19.7821 23.2025 20.4739 24.0145 21.2332C24.7315 21.9024 25.4703 22.5652 25.8561 23.5134C25.9 23.6214 26.0173 23.7028 26.1145 23.7824C26.7449 24.2754 27.2837 24.8651 27.8413 25.4332C28.1518 25.7489 28.4196 26.1011 28.5783 26.5203C28.6247 26.6422 28.7351 26.7867 28.5294 26.937C28.308 26.7931 28.1436 26.5828 27.9705 26.3758C27.5264 25.8455 27.1125 25.2893 26.6069 24.812C26.2173 24.4347 25.7111 24.203 25.1724 24.1555C25.2477 24.3739 25.3907 24.4711 25.5061 24.5885C26.5724 25.6567 27.5929 26.7678 28.6712 27.8246C29.7078 28.8406 30.7367 29.8648 31.7578 30.8971C31.7534 30.9218 31.7578 30.9458 31.8092 30.9641L31.8186 30.9584L31.9554 31.0966C31.9541 31.1176 31.9469 31.1377 31.9347 31.1547C31.8795 31.0859 31.8406 31.1112 31.7973 31.1149C31.7873 31.0518 31.6819 30.9925 31.6324 31.0228C31.6995 31.0638 31.7026 31.0827 31.6449 31.096C31.8168 31.1591 31.9127 31.257 32.0482 31.2715C32.0545 31.4016 32.232 31.5057 32.348 31.4969C32.2853 31.56 32.3662 31.6067 32.3574 31.6642C32.279 31.601 32.3129 31.5947 32.232 31.5676C32.1542 31.6724 32.3273 31.6509 32.2847 31.7658C32.3474 31.8289 32.3819 31.7538 32.4371 31.7854C32.4376 31.8035 32.4422 31.8212 32.4505 31.8373C32.4588 31.8533 32.4706 31.8673 32.485 31.8781C32.4995 31.8889 32.5161 31.8963 32.5338 31.8997C32.5514 31.9031 32.5696 31.9024 32.587 31.8978C32.5594 31.9205 32.5243 31.9142 32.5048 31.9609L32.5475 31.9931C32.5676 32.0013 32.5902 32.0246 32.6052 32.0051C32.592 31.988 32.5933 31.9691 32.6146 31.9483C32.6435 31.9887 32.7476 31.9552 32.7212 32.0284C32.6146 32.0032 32.6278 32.1118 32.5444 32.0871C32.3687 32.0272 32.3192 31.8264 32.0721 31.6901C32.0692 31.5987 32.0527 31.5082 32.0231 31.4218C31.9924 31.351 31.9792 31.4104 31.9303 31.4413C31.8814 31.4723 31.808 31.4199 31.7735 31.3952C31.6129 31.2816 31.4937 31.1213 31.3488 30.9899C31.325 30.9678 31.2686 30.9117 31.2303 30.9142C31.2052 30.9464 31.2629 31.0234 31.2736 31.0531C31.2842 31.0827 31.2943 31.1231 31.3062 31.1579C31.3181 31.1926 31.3514 31.221 31.3275 31.2589C31.3037 31.2968 31.2485 31.2879 31.2178 31.2892C31.2037 31.2881 31.1896 31.2903 31.1765 31.2954C31.1633 31.3005 31.1515 31.3085 31.1419 31.3189C31.1036 31.358 31.0841 31.3782 31.0321 31.3649C30.9818 31.347 30.9346 31.3212 30.8922 31.2885C30.7846 31.2224 30.7012 31.123 30.6545 31.0051C30.6377 30.9419 30.6076 30.8831 30.566 30.8327C30.5067 30.7759 30.4427 30.7241 30.3747 30.6781C30.3534 30.6656 30.3289 30.6597 30.3042 30.6611C30.2795 30.6626 30.2559 30.6713 30.2361 30.6863C30.1801 30.7187 30.1208 30.7449 30.0592 30.7646C30.0121 30.7752 29.9688 30.7986 29.9338 30.8321C29.9212 30.846 29.9137 30.8643 29.9018 30.8769C29.8745 30.898 29.84 30.9073 29.8058 30.9028C29.7293 30.9029 29.6528 30.8959 29.5775 30.882C29.4028 30.8456 29.234 30.785 29.0757 30.7021C29.0248 30.6753 28.9717 30.6529 28.917 30.6352C28.8942 30.6248 28.8687 30.6221 28.8443 30.6276C28.9123 30.7036 28.9868 30.7736 29.0669 30.8365C29.1186 30.8728 29.1615 30.9202 29.1924 30.9754C29.2131 31.0196 29.2589 31.0461 29.2733 31.0928C29.2953 31.1654 29.2733 31.2639 29.2733 31.3416C29.2658 31.4175 29.2815 31.494 29.3185 31.5606C29.3276 31.5708 29.3382 31.5795 29.3498 31.5865C29.3887 31.6187 29.4169 31.6623 29.454 31.697C29.6384 31.8605 29.8348 32.0097 30.0417 32.1433C30.1169 32.1951 30.2022 32.2298 30.2819 32.2753C30.4581 32.3833 30.6258 32.5047 30.7837 32.6383C30.9236 32.7494 31.0547 32.8712 31.1958 32.9817C31.2692 33.0391 31.347 33.0878 31.4241 33.1402C31.5703 33.2393 31.7277 33.3295 31.8707 33.435C31.9297 33.4792 31.9899 33.5202 32.0495 33.5612C32.0902 33.5896 32.1122 33.6345 32.1542 33.6641C32.2709 33.7521 32.3917 33.8337 32.5168 33.9091C32.6171 33.9722 32.72 34.0284 32.8241 34.0833C32.9038 34.1206 32.9822 34.1597 33.06 34.2001C33.0979 34.2281 33.1403 34.2495 33.1854 34.2632C33.2299 34.2683 33.2732 34.2752 33.3165 34.2828C33.3536 34.2922 33.3919 34.2956 33.43 34.2929C33.4326 34.2908 33.4357 34.2894 33.439 34.2888C33.4423 34.2881 33.4456 34.2882 33.4488 34.2891C33.4653 34.2909 33.4807 34.298 33.4927 34.3093C33.56 34.3391 33.6289 34.3651 33.6991 34.387C33.7588 34.4108 33.8234 34.4197 33.8873 34.4129C33.9174 34.4028 33.9441 34.3844 33.9644 34.3598C33.9983 34.3336 34.024 34.2981 34.0384 34.2576C34.0441 34.2399 34.0384 34.2336 34.0535 34.2153C34.11 34.2153 34.179 34.2664 34.2279 34.2885C34.4228 34.39 34.6113 34.5034 34.7924 34.6281C34.8739 34.6799 34.9574 34.7304 35.0433 34.779C35.2047 34.8716 35.3688 34.9591 35.5357 35.0416C35.6191 35.0827 35.7038 35.1224 35.7866 35.1616C35.815 35.1736 35.8441 35.1839 35.8738 35.1925C36.0619 35.421 36.2501 35.6546 36.4213 35.8958L36.4558 35.9412C36.4509 35.9787 36.4496 36.0165 36.4521 36.0542C36.4835 36.1577 36.5425 36.2505 36.6227 36.3225C36.8131 36.53 37.0188 36.7226 37.238 36.8989C37.3948 37.0727 37.5562 37.2423 37.7222 37.4078C37.6413 37.361 37.561 37.3137 37.4795 37.2701C37.1891 37.1136 36.888 36.9753 36.585 36.8415C36.3536 36.7398 36.124 36.6193 35.875 36.5549C35.8368 36.5396 35.7956 36.5333 35.7546 36.5366C35.976 36.7556 36.2325 36.9343 36.454 37.1546C36.587 37.2816 36.7287 37.3991 36.878 37.5062C37.0291 37.6186 37.1772 37.7341 37.3277 37.8465C37.4642 37.9602 37.6095 38.0625 37.7624 38.1527C37.8023 38.1733 37.8444 38.1894 37.8878 38.2007C37.8904 38.2062 37.8925 38.2119 37.8941 38.2177C37.8976 38.2134 37.9016 38.2096 37.906 38.2063C38.0628 38.2455 38.2322 38.2486 38.3721 38.3326C38.4236 38.3647 38.4734 38.3995 38.5213 38.4368C38.5252 38.4459 38.5272 38.4558 38.5272 38.4658C38.5272 38.4758 38.5252 38.4857 38.5213 38.4949C38.533 38.5079 38.5488 38.5165 38.566 38.5194C38.5832 38.5222 38.6008 38.5192 38.6161 38.5106L38.6988 38.5794C38.7103 38.5951 38.7254 38.6077 38.7427 38.6161L38.7823 38.6489C38.7638 38.6576 38.7493 38.6729 38.7415 38.6918L38.7848 38.724C38.8048 38.7322 38.8274 38.7556 38.8425 38.736C38.8383 38.7302 38.8361 38.7233 38.8361 38.7161C38.8361 38.709 38.8383 38.702 38.8425 38.6962C38.8682 38.7171 38.8952 38.7366 38.9221 38.7594C38.8544 38.7651 38.8544 38.8433 38.7823 38.8225C38.5941 38.7594 38.554 38.5346 38.2623 38.3995C38.3551 38.4627 38.2391 38.4305 38.2171 38.4627C38.3043 38.534 38.3927 38.7019 38.468 38.7152C38.4398 38.6937 38.4824 38.6375 38.5132 38.652C38.5627 38.8471 38.8789 38.9046 38.8563 39.1331C38.8851 39.0807 38.8764 39.0106 38.9541 39.0466C39.2903 39.4014 40.1039 39.9468 40.5348 40.3319C40.5429 40.2631 40.6847 40.4664 40.7336 40.5138C40.7602 40.4966 40.7906 40.4864 40.8221 40.4841C40.8497 40.5308 40.8885 40.5763 40.8848 40.6268C40.9078 40.6101 40.9363 40.6027 40.9645 40.6061C40.9927 40.6094 41.0187 40.6234 41.0372 40.6451L40.9745 40.7271C41.1539 40.8067 41.2047 40.8629 41.2498 41.0302C41.3126 41.0005 41.2128 40.9039 41.2893 40.9323C41.3301 40.9954 41.3872 41.0642 41.4543 41.0245C41.4342 41.0516 41.4781 41.0718 41.4669 41.0977C41.4545 41.0855 41.4382 41.078 41.4209 41.0766C41.4036 41.0752 41.3863 41.08 41.3721 41.0901C41.4073 41.2038 41.5873 41.1899 41.65 41.2997C41.7127 41.224 41.5478 41.1735 41.5979 41.1009C41.6431 41.1444 41.6563 41.2069 41.7234 41.1975C41.7234 41.2404 41.6889 41.2884 41.6908 41.3319C41.7842 41.3698 41.879 41.4051 41.9718 41.4474C41.9548 41.4696 41.9461 41.4971 41.9473 41.5251C42.0859 41.5649 42.1738 41.6753 42.2773 41.7094C42.1832 41.8212 42.3174 41.7599 42.2923 41.6892C42.2207 41.6456 42.1642 41.5808 42.1305 41.5036C42.1706 41.4828 42.2315 41.587 42.2616 41.5036C41.5089 40.8723 40.8597 40.4153 40.0876 39.8042C40.0537 39.8332 40.0807 39.8806 40.0424 39.8673C39.8956 39.7669 39.8304 39.5264 39.6447 39.5043H39.6259C39.5952 39.5043 39.6178 39.5182 39.6259 39.5043C39.6309 39.4967 39.6315 39.4828 39.6171 39.4525C39.5193 39.253 39.0953 39.1887 38.9899 38.9475C38.9466 39.0378 38.8738 38.8812 38.8644 38.8509C38.9008 38.8509 38.9272 38.7985 38.9642 38.7878C38.9767 38.7966 38.9899 38.8042 39.0024 38.8124C39.0024 38.8806 39.1806 38.8755 39.0231 38.9052C39.0576 38.9803 39.2314 39.0984 39.1818 38.9614C39.2533 38.9803 39.1912 39.106 39.274 39.0624C39.1705 39.0207 39.449 38.9923 39.4264 39.0813C39.3825 39.0813 39.3324 39.0409 39.2947 39.0782C39.3763 39.1912 39.6159 39.4109 39.7595 39.3938C39.8398 39.4778 39.9262 39.5556 40.0179 39.6268C40.1083 39.707 40.3165 39.9664 40.4307 39.7455C40.3541 39.6987 40.2914 39.7335 40.2074 39.6419C40.2469 39.6047 40.2143 39.5788 40.2437 39.5403L40.361 39.6236C40.36 39.6382 40.3635 39.6527 40.371 39.6651C40.3785 39.6775 40.3897 39.6873 40.4031 39.6931C40.4069 39.6827 40.4132 39.6734 40.4212 39.6659L40.5749 39.7726C40.5724 39.7767 40.5701 39.7809 40.568 39.7852C40.6559 39.8871 40.7722 39.9601 40.9017 39.9948L40.9186 40.0062L40.9255 40.0138C40.9789 40.0722 41.0214 40.1397 41.051 40.2133C41.0672 40.2765 41.0613 40.3434 41.0341 40.4026C41.0256 40.4121 41.0202 40.4239 41.0185 40.4365C41.0168 40.4492 41.019 40.462 41.0246 40.4733C41.0501 40.4993 41.0798 40.5206 41.1125 40.5365C41.201 40.5815 41.2936 40.6178 41.3891 40.6451C41.5691 40.8206 41.6958 40.931 41.9134 41.1166C42.0546 41.0535 42.1531 41.306 42.2741 41.26C42.2587 41.2517 42.2469 41.2382 42.2406 41.2218C42.2344 41.2055 42.2343 41.1874 42.2402 41.1709C42.2898 41.2448 42.3155 41.1779 42.3563 41.1943C42.3117 41.2315 42.4566 41.3565 42.5332 41.3597C42.5097 41.3148 42.5011 41.2634 42.5087 41.2132C42.6141 41.2309 42.6247 41.265 42.71 41.301C42.69 41.3269 42.6617 41.3092 42.6436 41.3464C42.7004 41.3954 42.7705 41.426 42.8449 41.4342C42.88 41.3616 42.7772 41.3079 42.7558 41.2397C42.7774 41.2513 42.7998 41.261 42.8229 41.2688C42.8518 41.3046 42.8819 41.3399 42.9133 41.3748C42.9039 41.3995 42.897 41.4235 42.9396 41.4418C42.9459 41.4355 42.9515 41.4279 42.9578 41.4203C42.9741 41.4386 42.9917 41.4557 43.0086 41.4733C42.9974 41.4846 42.9829 41.4919 42.9672 41.4942C43.0795 41.532 42.9672 41.6918 43.1077 41.664C43.0663 41.6185 43.0274 41.5724 43.0525 41.5182C43.1054 41.5682 43.1627 41.6132 43.2238 41.6526C43.4069 41.7688 43.58 41.9007 43.7519 42.0314C43.7569 42.0945 43.8497 42.1798 43.9024 42.1646C43.8965 42.1551 43.8912 42.1452 43.8867 42.1349L43.9965 42.2195C44.0649 42.2707 44.1345 42.3186 44.2041 42.3679C44.2079 42.5024 44.5861 42.6476 44.4776 42.693L44.4833 42.6993C44.409 42.683 44.3323 42.6815 44.2574 42.6949C44.2192 42.705 44.1358 42.741 44.1433 42.7965C44.1646 42.8335 44.1932 42.8657 44.2273 42.8912C44.2853 42.9482 44.3483 42.9997 44.4155 43.0453C44.4563 43.0768 44.4983 43.1084 44.541 43.14C44.5798 43.1658 44.6145 43.1976 44.6438 43.234C44.6995 43.3101 44.7671 43.3766 44.8439 43.431C44.795 43.431 44.7542 43.4828 44.6965 43.431C44.7078 43.4181 44.714 43.4015 44.714 43.3843C44.714 43.3671 44.7078 43.3505 44.6965 43.3376C44.4531 43.1286 43.8686 42.7959 43.5556 42.5169C43.5571 42.5202 43.5579 42.5239 43.5579 42.5276C43.5579 42.5313 43.5571 42.535 43.5556 42.5383C43.2835 42.3493 43.0287 42.1364 42.7941 41.902C42.742 41.9266 42.6925 41.9613 42.6323 41.9399C42.6586 41.8723 42.7057 41.9304 42.7364 41.89C42.7057 41.8654 42.4309 41.6154 42.4278 41.7221C42.5037 41.7486 42.6523 41.8155 42.6109 41.9241C42.5752 41.8786 42.5852 41.813 42.5194 41.8224C42.5112 41.9923 42.7006 41.9942 42.7075 42.1551C42.7521 42.1981 42.7753 42.1135 42.8173 42.1419C42.8907 42.2107 42.9873 42.4165 43.0255 42.4897C43.1617 42.503 43.2137 42.6236 43.3279 42.6217C43.3084 42.7479 43.5016 42.7347 43.516 42.8603C43.5838 42.8092 43.4922 42.7763 43.516 42.7303C43.5788 42.8268 43.5888 42.6476 43.6415 42.6968C43.6885 42.7694 43.7099 42.8451 43.819 42.8622C43.7889 42.9032 43.8579 42.9316 43.8008 42.9758C43.9307 43.0592 43.9419 43.1273 44.0574 43.169C44.0925 43.2321 43.9564 43.2138 44.0034 43.2877C44.071 43.2927 44.1372 43.3103 44.1985 43.3395C44.2612 43.3041 44.1596 43.198 44.2531 43.2208C44.2531 43.2536 44.2286 43.2839 44.2568 43.3508C44.3258 43.3571 44.2669 43.2807 44.3233 43.3054C44.3408 43.3167 44.355 43.3323 44.3647 43.3508C44.3743 43.3693 44.3791 43.3899 44.3785 43.4108C44.348 43.4004 44.3154 43.398 44.2838 43.4039C44.3465 43.4967 44.3867 43.4241 44.4368 43.4228C44.7991 43.8127 45.233 44.1283 45.7145 44.3521C45.6919 44.33 45.6518 44.3098 45.6656 44.2833C45.7967 44.3817 45.7703 44.4455 45.956 44.5661C46.0256 44.5718 45.9667 44.496 46.0231 44.5206C45.924 44.6766 46.5651 44.9764 46.3813 44.9815C46.4559 45.0219 46.449 45.1077 46.4609 45.0093C46.5237 45.0515 46.5795 45.0945 46.5237 45.1513C46.4108 45.1084 46.3631 45.0295 46.2828 44.9379C46.3098 45.0983 46.4823 45.2195 46.6071 45.3091C46.7319 45.3988 46.8373 45.407 46.9207 45.5143C47.0041 45.6216 47.1158 45.746 47.2782 45.7517C47.2638 45.7782 47.2312 45.8072 47.2538 45.8293C47.2892 45.7992 47.3295 45.7755 47.3729 45.7592C47.4131 45.7851 47.4074 45.8167 47.3698 45.8527C47.457 45.9259 47.5229 45.8748 47.6019 45.8994C47.5857 45.9221 47.5618 45.9383 47.5348 45.9448C47.7794 46.2333 48.1727 46.1721 48.2592 46.3621C48.2335 46.3956 48.1909 46.3287 48.1645 46.3546C48.1746 46.4246 48.2385 46.4177 48.29 46.4511C48.3364 46.3994 48.2981 46.3577 48.332 46.3072L48.3885 46.3482C48.3914 46.3589 48.3921 46.3701 48.3905 46.3811C48.3889 46.392 48.385 46.4025 48.3791 46.4119C48.3732 46.4212 48.3653 46.4292 48.3562 46.4353C48.347 46.4415 48.3366 46.4455 48.3257 46.4474C48.3648 46.49 48.3975 46.538 48.4229 46.59C48.4568 46.5679 48.4932 46.5616 48.5264 46.5395C48.5032 46.4928 48.4255 46.4524 48.4292 46.4025C48.5214 46.4871 48.5961 46.4657 48.6425 46.5635C48.6512 46.554 48.6619 46.5464 48.6738 46.5414C48.7993 46.6222 48.9185 46.7049 49.0358 46.7939C49.1258 46.8721 49.2216 46.9432 49.3224 47.0067C49.3916 47.0415 49.4626 47.0727 49.535 47.1001C49.6458 47.145 49.7522 47.2 49.8531 47.2643C49.9653 47.3362 50.0713 47.417 50.1767 47.4991C50.2917 47.5834 50.3913 47.6872 50.4709 47.8059C50.5175 47.89 50.5756 47.9671 50.6434 48.0351C50.718 48.0982 50.8002 48.1557 50.8792 48.215C50.984 48.2933 51.0887 48.3716 51.1928 48.4511C51.2764 48.5196 51.3673 48.5784 51.4638 48.6266C51.4933 48.6405 51.5228 48.6519 51.5529 48.6632C51.302 48.8109 51.1483 48.9757 50.9256 49.1828C50.4013 49.6758 49.7721 50.0407 49.254 50.5407C49.2072 50.5872 49.1651 50.6384 49.1286 50.6935L48.6469 51.0723C48.6059 51.0617 48.5633 51.0591 48.5214 51.0647C48.2078 51.1089 47.7418 51.5767 47.4978 51.7894C47.0695 52.173 46.6205 52.5325 46.153 52.8664C46.2039 52.8783 46.2533 52.8959 46.3004 52.9188L45.8412 53.2818C45.8469 53.2749 45.8531 53.2679 45.8582 53.261C45.7998 53.2869 45.7396 53.3014 45.6813 53.3241C45.612 53.3554 45.5499 53.4008 45.4988 53.4573C45.4442 53.5078 45.3877 53.5577 45.3313 53.6057C45.2943 53.6372 45.2159 53.6852 45.1983 53.7319C45.222 53.7376 45.2467 53.7376 45.2704 53.7319L44.2568 54.5299C44.2788 54.5019 44.3034 54.4762 44.3302 54.4529C44.371 54.3973 44.4067 54.3266 44.4412 54.2793C44.4757 54.2319 44.5159 54.1783 44.5573 54.1322C44.6143 54.0691 44.6928 54.0217 44.7454 53.9567C44.7712 53.9251 44.7887 53.8841 44.8082 53.8531C44.7536 53.8772 44.7043 53.912 44.6633 53.9554C44.5924 54.0135 44.5203 54.0697 44.4506 54.1303C44.3868 54.1845 44.3276 54.244 44.2738 54.3083C44.2295 54.3707 44.1748 54.4248 44.1119 54.468C44.021 54.5312 43.878 54.5943 43.8184 54.6909C43.8278 54.7004 43.8397 54.7294 43.8522 54.7332C43.8805 54.7414 43.9777 54.6738 44.0015 54.6618C44.0521 54.6357 44.1059 54.6163 44.1615 54.6044L42.8807 55.6145C42.8537 55.73 42.7615 55.7893 42.6793 55.85C42.5539 55.9421 42.4284 56.0393 42.303 56.1334C42.1462 56.2224 41.9981 56.3045 41.9009 56.4623C41.5697 56.7439 41.253 57.0393 40.9475 57.3461C40.8541 57.392 40.7665 57.449 40.6866 57.516C40.6201 57.5841 40.6314 57.605 40.6621 57.6422C40.5107 57.8 40.3621 57.9606 40.2161 58.1239C40.2017 58.1332 40.1886 58.1444 40.1772 58.1574C40.1692 58.1674 40.1625 58.1784 40.1572 58.1902C40.0832 58.2744 40.0098 58.3585 39.937 58.4427C39.0871 58.485 38.882 59.5159 38.2115 59.9414C37.9424 60.1125 37.6507 60.0677 37.3183 60.1662C37.1157 60.2293 36.804 60.2886 36.6371 60.4231C36.3624 60.6434 36.2708 60.9818 35.897 61.1908C35.4027 61.4679 34.867 61.3953 34.3747 61.6182C33.4896 62.019 32.8272 63.2191 32.2163 63.9268C31.7967 64.4129 31.3915 64.8738 30.8502 65.238C29.1121 66.3984 27.5327 67.7916 25.8718 69.0751C25.4547 69.397 25.0394 69.7417 24.7189 70.159C24.6129 70.2966 24.5113 70.6009 24.4015 70.7057C24.2918 70.8105 24.1412 70.7689 24.0283 70.8604C23.652 71.1685 23.8884 71.5763 23.6783 71.9488C23.3616 72.5119 22.5048 73.0112 22.0218 73.4513C21.8894 73.5718 21.7665 73.7353 21.6454 73.842C21.3732 74.0775 21.0677 74.2139 20.7786 74.4235C19.987 74.9998 19.3178 75.7157 18.8799 76.5377C18.4986 77.2536 17.8318 77.8192 17.4373 78.5579C17.2899 78.8331 17.1864 79.0913 17.1764 79.2902C16.0787 80.2857 14.833 81.0799 13.6086 81.9006C12.2161 82.8343 10.8488 83.8033 9.58612 84.9106C8.70798 85.6777 7.97348 86.5602 7.42465 87.5918C7.07402 88.2496 6.8708 88.9541 6.89965 89.7111C6.92035 90.2464 7.10287 90.3802 7.61847 90.2376C7.98916 90.1347 8.29212 89.9112 8.59069 89.6763C9.60682 88.8777 10.3764 87.8456 11.1799 86.8557C12.3033 85.4668 13.406 84.0679 14.7238 82.8564C15.2714 82.3513 15.8767 81.9561 16.6125 81.7832C16.9976 81.6916 17.3413 81.7529 17.707 81.9637C17.4937 82.3027 17.2366 82.5508 17.044 82.8475C15.7435 84.8555 14.4334 86.8569 13.1137 88.8518C12.8365 89.2717 12.5718 89.7085 12.1835 90.0368C11.2201 90.8506 10.3645 91.7716 9.48639 92.6763C9.10961 93.0717 8.78054 93.5106 8.50601 93.9837C7.91452 94.9843 7.90386 96.0758 8.12967 97.1636C8.27895 97.8782 8.83657 98.1692 9.5604 98.0474C9.97264 97.9767 10.3759 97.8605 10.7628 97.7008C11.1662 97.5268 11.5787 97.3751 11.9985 97.2463C12.5109 97.1004 12.7888 97.2557 12.972 97.7614C13.0648 98.0139 13.0911 98.2955 13.1752 98.555C13.3044 98.9527 13.2781 99.2936 12.9287 99.5739C12.7974 99.6814 12.7085 99.8325 12.6778 100H12.9287C13.3427 99.4438 13.7347 98.8776 13.963 98.2103C14.037 97.9944 14.1681 97.7968 14.2766 97.5947C15.2175 95.9085 16.583 94.6175 18.0727 93.4477C20.0058 91.9326 22.1422 90.7249 24.2328 89.451C26.292 88.1959 28.3099 86.8853 29.9495 85.0754C30.8496 84.0811 31.7534 83.09 32.6403 82.0837C33.7148 80.8646 34.9053 79.7845 36.3072 78.96C37.9669 77.9846 39.6504 77.0503 41.3013 76.0611C43.151 74.9531 44.7818 73.5952 45.9786 71.7575C47.6577 69.1786 49.8104 67.0448 52.2096 65.1553C54.7186 63.1794 57.437 61.5241 60.2527 60.0418C61.6326 59.3145 62.8062 58.3884 63.7609 57.1542C64.2708 56.4945 64.7902 55.8323 65.4682 55.3285C65.6225 55.2136 65.7574 55.1057 65.8226 54.9093C65.906 54.6568 65.6037 54.5993 65.5642 54.4295C65.704 54.3089 65.8314 54.3348 65.9556 54.3298C66.6493 54.302 66.7835 54.0634 66.5126 53.4112C66.3181 52.9441 66.0628 52.5104 65.8345 52.0615C65.7304 51.8551 65.6238 51.648 65.6281 51.4069C65.6319 51.2175 65.6971 51.0817 65.9016 51.0445C66.2071 50.9883 66.6487 51.1827 66.7854 51.482C66.905 51.7525 67.1152 51.9722 67.3794 52.1025C68.1428 52.4996 68.9557 52.458 69.7711 52.3797C69.9956 52.3538 70.0527 52.2156 69.9523 52.0192ZM22.5656 16.3248C22.469 16.4385 22.3323 16.3879 22.225 16.3248C22.1311 16.274 22.0512 16.2005 21.9925 16.1109C21.9338 16.0213 21.8982 15.9185 21.8888 15.8116C22.1485 15.7611 22.3122 15.893 22.4721 16.0142C22.5706 16.0887 22.6741 16.1967 22.5656 16.3248ZM23.4255 17.5293C23.3465 17.5811 23.2675 17.5483 23.2016 17.4965C23.0555 17.3816 23.0229 17.2857 22.9325 16.7629C23.2336 16.8823 23.4914 17.191 23.4782 17.4258C23.4768 17.4457 23.4714 17.4652 23.4624 17.483C23.4533 17.5008 23.4408 17.5165 23.4255 17.5293ZM23.4688 14.4663C23.3522 14.6197 23.196 14.5035 23.0737 14.4423C22.5907 14.1992 22.104 13.9612 21.6392 13.6847C21.3463 13.5194 21.1109 13.2675 20.9649 12.9631C20.9072 12.8369 20.894 12.7157 21.0903 12.6873C21.3782 12.8032 21.6383 12.9792 21.8537 13.2037C22.1673 13.5111 22.4609 13.8053 22.9545 13.7611C23.1157 13.7472 23.2643 13.8766 23.3685 14.0136C23.4726 14.1506 23.5918 14.304 23.4688 14.4663ZM27.9429 17.8058C27.6764 17.6985 27.4574 17.5022 27.253 17.8261C27.1601 17.9725 26.9469 17.9296 26.7869 17.8646C25.9136 17.5094 25.1582 16.9122 24.6085 16.1424C24.55 16.0557 24.5039 15.9611 24.4718 15.8614C24.4091 15.6859 24.4718 15.5849 24.66 15.5553C25.6466 15.4 27.618 16.6146 27.9385 17.5798C27.9536 17.6177 27.9429 17.6625 27.9429 17.8058ZM32.5393 32.2424C32.4998 32.229 32.4618 32.2114 32.4258 32.19C32.3784 32.1651 32.3291 32.144 32.2784 32.1269C32.238 32.1085 32.1988 32.0874 32.1611 32.0638C32.1339 32.0514 32.108 32.0362 32.084 32.0183C32.0382 31.976 32.0419 31.8864 32.0557 31.8214C32.0565 31.8185 32.0576 31.8158 32.0589 31.8132C32.1172 31.8864 32.1749 31.9666 32.2238 31.9741C32.1956 31.9527 32.2389 31.8971 32.2696 31.911C32.3073 32.0606 32.4992 32.1288 32.5789 32.2551L32.5393 32.2424ZM32.7771 32.2544C32.7667 32.2407 32.7575 32.2261 32.7495 32.2109C32.7056 32.3012 32.6328 32.1446 32.624 32.1143C32.6729 32.1105 32.7081 32.0209 32.7645 32.06C32.725 32.1465 32.9527 32.1389 32.7827 32.1698C32.7985 32.1988 32.8199 32.2243 32.8454 32.245C32.8225 32.2469 32.7997 32.25 32.7771 32.2544ZM32.9445 32.2513C32.9432 32.2425 32.9411 32.2338 32.9383 32.2254C32.9475 32.228 32.9557 32.2331 32.9621 32.2403C32.9684 32.2475 32.9726 32.2563 32.974 32.2658C32.9646 32.2602 32.9547 32.2554 32.9445 32.2513ZM33.0562 32.3403C33.0447 32.3253 33.0321 32.3112 33.0186 32.298C33.0575 32.285 33.0993 32.2837 33.139 32.2942L33.1835 32.3397C33.1838 32.3415 33.1838 32.3435 33.1835 32.3453C33.1409 32.3447 33.0926 32.3094 33.0556 32.3403H33.0562ZM33.1816 32.5227C33.1407 32.4798 33.1058 32.4314 33.0781 32.3788C33.1431 32.4548 33.2175 32.5221 33.2996 32.5789C33.2582 32.5833 33.2274 32.5619 33.1841 32.5227H33.1816ZM35.7351 23.432C35.7369 23.4294 35.7387 23.4268 35.7408 23.4244L35.7577 23.4352C35.7671 23.4554 35.7746 23.4775 35.7822 23.4983C35.7571 23.4983 35.7314 23.492 35.7057 23.4876C35.7131 23.4664 35.7239 23.4466 35.7376 23.4288L35.7351 23.432ZM35.7452 23.6946C35.7639 23.7158 35.7788 23.7402 35.7891 23.7666C35.7464 23.7156 35.7158 23.6557 35.6994 23.5911C35.7552 23.6028 35.8082 23.6258 35.8549 23.6586L35.8876 23.7117C35.8979 23.7255 35.9075 23.7398 35.9164 23.7546C35.895 23.7318 35.8686 23.7142 35.8393 23.7033C35.8101 23.6923 35.7787 23.6883 35.7477 23.6915L35.7452 23.6946ZM44.4958 42.5813C44.4943 42.5773 44.4924 42.5735 44.4902 42.5699L44.5008 42.5775L44.4958 42.5813ZM44.8784 43.4651C44.8872 43.4727 44.896 43.479 44.9041 43.4866C44.9669 43.5421 45.0346 43.5989 45.0998 43.6551C45.0164 43.597 44.9192 43.5446 44.8784 43.4619V43.4651ZM45.2259 43.8035C45.2216 43.7816 45.2124 43.7611 45.1989 43.7435C45.2228 43.765 45.2454 43.7877 45.2686 43.8066C45.2611 43.8087 45.2533 43.8093 45.2456 43.8082C45.238 43.8071 45.2306 43.8044 45.224 43.8003L45.2259 43.8035ZM52.0967 32.9325C52.0747 32.9367 52.0535 32.9446 52.034 32.9558C51.9712 32.8971 51.9085 32.8359 51.8458 32.7753C51.9255 32.8338 52.0093 32.8863 52.0967 32.9325ZM51.6137 32.5051C51.6639 32.548 51.7141 32.5859 51.7567 32.5815C51.7197 32.6086 51.7247 32.6446 51.7567 32.6856L51.721 32.6515L51.5955 32.5253C51.6027 32.5196 51.6089 32.5128 51.6137 32.5051ZM52.1287 48.3337C52.082 48.3059 52.0375 48.2744 51.9957 48.2396C51.8703 48.1449 51.7448 48.0502 51.63 47.9442C51.5353 47.8583 51.4557 47.7598 51.3678 47.6677C51.3209 47.6247 51.27 47.5863 51.2161 47.5528C51.1483 47.5048 51.0799 47.4568 51.0103 47.4114C50.9407 47.3659 50.861 47.4063 50.7914 47.3665C50.744 47.3349 50.7017 47.2962 50.666 47.2516C50.619 47.2019 50.5758 47.1487 50.5367 47.0925C50.5164 47.056 50.4889 47.024 50.4558 46.9985C50.3931 46.9518 50.3304 46.9063 50.2677 46.8577C50.1968 46.8038 50.1488 46.7248 50.1334 46.6367C50.1251 46.6003 50.1202 46.5631 50.119 46.5256C50.119 46.5256 50.124 46.4814 50.1234 46.4789C50.1228 46.4764 50.1065 46.4606 50.0989 46.4537C50.0143 46.376 49.9258 46.3028 49.8361 46.2308C49.7213 46.1368 49.604 46.0458 49.4962 45.9436C49.4407 45.9019 49.3951 45.8485 49.3626 45.787C49.4686 45.8388 49.5711 45.8976 49.6693 45.9631C49.8428 46.0894 50.0124 46.222 50.178 46.3609C50.3542 46.5067 50.5386 46.6475 50.7281 46.775C50.8322 46.8457 50.9407 46.9133 51.0492 46.977L51.0655 46.9846L51.0925 47.001C51.1157 47.013 51.1389 47.0237 51.1627 47.0351C51.2537 47.0919 51.2882 47.155 51.3246 47.28C51.3904 47.2497 51.2876 47.1538 51.3635 47.1822C51.4005 47.2365 51.45 47.2939 51.5077 47.2788C51.5204 47.301 51.5317 47.324 51.5416 47.3476C51.5293 47.3352 51.513 47.3277 51.4956 47.3263C51.4783 47.3249 51.461 47.3298 51.4469 47.34C51.4814 47.4536 51.662 47.4398 51.7247 47.549C51.7294 47.5435 51.7329 47.537 51.7348 47.53C51.7368 47.523 51.7372 47.5157 51.736 47.5086L51.7787 47.53C51.7717 47.5462 51.7679 47.5636 51.7674 47.5812C51.8609 47.6197 51.9556 47.655 52.0484 47.6973C52.0313 47.7192 52.0228 47.7466 52.0246 47.7743C52.1632 47.8141 52.251 47.9252 52.3545 47.9593C52.2604 48.0711 52.394 48.0098 52.3695 47.9391C52.2973 47.8944 52.2405 47.8282 52.2071 47.7497C52.2385 47.7339 52.2817 47.7914 52.3137 47.7819C52.3187 47.7857 52.3244 47.7882 52.33 47.7927C52.3959 47.8443 52.4587 47.8998 52.5182 47.9587C52.5132 47.9628 52.5101 47.9687 52.5094 47.9751L52.5471 47.9896L52.5533 47.9966L52.1287 48.3337ZM54.7719 34.8926C54.7643 34.8693 54.7587 34.8535 54.7957 34.868C54.8078 34.8719 54.8188 34.8784 54.8281 34.887C54.8375 34.8956 54.8448 34.9061 54.8497 34.9179L54.7719 34.8926ZM55.0541 34.9823C55.0792 34.9741 55.0993 34.9394 55.1288 34.9589C55.1282 34.9751 55.1299 34.9912 55.1338 35.0069L55.0541 34.9823ZM55.3533 35.077C55.2906 35.0568 55.2316 35.0372 55.1702 35.0183C55.1676 35.0142 55.1662 35.0095 55.1662 35.0047C55.1662 34.9999 55.1676 34.9952 55.1702 34.9911C55.2247 35.012 55.3583 34.9482 55.3659 35.0423C55.3471 35.0549 55.3452 35.0663 55.3533 35.077ZM60.8103 41.8168C60.6479 41.7833 60.4766 41.7846 60.3179 41.7385C60.261 41.7248 60.2114 41.6898 60.1793 41.6406L60.274 41.6551C60.2866 41.6588 60.2998 41.66 60.3129 41.6584C60.3259 41.6569 60.3385 41.6528 60.3499 41.6463C60.397 41.6211 60.3926 41.5396 60.4189 41.4998C60.4328 41.4827 60.4514 41.47 60.4723 41.4634C60.4933 41.4568 60.5157 41.4565 60.5368 41.4626C60.584 41.4695 60.6294 41.4856 60.6704 41.5099H60.6798C60.7231 41.5301 60.7658 41.5529 60.8084 41.5731C60.7856 41.5618 60.7604 41.5564 60.735 41.5573C60.7808 41.6293 60.646 41.5295 60.6247 41.5706C60.7249 41.6246 60.8388 41.6479 60.9521 41.6375C61.0121 41.6626 61.0706 41.6915 61.1271 41.724C61.1051 41.8136 61.0242 41.8616 60.8116 41.8168H60.8103ZM60.8548 41.5958L60.9176 41.6229C60.9179 41.6253 60.9179 41.6276 60.9176 41.6299L60.8548 41.5958ZM61.1001 39.6053C61.0243 39.5651 60.9443 39.5331 60.8617 39.51C60.8321 39.5047 60.8032 39.4956 60.7758 39.4828C60.7438 39.4033 60.7131 39.3244 60.683 39.2429C60.8558 39.3427 61.011 39.4707 61.1421 39.6217L61.1001 39.6053ZM62.7792 42.0409C62.7836 42.0503 62.788 42.0598 62.7918 42.0693C62.7822 42.0658 62.7723 42.0635 62.7623 42.0623C62.7703 42.0571 62.7766 42.0496 62.7805 42.0409H62.7792ZM62.756 41.9916C62.7196 41.962 62.6619 41.9342 62.7102 41.8931C62.724 41.9266 62.7416 41.9588 62.7573 41.9916H62.756ZM62.6933 41.8508V41.8546L62.6851 41.8483L62.6933 41.8508ZM62.8012 42.337C62.5992 42.2795 62.3966 42.2252 62.2009 42.1596C62.2009 42.1596 62.2009 42.1558 62.2009 42.1532C62.2254 42.0826 62.2688 42.0201 62.3264 41.9727C62.4035 41.9096 62.465 41.8174 62.5647 41.8212C62.5852 41.8231 62.6052 41.828 62.6243 41.8357C62.6243 41.8988 62.5616 41.9493 62.4687 41.9096C62.4819 41.9266 62.4807 41.9462 62.46 41.967C62.5453 42.0125 62.5459 42.0686 62.5791 42.1204C62.6237 42.1191 62.6681 42.1272 62.7094 42.1443C62.7507 42.1614 62.7879 42.187 62.8187 42.2195C62.8213 42.2592 62.8164 42.2991 62.8043 42.337H62.8012ZM11.2803 11.5017C11.7231 11.9114 12.1885 12.3034 12.7104 12.6178C12.9376 12.7667 13.1877 12.8768 13.4505 12.9436C13.6199 12.9802 13.81 12.9928 13.899 12.8243C13.9881 12.6557 13.8056 12.5673 13.7071 12.4739C13.2373 12.0282 12.7587 11.5901 12.287 11.1481C11.4158 10.3331 10.4988 9.57684 9.47133 8.96448C9.03227 8.70122 8.56873 8.47774 8.11649 8.23596L8.05377 8.36222C8.08214 8.4162 8.11554 8.46735 8.1535 8.51499C9.14956 9.56043 10.224 10.5238 11.2803 11.5017ZM17.8136 9.33379C17.3595 8.88241 16.8728 8.47206 16.285 8.2006C16.0969 8.11285 15.8962 8.04088 15.6835 8.11727C15.5882 8.15136 15.4696 8.1804 15.4621 8.30666C15.4605 8.35994 15.4784 8.41196 15.5124 8.45282C15.5464 8.49368 15.5941 8.52053 15.6465 8.52825C16.4099 8.67408 17.0848 9.04591 17.8136 9.33379ZM7.65234 7.9948C7.63854 7.83066 7.55072 7.76564 7.47985 7.6924C6.31607 6.49056 5.08777 5.35378 3.80046 4.28717C3.01076 3.6344 2.18657 3.02456 1.22877 2.63126C0.940867 2.51195 0.645437 2.39894 0.32429 2.4141C0.023842 2.43177 -0.0664806 2.55993 0.0476771 2.8156C0.124166 2.96483 0.211594 3.10811 0.309236 3.24426C0.759595 3.94311 1.38495 4.46456 2.0423 4.94877C3.73585 6.19748 5.63011 7.07436 7.49929 7.99859C7.53065 8.01752 7.57707 7.99859 7.65234 7.9948ZM44.3772 54.4074C44.3627 54.4235 44.3472 54.4387 44.3308 54.4529C44.329 54.4562 44.3269 54.4593 44.3246 54.4624L44.3772 54.4074ZM40.3316 57.2773C40.2469 57.3468 40.1609 57.4143 40.0725 57.4793C40.0022 57.5311 39.9696 57.5576 39.9878 57.6346C40.0236 57.6056 40.0769 57.5463 40.1214 57.5437C40.1619 57.5469 40.2014 57.5583 40.2375 57.5772C40.3033 57.6018 40.324 57.5772 40.3704 57.5235C40.4087 57.4301 40.4788 57.3533 40.568 57.307C40.6177 57.2861 40.6652 57.2603 40.7098 57.23C40.7577 57.1874 40.7953 57.1342 40.8195 57.0747C40.9042 56.9169 41.0485 56.8405 41.1896 56.73C41.268 56.6669 41.3376 56.598 41.4098 56.5305C41.4725 56.4743 41.5283 56.4169 41.5867 56.3588C41.6129 56.336 41.637 56.3108 41.6588 56.2837C41.5926 56.3346 41.5228 56.3806 41.4499 56.4213C41.3615 56.4762 41.2755 56.552 41.184 56.598C41.0924 56.6441 41.0083 56.6384 40.9331 56.7388C40.8971 56.8057 40.8551 56.8691 40.8076 56.9282C40.7674 56.967 40.7212 56.999 40.6709 57.0229C40.6082 57.0513 40.5505 57.0734 40.4896 57.1043C40.4694 57.1147 40.4484 57.1236 40.4269 57.1309C40.4482 57.1826 40.3761 57.2413 40.3316 57.2773ZM37.6344 59.6649C37.6514 59.7956 37.7279 59.8152 37.859 59.7558C37.9478 59.7202 38.0332 59.6767 38.1143 59.6258C38.1977 59.5797 38.3601 59.514 38.416 59.425C38.495 59.2988 38.4241 59.1472 38.5107 59.0134C38.6292 58.8303 38.8387 58.6902 39.0081 58.5519C39.1599 58.4257 39.259 58.2792 39.3844 58.1327C39.2176 58.151 38.9692 58.3379 38.8324 58.4484C38.7158 58.5418 38.6211 58.6472 38.5138 58.7451C38.4216 58.8291 38.3012 58.8613 38.1971 58.9263C38.0816 58.9983 38.1117 59.0222 38.1807 59.1024C38.0898 59.3044 37.6012 59.4219 37.6344 59.6649Z" fill="url(#paint0_linear_255_175)"/>
<defs>
<linearGradient id="paint0_linear_255_175" x1="35" y1="0" x2="35" y2="100" gradientUnits="userSpaceOnUse">
<stop stop-color="#D51321"/>
<stop offset="1" stop-color="#850000"/>
</linearGradient>
</defs>
</svg>
