<svg width="40" height="40" viewBox="0 0 40 40" fill="none" xmlns="http://www.w3.org/2000/svg">
<path d="M19.9674 0C9.4458 0 0.81533 8.0985 0 18.3919L10.7371 22.8255C11.6501 22.2068 12.7459 21.8431 13.9332 21.8431C14.0372 21.8431 14.1424 21.8493 14.2464 21.8493L19.0219 14.9483V14.8508C19.0219 10.6909 22.4072 7.31227 26.5752 7.31227C30.7433 7.31227 34.1349 10.6972 34.1349 14.857C34.1349 19.0169 30.7433 22.3956 26.5752 22.3956H26.4062L19.5955 27.2454C19.5955 27.3366 19.6017 27.4216 19.6017 27.5129C19.6017 30.6378 17.0706 33.1702 13.9395 33.1702C11.213 33.1702 8.9035 31.2165 8.37498 28.6266L0.691339 25.4492C3.0722 33.8477 10.7897 40 19.9674 40C31.0301 40 40 31.049 40 20.0006C40 8.95222 31.0314 0.00124996 19.9674 0.00124996V0ZM12.5506 30.3503L10.0908 29.3341C10.5279 30.2391 11.2844 30.994 12.2888 31.4178C14.4543 32.3165 16.9528 31.2878 17.8533 29.1266C18.2904 28.0716 18.2904 26.9267 17.8596 25.8779C17.4288 24.823 16.6072 24.0093 15.5564 23.573C14.5194 23.1368 13.4035 23.1568 12.4253 23.5205L14.9627 24.5692C16.5608 25.2392 17.3173 27.0692 16.6523 28.6641C15.9872 30.2591 14.1474 31.014 12.5493 30.3503H12.5506ZM31.6112 14.8433C31.6112 12.0759 29.3544 9.81719 26.5815 9.81719C23.7961 9.81719 21.5455 12.0759 21.5455 14.8433C21.5455 17.617 23.7961 19.8694 26.5815 19.8694C29.3544 19.8694 31.6112 17.617 31.6112 14.8433ZM22.8117 14.837C22.8117 12.7471 24.5012 11.0609 26.589 11.0609C28.6768 11.0609 30.3789 12.7471 30.3789 14.837C30.3789 16.9207 28.6768 18.6132 26.589 18.6132C24.5012 18.6132 22.8117 16.9207 22.8117 14.837Z" fill="url(#paint0_linear_332_134)"/>
<defs>
<linearGradient id="paint0_linear_332_134" x1="20" y1="0" x2="20" y2="40" gradientUnits="userSpaceOnUse">
<stop stop-color="#D51321"/>
<stop offset="1" stop-color="#850000"/>
</linearGradient>
</defs>
</svg>
