<svg width="25" height="26" viewBox="0 0 25 26" fill="none" xmlns="http://www.w3.org/2000/svg">
<path d="M0 6.75C0 3.29822 2.79822 0.5 6.25 0.5H18.75C22.2018 0.5 25 3.29822 25 6.75V19.25C25 22.7018 22.2018 25.5 18.75 25.5H6.25C2.79822 25.5 0 22.7018 0 19.25V6.75Z" fill="#4E050E"/>
<path d="M23.6248 1.8752C22.7083 0.958456 21.604 0.5 20.3129 0.5H4.68754C3.3964 0.5 2.29215 0.958456 1.37522 1.8752C0.458464 2.79211 0 3.89629 0 5.18746V20.8124C0 22.1034 0.458464 23.2077 1.37522 24.1246C2.29215 25.0415 3.3964 25.5 4.68754 25.5H20.3127C21.6038 25.5 22.7081 25.0415 23.6246 24.1246C24.5415 23.2077 25 22.1035 25 20.8124V5.18746C24.9999 3.89629 24.5415 2.79194 23.6248 1.8752ZM19.1246 10.1192C19.1355 10.2169 19.141 10.3631 19.141 10.5587C19.141 11.4702 19.0079 12.3844 18.7422 13.301C18.4765 14.2181 18.0695 15.097 17.5213 15.9379C16.9737 16.7787 16.3199 17.5222 15.5605 18.1677C14.8008 18.8131 13.8895 19.3287 12.8259 19.7136C11.7628 20.0991 10.6232 20.2918 9.40802 20.2918C7.52012 20.2918 5.77315 19.7815 4.16716 18.762C4.42758 18.7944 4.69899 18.8107 4.98096 18.8107C6.5544 18.8107 7.97043 18.3224 9.22919 17.3456C8.49144 17.3351 7.83213 17.1074 7.25167 16.662C6.67104 16.2172 6.26696 15.6531 6.03904 14.9694C6.32106 15.0127 6.53262 15.0342 6.67366 15.0342C6.91235 15.0342 7.18913 14.9909 7.50371 14.9043C6.71163 14.7522 6.0444 14.3592 5.50185 13.7244C4.95918 13.0896 4.68793 12.3654 4.68793 11.5516V11.5191C5.26287 11.7902 5.80542 11.9312 6.31547 11.9422C5.32803 11.2802 4.83433 10.3309 4.83433 9.09392C4.83433 8.48621 4.99156 7.91118 5.30625 7.36863C6.16338 8.42122 7.20526 9.26203 8.43124 9.89134C9.65732 10.5206 10.9704 10.8734 12.3701 10.9493C12.3159 10.7432 12.2887 10.4826 12.2887 10.1681C12.2887 9.22389 12.6224 8.41837 13.2898 7.75098C13.957 7.08365 14.7627 6.74987 15.7066 6.74987C16.7051 6.74987 17.5354 7.10805 18.1972 7.82424C18.946 7.6832 19.6733 7.40637 20.3784 6.99421C20.1072 7.82948 19.6023 8.46432 18.8648 8.89838C19.5699 8.80055 20.2262 8.61619 20.8337 8.34495C20.378 9.03936 19.8082 9.6307 19.1246 10.1192Z" fill="url(#paint0_linear_541_1643)"/>
<defs>
<linearGradient id="paint0_linear_541_1643" x1="12.5" y1="0.5" x2="12.5" y2="25.5" gradientUnits="userSpaceOnUse">
<stop stop-color="#F7F7F7"/>
<stop offset="1" stop-color="#D7D7D7"/>
</linearGradient>
</defs>
</svg>
