<svg width="40" height="40" viewBox="0 0 40 40" fill="none" xmlns="http://www.w3.org/2000/svg">
<path d="M0.00286456 8.28641C0.00122417 6.78428 1.11081 5.51248 2.59929 5.31041L16.3469 3.44405L16.3539 19.1633L0.0148437 19.256L0.00286456 8.28641ZM16.3391 20.9743L16.3516 36.7072L2.60509 34.8231C1.11963 34.6194 0.0125792 33.3504 0.0124759 31.851L0.0117188 20.8688L16.3391 20.9743ZM18.3206 3.15354L36.5631 0.499334C38.3728 0.236027 39.995 1.6393 39.995 3.46808V18.9633L18.3206 19.1346V3.15354ZM40 21.1222L39.9958 36.5493C39.9953 38.3721 38.3828 39.7732 36.5778 39.5192L18.3205 36.9504L18.2902 21.0869L40 21.1222Z" fill="url(#paint0_linear_332_135)"/>
<defs>
<linearGradient id="paint0_linear_332_135" x1="20" y1="0" x2="20" y2="40" gradientUnits="userSpaceOnUse">
<stop stop-color="#D51321"/>
<stop offset="1" stop-color="#850000"/>
</linearGradient>
</defs>
</svg>
