<svg width="80" height="79" viewBox="0 0 80 79" fill="none" xmlns="http://www.w3.org/2000/svg">
<path d="M48.4244 0.473565C49.9468 0.89029 50.9397 1.25984 51.6069 1.5885C51.8773 1.71271 52.1412 1.85075 52.3973 2.00208C52.5605 2.10456 52.7149 2.22027 52.859 2.34804C53.3175 2.77105 53.3222 3.00851 54.2913 3.60607C54.2913 3.60607 54.1127 3.53531 53.8344 3.44882L52.8163 3.13431C52.4464 3.02109 52.078 2.90629 51.7934 2.84339L51.3191 2.72545C49.256 1.97628 47.1429 1.37096 44.9952 0.913878C44.0467 0.71102 43.2435 0.55691 42.7629 0.412236C42.2886 0.292723 42.1179 0.184217 42.4341 0.0977275C43.1536 0.0237763 43.8768 -0.00825345 44.6 0.00180229C45.1613 0.00180229 45.7905 0.0599864 46.4466 0.119743C47.1127 0.195981 47.7733 0.314159 48.4244 0.473565Z" fill="url(#paint0_linear_107_1486)"/>
<path d="M41.1772 1.41709C41.7432 1.43439 41.8333 1.50515 42.3961 1.52088L40.7472 1.94075L41.1772 1.41709Z" fill="url(#paint1_linear_107_1486)"/>
<path d="M58.5109 5.35946C58.5109 5.35946 59.1607 5.67397 59.7757 6.05767L60.6373 6.55774C60.8729 6.69455 61.0215 6.79834 61.0215 6.79834C61.2855 7.00748 61.0626 6.9037 60.7796 6.7606C60.4966 6.61749 60.1378 6.46339 60.1599 6.51213L60.5773 6.80305L61.4626 7.48082C61.7788 7.72928 62.1092 7.96831 62.3353 8.17117L62.7274 8.49354L62.125 8.02178C61.9322 7.87867 61.7472 7.7513 61.5764 7.63021C61.2318 7.39119 60.9314 7.19147 60.6706 7.02007C60.1378 6.6914 59.7536 6.49326 59.4753 6.32972C58.9188 5.99477 58.7544 5.86425 58.5109 5.35946Z" fill="url(#paint2_linear_107_1486)"/>
<path d="M75.8178 36.2159C75.7277 37.2428 75.5917 36.8559 75.4178 36.131C75.2439 35.4061 75.0147 34.3383 74.8265 33.9577C74.7696 33.5473 74.7396 33.1432 74.7143 32.7909C74.6803 32.5034 74.6681 32.2138 74.6779 31.9244C74.7016 31.4999 74.825 31.4338 75.0748 32.0738C75.1285 32.3459 75.1807 32.5991 75.2328 32.8349C75.285 33.0708 75.3103 33.2894 75.3467 33.4938C75.4194 33.9011 75.4937 34.2502 75.5585 34.5632C75.6565 35.1938 75.7514 35.6812 75.8178 36.2159Z" fill="url(#paint3_linear_107_1486)"/>
<path d="M71.3152 16.3563C71.048 16.2116 70.6386 15.765 70.1421 15.2209C69.6457 14.6768 69.0734 14.0179 68.4916 13.4423C68.2054 13.1498 67.9367 12.8605 67.6774 12.6152C67.4181 12.3699 67.1747 12.1576 66.9754 11.9862C66.577 11.6528 66.3352 11.5144 66.3684 11.7031C66.4237 12.0365 66.4774 12.3651 66.9201 12.9753C66.9201 12.9753 67.0782 13.0979 67.2901 13.2898L68.0806 14.021C68.3714 14.2836 68.656 14.5557 68.8568 14.7696L69.1999 15.1187C69.643 15.6685 70.0568 16.2412 70.4394 16.8343C70.6891 17.2149 70.7966 17.4177 70.8046 17.5011C70.8125 17.5844 70.7366 17.5309 70.6054 17.413C70.4741 17.2951 70.2749 17.1142 70.071 16.9161C69.6599 16.5214 69.2046 16.0701 69.0038 16.0056C68.8031 15.9411 68.9295 16.2147 69.5999 17.3092L70.0504 17.8863C70.1753 18.0609 70.286 18.2119 70.384 18.3471C70.5456 18.57 70.7203 18.7832 70.9073 18.9856C72.4519 20.9732 72.1721 20.3206 71.6029 18.9211C72.6021 20.4795 73.1112 21.5865 73.3894 22.3807C73.6677 23.1748 73.7056 23.6639 73.7056 24.0554C73.6744 24.4247 73.6702 24.7958 73.693 25.1656C73.7266 25.4208 73.7795 25.6732 73.8511 25.9205C73.9483 26.303 74.0682 26.6795 74.21 27.048C75.1585 29.5436 75.4431 30.0138 75.715 29.9493C75.987 29.8849 76.1071 29.3203 76.417 29.932C76.2115 29.9698 76.2083 30.6066 76.2368 31.6618C76.2462 31.926 76.2636 32.2154 76.2874 32.5283C76.3111 32.8412 76.3127 33.1809 76.3253 33.541C76.3379 33.9011 76.3759 34.2754 76.3759 34.6732C76.3759 35.0711 76.3933 35.4847 76.4012 35.914C76.4243 37.8096 76.3382 39.705 76.1435 41.5909C75.9235 43.5939 75.5749 45.581 75.1 47.5398C74.7388 49.3907 74.1797 51.1979 73.4321 52.9305C73.2313 53.3724 73.0559 53.8284 72.8298 54.2656C72.6037 54.7027 72.3839 55.143 72.1594 55.5865C71.9349 56.03 71.663 56.4498 71.4132 56.887C71.1634 57.3242 70.8725 57.7377 70.6038 58.1671C68.362 61.5622 65.5036 64.7135 62.1946 67.6102C60.4862 68.8555 58.6718 69.9499 56.7719 70.8811C54.6198 71.9388 52.3736 72.7953 50.0623 73.4396C50.0468 73.401 50.0352 73.3609 50.0275 73.3201C49.9231 73.3877 49.8694 73.4459 49.8694 73.4899C49.4188 73.5465 48.8971 73.6157 48.3343 73.7289C47.7714 73.8422 47.1549 73.9271 46.5209 74.0576C45.8869 74.1881 45.2118 74.2589 44.5431 74.3721C43.8712 74.4523 43.1945 74.5294 42.5368 74.597C41.8776 74.6316 41.2405 74.6835 40.6397 74.6898C40.0389 74.6961 39.4966 74.6709 39.0176 74.6442C38.069 74.5388 37.3892 74.3878 37.1932 74.1504H36.3315C35.7146 74.1234 35.1015 74.0381 34.5008 73.8956C34.2684 73.8296 34.3332 73.7903 34.4534 73.7494C34.6968 73.6708 35.16 73.5921 33.9791 73.3217C32.0376 73.0559 29.8685 72.3294 28.003 71.5636C27.5287 71.3748 27.0781 71.1972 26.6544 71.0022C26.2307 70.8072 25.8118 70.6609 25.4324 70.5005C24.8054 70.2222 24.1473 70.0195 23.472 69.8967C23.2174 69.7001 23.6047 69.8636 23.3502 69.6655L22.906 69.4501C22.634 69.3258 22.2862 69.1355 21.94 68.9453L20.9914 68.4185L20.5693 68.159C20.2926 68.1967 19.6207 68.0206 19.959 68.4829C19.3377 68.0678 18.6943 67.8539 17.8611 67.1541C15.7695 65.4448 17.8611 66.6525 17.2097 65.9197C15.8504 64.8522 14.5814 63.6757 13.4154 62.4019C12.2145 61.0851 11.1222 59.6742 10.1491 58.1828C9.20232 56.6959 8.37856 55.135 7.68598 53.5155C7.05036 51.9803 6.54325 50.3956 6.16983 48.7774C6.49868 48.6815 6.11134 46.9171 5.80779 44.7674C5.50679 42.7108 5.35253 40.6357 5.34615 38.5574C5.53745 37.0509 5.66234 35.4988 5.89633 33.9467C5.98328 33.1605 6.13505 32.3962 6.25204 31.6209C6.31528 31.2341 6.41014 30.8551 6.48129 30.473C6.55243 30.0909 6.6299 29.7103 6.73108 29.3392C6.83226 28.9681 6.91921 28.5954 7.01249 28.2274C7.10577 27.8594 7.23224 27.5056 7.34133 27.1518C7.54686 26.4347 7.83143 25.7679 8.08439 25.1075C8.36264 24.4643 8.65986 23.8494 8.96815 23.288C9.27128 22.7545 9.60763 22.2403 9.97522 21.7485C9.47722 23.0301 8.60136 24.6483 8.02115 26.1107C7.94526 26.2916 7.86305 26.4677 7.79665 26.6391L7.61326 27.1471C7.49627 27.4741 7.3935 27.7761 7.31129 28.0371C7.1532 28.5686 7.11051 28.9618 7.17849 29.1175L7.46307 28.5608C7.59745 28.2809 7.76345 28.0135 7.76345 28.0135C8.39146 26.5352 9.09918 25.0916 9.88353 23.689C10.0891 23.3321 10.2851 22.9814 10.4653 22.6417C10.6456 22.302 10.8432 21.9923 10.9997 21.6888C11.2764 21.1959 11.5163 20.6834 11.7175 20.1555C11.4455 20.4354 11.2258 20.6446 11.0392 20.8066C10.8993 20.94 10.7515 21.0649 10.5965 21.1808C10.3483 21.3617 10.1728 21.4387 9.94993 21.6117C10.2298 21.0472 10.3468 20.6855 10.5143 20.3065C10.7399 19.8012 11.0042 19.3138 11.3048 18.8487C11.6479 18.377 11.9925 17.8895 12.353 17.4523C12.7135 17.0152 13.0739 16.6142 13.398 16.2808C14.0684 15.6345 14.5727 15.2382 14.6928 15.353C14.315 15.8656 13.8565 16.3342 13.4281 16.8202C12.9996 17.3061 12.5743 17.7637 12.2502 18.2354C12.2613 18.377 12.4241 18.2779 12.6739 18.0389C12.9237 17.7999 13.2953 17.4429 13.681 17.0293C14.0668 16.6157 14.5189 16.1896 14.911 15.787C15.3031 15.3844 15.7015 15.0668 15.9544 14.8435C14.8098 15.3844 15.292 14.4802 15.4612 13.9393C15.545 13.6704 15.5497 13.5005 15.2035 13.6625C14.9213 13.8173 14.6531 13.9962 14.4019 14.1972C13.8866 14.5937 13.3951 15.0201 12.9301 15.4741L13.3 15.029C13.5213 14.7633 13.8122 14.4 14.1316 14.0666L14.9964 13.1231L15.4264 12.7394C15.8264 12.123 15.4422 12.2818 14.6913 12.8039C14.326 13.0744 13.8818 13.4486 13.3996 13.8559C12.9174 14.2632 12.451 14.7491 11.9672 15.1973C11.5167 15.6691 11.0772 16.1141 10.7025 16.4836C10.447 16.7747 10.1713 17.0474 9.8772 17.2998C9.50726 17.5907 9.53413 17.2652 10.3989 15.8106C10.5286 15.4772 10.3989 15.4442 10.3989 15.2602C10.4174 15.1005 10.4714 14.9468 10.557 14.8104C10.7482 14.4524 10.9731 14.1133 11.2289 13.7977C11.093 13.8889 10.9475 14.0006 10.7957 14.1264C10.644 14.2522 10.5001 14.4032 10.3468 14.5604C10.0432 14.8749 9.71437 15.224 9.43137 15.5904C8.86855 16.3342 8.36264 17.0828 8.15395 17.5734C7.39508 18.1081 6.03861 20.2058 4.99201 22.2549C4.45132 23.2707 4.01814 24.2835 3.62448 25.021C3.26876 25.7742 2.96363 26.2617 2.75178 26.2523C2.63637 26.6596 2.55732 27.0637 2.46404 27.449C2.37077 27.8343 2.27433 28.2038 2.18421 28.5655C2.02612 29.2951 1.85221 29.9713 1.69728 30.6224C1.54234 31.2734 1.39057 31.8977 1.24828 32.5094C1.10599 33.1211 0.973192 33.7124 0.834067 34.3021C0.694941 34.8918 0.59534 35.4863 0.478349 36.0854C0.361357 36.6845 0.287052 37.3041 0.195355 37.9426C0.103659 38.581 0.0720398 39.2446 0.0246108 39.9444C-0.0228183 40.6442 0.0103821 41.3801 0.0246108 42.1633C0.0989163 43.154 0.160574 43.9418 0.25227 44.5598C0.343966 45.1778 0.432501 45.6292 0.506806 45.9547C0.664903 46.6073 0.788218 46.7551 0.876753 46.7299C1.06647 46.6749 1.19295 45.9437 1.63246 46.991C1.76787 47.9472 1.96966 48.893 2.23639 49.8216C2.50342 50.7009 2.82012 51.5645 3.18497 52.4084C3.78145 53.7814 4.48117 55.1076 5.27817 56.3759C5.50267 56.8477 5.73665 57.2628 5.89475 57.6261C6.05284 57.9894 6.16983 58.2834 6.23782 58.48C6.37694 58.8731 6.25837 58.9109 5.85522 58.3227C9.46615 65.4353 15.5687 71.4315 22.9487 75.0326C24.7946 75.9375 26.7105 76.6937 28.6781 77.2939C30.6508 77.8892 32.666 78.3355 34.7063 78.629C36.7453 78.8984 38.8011 79.0214 40.8579 78.997C42.9123 78.9486 44.9606 78.7547 46.9873 78.4167C50.3279 78.0723 53.4471 77.0376 56.3845 75.7324C59.3251 74.4004 62.076 72.8027 65.0119 71.15L64.0285 71.6846C63.842 71.7004 64.5028 71.172 65.0071 70.7285C64.0301 71.2569 63.091 71.7491 62.1535 72.1438C62.9882 71.6469 63.7787 71.0761 64.574 70.5115C65.3391 69.9092 66.1107 69.3164 66.8094 68.6528C67.4055 67.7171 69.3754 65.8128 71.1223 63.6002C72.8693 61.3876 74.376 58.9014 74.6922 57.5475C75.0305 56.9798 75.2882 56.4357 75.5443 55.9482C75.6692 55.7029 75.7941 55.4764 75.9048 55.2453C76.0154 55.0141 76.1087 54.8002 76.2051 54.5942C76.3949 54.1791 76.5751 53.808 76.7269 53.462C76.8786 53.116 77.002 52.8015 77.1221 52.5185L77.4573 51.7322L77.7165 51.0607L78.1719 49.9191L78.5782 48.7507L78.8074 48.0556L79.0319 47.219C79.111 46.9045 79.19 46.5758 79.2928 46.2031C79.3955 45.8304 79.4509 45.4169 79.5378 44.9545C79.5821 44.7249 79.6264 44.4828 79.6738 44.2312C79.7212 43.9796 79.7465 43.7107 79.7845 43.4307C79.8524 42.8709 79.9568 42.2592 79.9947 41.583C80.0437 38.468 79.7511 35.3569 79.122 32.305C78.4246 29.0131 77.3812 25.8032 76.0091 22.7282C75.0194 20.4763 74.0487 18.4179 74.3902 18.6883C74.191 18.3738 73.9791 18.0389 73.7578 17.6929C73.5365 17.347 73.2835 17.0057 73.0369 16.6456C72.5626 15.9191 71.9776 15.2099 71.429 14.4771C70.3365 13.1201 69.1662 11.8269 67.924 10.6039C67.6205 10.3224 67.3217 10.0771 67.0403 9.85222L66.2609 9.2232C65.7771 8.84422 65.3439 8.56116 64.9961 8.31899C64.5899 8.00659 64.1445 7.74809 63.6712 7.55001C63.4768 7.4934 63.5131 7.6082 63.7281 7.84408C63.8341 7.96202 63.9827 8.11141 64.1661 8.28596C64.3495 8.46052 64.555 8.68067 64.7985 8.91498C65.7723 9.81919 67.0751 11.1669 68.3019 12.5413L69.1888 13.5823C69.4813 13.9204 69.739 14.2742 70.0014 14.5982C70.5295 15.2445 70.9548 15.8688 71.3152 16.3563Z" fill="url(#paint4_linear_107_1486)"/>
<path d="M9.74124 55.2107C10.2503 55.3978 9.09146 52.8959 8.94285 51.9775L8.64879 51.4413L8.38319 50.8925C8.23563 50.5413 8.09967 50.2341 7.9753 49.971C7.86147 49.7036 7.76345 49.4756 7.67175 49.29C7.48994 48.9174 7.35556 48.7098 7.25122 48.6516C7.05518 48.5336 7.03779 49.018 7.22592 49.9945C7.42119 50.2587 7.5876 50.5429 7.72234 50.8421L8.35473 52.2433L8.70255 53.0296C8.82112 53.2953 8.95392 53.5548 9.07249 53.8158C9.19106 54.0769 9.30489 54.3238 9.41398 54.5596L9.74124 55.2107Z" fill="url(#paint5_linear_107_1486)"/>
<path d="M28.3856 70.9094L27.8686 71.1154L28.4394 71.3025C28.7777 71.4252 29.2425 71.5494 29.7041 71.6752C30.1658 71.801 30.6274 71.9331 30.9815 72.0023L31.5665 72.1312C31.546 72.0007 31.0827 71.834 30.4598 71.6312C29.8464 71.3953 29.0512 71.1861 28.3856 70.9094Z" fill="url(#paint6_linear_107_1486)"/>
<path d="M24.1929 6.07654C22.4095 6.86281 21.189 7.49183 19.9511 8.14758C18.7449 8.85365 17.5006 9.59275 15.9544 10.9782L16.9868 11.0065C20.2784 8.77188 24.0775 7.04365 28.4615 5.54974C29.8575 4.76346 28.4615 5.0135 26.8979 5.49942C26.5011 5.60478 26.1074 5.75731 25.7359 5.87683C25.3644 5.99634 25.0166 6.10485 24.743 6.19134C24.1929 6.36589 23.9067 6.3879 24.1929 6.07654Z" fill="url(#paint7_linear_107_1486)"/>
<path d="M16.2438 9.544C17.6511 8.25248 19.1953 7.11674 20.8491 6.15674C22.5518 5.19379 24.3298 4.36919 26.1659 3.69099C27.9872 3.00064 29.8164 2.50372 31.5665 2.04611C32.0081 1.94127 32.4418 1.83172 32.8676 1.71745C33.2961 1.61051 33.7229 1.5256 34.1324 1.42181C34.964 1.20165 35.7782 1.04912 36.5545 0.833678C36.3205 0.657553 35.9426 0.547475 35.4478 0.490863C34.8576 0.430153 34.2622 0.438598 33.6739 0.516024C32.319 0.63082 30.6495 1.0444 28.9358 1.59793C27.222 2.19442 25.5463 2.89391 23.9178 3.69256C22.3589 4.47883 20.9566 5.21793 19.8563 5.73687L18.9077 6.3879C18.6105 6.6002 18.3354 6.82192 18.0603 7.0295C17.7852 7.23708 17.518 7.44308 17.2556 7.65852L16.4809 8.31584C15.2561 9.35579 14.0882 10.4603 12.9822 11.6245C12.0668 12.7693 12.4921 12.5224 13.3142 11.8383L14.7909 10.6479C15.3205 10.2312 15.8564 9.84121 16.2438 9.544Z" fill="url(#paint8_linear_107_1486)"/>
<path d="M38.5797 1.45012C39.3812 1.43753 40.3045 1.37463 40.7677 1.32903C41.3432 1.20165 39.8492 1.07585 39.1473 0.973634C38.652 0.982623 38.1606 1.06206 37.688 1.20952C37.3544 1.32746 37.4208 1.44225 38.5797 1.45012Z" fill="url(#paint9_linear_107_1486)"/>
<path d="M17.9636 32.6421C18.7904 33.76 18.7016 35.4389 18.2996 36.7493C16.9176 41.1838 17.9607 43.9585 19.9787 45.9797C17.9607 45.2006 14.9942 44.0524 15 40.4647C15.0023 37.6674 18.0745 35.2231 17.9636 32.6421ZM29.5501 14C27.1412 15.9611 27.8432 18.412 29.2699 20.5776C31.8924 24.5747 32.5364 27.8463 31.64 30.9134C34.4069 28.5487 35.6085 24.8927 33.6213 22.0787C31.984 19.7622 28.3845 17.4564 29.5501 14ZM46.3758 22.0787C44.3892 24.8927 45.5908 28.5487 48.3536 30.9134C47.3934 27.6074 48.2202 24.066 51.3782 19.6285C52.7521 17.7095 51.7501 15.0602 50.4458 14C51.6132 17.4564 48.0136 19.7622 46.3763 22.0787H46.3758ZM62.0335 32.6421C61.2067 33.7588 61.2955 35.4389 61.7004 36.7493C63.0825 41.1838 62.0335 43.9585 60.0213 45.9797C62.0393 45.2006 65.0058 44.0524 65 40.4647C64.9953 37.6674 61.9232 35.2231 62.034 32.6421H62.0335Z" fill="url(#paint10_linear_107_1486)"/>
<path d="M20.0146 50.4398C22.2733 52.5543 25.6454 52.8413 27.469 52.02C29.0065 51.3235 29.4335 49.5638 27.8322 48.8507C40.9034 52.4325 24.38 59.136 20.0146 50.4398Z" fill="url(#paint11_linear_107_1486)"/>
<path d="M59.9802 50.4398C57.7209 52.5543 54.3488 52.8413 52.5258 52.02C50.9883 51.3235 50.5607 49.5638 52.162 48.8507C39.0908 52.4325 55.6148 59.136 59.9802 50.4398Z" fill="url(#paint12_linear_107_1486)"/>
<path d="M58.7623 34.444C63.9574 43.8504 55.9287 47.8155 52.1655 48.8507C39.0856 52.4325 55.6177 59.1378 59.9802 50.4398C58.7507 57.9243 52.0181 59.7974 45.7433 56.3464C41.9303 54.2516 42.2303 57.5403 43.3791 59.1919C44.6276 60.9747 46.4593 62.1455 48.7406 62.4806C47.4694 63.507 46.1152 64.3568 44.6474 64.9653C42.999 63.9105 41.9083 62.4325 41.4029 60.5136C41.4447 62.3927 41.8166 64.105 42.5186 65.6506C41.6908 65.8454 40.8474 65.9624 39.9988 66C39.1512 65.9623 38.3088 65.8453 37.482 65.6506C38.1871 64.1054 38.559 62.3931 38.5977 60.5136C38.0871 62.4325 37.0016 63.9105 35.3532 64.9653C33.8853 64.3568 32.5312 63.507 31.26 62.4806C33.5413 62.1455 35.3729 60.9741 36.6215 59.1919C37.7703 57.5403 38.0645 54.2516 34.2572 56.3464C27.9824 59.7974 21.2499 57.9243 20.0175 50.4398C24.3829 59.1378 40.9045 52.4325 27.8351 48.8507C24.0719 47.816 16.0432 43.8504 21.2383 34.444C23.7667 29.8757 27.3077 27.4255 25.9645 21.0524C28.0602 21.8428 29.0506 24.2336 29.2136 26.2821C29.3714 28.2914 28.3752 30.7392 27.2705 33.8093C25.3611 38.0591 23.5132 43.136 28.6555 45.3046C31.9922 46.7154 38.3743 47.324 39.9988 50.7637C41.6234 47.324 48.0055 46.7154 51.344 45.3028C56.481 43.1343 54.6383 38.0573 52.7289 33.8075C51.6265 30.7345 50.628 28.2896 50.7858 26.2803C50.95 24.2336 51.9404 21.8428 54.0303 21.0506C52.6929 27.4255 56.2338 29.8757 58.7623 34.444Z" fill="url(#paint13_linear_107_1486)"/>
<path d="M47.3923 39.4925C50.8224 43.2252 54.8768 39.8027 52.73 33.8075C54.6395 38.0573 56.4822 43.1343 51.3451 45.3028C48.0055 46.7154 41.6234 47.324 39.9988 50.7637C38.3743 47.324 31.9922 46.7154 28.6537 45.3028C23.5115 43.1343 25.3594 38.0573 27.2688 33.8075C25.118 39.8027 29.1753 43.2252 32.6002 39.4925C32.9582 40.6751 32.7197 41.7894 32.0148 42.8526C37.8672 42.0313 39.9959 32.619 33.5813 37.2586C33.4873 30.4391 42.0568 32.7925 45.0988 29.6285C44.8545 31.951 43.8972 33.6025 42.4066 34.7257C41.7081 37.7417 44.1948 42.3177 47.9829 42.8526C47.278 41.7894 47.0395 40.6751 47.3923 39.4925ZM36.097 34.0845C37.1629 34.721 37.9038 34.4624 38.2896 33.2572C37.562 33.5322 36.8312 33.8075 36.097 34.0833V34.0845Z" fill="url(#paint14_linear_107_1486)"/>
<defs>
<linearGradient id="paint0_linear_107_1486" x1="40" y1="0" x2="40" y2="79" gradientUnits="userSpaceOnUse">
<stop stop-color="#D51321"/>
<stop offset="1" stop-color="#850000"/>
</linearGradient>
<linearGradient id="paint1_linear_107_1486" x1="40" y1="0" x2="40" y2="79" gradientUnits="userSpaceOnUse">
<stop stop-color="#D51321"/>
<stop offset="1" stop-color="#850000"/>
</linearGradient>
<linearGradient id="paint2_linear_107_1486" x1="40" y1="0" x2="40" y2="79" gradientUnits="userSpaceOnUse">
<stop stop-color="#D51321"/>
<stop offset="1" stop-color="#850000"/>
</linearGradient>
<linearGradient id="paint3_linear_107_1486" x1="40" y1="0" x2="40" y2="79" gradientUnits="userSpaceOnUse">
<stop stop-color="#D51321"/>
<stop offset="1" stop-color="#850000"/>
</linearGradient>
<linearGradient id="paint4_linear_107_1486" x1="40" y1="0" x2="40" y2="79" gradientUnits="userSpaceOnUse">
<stop stop-color="#D51321"/>
<stop offset="1" stop-color="#850000"/>
</linearGradient>
<linearGradient id="paint5_linear_107_1486" x1="40" y1="0" x2="40" y2="79" gradientUnits="userSpaceOnUse">
<stop stop-color="#D51321"/>
<stop offset="1" stop-color="#850000"/>
</linearGradient>
<linearGradient id="paint6_linear_107_1486" x1="40" y1="0" x2="40" y2="79" gradientUnits="userSpaceOnUse">
<stop stop-color="#D51321"/>
<stop offset="1" stop-color="#850000"/>
</linearGradient>
<linearGradient id="paint7_linear_107_1486" x1="40" y1="0" x2="40" y2="79" gradientUnits="userSpaceOnUse">
<stop stop-color="#D51321"/>
<stop offset="1" stop-color="#850000"/>
</linearGradient>
<linearGradient id="paint8_linear_107_1486" x1="40" y1="0" x2="40" y2="79" gradientUnits="userSpaceOnUse">
<stop stop-color="#D51321"/>
<stop offset="1" stop-color="#850000"/>
</linearGradient>
<linearGradient id="paint9_linear_107_1486" x1="40" y1="0" x2="40" y2="79" gradientUnits="userSpaceOnUse">
<stop stop-color="#D51321"/>
<stop offset="1" stop-color="#850000"/>
</linearGradient>
<linearGradient id="paint10_linear_107_1486" x1="40" y1="14" x2="40" y2="66" gradientUnits="userSpaceOnUse">
<stop stop-color="#D51321"/>
<stop offset="1" stop-color="#850000"/>
</linearGradient>
<linearGradient id="paint11_linear_107_1486" x1="40" y1="14" x2="40" y2="66" gradientUnits="userSpaceOnUse">
<stop stop-color="#D51321"/>
<stop offset="1" stop-color="#850000"/>
</linearGradient>
<linearGradient id="paint12_linear_107_1486" x1="40" y1="14" x2="40" y2="66" gradientUnits="userSpaceOnUse">
<stop stop-color="#D51321"/>
<stop offset="1" stop-color="#850000"/>
</linearGradient>
<linearGradient id="paint13_linear_107_1486" x1="40" y1="14" x2="40" y2="66" gradientUnits="userSpaceOnUse">
<stop stop-color="#D51321"/>
<stop offset="1" stop-color="#850000"/>
</linearGradient>
<linearGradient id="paint14_linear_107_1486" x1="40" y1="14" x2="40" y2="66" gradientUnits="userSpaceOnUse">
<stop stop-color="#D51321"/>
<stop offset="1" stop-color="#850000"/>
</linearGradient>
</defs>
</svg>
